<?xml version="1.0" encoding="us-ascii" standalone="no"?><svg xmlns="http://www.w3.org/2000/svg" xmlns:xlink="http://www.w3.org/1999/xlink" contentStyleType="text/css" height="708px" preserveAspectRatio="none" style="width:889px;height:708px;background:#FFFFFF;" version="1.1" viewBox="0 0 889 708" width="889px" zoomAndPan="magnify"><defs/><g><rect fill="#FFFFFF" height="462.4688" style="stroke:#181818;stroke-width:1.0;" width="10" x="490" y="155.5625"/><rect fill="#FFFFFF" height="29.1328" style="stroke:#181818;stroke-width:1.0;" width="10" x="798" y="242.9609"/><rect fill="#FFFFFF" height="29.1328" style="stroke:#181818;stroke-width:1.0;" width="10" x="798" y="493.8281"/><rect fill="none" height="323.9375" style="stroke:#000000;stroke-width:1.5;" width="862" x="10" y="287.0938"/><rect fill="none" height="148.4688" style="stroke:#000000;stroke-width:1.5;" width="842" x="20" y="455.5625"/><line style="stroke:#181818;stroke-width:0.5;stroke-dasharray:5.0,5.0;" x1="85" x2="85" y1="81.2969" y2="628.0313"/><line style="stroke:#181818;stroke-width:0.5;stroke-dasharray:5.0,5.0;" x1="495" x2="495" y1="81.2969" y2="628.0313"/><line style="stroke:#181818;stroke-width:0.5;stroke-dasharray:5.0,5.0;" x1="803" x2="803" y1="81.2969" y2="628.0313"/><text fill="#000000" font-family="sans-serif" font-size="14" lengthAdjust="spacing" textLength="104" x="30" y="77.9951">&#1055;&#1086;&#1083;&#1100;&#1079;&#1086;&#1074;&#1072;&#1090;&#1077;&#1083;&#1100;</text><ellipse cx="85" cy="13.5" fill="#E2E2F0" rx="8" ry="8" style="stroke:#181818;stroke-width:0.5;"/><path d="M85,21.5 L85,48.5 M72,29.5 L98,29.5 M85,48.5 L72,63.5 M85,48.5 L98,63.5 " fill="none" style="stroke:#181818;stroke-width:0.5;"/><text fill="#000000" font-family="sans-serif" font-size="14" lengthAdjust="spacing" textLength="104" x="30" y="640.0264">&#1055;&#1086;&#1083;&#1100;&#1079;&#1086;&#1074;&#1072;&#1090;&#1077;&#1083;&#1100;</text><ellipse cx="85" cy="651.8281" fill="#E2E2F0" rx="8" ry="8" style="stroke:#181818;stroke-width:0.5;"/><path d="M85,659.8281 L85,686.8281 M72,667.8281 L98,667.8281 M85,686.8281 L72,701.8281 M85,686.8281 L98,701.8281 " fill="none" style="stroke:#181818;stroke-width:0.5;"/><text fill="#000000" font-family="sans-serif" font-size="14" lengthAdjust="spacing" textLength="194" x="395" y="77.9951">&#1057;&#1080;&#1089;&#1090;&#1077;&#1084;&#1072; &#1040;&#1091;&#1090;&#1077;&#1085;&#1090;&#1080;&#1092;&#1080;&#1082;&#1072;&#1094;&#1080;&#1080;</text><ellipse cx="495" cy="49" fill="#E2E2F0" rx="12" ry="12" style="stroke:#181818;stroke-width:0.5;"/><line style="stroke:#181818;stroke-width:0.5;" x1="483" x2="507" y1="63" y2="63"/><text fill="#000000" font-family="sans-serif" font-size="14" lengthAdjust="spacing" textLength="194" x="395" y="640.0264">&#1057;&#1080;&#1089;&#1090;&#1077;&#1084;&#1072; &#1040;&#1091;&#1090;&#1077;&#1085;&#1090;&#1080;&#1092;&#1080;&#1082;&#1072;&#1094;&#1080;&#1080;</text><ellipse cx="495" cy="659.3281" fill="#E2E2F0" rx="12" ry="12" style="stroke:#181818;stroke-width:0.5;"/><line style="stroke:#181818;stroke-width:0.5;" x1="483" x2="507" y1="673.3281" y2="673.3281"/><text fill="#000000" font-family="sans-serif" font-size="14" lengthAdjust="spacing" textLength="92" x="754" y="77.9951">&#1041;&#1072;&#1079;&#1072; &#1076;&#1072;&#1085;&#1085;&#1099;&#1093;</text><path d="M785,29 C785,19 803,19 803,19 C803,19 821,19 821,29 L821,55 C821,65 803,65 803,65 C803,65 785,65 785,55 L785,29 " fill="#E2E2F0" style="stroke:#181818;stroke-width:1.5;"/><path d="M785,29 C785,39 803,39 803,39 C803,39 821,39 821,29 " fill="none" style="stroke:#181818;stroke-width:1.5;"/><text fill="#000000" font-family="sans-serif" font-size="14" lengthAdjust="spacing" textLength="92" x="754" y="640.0264">&#1041;&#1072;&#1079;&#1072; &#1076;&#1072;&#1085;&#1085;&#1099;&#1093;</text><path d="M785,653.3281 C785,643.3281 803,643.3281 803,643.3281 C803,643.3281 821,643.3281 821,653.3281 L821,679.3281 C821,689.3281 803,689.3281 803,689.3281 C803,689.3281 785,689.3281 785,679.3281 L785,653.3281 " fill="#E2E2F0" style="stroke:#181818;stroke-width:1.5;"/><path d="M785,653.3281 C785,663.3281 803,663.3281 803,663.3281 C803,663.3281 821,663.3281 821,653.3281 " fill="none" style="stroke:#181818;stroke-width:1.5;"/><rect fill="#FFFFFF" height="462.4688" style="stroke:#181818;stroke-width:1.0;" width="10" x="490" y="155.5625"/><rect fill="#FFFFFF" height="29.1328" style="stroke:#181818;stroke-width:1.0;" width="10" x="798" y="242.9609"/><rect fill="#FFFFFF" height="29.1328" style="stroke:#181818;stroke-width:1.0;" width="10" x="798" y="493.8281"/><rect fill="#EEEEEE" height="3" style="stroke:#EEEEEE;stroke-width:1.0;" width="882" x="0" y="111.8633"/><line style="stroke:#000000;stroke-width:1.0;" x1="0" x2="882" y1="111.8633" y2="111.8633"/><line style="stroke:#000000;stroke-width:1.0;" x1="0" x2="882" y1="114.8633" y2="114.8633"/><rect fill="#EEEEEE" height="23.1328" style="stroke:#000000;stroke-width:2.0;" width="226" x="328" y="101.2969"/><text fill="#000000" font-family="sans-serif" font-size="13" font-weight="bold" lengthAdjust="spacing" textLength="207" x="334" y="117.3638">&#1056;&#1077;&#1075;&#1080;&#1089;&#1090;&#1088;&#1072;&#1094;&#1080;&#1103; &#1087;&#1086;&#1083;&#1100;&#1079;&#1086;&#1074;&#1072;&#1090;&#1077;&#1083;&#1103;</text><polygon fill="#181818" points="478,151.5625,488,155.5625,478,159.5625,482,155.5625" style="stroke:#181818;stroke-width:1.0;"/><line style="stroke:#181818;stroke-width:1.0;" x1="85" x2="484" y1="155.5625" y2="155.5625"/><text fill="#000000" font-family="sans-serif" font-size="13" lengthAdjust="spacing" textLength="180" x="92" y="150.4966">&#1042;&#1099;&#1073;&#1086;&#1088; &#1086;&#1087;&#1094;&#1080;&#1080; &#1088;&#1077;&#1075;&#1080;&#1089;&#1090;&#1088;&#1072;&#1094;&#1080;&#1080;</text><polygon fill="#181818" points="96,180.6953,86,184.6953,96,188.6953,92,184.6953" style="stroke:#181818;stroke-width:1.0;"/><line style="stroke:#181818;stroke-width:1.0;" x1="90" x2="489" y1="184.6953" y2="184.6953"/><text fill="#000000" font-family="sans-serif" font-size="13" lengthAdjust="spacing" textLength="210" x="102" y="179.6294">&#1047;&#1072;&#1087;&#1088;&#1086;&#1089; &#1076;&#1072;&#1085;&#1085;&#1099;&#1093; (&#1080;&#1084;&#1103;, &#1090;&#1077;&#1083;&#1077;&#1092;&#1086;&#1085;)</text><polygon fill="#181818" points="478,209.8281,488,213.8281,478,217.8281,482,213.8281" style="stroke:#181818;stroke-width:1.0;"/><line style="stroke:#181818;stroke-width:1.0;" x1="85" x2="484" y1="213.8281" y2="213.8281"/><text fill="#000000" font-family="sans-serif" font-size="13" lengthAdjust="spacing" textLength="90" x="92" y="208.7622">&#1042;&#1074;&#1086;&#1076; &#1076;&#1072;&#1085;&#1085;&#1099;&#1093;</text><polygon fill="#181818" points="786,238.9609,796,242.9609,786,246.9609,790,242.9609" style="stroke:#181818;stroke-width:1.0;"/><line style="stroke:#181818;stroke-width:1.0;" x1="500" x2="792" y1="242.9609" y2="242.9609"/><text fill="#000000" font-family="sans-serif" font-size="13" lengthAdjust="spacing" textLength="279" x="507" y="237.895">&#1055;&#1088;&#1086;&#1074;&#1077;&#1088;&#1082;&#1072;, &#1095;&#1090;&#1086; &#1090;&#1077;&#1083;&#1077;&#1092;&#1086;&#1085; &#1085;&#1077; &#1080;&#1089;&#1087;&#1086;&#1083;&#1100;&#1079;&#1091;&#1077;&#1090;&#1089;&#1103;</text><polygon fill="#181818" points="511,268.0938,501,272.0938,511,276.0938,507,272.0938" style="stroke:#181818;stroke-width:1.0;"/><line style="stroke:#181818;stroke-width:1.0;" x1="505" x2="802" y1="272.0938" y2="272.0938"/><text fill="#000000" font-family="sans-serif" font-size="13" lengthAdjust="spacing" textLength="140" x="517" y="267.0278">&#1056;&#1077;&#1079;&#1091;&#1083;&#1100;&#1090;&#1072;&#1090; &#1087;&#1088;&#1086;&#1074;&#1077;&#1088;&#1082;&#1080;</text><path d="M10,287.0938 L74,287.0938 L74,294.2266 L64,304.2266 L10,304.2266 L10,287.0938 " fill="#EEEEEE" style="stroke:#000000;stroke-width:1.5;"/><rect fill="none" height="323.9375" style="stroke:#000000;stroke-width:1.5;" width="862" x="10" y="287.0938"/><text fill="#000000" font-family="sans-serif" font-size="13" font-weight="bold" lengthAdjust="spacing" textLength="19" x="25" y="300.1606">alt</text><text fill="#000000" font-family="sans-serif" font-size="11" font-weight="bold" lengthAdjust="spacing" textLength="223" x="89" y="299.3042">[&#1077;&#1089;&#1083;&#1080; &#1090;&#1077;&#1083;&#1077;&#1092;&#1086;&#1085; &#1091;&#1078;&#1077; &#1080;&#1089;&#1087;&#1086;&#1083;&#1100;&#1079;&#1091;&#1077;&#1090;&#1089;&#1103;]</text><polygon fill="#181818" points="96,321.3594,86,325.3594,96,329.3594,92,325.3594" style="stroke:#181818;stroke-width:1.0;"/><line style="stroke:#181818;stroke-width:1.0;" x1="90" x2="489" y1="325.3594" y2="325.3594"/><text fill="#000000" font-family="sans-serif" font-size="13" lengthAdjust="spacing" textLength="352" x="102" y="320.2935">&#1057;&#1086;&#1086;&#1073;&#1097;&#1077;&#1085;&#1080;&#1077; &#1086;&#1073; &#1086;&#1096;&#1080;&#1073;&#1082;&#1077; "&#1058;&#1077;&#1083;&#1077;&#1092;&#1086;&#1085; &#1091;&#1078;&#1077; &#1080;&#1089;&#1087;&#1086;&#1083;&#1100;&#1079;&#1091;&#1077;&#1090;&#1089;&#1103;"</text><line style="stroke:#000000;stroke-width:1.0;stroke-dasharray:2.0,2.0;" x1="10" x2="872" y1="334.3594" y2="334.3594"/><text fill="#000000" font-family="sans-serif" font-size="11" font-weight="bold" lengthAdjust="spacing" textLength="169" x="15" y="344.5698">[&#1077;&#1089;&#1083;&#1080; &#1090;&#1077;&#1083;&#1077;&#1092;&#1086;&#1085; &#1089;&#1074;&#1086;&#1073;&#1086;&#1076;&#1077;&#1085;]</text><polygon fill="#181818" points="96,365.2969,86,369.2969,96,373.2969,92,369.2969" style="stroke:#181818;stroke-width:1.0;"/><line style="stroke:#181818;stroke-width:1.0;" x1="90" x2="489" y1="369.2969" y2="369.2969"/><text fill="#000000" font-family="sans-serif" font-size="13" lengthAdjust="spacing" textLength="275" x="102" y="364.231">&#1054;&#1090;&#1087;&#1088;&#1072;&#1074;&#1082;&#1072; SMS &#1089; &#1082;&#1086;&#1076;&#1086;&#1084; &#1087;&#1086;&#1076;&#1090;&#1074;&#1077;&#1088;&#1078;&#1076;&#1077;&#1085;&#1080;&#1103;</text><polygon fill="#181818" points="478,394.4297,488,398.4297,478,402.4297,482,398.4297" style="stroke:#181818;stroke-width:1.0;"/><line style="stroke:#181818;stroke-width:1.0;" x1="85" x2="484" y1="398.4297" y2="398.4297"/><text fill="#000000" font-family="sans-serif" font-size="13" lengthAdjust="spacing" textLength="190" x="92" y="393.3638">&#1042;&#1074;&#1086;&#1076; &#1082;&#1086;&#1076;&#1072; &#1087;&#1086;&#1076;&#1090;&#1074;&#1077;&#1088;&#1078;&#1076;&#1077;&#1085;&#1080;&#1103;</text><line style="stroke:#181818;stroke-width:1.0;" x1="500" x2="542" y1="427.5625" y2="427.5625"/><line style="stroke:#181818;stroke-width:1.0;" x1="542" x2="542" y1="427.5625" y2="440.5625"/><line style="stroke:#181818;stroke-width:1.0;" x1="501" x2="542" y1="440.5625" y2="440.5625"/><polygon fill="#181818" points="511,436.5625,501,440.5625,511,444.5625,507,440.5625" style="stroke:#181818;stroke-width:1.0;"/><text fill="#000000" font-family="sans-serif" font-size="13" lengthAdjust="spacing" textLength="220" x="507" y="422.4966">&#1055;&#1088;&#1086;&#1074;&#1077;&#1088;&#1082;&#1072; &#1082;&#1086;&#1076;&#1072; &#1087;&#1086;&#1076;&#1090;&#1074;&#1077;&#1088;&#1078;&#1076;&#1077;&#1085;&#1080;&#1103;</text><path d="M20,455.5625 L84,455.5625 L84,462.6953 L74,472.6953 L20,472.6953 L20,455.5625 " fill="#EEEEEE" style="stroke:#000000;stroke-width:1.5;"/><rect fill="none" height="148.4688" style="stroke:#000000;stroke-width:1.5;" width="842" x="20" y="455.5625"/><text fill="#000000" font-family="sans-serif" font-size="13" font-weight="bold" lengthAdjust="spacing" textLength="19" x="35" y="468.6294">alt</text><text fill="#000000" font-family="sans-serif" font-size="11" font-weight="bold" lengthAdjust="spacing" textLength="122" x="99" y="467.7729">[&#1077;&#1089;&#1083;&#1080; &#1082;&#1086;&#1076; &#1074;&#1077;&#1088;&#1085;&#1099;&#1081;]</text><polygon fill="#181818" points="786,489.8281,796,493.8281,786,497.8281,790,493.8281" style="stroke:#181818;stroke-width:1.0;"/><line style="stroke:#181818;stroke-width:1.0;" x1="500" x2="792" y1="493.8281" y2="493.8281"/><text fill="#000000" font-family="sans-serif" font-size="13" lengthAdjust="spacing" textLength="239" x="507" y="488.7622">&#1056;&#1077;&#1075;&#1080;&#1089;&#1090;&#1088;&#1072;&#1094;&#1080;&#1103; &#1085;&#1086;&#1074;&#1086;&#1075;&#1086; &#1087;&#1086;&#1083;&#1100;&#1079;&#1086;&#1074;&#1072;&#1090;&#1077;&#1083;&#1103;</text><polygon fill="#181818" points="511,518.9609,501,522.9609,511,526.9609,507,522.9609" style="stroke:#181818;stroke-width:1.0;"/><line style="stroke:#181818;stroke-width:1.0;" x1="505" x2="802" y1="522.9609" y2="522.9609"/><text fill="#000000" font-family="sans-serif" font-size="13" lengthAdjust="spacing" textLength="219" x="517" y="517.895">&#1055;&#1086;&#1083;&#1100;&#1079;&#1086;&#1074;&#1072;&#1090;&#1077;&#1083;&#1100; &#1079;&#1072;&#1088;&#1077;&#1075;&#1080;&#1089;&#1090;&#1088;&#1080;&#1088;&#1086;&#1074;&#1072;&#1085;</text><polygon fill="#181818" points="96,548.0938,86,552.0938,96,556.0938,92,552.0938" style="stroke:#181818;stroke-width:1.0;"/><line style="stroke:#181818;stroke-width:1.0;" x1="90" x2="489" y1="552.0938" y2="552.0938"/><text fill="#000000" font-family="sans-serif" font-size="13" lengthAdjust="spacing" textLength="258" x="102" y="547.0278">&#1057;&#1086;&#1086;&#1073;&#1097;&#1077;&#1085;&#1080;&#1077; &#1086;&#1073; &#1091;&#1089;&#1087;&#1077;&#1096;&#1085;&#1086;&#1081; &#1088;&#1077;&#1075;&#1080;&#1089;&#1090;&#1088;&#1072;&#1094;&#1080;&#1080;</text><line style="stroke:#000000;stroke-width:1.0;stroke-dasharray:2.0,2.0;" x1="20" x2="862" y1="561.0938" y2="561.0938"/><text fill="#000000" font-family="sans-serif" font-size="11" font-weight="bold" lengthAdjust="spacing" textLength="138" x="25" y="571.3042">[&#1077;&#1089;&#1083;&#1080; &#1082;&#1086;&#1076; &#1085;&#1077;&#1074;&#1077;&#1088;&#1085;&#1099;&#1081;]</text><polygon fill="#181818" points="96,592.0313,86,596.0313,96,600.0313,92,596.0313" style="stroke:#181818;stroke-width:1.0;"/><line style="stroke:#181818;stroke-width:1.0;" x1="90" x2="489" y1="596.0313" y2="596.0313"/><text fill="#000000" font-family="sans-serif" font-size="13" lengthAdjust="spacing" textLength="381" x="102" y="590.9653">&#1057;&#1086;&#1086;&#1073;&#1097;&#1077;&#1085;&#1080;&#1077; &#1086;&#1073; &#1086;&#1096;&#1080;&#1073;&#1082;&#1077; "&#1053;&#1077;&#1074;&#1077;&#1088;&#1085;&#1099;&#1081; &#1082;&#1086;&#1076; &#1087;&#1086;&#1076;&#1090;&#1074;&#1077;&#1088;&#1078;&#1076;&#1077;&#1085;&#1080;&#1103;"</text><!--SRC=[bLHBJiCm5Dpx54zTWGGNG2etOCK9N189f0ea6f3OKSfNHIgmOSNt10aq4A1rh_1y8-RPBKr2mwTIuwP-Csyy7bklHLlRn7Ti-CEUyol69uxj0QVoJhf5EwrmMuMRqKQqHpL-uCostVI0O-8Bst4lGpmpUyWPlmDzZ36h2LZlHEigq95kw5O8-2N7w05W7p-6W7NjaIiC6ahLwyJt87lsFUo-fx8zuj5CVJsgrvNeeyLbrugMYAzibnCsTfzGE_9Q25pVU3bJUYtQsDLHw7KgHm4gHmcgQuWSeTpOTa4npG4ziBq5ya8unT8D3-U_Yu5Qm_q2UjedQ4ZDdNH0NOeHxe7q1BIcn4s0foGhc9fXEvWzm9fwqvN0ID3c98YZKWa4664T-JLzTSnK4ERXIZSZmbmRpREo2X2z_AI3y2dR-80wmuazaw30kLHs9i73dk8jWOGKqNZyJv-Q2fi8LANAjlCz4U-bwKnPjm294p5guJkjhgoIRFIxGnaU-DZrKUQjUl5aaaX7MBdPdY7-3JyHDC6NWl1tdln-UH2DIn4uVdD5-OO-TnL7RUWq64oPodCtPSpbPl9VCNvLDujS0wLJcOtN7uytp965irhyCM6ud2GzAN8cgtghkWQ4ifYdYOiuSpyw-R-8tnJPlhfKRc_DIziCb7ppvrG4V080]--></g></svg>