<?xml version="1.0" encoding="us-ascii" standalone="no"?><svg xmlns="http://www.w3.org/2000/svg" xmlns:xlink="http://www.w3.org/1999/xlink" contentStyleType="text/css" height="516px" preserveAspectRatio="none" style="width:1037px;height:516px;background:#FFFFFF;" version="1.1" viewBox="0 0 1037 516" width="1037px" zoomAndPan="magnify"><defs/><g><rect fill="#FFFFFF" height="334.1328" style="stroke:#181818;stroke-width:1.0;" width="10" x="70" y="91.2969"/><rect fill="#FFFFFF" height="313" style="stroke:#181818;stroke-width:1.0;" width="10" x="871" y="112.4297"/><rect fill="none" height="190.6016" style="stroke:#000000;stroke-width:1.5;" width="1020" x="10" y="227.8281"/><line style="stroke:#181818;stroke-width:0.5;stroke-dasharray:5.0,5.0;" x1="75" x2="75" y1="81.2969" y2="435.4297"/><line style="stroke:#181818;stroke-width:0.5;stroke-dasharray:5.0,5.0;" x1="876" x2="876" y1="81.2969" y2="435.4297"/><text fill="#000000" font-family="sans-serif" font-size="14" lengthAdjust="spacing" textLength="104" x="20" y="77.9951">&#1055;&#1086;&#1083;&#1100;&#1079;&#1086;&#1074;&#1072;&#1090;&#1077;&#1083;&#1100;</text><ellipse cx="75" cy="13.5" fill="#E2E2F0" rx="8" ry="8" style="stroke:#181818;stroke-width:0.5;"/><path d="M75,21.5 L75,48.5 M62,29.5 L88,29.5 M75,48.5 L62,63.5 M75,48.5 L88,63.5 " fill="none" style="stroke:#181818;stroke-width:0.5;"/><text fill="#000000" font-family="sans-serif" font-size="14" lengthAdjust="spacing" textLength="104" x="20" y="447.4248">&#1055;&#1086;&#1083;&#1100;&#1079;&#1086;&#1074;&#1072;&#1090;&#1077;&#1083;&#1100;</text><ellipse cx="75" cy="459.2266" fill="#E2E2F0" rx="8" ry="8" style="stroke:#181818;stroke-width:0.5;"/><path d="M75,467.2266 L75,494.2266 M62,475.2266 L88,475.2266 M75,494.2266 L62,509.2266 M75,494.2266 L88,509.2266 " fill="none" style="stroke:#181818;stroke-width:0.5;"/><text fill="#000000" font-family="sans-serif" font-size="14" lengthAdjust="spacing" textLength="194" x="776" y="77.9951">&#1057;&#1080;&#1089;&#1090;&#1077;&#1084;&#1072; &#1040;&#1091;&#1090;&#1077;&#1085;&#1090;&#1080;&#1092;&#1080;&#1082;&#1072;&#1094;&#1080;&#1080;</text><ellipse cx="876" cy="49" fill="#E2E2F0" rx="12" ry="12" style="stroke:#181818;stroke-width:0.5;"/><line style="stroke:#181818;stroke-width:0.5;" x1="864" x2="888" y1="63" y2="63"/><text fill="#000000" font-family="sans-serif" font-size="14" lengthAdjust="spacing" textLength="194" x="776" y="447.4248">&#1057;&#1080;&#1089;&#1090;&#1077;&#1084;&#1072; &#1040;&#1091;&#1090;&#1077;&#1085;&#1090;&#1080;&#1092;&#1080;&#1082;&#1072;&#1094;&#1080;&#1080;</text><ellipse cx="876" cy="466.7266" fill="#E2E2F0" rx="12" ry="12" style="stroke:#181818;stroke-width:0.5;"/><line style="stroke:#181818;stroke-width:0.5;" x1="864" x2="888" y1="480.7266" y2="480.7266"/><rect fill="#FFFFFF" height="334.1328" style="stroke:#181818;stroke-width:1.0;" width="10" x="70" y="91.2969"/><rect fill="#FFFFFF" height="313" style="stroke:#181818;stroke-width:1.0;" width="10" x="871" y="112.4297"/><polygon fill="#181818" points="859,108.4297,869,112.4297,859,116.4297,863,112.4297" style="stroke:#181818;stroke-width:1.0;"/><line style="stroke:#181818;stroke-width:1.0;" x1="80" x2="865" y1="112.4297" y2="112.4297"/><text fill="#000000" font-family="sans-serif" font-size="13" lengthAdjust="spacing" textLength="205" x="87" y="107.3638">&#1053;&#1072;&#1078;&#1080;&#1084;&#1072;&#1077;&#1090; &#1085;&#1072; &#1082;&#1085;&#1086;&#1087;&#1082;&#1091; &#171;&#1042;&#1086;&#1081;&#1090;&#1080;&#187;</text><polygon fill="#181818" points="91,137.5625,81,141.5625,91,145.5625,87,141.5625" style="stroke:#181818;stroke-width:1.0;"/><line style="stroke:#181818;stroke-width:1.0;" x1="85" x2="870" y1="141.5625" y2="141.5625"/><text fill="#000000" font-family="sans-serif" font-size="13" lengthAdjust="spacing" textLength="210" x="97" y="136.4966">&#1047;&#1072;&#1087;&#1088;&#1072;&#1096;&#1080;&#1074;&#1072;&#1077;&#1090; &#1085;&#1086;&#1084;&#1077;&#1088; &#1090;&#1077;&#1083;&#1077;&#1092;&#1086;&#1085;&#1072;</text><polygon fill="#181818" points="859,166.6953,869,170.6953,859,174.6953,863,170.6953" style="stroke:#181818;stroke-width:1.0;"/><line style="stroke:#181818;stroke-width:1.0;" x1="80" x2="865" y1="170.6953" y2="170.6953"/><text fill="#000000" font-family="sans-serif" font-size="13" lengthAdjust="spacing" textLength="169" x="87" y="165.6294">&#1042;&#1074;&#1086;&#1076;&#1080;&#1090; &#1085;&#1086;&#1084;&#1077;&#1088; &#1090;&#1077;&#1083;&#1077;&#1092;&#1086;&#1085;&#1072;</text><line style="stroke:#181818;stroke-width:1.0;" x1="881" x2="923" y1="199.8281" y2="199.8281"/><line style="stroke:#181818;stroke-width:1.0;" x1="923" x2="923" y1="199.8281" y2="212.8281"/><line style="stroke:#181818;stroke-width:1.0;" x1="882" x2="923" y1="212.8281" y2="212.8281"/><polygon fill="#181818" points="892,208.8281,882,212.8281,892,216.8281,888,212.8281" style="stroke:#181818;stroke-width:1.0;"/><text fill="#000000" font-family="sans-serif" font-size="13" lengthAdjust="spacing" textLength="130" x="888" y="194.7622">&#1055;&#1088;&#1086;&#1074;&#1077;&#1088;&#1103;&#1077;&#1090; &#1076;&#1072;&#1085;&#1085;&#1099;&#1077;</text><path d="M10,227.8281 L74,227.8281 L74,234.9609 L64,244.9609 L10,244.9609 L10,227.8281 " fill="#EEEEEE" style="stroke:#000000;stroke-width:1.5;"/><rect fill="none" height="190.6016" style="stroke:#000000;stroke-width:1.5;" width="1020" x="10" y="227.8281"/><text fill="#000000" font-family="sans-serif" font-size="13" font-weight="bold" lengthAdjust="spacing" textLength="19" x="25" y="240.895">alt</text><text fill="#000000" font-family="sans-serif" font-size="11" font-weight="bold" lengthAdjust="spacing" textLength="142" x="89" y="240.0386">[&#1059;&#1089;&#1087;&#1077;&#1096;&#1085;&#1072;&#1103; &#1087;&#1088;&#1086;&#1074;&#1077;&#1088;&#1082;&#1072;]</text><polygon fill="#181818" points="91,262.0938,81,266.0938,91,270.0938,87,266.0938" style="stroke:#181818;stroke-width:1.0;"/><line style="stroke:#181818;stroke-width:1.0;" x1="85" x2="870" y1="266.0938" y2="266.0938"/><text fill="#000000" font-family="sans-serif" font-size="13" lengthAdjust="spacing" textLength="239" x="97" y="261.0278">&#1055;&#1088;&#1077;&#1076;&#1086;&#1089;&#1090;&#1072;&#1074;&#1083;&#1103;&#1077;&#1090; &#1076;&#1086;&#1089;&#1090;&#1091;&#1087; &#1082; &#1087;&#1088;&#1086;&#1092;&#1080;&#1083;&#1102;</text><line style="stroke:#000000;stroke-width:1.0;stroke-dasharray:2.0,2.0;" x1="10" x2="1030" y1="275.0938" y2="275.0938"/><text fill="#000000" font-family="sans-serif" font-size="11" font-weight="bold" lengthAdjust="spacing" textLength="190" x="15" y="285.3042">[&#1053;&#1077;&#1074;&#1077;&#1088;&#1085;&#1099;&#1081; &#1085;&#1086;&#1084;&#1077;&#1088; &#1090;&#1077;&#1083;&#1077;&#1092;&#1086;&#1085;&#1072;]</text><polygon fill="#181818" points="91,306.0313,81,310.0313,91,314.0313,87,310.0313" style="stroke:#181818;stroke-width:1.0;"/><line style="stroke:#181818;stroke-width:1.0;" x1="85" x2="870" y1="310.0313" y2="310.0313"/><text fill="#000000" font-family="sans-serif" font-size="13" lengthAdjust="spacing" textLength="767" x="97" y="304.9653">&#1042;&#1099;&#1074;&#1086;&#1076;&#1080;&#1090; &#1086;&#1096;&#1080;&#1073;&#1082;&#1091;: "&#1053;&#1077;&#1074;&#1077;&#1088;&#1085;&#1099;&#1081; &#1085;&#1086;&#1084;&#1077;&#1088; &#1090;&#1077;&#1083;&#1077;&#1092;&#1086;&#1085;&#1072;. &#1055;&#1086;&#1078;&#1072;&#1083;&#1091;&#1081;&#1089;&#1090;&#1072;, &#1087;&#1088;&#1086;&#1074;&#1077;&#1088;&#1100;&#1090;&#1077; &#1074;&#1074;&#1077;&#1076;&#1077;&#1085;&#1085;&#1099;&#1077; &#1076;&#1072;&#1085;&#1085;&#1099;&#1077; &#1080; &#1087;&#1086;&#1087;&#1088;&#1086;&#1073;&#1091;&#1081;&#1090;&#1077; &#1089;&#1085;&#1086;&#1074;&#1072;"</text><polygon fill="#181818" points="859,335.1641,869,339.1641,859,343.1641,863,339.1641" style="stroke:#181818;stroke-width:1.0;"/><line style="stroke:#181818;stroke-width:1.0;" x1="80" x2="865" y1="339.1641" y2="339.1641"/><text fill="#000000" font-family="sans-serif" font-size="13" lengthAdjust="spacing" textLength="301" x="87" y="334.0981">&#1055;&#1088;&#1086;&#1074;&#1077;&#1088;&#1103;&#1077;&#1090; &#1076;&#1072;&#1085;&#1085;&#1099;&#1077; &#1080; &#1087;&#1099;&#1090;&#1072;&#1077;&#1090;&#1089;&#1103; &#1089;&#1085;&#1086;&#1074;&#1072; &#1074;&#1086;&#1081;&#1090;&#1080;</text><line style="stroke:#181818;stroke-width:1.0;" x1="881" x2="923" y1="368.2969" y2="368.2969"/><line style="stroke:#181818;stroke-width:1.0;" x1="923" x2="923" y1="368.2969" y2="381.2969"/><line style="stroke:#181818;stroke-width:1.0;" x1="882" x2="923" y1="381.2969" y2="381.2969"/><polygon fill="#181818" points="892,377.2969,882,381.2969,892,385.2969,888,381.2969" style="stroke:#181818;stroke-width:1.0;"/><text fill="#000000" font-family="sans-serif" font-size="13" lengthAdjust="spacing" textLength="130" x="888" y="363.231">&#1055;&#1088;&#1086;&#1074;&#1077;&#1088;&#1103;&#1077;&#1090; &#1076;&#1072;&#1085;&#1085;&#1099;&#1077;</text><polygon fill="#181818" points="91,406.4297,81,410.4297,91,414.4297,87,410.4297" style="stroke:#181818;stroke-width:1.0;"/><line style="stroke:#181818;stroke-width:1.0;" x1="85" x2="870" y1="410.4297" y2="410.4297"/><text fill="#000000" font-family="sans-serif" font-size="13" lengthAdjust="spacing" textLength="239" x="97" y="405.3638">&#1055;&#1088;&#1077;&#1076;&#1086;&#1089;&#1090;&#1072;&#1074;&#1083;&#1103;&#1077;&#1090; &#1076;&#1086;&#1089;&#1090;&#1091;&#1087; &#1082; &#1087;&#1088;&#1086;&#1092;&#1080;&#1083;&#1102;</text><!--SRC=[hLFBQi9G4DtdAmRNRJ_0HVybQA22MD1OwCuNfQ1eSTDLaT9bDr6yDfecWbymyqSzCr5yj4WBTP7hlJVdd3bd9duflAqJJpZZH0RyWNN6aNJOwPxy1ZKRGTqBQc4blAS2lt8iRRl-v8ZuIRgsIV6CfSSnhu1-m1eN5EmtmnlFBuMLEpyCZ8eyUrvUsnqLYLyuuWKG86Gd7U9KcLTOCbxpIhgqUUSnDaiLsIHxlfnTQK1djA1x1irQMYZZ4QIpFMa61ISjoitXRmz7qFfMq1YeZESmT1wtKzxX9b3L-F2oZ7BLEUHJfDDdv_dLaFXDsZ3bK1iOP4HMwXQasNc4twab9NRWoYpw26ydUm4xb2wlaTcMpXgHoD0Bger00tPR0IraUTRJJ_9Ze0uIoIpOgNQcY8du0_jLFcWBM4XGyJAtSt4KWWmKHTZCpBFRvNSK9d4Cb0w88QV6fZZ4c-OpN30lfxqztwESLlgMCYvHuEY0aYm66yEZe7uv0F_RsbhPAmSddzR1WGfz0G00]--></g></svg>