<?xml version="1.0" encoding="us-ascii" standalone="no"?><svg xmlns="http://www.w3.org/2000/svg" xmlns:xlink="http://www.w3.org/1999/xlink" contentStyleType="text/css" height="720px" preserveAspectRatio="none" style="width:1001px;height:720px;background:#FFFFFF;" version="1.1" viewBox="0 0 1001 720" width="1001px" zoomAndPan="magnify"><defs/><g><rect fill="#FFFFFF" height="538.0625" style="stroke:#181818;stroke-width:1.0;" width="10" x="62.5" y="91.2969"/><rect fill="#FFFFFF" height="516.9297" style="stroke:#181818;stroke-width:1.0;" width="10" x="489.5" y="112.4297"/><rect fill="#FFFFFF" height="416.5313" style="stroke:#181818;stroke-width:1.0;" width="10" x="876.5" y="212.8281"/><rect fill="none" height="148.4688" style="stroke:#000000;stroke-width:1.5;" width="984" x="10" y="473.8906"/><line style="stroke:#181818;stroke-width:0.5;stroke-dasharray:5.0,5.0;" x1="67" x2="67" y1="81.2969" y2="639.3594"/><line style="stroke:#181818;stroke-width:0.5;stroke-dasharray:5.0,5.0;" x1="494" x2="494" y1="81.2969" y2="639.3594"/><line style="stroke:#181818;stroke-width:0.5;stroke-dasharray:5.0,5.0;" x1="881" x2="881" y1="81.2969" y2="639.3594"/><text fill="#000000" font-family="sans-serif" font-size="14" lengthAdjust="spacing" textLength="89" x="20" y="77.9951">&#1055;&#1086;&#1089;&#1077;&#1090;&#1080;&#1090;&#1077;&#1083;&#1100;</text><ellipse cx="67.5" cy="13.5" fill="#E2E2F0" rx="8" ry="8" style="stroke:#181818;stroke-width:0.5;"/><path d="M67.5,21.5 L67.5,48.5 M54.5,29.5 L80.5,29.5 M67.5,48.5 L54.5,63.5 M67.5,48.5 L80.5,63.5 " fill="none" style="stroke:#181818;stroke-width:0.5;"/><text fill="#000000" font-family="sans-serif" font-size="14" lengthAdjust="spacing" textLength="89" x="20" y="651.3545">&#1055;&#1086;&#1089;&#1077;&#1090;&#1080;&#1090;&#1077;&#1083;&#1100;</text><ellipse cx="67.5" cy="663.1563" fill="#E2E2F0" rx="8" ry="8" style="stroke:#181818;stroke-width:0.5;"/><path d="M67.5,671.1563 L67.5,698.1563 M54.5,679.1563 L80.5,679.1563 M67.5,698.1563 L54.5,713.1563 M67.5,698.1563 L80.5,713.1563 " fill="none" style="stroke:#181818;stroke-width:0.5;"/><text fill="#000000" font-family="sans-serif" font-size="14" lengthAdjust="spacing" textLength="193" x="395" y="77.9951">&#1048;&#1085;&#1090;&#1077;&#1088;&#1072;&#1082;&#1090;&#1080;&#1074;&#1085;&#1099;&#1081; &#1058;&#1077;&#1088;&#1084;&#1080;&#1085;&#1072;&#1083;</text><ellipse cx="494.5" cy="49" fill="#E2E2F0" rx="12" ry="12" style="stroke:#181818;stroke-width:0.5;"/><line style="stroke:#181818;stroke-width:0.5;" x1="482.5" x2="506.5" y1="63" y2="63"/><text fill="#000000" font-family="sans-serif" font-size="14" lengthAdjust="spacing" textLength="193" x="395" y="651.3545">&#1048;&#1085;&#1090;&#1077;&#1088;&#1072;&#1082;&#1090;&#1080;&#1074;&#1085;&#1099;&#1081; &#1058;&#1077;&#1088;&#1084;&#1080;&#1085;&#1072;&#1083;</text><ellipse cx="494.5" cy="670.6563" fill="#E2E2F0" rx="12" ry="12" style="stroke:#181818;stroke-width:0.5;"/><line style="stroke:#181818;stroke-width:0.5;" x1="482.5" x2="506.5" y1="684.6563" y2="684.6563"/><text fill="#000000" font-family="sans-serif" font-size="14" lengthAdjust="spacing" textLength="199" x="779" y="77.9951">&#1057;&#1080;&#1089;&#1090;&#1077;&#1084;&#1072; &#1059;&#1087;&#1088;&#1072;&#1074;&#1083;&#1077;&#1085;&#1080;&#1103; &#1052;&#1077;&#1085;&#1102;</text><path d="M863.5,29 C863.5,19 881.5,19 881.5,19 C881.5,19 899.5,19 899.5,29 L899.5,55 C899.5,65 881.5,65 881.5,65 C881.5,65 863.5,65 863.5,55 L863.5,29 " fill="#E2E2F0" style="stroke:#181818;stroke-width:1.5;"/><path d="M863.5,29 C863.5,39 881.5,39 881.5,39 C881.5,39 899.5,39 899.5,29 " fill="none" style="stroke:#181818;stroke-width:1.5;"/><text fill="#000000" font-family="sans-serif" font-size="14" lengthAdjust="spacing" textLength="199" x="779" y="651.3545">&#1057;&#1080;&#1089;&#1090;&#1077;&#1084;&#1072; &#1059;&#1087;&#1088;&#1072;&#1074;&#1083;&#1077;&#1085;&#1080;&#1103; &#1052;&#1077;&#1085;&#1102;</text><path d="M863.5,664.6563 C863.5,654.6563 881.5,654.6563 881.5,654.6563 C881.5,654.6563 899.5,654.6563 899.5,664.6563 L899.5,690.6563 C899.5,700.6563 881.5,700.6563 881.5,700.6563 C881.5,700.6563 863.5,700.6563 863.5,690.6563 L863.5,664.6563 " fill="#E2E2F0" style="stroke:#181818;stroke-width:1.5;"/><path d="M863.5,664.6563 C863.5,674.6563 881.5,674.6563 881.5,674.6563 C881.5,674.6563 899.5,674.6563 899.5,664.6563 " fill="none" style="stroke:#181818;stroke-width:1.5;"/><rect fill="#FFFFFF" height="538.0625" style="stroke:#181818;stroke-width:1.0;" width="10" x="62.5" y="91.2969"/><rect fill="#FFFFFF" height="516.9297" style="stroke:#181818;stroke-width:1.0;" width="10" x="489.5" y="112.4297"/><rect fill="#FFFFFF" height="416.5313" style="stroke:#181818;stroke-width:1.0;" width="10" x="876.5" y="212.8281"/><polygon fill="#181818" points="477.5,108.4297,487.5,112.4297,477.5,116.4297,481.5,112.4297" style="stroke:#181818;stroke-width:1.0;"/><line style="stroke:#181818;stroke-width:1.0;" x1="72.5" x2="483.5" y1="112.4297" y2="112.4297"/><text fill="#000000" font-family="sans-serif" font-size="13" lengthAdjust="spacing" textLength="152" x="79.5" y="107.3638">&#1040;&#1082;&#1090;&#1080;&#1074;&#1080;&#1088;&#1091;&#1077;&#1090; &#1090;&#1077;&#1088;&#1084;&#1080;&#1085;&#1072;&#1083;</text><line style="stroke:#181818;stroke-width:1.0;" x1="499.5" x2="541.5" y1="141.5625" y2="141.5625"/><line style="stroke:#181818;stroke-width:1.0;" x1="541.5" x2="541.5" y1="141.5625" y2="154.5625"/><line style="stroke:#181818;stroke-width:1.0;" x1="500.5" x2="541.5" y1="154.5625" y2="154.5625"/><polygon fill="#181818" points="510.5,150.5625,500.5,154.5625,510.5,158.5625,506.5,154.5625" style="stroke:#181818;stroke-width:1.0;"/><text fill="#000000" font-family="sans-serif" font-size="13" lengthAdjust="spacing" textLength="204" x="506.5" y="136.4966">&#1054;&#1090;&#1086;&#1073;&#1088;&#1072;&#1078;&#1072;&#1077;&#1090; &#1082;&#1072;&#1090;&#1077;&#1075;&#1086;&#1088;&#1080;&#1080; &#1084;&#1077;&#1085;&#1102;</text><polygon fill="#181818" points="477.5,179.6953,487.5,183.6953,477.5,187.6953,481.5,183.6953" style="stroke:#181818;stroke-width:1.0;"/><line style="stroke:#181818;stroke-width:1.0;" x1="72.5" x2="483.5" y1="183.6953" y2="183.6953"/><text fill="#000000" font-family="sans-serif" font-size="13" lengthAdjust="spacing" textLength="147" x="79.5" y="178.6294">&#1042;&#1099;&#1073;&#1080;&#1088;&#1072;&#1077;&#1090; &#1082;&#1072;&#1090;&#1077;&#1075;&#1086;&#1088;&#1080;&#1102;</text><polygon fill="#181818" points="864.5,208.8281,874.5,212.8281,864.5,216.8281,868.5,212.8281" style="stroke:#181818;stroke-width:1.0;"/><line style="stroke:#181818;stroke-width:1.0;" x1="499.5" x2="870.5" y1="212.8281" y2="212.8281"/><text fill="#000000" font-family="sans-serif" font-size="13" lengthAdjust="spacing" textLength="358" x="506.5" y="207.7622">&#1047;&#1072;&#1087;&#1088;&#1072;&#1096;&#1080;&#1074;&#1072;&#1077;&#1090; &#1089;&#1087;&#1080;&#1089;&#1086;&#1082; &#1073;&#1083;&#1102;&#1076; &#1087;&#1086; &#1074;&#1099;&#1073;&#1088;&#1072;&#1085;&#1085;&#1086;&#1081; &#1082;&#1072;&#1090;&#1077;&#1075;&#1086;&#1088;&#1080;&#1080;</text><polygon fill="#181818" points="510.5,237.9609,500.5,241.9609,510.5,245.9609,506.5,241.9609" style="stroke:#181818;stroke-width:1.0;"/><line style="stroke:#181818;stroke-width:1.0;" x1="504.5" x2="875.5" y1="241.9609" y2="241.9609"/><text fill="#000000" font-family="sans-serif" font-size="13" lengthAdjust="spacing" textLength="175" x="516.5" y="236.895">&#1054;&#1090;&#1087;&#1088;&#1072;&#1074;&#1083;&#1103;&#1077;&#1090; &#1089;&#1087;&#1080;&#1089;&#1086;&#1082; &#1073;&#1083;&#1102;&#1076;</text><polygon fill="#181818" points="83.5,267.0938,73.5,271.0938,83.5,275.0938,79.5,271.0938" style="stroke:#181818;stroke-width:1.0;"/><line style="stroke:#181818;stroke-width:1.0;" x1="77.5" x2="488.5" y1="271.0938" y2="271.0938"/><text fill="#000000" font-family="sans-serif" font-size="13" lengthAdjust="spacing" textLength="174" x="89.5" y="266.0278">&#1055;&#1086;&#1082;&#1072;&#1079;&#1099;&#1074;&#1072;&#1077;&#1090; &#1089;&#1087;&#1080;&#1089;&#1086;&#1082; &#1073;&#1083;&#1102;&#1076;</text><polygon fill="#181818" points="477.5,296.2266,487.5,300.2266,477.5,304.2266,481.5,300.2266" style="stroke:#181818;stroke-width:1.0;"/><line style="stroke:#181818;stroke-width:1.0;" x1="72.5" x2="483.5" y1="300.2266" y2="300.2266"/><text fill="#000000" font-family="sans-serif" font-size="13" lengthAdjust="spacing" textLength="117" x="79.5" y="295.1606">&#1042;&#1099;&#1073;&#1080;&#1088;&#1072;&#1077;&#1090; &#1073;&#1083;&#1102;&#1076;&#1086;</text><polygon fill="#181818" points="864.5,325.3594,874.5,329.3594,864.5,333.3594,868.5,329.3594" style="stroke:#181818;stroke-width:1.0;"/><line style="stroke:#181818;stroke-width:1.0;" x1="499.5" x2="870.5" y1="329.3594" y2="329.3594"/><text fill="#000000" font-family="sans-serif" font-size="13" lengthAdjust="spacing" textLength="197" x="506.5" y="324.2935">&#1047;&#1072;&#1087;&#1088;&#1072;&#1096;&#1080;&#1074;&#1072;&#1077;&#1090; &#1076;&#1077;&#1090;&#1072;&#1083;&#1080; &#1073;&#1083;&#1102;&#1076;&#1072;</text><polygon fill="#181818" points="510.5,354.4922,500.5,358.4922,510.5,362.4922,506.5,358.4922" style="stroke:#181818;stroke-width:1.0;"/><line style="stroke:#181818;stroke-width:1.0;" x1="504.5" x2="875.5" y1="358.4922" y2="358.4922"/><text fill="#000000" font-family="sans-serif" font-size="13" lengthAdjust="spacing" textLength="188" x="516.5" y="353.4263">&#1054;&#1090;&#1087;&#1088;&#1072;&#1074;&#1083;&#1103;&#1077;&#1090; &#1076;&#1077;&#1090;&#1072;&#1083;&#1080; &#1073;&#1083;&#1102;&#1076;&#1072;</text><polygon fill="#181818" points="83.5,383.625,73.5,387.625,83.5,391.625,79.5,387.625" style="stroke:#181818;stroke-width:1.0;"/><line style="stroke:#181818;stroke-width:1.0;" x1="77.5" x2="488.5" y1="387.625" y2="387.625"/><text fill="#000000" font-family="sans-serif" font-size="13" lengthAdjust="spacing" textLength="342" x="89.5" y="382.5591">&#1055;&#1086;&#1082;&#1072;&#1079;&#1099;&#1074;&#1072;&#1077;&#1090; &#1076;&#1077;&#1090;&#1072;&#1083;&#1080; &#1073;&#1083;&#1102;&#1076;&#1072; (&#1080;&#1085;&#1075;&#1088;&#1077;&#1076;&#1080;&#1077;&#1085;&#1090;&#1099;, &#1086;&#1087;&#1094;&#1080;&#1080;)</text><polygon fill="#181818" points="477.5,412.7578,487.5,416.7578,477.5,420.7578,481.5,416.7578" style="stroke:#181818;stroke-width:1.0;"/><line style="stroke:#181818;stroke-width:1.0;" x1="72.5" x2="483.5" y1="416.7578" y2="416.7578"/><text fill="#000000" font-family="sans-serif" font-size="13" lengthAdjust="spacing" textLength="301" x="79.5" y="411.6919">&#1053;&#1072;&#1089;&#1090;&#1088;&#1072;&#1080;&#1074;&#1072;&#1077;&#1090; &#1073;&#1083;&#1102;&#1076;&#1086; &#1080; &#1076;&#1086;&#1073;&#1072;&#1074;&#1083;&#1103;&#1077;&#1090; &#1074; &#1082;&#1086;&#1088;&#1079;&#1080;&#1085;&#1091;</text><line style="stroke:#181818;stroke-width:1.0;" x1="499.5" x2="541.5" y1="445.8906" y2="445.8906"/><line style="stroke:#181818;stroke-width:1.0;" x1="541.5" x2="541.5" y1="445.8906" y2="458.8906"/><line style="stroke:#181818;stroke-width:1.0;" x1="500.5" x2="541.5" y1="458.8906" y2="458.8906"/><polygon fill="#181818" points="510.5,454.8906,500.5,458.8906,510.5,462.8906,506.5,458.8906" style="stroke:#181818;stroke-width:1.0;"/><text fill="#000000" font-family="sans-serif" font-size="13" lengthAdjust="spacing" textLength="233" x="506.5" y="440.8247">&#1054;&#1073;&#1085;&#1086;&#1074;&#1083;&#1103;&#1077;&#1090; &#1082;&#1086;&#1088;&#1079;&#1080;&#1085;&#1091; &#1087;&#1086;&#1083;&#1100;&#1079;&#1086;&#1074;&#1072;&#1090;&#1077;&#1083;&#1103;</text><path d="M10,473.8906 L74,473.8906 L74,481.0234 L64,491.0234 L10,491.0234 L10,473.8906 " fill="#EEEEEE" style="stroke:#000000;stroke-width:1.5;"/><rect fill="none" height="148.4688" style="stroke:#000000;stroke-width:1.5;" width="984" x="10" y="473.8906"/><text fill="#000000" font-family="sans-serif" font-size="13" font-weight="bold" lengthAdjust="spacing" textLength="19" x="25" y="486.9575">alt</text><text fill="#000000" font-family="sans-serif" font-size="11" font-weight="bold" lengthAdjust="spacing" textLength="170" x="89" y="486.1011">[&#1045;&#1089;&#1083;&#1080; &#1073;&#1083;&#1102;&#1076;&#1086; &#1085;&#1077;&#1076;&#1086;&#1089;&#1090;&#1091;&#1087;&#1085;&#1086;]</text><polygon fill="#181818" points="510.5,508.1563,500.5,512.1563,510.5,516.1563,506.5,512.1563" style="stroke:#181818;stroke-width:1.0;"/><line style="stroke:#181818;stroke-width:1.0;" x1="504.5" x2="875.5" y1="512.1563" y2="512.1563"/><text fill="#000000" font-family="sans-serif" font-size="13" lengthAdjust="spacing" textLength="299" x="516.5" y="507.0903">&#1054;&#1090;&#1087;&#1088;&#1072;&#1074;&#1083;&#1103;&#1077;&#1090; &#1091;&#1074;&#1077;&#1076;&#1086;&#1084;&#1083;&#1077;&#1085;&#1080;&#1077; &#1086; &#1085;&#1077;&#1076;&#1086;&#1089;&#1090;&#1091;&#1087;&#1085;&#1086;&#1089;&#1090;&#1080;</text><polygon fill="#181818" points="83.5,537.2891,73.5,541.2891,83.5,545.2891,79.5,541.2891" style="stroke:#181818;stroke-width:1.0;"/><line style="stroke:#181818;stroke-width:1.0;" x1="77.5" x2="488.5" y1="541.2891" y2="541.2891"/><text fill="#000000" font-family="sans-serif" font-size="13" lengthAdjust="spacing" textLength="283" x="89.5" y="536.2231">&#1055;&#1086;&#1082;&#1072;&#1079;&#1099;&#1074;&#1072;&#1077;&#1090; &#1089;&#1086;&#1086;&#1073;&#1097;&#1077;&#1085;&#1080;&#1077; &#1086; &#1085;&#1077;&#1076;&#1086;&#1089;&#1090;&#1091;&#1087;&#1085;&#1086;&#1089;&#1090;&#1080;</text><polygon fill="#181818" points="477.5,566.4219,487.5,570.4219,477.5,574.4219,481.5,570.4219" style="stroke:#181818;stroke-width:1.0;"/><line style="stroke:#181818;stroke-width:1.0;" x1="72.5" x2="483.5" y1="570.4219" y2="570.4219"/><text fill="#000000" font-family="sans-serif" font-size="13" lengthAdjust="spacing" textLength="169" x="79.5" y="565.356">&#1042;&#1099;&#1073;&#1080;&#1088;&#1072;&#1077;&#1090; &#1076;&#1088;&#1091;&#1075;&#1086;&#1077; &#1073;&#1083;&#1102;&#1076;&#1086;</text><line style="stroke:#000000;stroke-width:1.0;stroke-dasharray:2.0,2.0;" x1="10" x2="994" y1="579.4219" y2="579.4219"/><text fill="#000000" font-family="sans-serif" font-size="11" font-weight="bold" lengthAdjust="spacing" textLength="154" x="15" y="589.6323">[&#1045;&#1089;&#1083;&#1080; &#1073;&#1083;&#1102;&#1076;&#1086; &#1076;&#1086;&#1089;&#1090;&#1091;&#1087;&#1085;&#1086;]</text><polygon fill="#181818" points="477.5,610.3594,487.5,614.3594,477.5,618.3594,481.5,614.3594" style="stroke:#181818;stroke-width:1.0;"/><line style="stroke:#181818;stroke-width:1.0;" x1="72.5" x2="483.5" y1="614.3594" y2="614.3594"/><text fill="#000000" font-family="sans-serif" font-size="13" lengthAdjust="spacing" textLength="393" x="79.5" y="609.2935">&#1055;&#1077;&#1088;&#1077;&#1093;&#1086;&#1076;&#1080;&#1090; &#1082; &#1086;&#1092;&#1086;&#1088;&#1084;&#1083;&#1077;&#1085;&#1080;&#1102; &#1079;&#1072;&#1082;&#1072;&#1079;&#1072; &#1080;&#1083;&#1080; &#1087;&#1088;&#1086;&#1076;&#1086;&#1083;&#1078;&#1072;&#1077;&#1090; &#1074;&#1099;&#1073;&#1086;&#1088;</text><!--SRC=[bLLRRjDG4Fs_gnZr2oJOG3_O12impVs8b0GfkKNgNzfG12fAgag8VXGgO0Dk6bCJrpTRcBiZpao27s2ZE56YUEmvS-RCt9FeoBqU4z-o3wUSX3DEyKau2nyfcj3nn8wD7Rc-Ew43lkPSReOfnxoMHtc9o0N_8lwkuKU4SjpC3YJPsV6mFue6fXUvw5KqiO3u1lnJhV38CV4FtYZQaZE4SjnS4D_8pp1NZA4T7RyycJWxD2OwSlqtaRFAYen-FtzHbA53uik2LngcOIODqOvomQt4AGYQ0kCllAz8zdod77_Y8tYyvbWxk8TcKw2c172btCZf2WhT2P-MVAHLovSTI_9d9Ab4uRssjON0g3OY9BYj2U1PcFEA4FF4IocdnNAylGpd7yAb11LzAuKRL2Zc51Rj56gDg1Q7kbh2W1z0xByDcFtasptDlhDiI98Dnmx8pFxWn1qxRqFPj_UMV7gY2tgFQWckKzseit3nZ82n2UzaRayR5Vg2Dd6cb6QbsK8daZehsUDw7qlP3Dc81waSPksd09coIfNSMg9kdbW60l9KlBEG1Sxim15_mg1hpO9Ihbrw9Jv3Fl0DuTLn2sUuK20SmPs5S48j1THvKYtJOL6zEi273k1xhV5A3Gf7KY3BdRO3-6IZOargDLMwLRjBmZcWLsBd96VCXxSwiaAcC2UCAzvsB5wSRYkAn5uLpKhBKrEHVFmPz8pfsIO3gKHBwxSrr_uD]--></g></svg>