<?xml version="1.0" encoding="us-ascii" standalone="no"?><svg xmlns="http://www.w3.org/2000/svg" xmlns:xlink="http://www.w3.org/1999/xlink" contentStyleType="text/css" height="590px" preserveAspectRatio="none" style="width:1184px;height:590px;background:#FFFFFF;" version="1.1" viewBox="0 0 1184 590" width="1184px" zoomAndPan="magnify"><defs/><g><rect fill="#FFFFFF" height="408.5313" style="stroke:#181818;stroke-width:1.0;" width="10" x="62.5" y="91.2969"/><rect fill="#FFFFFF" height="387.3984" style="stroke:#181818;stroke-width:1.0;" width="10" x="473.5" y="112.4297"/><rect fill="#FFFFFF" height="29.1328" style="stroke:#181818;stroke-width:1.0;" width="10" x="880.5" y="212.8281"/><rect fill="#FFFFFF" height="170.4688" style="stroke:#181818;stroke-width:1.0;" width="10" x="1084" y="329.3594"/><rect fill="none" height="148.4688" style="stroke:#000000;stroke-width:1.5;" width="1167" x="10" y="344.3594"/><line style="stroke:#181818;stroke-width:0.5;stroke-dasharray:5.0,5.0;" x1="67" x2="67" y1="81.2969" y2="509.8281"/><line style="stroke:#181818;stroke-width:0.5;stroke-dasharray:5.0,5.0;" x1="478" x2="478" y1="81.2969" y2="509.8281"/><line style="stroke:#181818;stroke-width:0.5;stroke-dasharray:5.0,5.0;" x1="885" x2="885" y1="81.2969" y2="509.8281"/><line style="stroke:#181818;stroke-width:0.5;stroke-dasharray:5.0,5.0;" x1="1089" x2="1089" y1="81.2969" y2="509.8281"/><text fill="#000000" font-family="sans-serif" font-size="14" lengthAdjust="spacing" textLength="89" x="20" y="77.9951">&#1055;&#1086;&#1089;&#1077;&#1090;&#1080;&#1090;&#1077;&#1083;&#1100;</text><ellipse cx="67.5" cy="13.5" fill="#E2E2F0" rx="8" ry="8" style="stroke:#181818;stroke-width:0.5;"/><path d="M67.5,21.5 L67.5,48.5 M54.5,29.5 L80.5,29.5 M67.5,48.5 L54.5,63.5 M67.5,48.5 L80.5,63.5 " fill="none" style="stroke:#181818;stroke-width:0.5;"/><text fill="#000000" font-family="sans-serif" font-size="14" lengthAdjust="spacing" textLength="89" x="20" y="521.8232">&#1055;&#1086;&#1089;&#1077;&#1090;&#1080;&#1090;&#1077;&#1083;&#1100;</text><ellipse cx="67.5" cy="533.625" fill="#E2E2F0" rx="8" ry="8" style="stroke:#181818;stroke-width:0.5;"/><path d="M67.5,541.625 L67.5,568.625 M54.5,549.625 L80.5,549.625 M67.5,568.625 L54.5,583.625 M67.5,568.625 L80.5,583.625 " fill="none" style="stroke:#181818;stroke-width:0.5;"/><text fill="#000000" font-family="sans-serif" font-size="14" lengthAdjust="spacing" textLength="193" x="379" y="77.9951">&#1048;&#1085;&#1090;&#1077;&#1088;&#1072;&#1082;&#1090;&#1080;&#1074;&#1085;&#1099;&#1081; &#1058;&#1077;&#1088;&#1084;&#1080;&#1085;&#1072;&#1083;</text><ellipse cx="478.5" cy="49" fill="#E2E2F0" rx="12" ry="12" style="stroke:#181818;stroke-width:0.5;"/><line style="stroke:#181818;stroke-width:0.5;" x1="466.5" x2="490.5" y1="63" y2="63"/><text fill="#000000" font-family="sans-serif" font-size="14" lengthAdjust="spacing" textLength="193" x="379" y="521.8232">&#1048;&#1085;&#1090;&#1077;&#1088;&#1072;&#1082;&#1090;&#1080;&#1074;&#1085;&#1099;&#1081; &#1058;&#1077;&#1088;&#1084;&#1080;&#1085;&#1072;&#1083;</text><ellipse cx="478.5" cy="541.125" fill="#E2E2F0" rx="12" ry="12" style="stroke:#181818;stroke-width:0.5;"/><line style="stroke:#181818;stroke-width:0.5;" x1="466.5" x2="490.5" y1="555.125" y2="555.125"/><text fill="#000000" font-family="sans-serif" font-size="14" lengthAdjust="spacing" textLength="225" x="770" y="77.9951">&#1057;&#1080;&#1089;&#1090;&#1077;&#1084;&#1072; &#1059;&#1087;&#1088;&#1072;&#1074;&#1083;&#1077;&#1085;&#1080;&#1103; &#1047;&#1072;&#1082;&#1072;&#1079;&#1072;&#1084;&#1080;</text><path d="M867.5,29 C867.5,19 885.5,19 885.5,19 C885.5,19 903.5,19 903.5,29 L903.5,55 C903.5,65 885.5,65 885.5,65 C885.5,65 867.5,65 867.5,55 L867.5,29 " fill="#E2E2F0" style="stroke:#181818;stroke-width:1.5;"/><path d="M867.5,29 C867.5,39 885.5,39 885.5,39 C885.5,39 903.5,39 903.5,29 " fill="none" style="stroke:#181818;stroke-width:1.5;"/><text fill="#000000" font-family="sans-serif" font-size="14" lengthAdjust="spacing" textLength="225" x="770" y="521.8232">&#1057;&#1080;&#1089;&#1090;&#1077;&#1084;&#1072; &#1059;&#1087;&#1088;&#1072;&#1074;&#1083;&#1077;&#1085;&#1080;&#1103; &#1047;&#1072;&#1082;&#1072;&#1079;&#1072;&#1084;&#1080;</text><path d="M867.5,535.125 C867.5,525.125 885.5,525.125 885.5,525.125 C885.5,525.125 903.5,525.125 903.5,535.125 L903.5,561.125 C903.5,571.125 885.5,571.125 885.5,571.125 C885.5,571.125 867.5,571.125 867.5,561.125 L867.5,535.125 " fill="#E2E2F0" style="stroke:#181818;stroke-width:1.5;"/><path d="M867.5,535.125 C867.5,545.125 885.5,545.125 885.5,545.125 C885.5,545.125 903.5,545.125 903.5,535.125 " fill="none" style="stroke:#181818;stroke-width:1.5;"/><text fill="#000000" font-family="sans-serif" font-size="14" lengthAdjust="spacing" textLength="150" x="1011" y="77.9951">&#1055;&#1083;&#1072;&#1090;&#1077;&#1078;&#1085;&#1072;&#1103; &#1057;&#1080;&#1089;&#1090;&#1077;&#1084;&#1072;</text><ellipse cx="1089" cy="49" fill="#E2E2F0" rx="12" ry="12" style="stroke:#181818;stroke-width:0.5;"/><line style="stroke:#181818;stroke-width:0.5;" x1="1077" x2="1101" y1="63" y2="63"/><text fill="#000000" font-family="sans-serif" font-size="14" lengthAdjust="spacing" textLength="150" x="1011" y="521.8232">&#1055;&#1083;&#1072;&#1090;&#1077;&#1078;&#1085;&#1072;&#1103; &#1057;&#1080;&#1089;&#1090;&#1077;&#1084;&#1072;</text><ellipse cx="1089" cy="541.125" fill="#E2E2F0" rx="12" ry="12" style="stroke:#181818;stroke-width:0.5;"/><line style="stroke:#181818;stroke-width:0.5;" x1="1077" x2="1101" y1="555.125" y2="555.125"/><rect fill="#FFFFFF" height="408.5313" style="stroke:#181818;stroke-width:1.0;" width="10" x="62.5" y="91.2969"/><rect fill="#FFFFFF" height="387.3984" style="stroke:#181818;stroke-width:1.0;" width="10" x="473.5" y="112.4297"/><rect fill="#FFFFFF" height="29.1328" style="stroke:#181818;stroke-width:1.0;" width="10" x="880.5" y="212.8281"/><rect fill="#FFFFFF" height="170.4688" style="stroke:#181818;stroke-width:1.0;" width="10" x="1084" y="329.3594"/><polygon fill="#181818" points="461.5,108.4297,471.5,112.4297,461.5,116.4297,465.5,112.4297" style="stroke:#181818;stroke-width:1.0;"/><line style="stroke:#181818;stroke-width:1.0;" x1="72.5" x2="467.5" y1="112.4297" y2="112.4297"/><text fill="#000000" font-family="sans-serif" font-size="13" lengthAdjust="spacing" textLength="199" x="79.5" y="107.3638">&#1053;&#1072;&#1078;&#1080;&#1084;&#1072;&#1077;&#1090; "&#1054;&#1092;&#1086;&#1088;&#1084;&#1080;&#1090;&#1100; &#1079;&#1072;&#1082;&#1072;&#1079;"</text><line style="stroke:#181818;stroke-width:1.0;" x1="483.5" x2="525.5" y1="141.5625" y2="141.5625"/><line style="stroke:#181818;stroke-width:1.0;" x1="525.5" x2="525.5" y1="141.5625" y2="154.5625"/><line style="stroke:#181818;stroke-width:1.0;" x1="484.5" x2="525.5" y1="154.5625" y2="154.5625"/><polygon fill="#181818" points="494.5,150.5625,484.5,154.5625,494.5,158.5625,490.5,154.5625" style="stroke:#181818;stroke-width:1.0;"/><text fill="#000000" font-family="sans-serif" font-size="13" lengthAdjust="spacing" textLength="383" x="490.5" y="136.4966">&#1054;&#1090;&#1086;&#1073;&#1088;&#1072;&#1078;&#1072;&#1077;&#1090; &#1089;&#1087;&#1080;&#1089;&#1086;&#1082; &#1074;&#1099;&#1073;&#1088;&#1072;&#1085;&#1085;&#1099;&#1093; &#1073;&#1083;&#1102;&#1076; &#1080; &#1080;&#1090;&#1086;&#1075;&#1086;&#1074;&#1091;&#1102; &#1089;&#1091;&#1084;&#1084;&#1091;</text><polygon fill="#181818" points="461.5,179.6953,471.5,183.6953,461.5,187.6953,465.5,183.6953" style="stroke:#181818;stroke-width:1.0;"/><line style="stroke:#181818;stroke-width:1.0;" x1="72.5" x2="467.5" y1="183.6953" y2="183.6953"/><text fill="#000000" font-family="sans-serif" font-size="13" lengthAdjust="spacing" textLength="149" x="79.5" y="178.6294">&#1055;&#1086;&#1076;&#1090;&#1074;&#1077;&#1088;&#1078;&#1076;&#1072;&#1077;&#1090; &#1079;&#1072;&#1082;&#1072;&#1079;</text><polygon fill="#181818" points="868.5,208.8281,878.5,212.8281,868.5,216.8281,872.5,212.8281" style="stroke:#181818;stroke-width:1.0;"/><line style="stroke:#181818;stroke-width:1.0;" x1="483.5" x2="874.5" y1="212.8281" y2="212.8281"/><text fill="#000000" font-family="sans-serif" font-size="13" lengthAdjust="spacing" textLength="173" x="490.5" y="207.7622">&#1055;&#1077;&#1088;&#1077;&#1076;&#1072;&#1077;&#1090; &#1076;&#1077;&#1090;&#1072;&#1083;&#1080; &#1079;&#1072;&#1082;&#1072;&#1079;&#1072;</text><polygon fill="#181818" points="494.5,237.9609,484.5,241.9609,494.5,245.9609,490.5,241.9609" style="stroke:#181818;stroke-width:1.0;"/><line style="stroke:#181818;stroke-width:1.0;" x1="488.5" x2="884.5" y1="241.9609" y2="241.9609"/><text fill="#000000" font-family="sans-serif" font-size="13" lengthAdjust="spacing" textLength="202" x="500.5" y="236.895">&#1055;&#1086;&#1076;&#1090;&#1074;&#1077;&#1088;&#1078;&#1076;&#1072;&#1077;&#1090; &#1087;&#1088;&#1080;&#1077;&#1084; &#1079;&#1072;&#1082;&#1072;&#1079;&#1072;</text><polygon fill="#181818" points="83.5,267.0938,73.5,271.0938,83.5,275.0938,79.5,271.0938" style="stroke:#181818;stroke-width:1.0;"/><line style="stroke:#181818;stroke-width:1.0;" x1="77.5" x2="472.5" y1="271.0938" y2="271.0938"/><text fill="#000000" font-family="sans-serif" font-size="13" lengthAdjust="spacing" textLength="196" x="89.5" y="266.0278">&#1047;&#1072;&#1087;&#1088;&#1072;&#1096;&#1080;&#1074;&#1072;&#1077;&#1090; &#1084;&#1077;&#1090;&#1086;&#1076; &#1086;&#1087;&#1083;&#1072;&#1090;&#1099;</text><polygon fill="#181818" points="461.5,296.2266,471.5,300.2266,461.5,304.2266,465.5,300.2266" style="stroke:#181818;stroke-width:1.0;"/><line style="stroke:#181818;stroke-width:1.0;" x1="72.5" x2="467.5" y1="300.2266" y2="300.2266"/><text fill="#000000" font-family="sans-serif" font-size="13" lengthAdjust="spacing" textLength="377" x="79.5" y="295.1606">&#1042;&#1099;&#1073;&#1080;&#1088;&#1072;&#1077;&#1090; &#1084;&#1077;&#1090;&#1086;&#1076; &#1086;&#1087;&#1083;&#1072;&#1090;&#1099; &#1080; &#1074;&#1074;&#1086;&#1076;&#1080;&#1090; &#1087;&#1083;&#1072;&#1090;&#1077;&#1078;&#1085;&#1099;&#1077; &#1076;&#1072;&#1085;&#1085;&#1099;&#1077;</text><polygon fill="#181818" points="1072,325.3594,1082,329.3594,1072,333.3594,1076,329.3594" style="stroke:#181818;stroke-width:1.0;"/><line style="stroke:#181818;stroke-width:1.0;" x1="483.5" x2="1078" y1="329.3594" y2="329.3594"/><text fill="#000000" font-family="sans-serif" font-size="13" lengthAdjust="spacing" textLength="159" x="490.5" y="324.2935">&#1054;&#1073;&#1088;&#1072;&#1073;&#1072;&#1090;&#1099;&#1074;&#1072;&#1077;&#1090; &#1087;&#1083;&#1072;&#1090;&#1077;&#1078;</text><path d="M10,344.3594 L74,344.3594 L74,351.4922 L64,361.4922 L10,361.4922 L10,344.3594 " fill="#EEEEEE" style="stroke:#000000;stroke-width:1.5;"/><rect fill="none" height="148.4688" style="stroke:#000000;stroke-width:1.5;" width="1167" x="10" y="344.3594"/><text fill="#000000" font-family="sans-serif" font-size="13" font-weight="bold" lengthAdjust="spacing" textLength="19" x="25" y="357.4263">alt</text><text fill="#000000" font-family="sans-serif" font-size="11" font-weight="bold" lengthAdjust="spacing" textLength="132" x="89" y="356.5698">[&#1059;&#1089;&#1087;&#1077;&#1096;&#1085;&#1099;&#1081; &#1087;&#1083;&#1072;&#1090;&#1077;&#1078;]</text><polygon fill="#181818" points="494.5,378.625,484.5,382.625,494.5,386.625,490.5,382.625" style="stroke:#181818;stroke-width:1.0;"/><line style="stroke:#181818;stroke-width:1.0;" x1="488.5" x2="1083" y1="382.625" y2="382.625"/><text fill="#000000" font-family="sans-serif" font-size="13" lengthAdjust="spacing" textLength="179" x="500.5" y="377.5591">&#1055;&#1086;&#1076;&#1090;&#1074;&#1077;&#1088;&#1078;&#1076;&#1077;&#1085;&#1080;&#1077; &#1087;&#1083;&#1072;&#1090;&#1077;&#1078;&#1072;</text><polygon fill="#181818" points="83.5,407.7578,73.5,411.7578,83.5,415.7578,79.5,411.7578" style="stroke:#181818;stroke-width:1.0;"/><line style="stroke:#181818;stroke-width:1.0;" x1="77.5" x2="472.5" y1="411.7578" y2="411.7578"/><text fill="#000000" font-family="sans-serif" font-size="13" lengthAdjust="spacing" textLength="261" x="89.5" y="406.6919">&#1042;&#1099;&#1076;&#1072;&#1077;&#1090; &#1087;&#1086;&#1076;&#1090;&#1074;&#1077;&#1088;&#1078;&#1076;&#1077;&#1085;&#1080;&#1077; &#1079;&#1072;&#1082;&#1072;&#1079;&#1072; &#1080; &#1095;&#1077;&#1082;</text><line style="stroke:#000000;stroke-width:1.0;stroke-dasharray:2.0,2.0;" x1="10" x2="1177" y1="420.7578" y2="420.7578"/><text fill="#000000" font-family="sans-serif" font-size="11" font-weight="bold" lengthAdjust="spacing" textLength="138" x="15" y="430.9683">[&#1053;&#1077;&#1091;&#1076;&#1072;&#1095;&#1085;&#1099;&#1081; &#1087;&#1083;&#1072;&#1090;&#1077;&#1078;]</text><polygon fill="#181818" points="494.5,451.6953,484.5,455.6953,494.5,459.6953,490.5,455.6953" style="stroke:#181818;stroke-width:1.0;"/><line style="stroke:#181818;stroke-width:1.0;" x1="488.5" x2="1083" y1="455.6953" y2="455.6953"/><text fill="#000000" font-family="sans-serif" font-size="13" lengthAdjust="spacing" textLength="118" x="500.5" y="450.6294">&#1054;&#1096;&#1080;&#1073;&#1082;&#1072; &#1087;&#1083;&#1072;&#1090;&#1077;&#1078;&#1072;</text><polygon fill="#181818" points="83.5,480.8281,73.5,484.8281,83.5,488.8281,79.5,484.8281" style="stroke:#181818;stroke-width:1.0;"/><line style="stroke:#181818;stroke-width:1.0;" x1="77.5" x2="472.5" y1="484.8281" y2="484.8281"/><text fill="#000000" font-family="sans-serif" font-size="13" lengthAdjust="spacing" textLength="351" x="89.5" y="479.7622">&#1048;&#1085;&#1092;&#1086;&#1088;&#1084;&#1080;&#1088;&#1091;&#1077;&#1090; &#1086; &#1087;&#1088;&#1086;&#1073;&#1083;&#1077;&#1084;&#1077; &#1080; &#1087;&#1088;&#1077;&#1076;&#1083;&#1072;&#1075;&#1072;&#1077;&#1090; &#1087;&#1086;&#1074;&#1090;&#1086;&#1088;&#1080;&#1090;&#1100;</text><!--SRC=[dLH1RXf14BplArhSym4VyecyO6pcW0Hsj4miSSF6LY8vSgHSueknd7m0DYmcm2vVwFcHgtitp4o44okWiUHfkhgwgthCYJlBYH-uzXTS-ajUuPIyyP_93Ed3qEQPFNKzDw8Ett4bGJ_c6Q_bfrpWveP_4N_NwoskAWGt7KbsDX_qJaq_wnfdZitG0k8H-1TQOSipuX-yKxI2DxYg4Fn2_4tWSPvmWAXOPtdNvkz6GsS7WSy3icOAjfIoaflWQ-PxCneWeytDp8dhdHjdjJNAzE-RjtkkT4HyZxfBT084cGWAJVqLvgFz-KjCHgafnKu0tBURxS7-09w2MCrpxNZPWcFgE-6Cm9gum3IRU2MJzTV4SsXnomlY5QasDV_4AVp4toBPJq1gwoS76u6el41AeU8iUT7M3FGJgj6Ccsp9AaFMGlq1TONAKn0fZ21MAKPxBIynmqgqI_6xzc25XBpsVzIOHptbFwa_M-IjSgzbZZK6hhxnDmUdzbKqmAZ7VyzLGGfy4H1Xw7UeiID0IjBEgkQVX6rYIhL6A_ky0G_48z0mvzJJfk-mIMga4bst6nad4ZvfoNygejieBSHTpHJfqDXbQ476bz4YMMM0_YD2wypsyJXWxqhO6IYu_PycfYhvNF1VIrjUjB3QOvJN1kh6YhKidpubfQgzQ_S1o5Z2gDb2_27UbTS1xrCtjcmgLXG8xwDDNgLd]--></g></svg>