<?xml version="1.0" encoding="us-ascii" standalone="no"?><svg xmlns="http://www.w3.org/2000/svg" xmlns:xlink="http://www.w3.org/1999/xlink" contentStyleType="text/css" height="738px" preserveAspectRatio="none" style="width:842px;height:738px;background:#FFFFFF;" version="1.1" viewBox="0 0 842 738" width="842px" zoomAndPan="magnify"><defs/><g><!--class ????????????--><g id="elem_&#1055;&#1086;&#1083;&#1100;&#1079;&#1086;&#1074;&#1072;&#1090;&#1077;&#1083;&#1100;"><rect codeLine="7" fill="#F1F1F1" height="113.1875" id="&#1055;&#1086;&#1083;&#1100;&#1079;&#1086;&#1074;&#1072;&#1090;&#1077;&#1083;&#1100;" rx="2.5" ry="2.5" style="stroke:#181818;stroke-width:0.5;" width="141" x="42.5" y="211.85"/><ellipse cx="59.75" cy="227.85" fill="#ADD1B2" rx="11" ry="11" style="stroke:#181818;stroke-width:1.0;"/><path d="M62.7188,233.4906 Q62.1406,233.7875 61.5,233.9281 Q60.8594,234.0844 60.1563,234.0844 Q57.6563,234.0844 56.3281,232.4438 Q55.0156,230.7875 55.0156,227.6625 Q55.0156,224.5375 56.3281,222.8813 Q57.6563,221.225 60.1563,221.225 Q60.8594,221.225 61.5,221.3813 Q62.1563,221.5375 62.7188,221.8344 L62.7188,224.5531 Q62.0938,223.975 61.5,223.7094 Q60.9063,223.4281 60.2813,223.4281 Q58.9375,223.4281 58.25,224.5063 Q57.5625,225.5688 57.5625,227.6625 Q57.5625,229.7563 58.25,230.8344 Q58.9375,231.8969 60.2813,231.8969 Q60.9063,231.8969 61.5,231.6313 Q62.0938,231.35 62.7188,230.7719 L62.7188,233.4906 Z " fill="#000000"/><text fill="#000000" font-family="sans-serif" font-size="14" lengthAdjust="spacing" textLength="104" x="74.25" y="232.6967">&#1055;&#1086;&#1083;&#1100;&#1079;&#1086;&#1074;&#1072;&#1090;&#1077;&#1083;&#1100;</text><line style="stroke:#181818;stroke-width:0.5;" x1="43.5" x2="182.5" y1="243.85" y2="243.85"/><ellipse cx="53.5" cy="257.4984" fill="none" rx="3" ry="3" style="stroke:#038048;stroke-width:1.0;"/><text fill="#000000" font-family="sans-serif" font-size="14" lengthAdjust="spacing" textLength="40" x="62.5" y="260.8451">ID: int</text><ellipse cx="53.5" cy="273.7953" fill="none" rx="3" ry="3" style="stroke:#038048;stroke-width:1.0;"/><text fill="#000000" font-family="sans-serif" font-size="14" lengthAdjust="spacing" textLength="76" x="62.5" y="277.142">&#1048;&#1084;&#1103;: string</text><ellipse cx="53.5" cy="290.0922" fill="none" rx="3" ry="3" style="stroke:#038048;stroke-width:1.0;"/><text fill="#000000" font-family="sans-serif" font-size="14" lengthAdjust="spacing" textLength="115" x="62.5" y="293.4389">&#1058;&#1077;&#1083;&#1077;&#1092;&#1086;&#1085;: string</text><ellipse cx="53.5" cy="306.3891" fill="none" rx="3" ry="3" style="stroke:#038048;stroke-width:1.0;"/><text fill="#000000" font-family="sans-serif" font-size="14" lengthAdjust="spacing" textLength="84" x="62.5" y="309.7357">Email: string</text><line style="stroke:#181818;stroke-width:0.5;" x1="43.5" x2="182.5" y1="317.0375" y2="317.0375"/></g><!--class ?????--><g id="elem_&#1047;&#1072;&#1082;&#1072;&#1079;"><rect codeLine="14" fill="#F1F1F1" height="113.1875" id="&#1047;&#1072;&#1082;&#1072;&#1079;" rx="2.5" ry="2.5" style="stroke:#181818;stroke-width:0.5;" width="170" x="382" y="55.85"/><ellipse cx="442.25" cy="71.85" fill="#ADD1B2" rx="11" ry="11" style="stroke:#181818;stroke-width:1.0;"/><path d="M445.2188,77.4906 Q444.6406,77.7875 444,77.9281 Q443.3594,78.0844 442.6563,78.0844 Q440.1563,78.0844 438.8281,76.4438 Q437.5156,74.7875 437.5156,71.6625 Q437.5156,68.5375 438.8281,66.8813 Q440.1563,65.225 442.6563,65.225 Q443.3594,65.225 444,65.3813 Q444.6563,65.5375 445.2188,65.8344 L445.2188,68.5531 Q444.5938,67.975 444,67.7094 Q443.4063,67.4281 442.7813,67.4281 Q441.4375,67.4281 440.75,68.5063 Q440.0625,69.5688 440.0625,71.6625 Q440.0625,73.7563 440.75,74.8344 Q441.4375,75.8969 442.7813,75.8969 Q443.4063,75.8969 444,75.6313 Q444.5938,75.35 445.2188,74.7719 L445.2188,77.4906 Z " fill="#000000"/><text fill="#000000" font-family="sans-serif" font-size="14" lengthAdjust="spacing" textLength="41" x="462.75" y="76.6967">&#1047;&#1072;&#1082;&#1072;&#1079;</text><line style="stroke:#181818;stroke-width:0.5;" x1="383" x2="551" y1="87.85" y2="87.85"/><ellipse cx="393" cy="101.4984" fill="none" rx="3" ry="3" style="stroke:#038048;stroke-width:1.0;"/><text fill="#000000" font-family="sans-serif" font-size="14" lengthAdjust="spacing" textLength="40" x="402" y="104.8451">ID: int</text><ellipse cx="393" cy="117.7953" fill="none" rx="3" ry="3" style="stroke:#038048;stroke-width:1.0;"/><text fill="#000000" font-family="sans-serif" font-size="14" lengthAdjust="spacing" textLength="144" x="402" y="121.142">&#1055;&#1086;&#1083;&#1100;&#1079;&#1086;&#1074;&#1072;&#1090;&#1077;&#1083;&#1100;ID: int</text><ellipse cx="393" cy="134.0922" fill="none" rx="3" ry="3" style="stroke:#038048;stroke-width:1.0;"/><text fill="#000000" font-family="sans-serif" font-size="14" lengthAdjust="spacing" textLength="99" x="402" y="137.4389">&#1057;&#1090;&#1072;&#1090;&#1091;&#1089;: string</text><ellipse cx="393" cy="150.3891" fill="none" rx="3" ry="3" style="stroke:#038048;stroke-width:1.0;"/><text fill="#000000" font-family="sans-serif" font-size="14" lengthAdjust="spacing" textLength="107" x="402" y="153.7357">&#1044;&#1072;&#1090;&#1072;: datetime</text><line style="stroke:#181818;stroke-width:0.5;" x1="383" x2="551" y1="161.0375" y2="161.0375"/></g><!--class ?????--><g id="elem_&#1041;&#1083;&#1102;&#1076;&#1086;"><rect codeLine="21" fill="#F1F1F1" height="113.1875" id="&#1041;&#1083;&#1102;&#1076;&#1086;" rx="2.5" ry="2.5" style="stroke:#181818;stroke-width:0.5;" width="158" x="388" y="515.85"/><ellipse cx="437.75" cy="531.85" fill="#ADD1B2" rx="11" ry="11" style="stroke:#181818;stroke-width:1.0;"/><path d="M440.7188,537.4906 Q440.1406,537.7875 439.5,537.9281 Q438.8594,538.0844 438.1563,538.0844 Q435.6563,538.0844 434.3281,536.4438 Q433.0156,534.7875 433.0156,531.6625 Q433.0156,528.5375 434.3281,526.8813 Q435.6563,525.225 438.1563,525.225 Q438.8594,525.225 439.5,525.3813 Q440.1563,525.5375 440.7188,525.8344 L440.7188,528.5531 Q440.0938,527.975 439.5,527.7094 Q438.9063,527.4281 438.2813,527.4281 Q436.9375,527.4281 436.25,528.5063 Q435.5625,529.5688 435.5625,531.6625 Q435.5625,533.7563 436.25,534.8344 Q436.9375,535.8969 438.2813,535.8969 Q438.9063,535.8969 439.5,535.6313 Q440.0938,535.35 440.7188,534.7719 L440.7188,537.4906 Z " fill="#000000"/><text fill="#000000" font-family="sans-serif" font-size="14" lengthAdjust="spacing" textLength="50" x="458.25" y="536.6967">&#1041;&#1083;&#1102;&#1076;&#1086;</text><line style="stroke:#181818;stroke-width:0.5;" x1="389" x2="545" y1="547.85" y2="547.85"/><ellipse cx="399" cy="561.4984" fill="none" rx="3" ry="3" style="stroke:#038048;stroke-width:1.0;"/><text fill="#000000" font-family="sans-serif" font-size="14" lengthAdjust="spacing" textLength="40" x="408" y="564.8451">ID: int</text><ellipse cx="399" cy="577.7953" fill="none" rx="3" ry="3" style="stroke:#038048;stroke-width:1.0;"/><text fill="#000000" font-family="sans-serif" font-size="14" lengthAdjust="spacing" textLength="117" x="408" y="581.142">&#1053;&#1072;&#1079;&#1074;&#1072;&#1085;&#1080;&#1077;: string</text><ellipse cx="399" cy="594.0922" fill="none" rx="3" ry="3" style="stroke:#038048;stroke-width:1.0;"/><text fill="#000000" font-family="sans-serif" font-size="14" lengthAdjust="spacing" textLength="99" x="408" y="597.4389">&#1062;&#1077;&#1085;&#1072;: decimal</text><ellipse cx="399" cy="610.3891" fill="none" rx="3" ry="3" style="stroke:#038048;stroke-width:1.0;"/><text fill="#000000" font-family="sans-serif" font-size="14" lengthAdjust="spacing" textLength="132" x="408" y="613.7357">&#1050;&#1072;&#1083;&#1086;&#1088;&#1080;&#1081;&#1085;&#1086;&#1089;&#1090;&#1100;: int</text><line style="stroke:#181818;stroke-width:0.5;" x1="389" x2="545" y1="621.0375" y2="621.0375"/></g><!--class ??????--><g id="elem_&#1057;&#1090;&#1086;&#1083;&#1080;&#1082;"><rect codeLine="28" fill="#F1F1F1" height="96.8906" id="&#1057;&#1090;&#1086;&#1083;&#1080;&#1082;" rx="2.5" ry="2.5" style="stroke:#181818;stroke-width:0.5;" width="151" x="684" y="7"/><ellipse cx="728.25" cy="23" fill="#ADD1B2" rx="11" ry="11" style="stroke:#181818;stroke-width:1.0;"/><path d="M731.2188,28.6406 Q730.6406,28.9375 730,29.0781 Q729.3594,29.2344 728.6563,29.2344 Q726.1563,29.2344 724.8281,27.5938 Q723.5156,25.9375 723.5156,22.8125 Q723.5156,19.6875 724.8281,18.0313 Q726.1563,16.375 728.6563,16.375 Q729.3594,16.375 730,16.5313 Q730.6563,16.6875 731.2188,16.9844 L731.2188,19.7031 Q730.5938,19.125 730,18.8594 Q729.4063,18.5781 728.7813,18.5781 Q727.4375,18.5781 726.75,19.6563 Q726.0625,20.7188 726.0625,22.8125 Q726.0625,24.9063 726.75,25.9844 Q727.4375,27.0469 728.7813,27.0469 Q729.4063,27.0469 730,26.7813 Q730.5938,26.5 731.2188,25.9219 L731.2188,28.6406 Z " fill="#000000"/><text fill="#000000" font-family="sans-serif" font-size="14" lengthAdjust="spacing" textLength="54" x="748.75" y="27.8467">&#1057;&#1090;&#1086;&#1083;&#1080;&#1082;</text><line style="stroke:#181818;stroke-width:0.5;" x1="685" x2="834" y1="39" y2="39"/><ellipse cx="695" cy="52.6484" fill="none" rx="3" ry="3" style="stroke:#038048;stroke-width:1.0;"/><text fill="#000000" font-family="sans-serif" font-size="14" lengthAdjust="spacing" textLength="40" x="704" y="55.9951">ID: int</text><ellipse cx="695" cy="68.9453" fill="none" rx="3" ry="3" style="stroke:#038048;stroke-width:1.0;"/><text fill="#000000" font-family="sans-serif" font-size="14" lengthAdjust="spacing" textLength="73" x="704" y="72.292">&#1053;&#1086;&#1084;&#1077;&#1088;: int</text><ellipse cx="695" cy="85.2422" fill="none" rx="3" ry="3" style="stroke:#038048;stroke-width:1.0;"/><text fill="#000000" font-family="sans-serif" font-size="14" lengthAdjust="spacing" textLength="125" x="704" y="88.5889">&#1042;&#1084;&#1077;&#1089;&#1090;&#1080;&#1084;&#1086;&#1089;&#1090;&#1100;: int</text><line style="stroke:#181818;stroke-width:0.5;" x1="685" x2="834" y1="95.8906" y2="95.8906"/></g><!--class ??????--><g id="elem_&#1054;&#1087;&#1083;&#1072;&#1090;&#1072;"><rect codeLine="34" fill="#F1F1F1" height="113.1875" id="&#1054;&#1087;&#1083;&#1072;&#1090;&#1072;" rx="2.5" ry="2.5" style="stroke:#181818;stroke-width:0.5;" width="133" x="693" y="138.85"/><ellipse cx="729.15" cy="154.85" fill="#ADD1B2" rx="11" ry="11" style="stroke:#181818;stroke-width:1.0;"/><path d="M732.1188,160.4906 Q731.5406,160.7875 730.9,160.9281 Q730.2594,161.0844 729.5563,161.0844 Q727.0563,161.0844 725.7281,159.4438 Q724.4156,157.7875 724.4156,154.6625 Q724.4156,151.5375 725.7281,149.8813 Q727.0563,148.225 729.5563,148.225 Q730.2594,148.225 730.9,148.3813 Q731.5563,148.5375 732.1188,148.8344 L732.1188,151.5531 Q731.4938,150.975 730.9,150.7094 Q730.3063,150.4281 729.6813,150.4281 Q728.3375,150.4281 727.65,151.5063 Q726.9625,152.5688 726.9625,154.6625 Q726.9625,156.7563 727.65,157.8344 Q728.3375,158.8969 729.6813,158.8969 Q730.3063,158.8969 730.9,158.6313 Q731.4938,158.35 732.1188,157.7719 L732.1188,160.4906 Z " fill="#000000"/><text fill="#000000" font-family="sans-serif" font-size="14" lengthAdjust="spacing" textLength="54" x="747.85" y="159.6967">&#1054;&#1087;&#1083;&#1072;&#1090;&#1072;</text><line style="stroke:#181818;stroke-width:0.5;" x1="694" x2="825" y1="170.85" y2="170.85"/><ellipse cx="704" cy="184.4984" fill="none" rx="3" ry="3" style="stroke:#038048;stroke-width:1.0;"/><text fill="#000000" font-family="sans-serif" font-size="14" lengthAdjust="spacing" textLength="40" x="713" y="187.8451">ID: int</text><ellipse cx="704" cy="200.7953" fill="none" rx="3" ry="3" style="stroke:#038048;stroke-width:1.0;"/><text fill="#000000" font-family="sans-serif" font-size="14" lengthAdjust="spacing" textLength="81" x="713" y="204.142">&#1047;&#1072;&#1082;&#1072;&#1079;ID: int</text><ellipse cx="704" cy="217.0922" fill="none" rx="3" ry="3" style="stroke:#038048;stroke-width:1.0;"/><text fill="#000000" font-family="sans-serif" font-size="14" lengthAdjust="spacing" textLength="107" x="713" y="220.4389">&#1057;&#1091;&#1084;&#1084;&#1072;: decimal</text><ellipse cx="704" cy="233.3891" fill="none" rx="3" ry="3" style="stroke:#038048;stroke-width:1.0;"/><text fill="#000000" font-family="sans-serif" font-size="14" lengthAdjust="spacing" textLength="99" x="713" y="236.7357">&#1057;&#1090;&#1072;&#1090;&#1091;&#1089;: string</text><line style="stroke:#181818;stroke-width:0.5;" x1="694" x2="825" y1="244.0375" y2="244.0375"/></g><!--class ?????--><g id="elem_&#1054;&#1090;&#1079;&#1099;&#1074;"><rect codeLine="41" fill="#F1F1F1" height="129.4844" id="&#1054;&#1090;&#1079;&#1099;&#1074;" rx="2.5" ry="2.5" style="stroke:#181818;stroke-width:0.5;" width="170" x="382" y="203.71"/><ellipse cx="439.25" cy="219.71" fill="#ADD1B2" rx="11" ry="11" style="stroke:#181818;stroke-width:1.0;"/><path d="M442.2188,225.3506 Q441.6406,225.6475 441,225.7881 Q440.3594,225.9444 439.6563,225.9444 Q437.1563,225.9444 435.8281,224.3038 Q434.5156,222.6475 434.5156,219.5225 Q434.5156,216.3975 435.8281,214.7413 Q437.1563,213.085 439.6563,213.085 Q440.3594,213.085 441,213.2413 Q441.6563,213.3975 442.2188,213.6944 L442.2188,216.4131 Q441.5938,215.835 441,215.5694 Q440.4063,215.2881 439.7813,215.2881 Q438.4375,215.2881 437.75,216.3663 Q437.0625,217.4288 437.0625,219.5225 Q437.0625,221.6163 437.75,222.6944 Q438.4375,223.7569 439.7813,223.7569 Q440.4063,223.7569 441,223.4913 Q441.5938,223.21 442.2188,222.6319 L442.2188,225.3506 Z " fill="#000000"/><text fill="#000000" font-family="sans-serif" font-size="14" lengthAdjust="spacing" textLength="47" x="459.75" y="224.5567">&#1054;&#1090;&#1079;&#1099;&#1074;</text><line style="stroke:#181818;stroke-width:0.5;" x1="383" x2="551" y1="235.71" y2="235.71"/><ellipse cx="393" cy="249.3584" fill="none" rx="3" ry="3" style="stroke:#038048;stroke-width:1.0;"/><text fill="#000000" font-family="sans-serif" font-size="14" lengthAdjust="spacing" textLength="40" x="402" y="252.7051">ID: int</text><ellipse cx="393" cy="265.6553" fill="none" rx="3" ry="3" style="stroke:#038048;stroke-width:1.0;"/><text fill="#000000" font-family="sans-serif" font-size="14" lengthAdjust="spacing" textLength="144" x="402" y="269.002">&#1055;&#1086;&#1083;&#1100;&#1079;&#1086;&#1074;&#1072;&#1090;&#1077;&#1083;&#1100;ID: int</text><ellipse cx="393" cy="281.9522" fill="none" rx="3" ry="3" style="stroke:#038048;stroke-width:1.0;"/><text fill="#000000" font-family="sans-serif" font-size="14" lengthAdjust="spacing" textLength="81" x="402" y="285.2989">&#1047;&#1072;&#1082;&#1072;&#1079;ID: int</text><ellipse cx="393" cy="298.2491" fill="none" rx="3" ry="3" style="stroke:#038048;stroke-width:1.0;"/><text fill="#000000" font-family="sans-serif" font-size="14" lengthAdjust="spacing" textLength="91" x="402" y="301.5957">&#1058;&#1077;&#1082;&#1089;&#1090;: string</text><ellipse cx="393" cy="314.5459" fill="none" rx="3" ry="3" style="stroke:#038048;stroke-width:1.0;"/><text fill="#000000" font-family="sans-serif" font-size="14" lengthAdjust="spacing" textLength="87" x="402" y="317.8926">&#1056;&#1077;&#1081;&#1090;&#1080;&#1085;&#1075;: int</text><line style="stroke:#181818;stroke-width:0.5;" x1="383" x2="551" y1="325.1944" y2="325.1944"/></g><!--class ????--><g id="elem_&#1052;&#1077;&#1085;&#1102;"><rect codeLine="49" fill="#F1F1F1" height="80.5938" id="&#1052;&#1077;&#1085;&#1102;" rx="2.5" ry="2.5" style="stroke:#181818;stroke-width:0.5;" width="103" x="61.5" y="486.15"/><ellipse cx="89.55" cy="502.15" fill="#ADD1B2" rx="11" ry="11" style="stroke:#181818;stroke-width:1.0;"/><path d="M92.5188,507.7906 Q91.9406,508.0875 91.3,508.2281 Q90.6594,508.3844 89.9563,508.3844 Q87.4563,508.3844 86.1281,506.7438 Q84.8156,505.0875 84.8156,501.9625 Q84.8156,498.8375 86.1281,497.1813 Q87.4563,495.525 89.9563,495.525 Q90.6594,495.525 91.3,495.6813 Q91.9563,495.8375 92.5188,496.1344 L92.5188,498.8531 Q91.8938,498.275 91.3,498.0094 Q90.7063,497.7281 90.0813,497.7281 Q88.7375,497.7281 88.05,498.8063 Q87.3625,499.8688 87.3625,501.9625 Q87.3625,504.0563 88.05,505.1344 Q88.7375,506.1969 90.0813,506.1969 Q90.7063,506.1969 91.3,505.9313 Q91.8938,505.65 92.5188,505.0719 L92.5188,507.7906 Z " fill="#000000"/><text fill="#000000" font-family="sans-serif" font-size="14" lengthAdjust="spacing" textLength="42" x="106.45" y="506.9967">&#1052;&#1077;&#1085;&#1102;</text><line style="stroke:#181818;stroke-width:0.5;" x1="62.5" x2="163.5" y1="518.15" y2="518.15"/><ellipse cx="72.5" cy="531.7984" fill="none" rx="3" ry="3" style="stroke:#038048;stroke-width:1.0;"/><text fill="#000000" font-family="sans-serif" font-size="14" lengthAdjust="spacing" textLength="40" x="81.5" y="535.1451">ID: int</text><ellipse cx="72.5" cy="548.0953" fill="none" rx="3" ry="3" style="stroke:#038048;stroke-width:1.0;"/><text fill="#000000" font-family="sans-serif" font-size="14" lengthAdjust="spacing" textLength="77" x="81.5" y="551.442">&#1044;&#1072;&#1090;&#1072;: date</text><line style="stroke:#181818;stroke-width:0.5;" x1="62.5" x2="163.5" y1="558.7438" y2="558.7438"/></g><!--class ?????_?????--><g id="elem_&#1047;&#1072;&#1082;&#1072;&#1079;_&#1041;&#1083;&#1102;&#1076;&#1086;"><rect codeLine="54" fill="#F1F1F1" height="96.8906" id="&#1047;&#1072;&#1082;&#1072;&#1079;_&#1041;&#1083;&#1102;&#1076;&#1086;" rx="2.5" ry="2.5" style="stroke:#181818;stroke-width:0.5;" width="140" x="689.5" y="346"/><ellipse cx="709" cy="362" fill="#ADD1B2" rx="11" ry="11" style="stroke:#181818;stroke-width:1.0;"/><path d="M711.9688,367.6406 Q711.3906,367.9375 710.75,368.0781 Q710.1094,368.2344 709.4063,368.2344 Q706.9063,368.2344 705.5781,366.5938 Q704.2656,364.9375 704.2656,361.8125 Q704.2656,358.6875 705.5781,357.0313 Q706.9063,355.375 709.4063,355.375 Q710.1094,355.375 710.75,355.5313 Q711.4063,355.6875 711.9688,355.9844 L711.9688,358.7031 Q711.3438,358.125 710.75,357.8594 Q710.1563,357.5781 709.5313,357.5781 Q708.1875,357.5781 707.5,358.6563 Q706.8125,359.7188 706.8125,361.8125 Q706.8125,363.9063 707.5,364.9844 Q708.1875,366.0469 709.5313,366.0469 Q710.1563,366.0469 710.75,365.7813 Q711.3438,365.5 711.9688,364.9219 L711.9688,367.6406 Z " fill="#000000"/><text fill="#000000" font-family="sans-serif" font-size="14" lengthAdjust="spacing" textLength="98" x="724" y="366.8467">&#1047;&#1072;&#1082;&#1072;&#1079;_&#1041;&#1083;&#1102;&#1076;&#1086;</text><line style="stroke:#181818;stroke-width:0.5;" x1="690.5" x2="828.5" y1="378" y2="378"/><ellipse cx="700.5" cy="391.6484" fill="none" rx="3" ry="3" style="stroke:#038048;stroke-width:1.0;"/><text fill="#000000" font-family="sans-serif" font-size="14" lengthAdjust="spacing" textLength="81" x="709.5" y="394.9951">&#1047;&#1072;&#1082;&#1072;&#1079;ID: int</text><ellipse cx="700.5" cy="407.9453" fill="none" rx="3" ry="3" style="stroke:#038048;stroke-width:1.0;"/><text fill="#000000" font-family="sans-serif" font-size="14" lengthAdjust="spacing" textLength="90" x="709.5" y="411.292">&#1041;&#1083;&#1102;&#1076;&#1086;ID: int</text><ellipse cx="700.5" cy="424.2422" fill="none" rx="3" ry="3" style="stroke:#038048;stroke-width:1.0;"/><text fill="#000000" font-family="sans-serif" font-size="14" lengthAdjust="spacing" textLength="114" x="709.5" y="427.5889">&#1050;&#1086;&#1083;&#1080;&#1095;&#1077;&#1089;&#1090;&#1074;&#1086;: int</text><line style="stroke:#181818;stroke-width:0.5;" x1="690.5" x2="828.5" y1="434.8906" y2="434.8906"/></g><!--class ???????????--><g id="elem_&#1059;&#1074;&#1077;&#1076;&#1086;&#1084;&#1083;&#1077;&#1085;&#1080;&#1077;"><rect codeLine="60" fill="#F1F1F1" height="113.1875" id="&#1059;&#1074;&#1077;&#1076;&#1086;&#1084;&#1083;&#1077;&#1085;&#1080;&#1077;" rx="2.5" ry="2.5" style="stroke:#181818;stroke-width:0.5;" width="170" x="382" y="367.85"/><ellipse cx="414.55" cy="383.85" fill="#ADD1B2" rx="11" ry="11" style="stroke:#181818;stroke-width:1.0;"/><path d="M417.5188,389.4906 Q416.9406,389.7875 416.3,389.9281 Q415.6594,390.0844 414.9563,390.0844 Q412.4563,390.0844 411.1281,388.4438 Q409.8156,386.7875 409.8156,383.6625 Q409.8156,380.5375 411.1281,378.8813 Q412.4563,377.225 414.9563,377.225 Q415.6594,377.225 416.3,377.3813 Q416.9563,377.5375 417.5188,377.8344 L417.5188,380.5531 Q416.8938,379.975 416.3,379.7094 Q415.7063,379.4281 415.0813,379.4281 Q413.7375,379.4281 413.05,380.5063 Q412.3625,381.5688 412.3625,383.6625 Q412.3625,385.7563 413.05,386.8344 Q413.7375,387.8969 415.0813,387.8969 Q415.7063,387.8969 416.3,387.6313 Q416.8938,387.35 417.5188,386.7719 L417.5188,389.4906 Z " fill="#000000"/><text fill="#000000" font-family="sans-serif" font-size="14" lengthAdjust="spacing" textLength="99" x="432.45" y="388.6967">&#1059;&#1074;&#1077;&#1076;&#1086;&#1084;&#1083;&#1077;&#1085;&#1080;&#1077;</text><line style="stroke:#181818;stroke-width:0.5;" x1="383" x2="551" y1="399.85" y2="399.85"/><ellipse cx="393" cy="413.4984" fill="none" rx="3" ry="3" style="stroke:#038048;stroke-width:1.0;"/><text fill="#000000" font-family="sans-serif" font-size="14" lengthAdjust="spacing" textLength="40" x="402" y="416.8451">ID: int</text><ellipse cx="393" cy="429.7953" fill="none" rx="3" ry="3" style="stroke:#038048;stroke-width:1.0;"/><text fill="#000000" font-family="sans-serif" font-size="14" lengthAdjust="spacing" textLength="144" x="402" y="433.142">&#1055;&#1086;&#1083;&#1100;&#1079;&#1086;&#1074;&#1072;&#1090;&#1077;&#1083;&#1100;ID: int</text><ellipse cx="393" cy="446.0922" fill="none" rx="3" ry="3" style="stroke:#038048;stroke-width:1.0;"/><text fill="#000000" font-family="sans-serif" font-size="14" lengthAdjust="spacing" textLength="91" x="402" y="449.4389">&#1058;&#1077;&#1082;&#1089;&#1090;: string</text><ellipse cx="393" cy="462.3891" fill="none" rx="3" ry="3" style="stroke:#038048;stroke-width:1.0;"/><text fill="#000000" font-family="sans-serif" font-size="14" lengthAdjust="spacing" textLength="107" x="402" y="465.7357">&#1044;&#1072;&#1090;&#1072;: datetime</text><line style="stroke:#181818;stroke-width:0.5;" x1="383" x2="551" y1="473.0375" y2="473.0375"/></g><!--class ?????--><g id="elem_&#1040;&#1082;&#1094;&#1080;&#1103;"><rect codeLine="67" fill="#F1F1F1" height="129.4844" id="&#1040;&#1082;&#1094;&#1080;&#1103;" rx="2.5" ry="2.5" style="stroke:#181818;stroke-width:0.5;" width="212" x="7" y="601.71"/><ellipse cx="86.75" cy="617.71" fill="#ADD1B2" rx="11" ry="11" style="stroke:#181818;stroke-width:1.0;"/><path d="M89.7188,623.3506 Q89.1406,623.6475 88.5,623.7881 Q87.8594,623.9444 87.1563,623.9444 Q84.6563,623.9444 83.3281,622.3038 Q82.0156,620.6475 82.0156,617.5225 Q82.0156,614.3975 83.3281,612.7413 Q84.6563,611.085 87.1563,611.085 Q87.8594,611.085 88.5,611.2413 Q89.1563,611.3975 89.7188,611.6944 L89.7188,614.4131 Q89.0938,613.835 88.5,613.5694 Q87.9063,613.2881 87.2813,613.2881 Q85.9375,613.2881 85.25,614.3663 Q84.5625,615.4288 84.5625,617.5225 Q84.5625,619.6163 85.25,620.6944 Q85.9375,621.7569 87.2813,621.7569 Q87.9063,621.7569 88.5,621.4913 Q89.0938,621.21 89.7188,620.6319 L89.7188,623.3506 Z " fill="#000000"/><text fill="#000000" font-family="sans-serif" font-size="14" lengthAdjust="spacing" textLength="44" x="107.25" y="622.5567">&#1040;&#1082;&#1094;&#1080;&#1103;</text><line style="stroke:#181818;stroke-width:0.5;" x1="8" x2="218" y1="633.71" y2="633.71"/><ellipse cx="18" cy="647.3584" fill="none" rx="3" ry="3" style="stroke:#038048;stroke-width:1.0;"/><text fill="#000000" font-family="sans-serif" font-size="14" lengthAdjust="spacing" textLength="40" x="27" y="650.7051">ID: int</text><ellipse cx="18" cy="663.6553" fill="none" rx="3" ry="3" style="stroke:#038048;stroke-width:1.0;"/><text fill="#000000" font-family="sans-serif" font-size="14" lengthAdjust="spacing" textLength="117" x="27" y="667.002">&#1053;&#1072;&#1079;&#1074;&#1072;&#1085;&#1080;&#1077;: string</text><ellipse cx="18" cy="679.9522" fill="none" rx="3" ry="3" style="stroke:#038048;stroke-width:1.0;"/><text fill="#000000" font-family="sans-serif" font-size="14" lengthAdjust="spacing" textLength="120" x="27" y="683.2989">&#1054;&#1087;&#1080;&#1089;&#1072;&#1085;&#1080;&#1077;: string</text><ellipse cx="18" cy="696.2491" fill="none" rx="3" ry="3" style="stroke:#038048;stroke-width:1.0;"/><text fill="#000000" font-family="sans-serif" font-size="14" lengthAdjust="spacing" textLength="158" x="27" y="699.5957">&#1044;&#1072;&#1090;&#1072;&#1053;&#1072;&#1095;&#1072;&#1083;&#1072;: datetime</text><ellipse cx="18" cy="712.5459" fill="none" rx="3" ry="3" style="stroke:#038048;stroke-width:1.0;"/><text fill="#000000" font-family="sans-serif" font-size="14" lengthAdjust="spacing" textLength="186" x="27" y="715.8926">&#1044;&#1072;&#1090;&#1072;&#1054;&#1082;&#1086;&#1085;&#1095;&#1072;&#1085;&#1080;&#1103;: datetime</text><line style="stroke:#181818;stroke-width:0.5;" x1="8" x2="218" y1="723.1944" y2="723.1944"/></g><!--link ???????????? to ?????--><g id="link_&#1055;&#1086;&#1083;&#1100;&#1079;&#1086;&#1074;&#1072;&#1090;&#1077;&#1083;&#1100;_&#1047;&#1072;&#1082;&#1072;&#1079;"><path codeLine="76" d="M183.96,237.44 C240.81,212.25 321.17,176.63 381.58,149.86 " fill="none" id="&#1055;&#1086;&#1083;&#1100;&#1079;&#1086;&#1074;&#1072;&#1090;&#1077;&#1083;&#1100;-&#1047;&#1072;&#1082;&#1072;&#1079;" style="stroke:#181818;stroke-width:1.0;"/><text fill="#000000" font-family="sans-serif" font-size="13" lengthAdjust="spacing" textLength="51" x="275" y="163.5169">&#1076;&#1077;&#1083;&#1072;&#1077;&#1090;</text><text fill="#000000" font-family="sans-serif" font-size="13" lengthAdjust="spacing" textLength="8" x="191.6903" y="247.0899">1</text><text fill="#000000" font-family="sans-serif" font-size="13" lengthAdjust="spacing" textLength="23" x="350.8567" y="165.5114">0..*</text></g><!--link ????? to ?????_?????--><g id="link_&#1047;&#1072;&#1082;&#1072;&#1079;_&#1047;&#1072;&#1082;&#1072;&#1079;_&#1041;&#1083;&#1102;&#1076;&#1086;"><path codeLine="77" d="M533.5,169.39 C539.81,175.1 546.06,180.85 552,186.45 C608.3,239.49 670.54,302.87 711.82,345.61 " fill="none" id="&#1047;&#1072;&#1082;&#1072;&#1079;-&#1047;&#1072;&#1082;&#1072;&#1079;_&#1041;&#1083;&#1102;&#1076;&#1086;" style="stroke:#181818;stroke-width:1.0;"/><text fill="#000000" font-family="sans-serif" font-size="13" lengthAdjust="spacing" textLength="70" x="583" y="216.5169">&#1089;&#1086;&#1076;&#1077;&#1088;&#1078;&#1080;&#1090;</text><text fill="#000000" font-family="sans-serif" font-size="13" lengthAdjust="spacing" textLength="23" x="516.8594" y="188.9162">0..*</text><text fill="#000000" font-family="sans-serif" font-size="13" lengthAdjust="spacing" textLength="23" x="680.4978" y="334.7641">0..*</text></g><!--link ????? to ?????_?????--><g id="link_&#1041;&#1083;&#1102;&#1076;&#1086;_&#1047;&#1072;&#1082;&#1072;&#1079;_&#1041;&#1083;&#1102;&#1076;&#1086;"><path codeLine="78" d="M546.23,524.51 C590.76,497.23 646.06,463.34 689.05,437 " fill="none" id="&#1041;&#1083;&#1102;&#1076;&#1086;-&#1047;&#1072;&#1082;&#1072;&#1079;_&#1041;&#1083;&#1102;&#1076;&#1086;" style="stroke:#181818;stroke-width:1.0;"/><text fill="#000000" font-family="sans-serif" font-size="13" lengthAdjust="spacing" textLength="62" x="587" y="458.5169">&#1074;&#1093;&#1086;&#1076;&#1080;&#1090; &#1074;</text><text fill="#000000" font-family="sans-serif" font-size="13" lengthAdjust="spacing" textLength="23" x="554.0271" y="533.1078">0..*</text><text fill="#000000" font-family="sans-serif" font-size="13" lengthAdjust="spacing" textLength="23" x="658.4952" y="453.6874">0..*</text></g><!--link ????? to ??????--><g id="link_&#1047;&#1072;&#1082;&#1072;&#1079;_&#1057;&#1090;&#1086;&#1083;&#1080;&#1082;"><path codeLine="79" d="M552.41,95.88 C593.96,87.73 643.61,77.99 683.77,70.11 " fill="none" id="&#1047;&#1072;&#1082;&#1072;&#1079;-&#1057;&#1090;&#1086;&#1083;&#1080;&#1082;" style="stroke:#181818;stroke-width:1.0;"/><text fill="#000000" font-family="sans-serif" font-size="13" lengthAdjust="spacing" textLength="57" x="589.5" y="73.5169">&#1089;&#1074;&#1103;&#1079;&#1072;&#1085; &#1089;</text><text fill="#000000" font-family="sans-serif" font-size="13" lengthAdjust="spacing" textLength="8" x="560.0937" y="107.1737">1</text><text fill="#000000" font-family="sans-serif" font-size="13" lengthAdjust="spacing" textLength="23" x="653.0011" y="84.1569">0..*</text></g><!--link ?????? to ?????--><g id="link_&#1057;&#1090;&#1086;&#1083;&#1080;&#1082;_&#1047;&#1072;&#1082;&#1072;&#1079;"><path codeLine="85" d="M683.68,103.57 C674,108.01 663.97,111.83 654,114.45 C621.52,122.98 584.73,124.25 552.5,122.75 " fill="none" id="&#1057;&#1090;&#1086;&#1083;&#1080;&#1082;-&#1047;&#1072;&#1082;&#1072;&#1079;" style="stroke:#181818;stroke-width:1.0;"/><text fill="#000000" font-family="sans-serif" font-size="13" lengthAdjust="spacing" textLength="68" x="584" y="110.5169">&#1074;&#1082;&#1083;&#1102;&#1095;&#1072;&#1077;&#1090;</text><text fill="#000000" font-family="sans-serif" font-size="13" lengthAdjust="spacing" textLength="8" x="668.0722" y="120.945">1</text><text fill="#000000" font-family="sans-serif" font-size="13" lengthAdjust="spacing" textLength="23" x="559.9266" y="136.1853">0..*</text></g><!--link ????? to ??????--><g id="link_&#1047;&#1072;&#1082;&#1072;&#1079;_&#1054;&#1087;&#1083;&#1072;&#1090;&#1072;"><path codeLine="80" d="M552.22,139.52 C562.24,142.6 572.33,145.64 582,148.45 C618.39,159.03 659.26,169.98 692.51,178.64 " fill="none" id="&#1047;&#1072;&#1082;&#1072;&#1079;-&#1054;&#1087;&#1083;&#1072;&#1090;&#1072;" style="stroke:#181818;stroke-width:1.0;"/><text fill="#000000" font-family="sans-serif" font-size="13" lengthAdjust="spacing" textLength="42" x="597" y="144.5169">&#1080;&#1084;&#1077;&#1077;&#1090;</text><text fill="#000000" font-family="sans-serif" font-size="13" lengthAdjust="spacing" textLength="8" x="559.8873" y="154.564">1</text><text fill="#000000" font-family="sans-serif" font-size="13" lengthAdjust="spacing" textLength="23" x="662.0289" y="189.8265">0..*</text></g><!--link ???????????? to ?????--><g id="link_&#1055;&#1086;&#1083;&#1100;&#1079;&#1086;&#1074;&#1072;&#1090;&#1077;&#1083;&#1100;_&#1054;&#1090;&#1079;&#1099;&#1074;"><path codeLine="81" d="M183.96,268.45 C240.81,268.45 321.17,268.45 381.58,268.45 " fill="none" id="&#1055;&#1086;&#1083;&#1100;&#1079;&#1086;&#1074;&#1072;&#1090;&#1077;&#1083;&#1100;-&#1054;&#1090;&#1079;&#1099;&#1074;" style="stroke:#181818;stroke-width:1.0;"/><text fill="#000000" font-family="sans-serif" font-size="13" lengthAdjust="spacing" textLength="73" x="264" y="264.5169">&#1086;&#1089;&#1090;&#1072;&#1074;&#1083;&#1103;&#1077;&#1090;</text><text fill="#000000" font-family="sans-serif" font-size="13" lengthAdjust="spacing" textLength="8" x="191.6903" y="281.2978">1</text><text fill="#000000" font-family="sans-serif" font-size="13" lengthAdjust="spacing" textLength="23" x="350.8567" y="281.1197">0..*</text></g><!--link ???? to ?????--><g id="link_&#1052;&#1077;&#1085;&#1102;_&#1041;&#1083;&#1102;&#1076;&#1086;"><path codeLine="82" d="M164.81,533.09 C223.16,540.71 319.59,553.31 387.59,562.2 " fill="none" id="&#1052;&#1077;&#1085;&#1102;-&#1041;&#1083;&#1102;&#1076;&#1086;" style="stroke:#181818;stroke-width:1.0;"/><text fill="#000000" font-family="sans-serif" font-size="13" lengthAdjust="spacing" textLength="70" x="265.5" y="540.5169">&#1089;&#1086;&#1076;&#1077;&#1088;&#1078;&#1080;&#1090;</text><text fill="#000000" font-family="sans-serif" font-size="13" lengthAdjust="spacing" textLength="8" x="172.6583" y="547.1551">1</text><text fill="#000000" font-family="sans-serif" font-size="13" lengthAdjust="spacing" textLength="23" x="357.0615" y="574.0452">0..*</text></g><!--link ???????????? to ???????????--><g id="link_&#1055;&#1086;&#1083;&#1100;&#1079;&#1086;&#1074;&#1072;&#1090;&#1077;&#1083;&#1100;_&#1059;&#1074;&#1077;&#1076;&#1086;&#1084;&#1083;&#1077;&#1085;&#1080;&#1077;"><path codeLine="83" d="M183.96,299.45 C240.81,324.65 321.17,360.26 381.58,387.03 " fill="none" id="&#1055;&#1086;&#1083;&#1100;&#1079;&#1086;&#1074;&#1072;&#1090;&#1077;&#1083;&#1100;-&#1059;&#1074;&#1077;&#1076;&#1086;&#1084;&#1083;&#1077;&#1085;&#1080;&#1077;" style="stroke:#181818;stroke-width:1.0;"/><text fill="#000000" font-family="sans-serif" font-size="13" lengthAdjust="spacing" textLength="64" x="268.5" y="329.5169">&#1087;&#1086;&#1083;&#1091;&#1095;&#1072;&#1077;&#1090;</text><text fill="#000000" font-family="sans-serif" font-size="13" lengthAdjust="spacing" textLength="8" x="191.6903" y="315.4947">1</text><text fill="#000000" font-family="sans-serif" font-size="13" lengthAdjust="spacing" textLength="23" x="350.8567" y="396.7184">0..*</text></g><!--link ????? to ?????--><g id="link_&#1040;&#1082;&#1094;&#1080;&#1103;_&#1041;&#1083;&#1102;&#1076;&#1086;"><path codeLine="84" d="M219.13,638.37 C273.22,623.93 338.03,606.62 387.67,593.36 " fill="none" id="&#1040;&#1082;&#1094;&#1080;&#1103;-&#1041;&#1083;&#1102;&#1076;&#1086;" style="stroke:#181818;stroke-width:1.0;"/><text fill="#000000" font-family="sans-serif" font-size="13" lengthAdjust="spacing" textLength="101" x="250" y="601.5169">&#1087;&#1088;&#1080;&#1084;&#1077;&#1085;&#1103;&#1077;&#1090;&#1089;&#1103; &#1082;</text><text fill="#000000" font-family="sans-serif" font-size="13" lengthAdjust="spacing" textLength="23" x="227.0333" y="649.0585">0..*</text><text fill="#000000" font-family="sans-serif" font-size="13" lengthAdjust="spacing" textLength="23" x="356.8643" y="607.8746">0..*</text></g><!--SRC=[fLJBRjDG4DtxAqRU885QmJPB7WlM_G1a9IPOTPpAyGOXfARc8KHL0q82LL0eIAmZDsdIF9nVcFj7d7jjkTU9RuXef2hDFCwSEJDpVVTfH56NGg_zBAAM5xhDoEi6Lc_V2mwSqEdGWTFSTzhkNlJSTqcwdQ3jkrf0QQCN5k5plnkstF11r- -658LEq4EO6qJMIyjg-awlHpR_u8ndufZ7-4vv88vu97_R1SATnmyRv255_U2lF1T9WtfHw0NjmlPBPl18l0B2ekfxr74ylpHfLR_mWAVu6nlg65XLWyvXXal4ehz2wRDA6JIevKHkv7LSlVP789tma3D3xU-IbwpA2vxmQ0Nw3vWi5BJRz3gENvXF4JxZJ1mYvGe1cUY3sN6EgnMNdD4QegR6yXdF8UUXRloaJ814ujm8ViPBGAlM3U2bxgjAne2ThxTL9x5U4EwnUC_fJSPeu2JNQYeRNHd0JzYlb10BlbYJu9iSZpWnyAdiHUq-FgbP3nF3Ch9gFiq7BDuM4qivMwFv6zQHJ8NeCxLHsBIRY6XIQ-CbV43A6p1D_kiIvBPDHD_WBGfB32WXZqCdKOqvWxfuErJSGlAfqhr5VCwfIC1bGl8G-9A78YQq6ujtvR4bS4qiarnatxDfPuVikxkxjsswdYareCHGlM43JEp8jZHV4LsNfssAX80GcOJ12t295YJCjNzx6FJvMW41Wd1N5JBL3hIdf22GQmGD8SscJEsTK3KdIjIyzotbAozV0QW1e5AAqAG0AYvnDV5VecrPl_Q059Ub0eZLCkLCoZMlcKDL_ALwl-UAkUe3VIM4fzgggBrnbLBy3yoo_by0]--></g></svg>