<?xml version="1.0" encoding="us-ascii" standalone="no"?><svg xmlns="http://www.w3.org/2000/svg" xmlns:xlink="http://www.w3.org/1999/xlink" contentStyleType="text/css" height="703px" preserveAspectRatio="none" style="width:927px;height:703px;background:#FFFFFF;" version="1.1" viewBox="0 0 927 703" width="927px" zoomAndPan="magnify"><defs/><g><!--cluster ?????????? ?????? ??????--><g id="cluster_&#1051;&#1086;&#1075;&#1080;&#1095;&#1077;&#1089;&#1082;&#1072;&#1103; &#1084;&#1086;&#1076;&#1077;&#1083;&#1100; &#1076;&#1072;&#1085;&#1085;&#1099;&#1093;"><rect fill="none" height="690" rx="2.5" ry="2.5" style="stroke:#000000;stroke-width:1.5;" width="914" x="7" y="7"/><text fill="#000000" font-family="sans-serif" font-size="14" font-weight="bold" lengthAdjust="spacing" textLength="229" x="349.5" y="21.9951">&#1051;&#1086;&#1075;&#1080;&#1095;&#1077;&#1089;&#1082;&#1072;&#1103; &#1084;&#1086;&#1076;&#1077;&#1083;&#1100; &#1076;&#1072;&#1085;&#1085;&#1099;&#1093;</text></g><!--class ????????????--><g id="elem_&#1055;&#1086;&#1083;&#1100;&#1079;&#1086;&#1074;&#1072;&#1090;&#1077;&#1083;&#1100;"><rect codeLine="5" fill="#F1F1F1" height="113.1875" id="&#1055;&#1086;&#1083;&#1100;&#1079;&#1086;&#1074;&#1072;&#1090;&#1077;&#1083;&#1100;" rx="2.5" ry="2.5" style="stroke:#181818;stroke-width:0.5;" width="141" x="58.5" y="222.41"/><ellipse cx="75.75" cy="238.41" fill="#ADD1B2" rx="11" ry="11" style="stroke:#181818;stroke-width:1.0;"/><path d="M78.7188,244.0506 Q78.1406,244.3475 77.5,244.4881 Q76.8594,244.6444 76.1563,244.6444 Q73.6563,244.6444 72.3281,243.0038 Q71.0156,241.3475 71.0156,238.2225 Q71.0156,235.0975 72.3281,233.4413 Q73.6563,231.785 76.1563,231.785 Q76.8594,231.785 77.5,231.9413 Q78.1563,232.0975 78.7188,232.3944 L78.7188,235.1131 Q78.0938,234.535 77.5,234.2694 Q76.9063,233.9881 76.2813,233.9881 Q74.9375,233.9881 74.25,235.0663 Q73.5625,236.1288 73.5625,238.2225 Q73.5625,240.3163 74.25,241.3944 Q74.9375,242.4569 76.2813,242.4569 Q76.9063,242.4569 77.5,242.1913 Q78.0938,241.91 78.7188,241.3319 L78.7188,244.0506 Z " fill="#000000"/><text fill="#000000" font-family="sans-serif" font-size="14" lengthAdjust="spacing" textLength="104" x="90.25" y="243.2567">&#1055;&#1086;&#1083;&#1100;&#1079;&#1086;&#1074;&#1072;&#1090;&#1077;&#1083;&#1100;</text><line style="stroke:#181818;stroke-width:0.5;" x1="59.5" x2="198.5" y1="254.41" y2="254.41"/><ellipse cx="69.5" cy="268.0584" fill="none" rx="3" ry="3" style="stroke:#038048;stroke-width:1.0;"/><text fill="#000000" font-family="sans-serif" font-size="14" lengthAdjust="spacing" textLength="40" x="78.5" y="271.4051">ID: int</text><ellipse cx="69.5" cy="284.3553" fill="none" rx="3" ry="3" style="stroke:#038048;stroke-width:1.0;"/><text fill="#000000" font-family="sans-serif" font-size="14" lengthAdjust="spacing" textLength="76" x="78.5" y="287.702">&#1048;&#1084;&#1103;: string</text><ellipse cx="69.5" cy="300.6522" fill="none" rx="3" ry="3" style="stroke:#038048;stroke-width:1.0;"/><text fill="#000000" font-family="sans-serif" font-size="14" lengthAdjust="spacing" textLength="115" x="78.5" y="303.9989">&#1058;&#1077;&#1083;&#1077;&#1092;&#1086;&#1085;: string</text><ellipse cx="69.5" cy="316.9491" fill="none" rx="3" ry="3" style="stroke:#038048;stroke-width:1.0;"/><text fill="#000000" font-family="sans-serif" font-size="14" lengthAdjust="spacing" textLength="84" x="78.5" y="320.2957">Email: string</text><line style="stroke:#181818;stroke-width:0.5;" x1="59.5" x2="198.5" y1="327.5975" y2="327.5975"/></g><!--class ?????--><g id="elem_&#1047;&#1072;&#1082;&#1072;&#1079;"><rect codeLine="12" fill="#F1F1F1" height="129.4844" id="&#1047;&#1072;&#1082;&#1072;&#1079;" rx="2.5" ry="2.5" style="stroke:#181818;stroke-width:0.5;" width="185" x="398" y="370.26"/><ellipse cx="465.75" cy="386.26" fill="#ADD1B2" rx="11" ry="11" style="stroke:#181818;stroke-width:1.0;"/><path d="M468.7188,391.9006 Q468.1406,392.1975 467.5,392.3381 Q466.8594,392.4944 466.1563,392.4944 Q463.6563,392.4944 462.3281,390.8538 Q461.0156,389.1975 461.0156,386.0725 Q461.0156,382.9475 462.3281,381.2913 Q463.6563,379.635 466.1563,379.635 Q466.8594,379.635 467.5,379.7913 Q468.1563,379.9475 468.7188,380.2444 L468.7188,382.9631 Q468.0938,382.385 467.5,382.1194 Q466.9063,381.8381 466.2813,381.8381 Q464.9375,381.8381 464.25,382.9163 Q463.5625,383.9788 463.5625,386.0725 Q463.5625,388.1663 464.25,389.2444 Q464.9375,390.3069 466.2813,390.3069 Q466.9063,390.3069 467.5,390.0413 Q468.0938,389.76 468.7188,389.1819 L468.7188,391.9006 Z " fill="#000000"/><text fill="#000000" font-family="sans-serif" font-size="14" lengthAdjust="spacing" textLength="41" x="486.25" y="391.1067">&#1047;&#1072;&#1082;&#1072;&#1079;</text><line style="stroke:#181818;stroke-width:0.5;" x1="399" x2="582" y1="402.26" y2="402.26"/><ellipse cx="409" cy="415.9084" fill="none" rx="3" ry="3" style="stroke:#038048;stroke-width:1.0;"/><text fill="#000000" font-family="sans-serif" font-size="14" lengthAdjust="spacing" textLength="40" x="418" y="419.2551">ID: int</text><ellipse cx="409" cy="432.2053" fill="none" rx="3" ry="3" style="stroke:#038048;stroke-width:1.0;"/><text fill="#000000" font-family="sans-serif" font-size="14" lengthAdjust="spacing" textLength="144" x="418" y="435.552">&#1055;&#1086;&#1083;&#1100;&#1079;&#1086;&#1074;&#1072;&#1090;&#1077;&#1083;&#1100;ID: int</text><ellipse cx="409" cy="448.5022" fill="none" rx="3" ry="3" style="stroke:#038048;stroke-width:1.0;"/><text fill="#000000" font-family="sans-serif" font-size="14" lengthAdjust="spacing" textLength="99" x="418" y="451.8489">&#1057;&#1090;&#1072;&#1090;&#1091;&#1089;: string</text><ellipse cx="409" cy="464.7991" fill="none" rx="3" ry="3" style="stroke:#038048;stroke-width:1.0;"/><text fill="#000000" font-family="sans-serif" font-size="14" lengthAdjust="spacing" textLength="107" x="418" y="468.1457">&#1044;&#1072;&#1090;&#1072;: datetime</text><ellipse cx="409" cy="481.0959" fill="none" rx="3" ry="3" style="stroke:#038048;stroke-width:1.0;"/><text fill="#000000" font-family="sans-serif" font-size="14" lengthAdjust="spacing" textLength="159" x="418" y="484.4426">&#1057;&#1087;&#1086;&#1089;&#1086;&#1073;&#1054;&#1087;&#1083;&#1072;&#1090;&#1099;: string</text><line style="stroke:#181818;stroke-width:0.5;" x1="399" x2="582" y1="491.7444" y2="491.7444"/></g><!--class ?????--><g id="elem_&#1041;&#1083;&#1102;&#1076;&#1086;"><rect codeLine="20" fill="#F1F1F1" height="145.7813" id="&#1041;&#1083;&#1102;&#1076;&#1086;" rx="2.5" ry="2.5" style="stroke:#181818;stroke-width:0.5;" width="175" x="403" y="535.11"/><ellipse cx="461.25" cy="551.11" fill="#ADD1B2" rx="11" ry="11" style="stroke:#181818;stroke-width:1.0;"/><path d="M464.2188,556.7506 Q463.6406,557.0475 463,557.1881 Q462.3594,557.3444 461.6563,557.3444 Q459.1563,557.3444 457.8281,555.7038 Q456.5156,554.0475 456.5156,550.9225 Q456.5156,547.7975 457.8281,546.1413 Q459.1563,544.485 461.6563,544.485 Q462.3594,544.485 463,544.6413 Q463.6563,544.7975 464.2188,545.0944 L464.2188,547.8131 Q463.5938,547.235 463,546.9694 Q462.4063,546.6881 461.7813,546.6881 Q460.4375,546.6881 459.75,547.7663 Q459.0625,548.8288 459.0625,550.9225 Q459.0625,553.0163 459.75,554.0944 Q460.4375,555.1569 461.7813,555.1569 Q462.4063,555.1569 463,554.8913 Q463.5938,554.61 464.2188,554.0319 L464.2188,556.7506 Z " fill="#000000"/><text fill="#000000" font-family="sans-serif" font-size="14" lengthAdjust="spacing" textLength="50" x="481.75" y="555.9567">&#1041;&#1083;&#1102;&#1076;&#1086;</text><line style="stroke:#181818;stroke-width:0.5;" x1="404" x2="577" y1="567.11" y2="567.11"/><ellipse cx="414" cy="580.7584" fill="none" rx="3" ry="3" style="stroke:#038048;stroke-width:1.0;"/><text fill="#000000" font-family="sans-serif" font-size="14" lengthAdjust="spacing" textLength="40" x="423" y="584.1051">ID: int</text><ellipse cx="414" cy="597.0553" fill="none" rx="3" ry="3" style="stroke:#038048;stroke-width:1.0;"/><text fill="#000000" font-family="sans-serif" font-size="14" lengthAdjust="spacing" textLength="117" x="423" y="600.402">&#1053;&#1072;&#1079;&#1074;&#1072;&#1085;&#1080;&#1077;: string</text><ellipse cx="414" cy="613.3522" fill="none" rx="3" ry="3" style="stroke:#038048;stroke-width:1.0;"/><text fill="#000000" font-family="sans-serif" font-size="14" lengthAdjust="spacing" textLength="99" x="423" y="616.6989">&#1062;&#1077;&#1085;&#1072;: decimal</text><ellipse cx="414" cy="629.6491" fill="none" rx="3" ry="3" style="stroke:#038048;stroke-width:1.0;"/><text fill="#000000" font-family="sans-serif" font-size="14" lengthAdjust="spacing" textLength="132" x="423" y="632.9957">&#1050;&#1072;&#1083;&#1086;&#1088;&#1080;&#1081;&#1085;&#1086;&#1089;&#1090;&#1100;: int</text><ellipse cx="414" cy="645.9459" fill="none" rx="3" ry="3" style="stroke:#038048;stroke-width:1.0;"/><text fill="#000000" font-family="sans-serif" font-size="14" lengthAdjust="spacing" textLength="149" x="423" y="649.2926">&#1048;&#1085;&#1075;&#1088;&#1077;&#1076;&#1080;&#1077;&#1085;&#1090;&#1099;: string</text><ellipse cx="414" cy="662.2428" fill="none" rx="3" ry="3" style="stroke:#038048;stroke-width:1.0;"/><text fill="#000000" font-family="sans-serif" font-size="14" lengthAdjust="spacing" textLength="93" x="423" y="665.5895">&#1040;&#1082;&#1094;&#1080;&#1080;: string</text><line style="stroke:#181818;stroke-width:0.5;" x1="404" x2="577" y1="672.8913" y2="672.8913"/></g><!--class ??????--><g id="elem_&#1057;&#1090;&#1086;&#1083;&#1080;&#1082;"><rect codeLine="29" fill="#F1F1F1" height="113.1875" id="&#1057;&#1090;&#1086;&#1083;&#1080;&#1082;" rx="2.5" ry="2.5" style="stroke:#181818;stroke-width:0.5;" width="170" x="725" y="411.41"/><ellipse cx="778.75" cy="427.41" fill="#ADD1B2" rx="11" ry="11" style="stroke:#181818;stroke-width:1.0;"/><path d="M781.7188,433.0506 Q781.1406,433.3475 780.5,433.4881 Q779.8594,433.6444 779.1563,433.6444 Q776.6563,433.6444 775.3281,432.0038 Q774.0156,430.3475 774.0156,427.2225 Q774.0156,424.0975 775.3281,422.4413 Q776.6563,420.785 779.1563,420.785 Q779.8594,420.785 780.5,420.9413 Q781.1563,421.0975 781.7188,421.3944 L781.7188,424.1131 Q781.0938,423.535 780.5,423.2694 Q779.9063,422.9881 779.2813,422.9881 Q777.9375,422.9881 777.25,424.0663 Q776.5625,425.1288 776.5625,427.2225 Q776.5625,429.3163 777.25,430.3944 Q777.9375,431.4569 779.2813,431.4569 Q779.9063,431.4569 780.5,431.1913 Q781.0938,430.91 781.7188,430.3319 L781.7188,433.0506 Z " fill="#000000"/><text fill="#000000" font-family="sans-serif" font-size="14" lengthAdjust="spacing" textLength="54" x="799.25" y="432.2567">&#1057;&#1090;&#1086;&#1083;&#1080;&#1082;</text><line style="stroke:#181818;stroke-width:0.5;" x1="726" x2="894" y1="443.41" y2="443.41"/><ellipse cx="736" cy="457.0584" fill="none" rx="3" ry="3" style="stroke:#038048;stroke-width:1.0;"/><text fill="#000000" font-family="sans-serif" font-size="14" lengthAdjust="spacing" textLength="40" x="745" y="460.4051">ID: int</text><ellipse cx="736" cy="473.3553" fill="none" rx="3" ry="3" style="stroke:#038048;stroke-width:1.0;"/><text fill="#000000" font-family="sans-serif" font-size="14" lengthAdjust="spacing" textLength="73" x="745" y="476.702">&#1053;&#1086;&#1084;&#1077;&#1088;: int</text><ellipse cx="736" cy="489.6522" fill="none" rx="3" ry="3" style="stroke:#038048;stroke-width:1.0;"/><text fill="#000000" font-family="sans-serif" font-size="14" lengthAdjust="spacing" textLength="125" x="745" y="492.9989">&#1042;&#1084;&#1077;&#1089;&#1090;&#1080;&#1084;&#1086;&#1089;&#1090;&#1100;: int</text><ellipse cx="736" cy="505.9491" fill="none" rx="3" ry="3" style="stroke:#038048;stroke-width:1.0;"/><text fill="#000000" font-family="sans-serif" font-size="14" lengthAdjust="spacing" textLength="144" x="745" y="509.2957">&#1047;&#1072;&#1073;&#1088;&#1086;&#1085;&#1080;&#1088;&#1086;&#1074;&#1072;&#1085;: bool</text><line style="stroke:#181818;stroke-width:0.5;" x1="726" x2="894" y1="516.5975" y2="516.5975"/></g><!--class ??????--><g id="elem_&#1054;&#1087;&#1083;&#1072;&#1090;&#1072;"><rect codeLine="36" fill="#F1F1F1" height="129.4844" id="&#1054;&#1087;&#1083;&#1072;&#1090;&#1072;" rx="2.5" ry="2.5" style="stroke:#181818;stroke-width:0.5;" width="190" x="715" y="247.26"/><ellipse cx="778.75" cy="263.26" fill="#ADD1B2" rx="11" ry="11" style="stroke:#181818;stroke-width:1.0;"/><path d="M781.7188,268.9006 Q781.1406,269.1975 780.5,269.3381 Q779.8594,269.4944 779.1563,269.4944 Q776.6563,269.4944 775.3281,267.8538 Q774.0156,266.1975 774.0156,263.0725 Q774.0156,259.9475 775.3281,258.2913 Q776.6563,256.635 779.1563,256.635 Q779.8594,256.635 780.5,256.7913 Q781.1563,256.9475 781.7188,257.2444 L781.7188,259.9631 Q781.0938,259.385 780.5,259.1194 Q779.9063,258.8381 779.2813,258.8381 Q777.9375,258.8381 777.25,259.9163 Q776.5625,260.9788 776.5625,263.0725 Q776.5625,265.1663 777.25,266.2444 Q777.9375,267.3069 779.2813,267.3069 Q779.9063,267.3069 780.5,267.0413 Q781.0938,266.76 781.7188,266.1819 L781.7188,268.9006 Z " fill="#000000"/><text fill="#000000" font-family="sans-serif" font-size="14" lengthAdjust="spacing" textLength="54" x="799.25" y="268.1067">&#1054;&#1087;&#1083;&#1072;&#1090;&#1072;</text><line style="stroke:#181818;stroke-width:0.5;" x1="716" x2="904" y1="279.26" y2="279.26"/><ellipse cx="726" cy="292.9084" fill="none" rx="3" ry="3" style="stroke:#038048;stroke-width:1.0;"/><text fill="#000000" font-family="sans-serif" font-size="14" lengthAdjust="spacing" textLength="40" x="735" y="296.2551">ID: int</text><ellipse cx="726" cy="309.2053" fill="none" rx="3" ry="3" style="stroke:#038048;stroke-width:1.0;"/><text fill="#000000" font-family="sans-serif" font-size="14" lengthAdjust="spacing" textLength="81" x="735" y="312.552">&#1047;&#1072;&#1082;&#1072;&#1079;ID: int</text><ellipse cx="726" cy="325.5022" fill="none" rx="3" ry="3" style="stroke:#038048;stroke-width:1.0;"/><text fill="#000000" font-family="sans-serif" font-size="14" lengthAdjust="spacing" textLength="107" x="735" y="328.8489">&#1057;&#1091;&#1084;&#1084;&#1072;: decimal</text><ellipse cx="726" cy="341.7991" fill="none" rx="3" ry="3" style="stroke:#038048;stroke-width:1.0;"/><text fill="#000000" font-family="sans-serif" font-size="14" lengthAdjust="spacing" textLength="99" x="735" y="345.1457">&#1057;&#1090;&#1072;&#1090;&#1091;&#1089;: string</text><ellipse cx="726" cy="358.0959" fill="none" rx="3" ry="3" style="stroke:#038048;stroke-width:1.0;"/><text fill="#000000" font-family="sans-serif" font-size="14" lengthAdjust="spacing" textLength="164" x="735" y="361.4426">&#1044;&#1072;&#1090;&#1072;&#1054;&#1087;&#1083;&#1072;&#1090;&#1099;: datetime</text><line style="stroke:#181818;stroke-width:0.5;" x1="716" x2="904" y1="368.7444" y2="368.7444"/></g><!--class ?????--><g id="elem_&#1054;&#1090;&#1079;&#1099;&#1074;"><rect codeLine="44" fill="#F1F1F1" height="145.7813" id="&#1054;&#1090;&#1079;&#1099;&#1074;" rx="2.5" ry="2.5" style="stroke:#181818;stroke-width:0.5;" width="170" x="405.5" y="42.11"/><ellipse cx="462.75" cy="58.11" fill="#ADD1B2" rx="11" ry="11" style="stroke:#181818;stroke-width:1.0;"/><path d="M465.7188,63.7506 Q465.1406,64.0475 464.5,64.1881 Q463.8594,64.3444 463.1563,64.3444 Q460.6563,64.3444 459.3281,62.7038 Q458.0156,61.0475 458.0156,57.9225 Q458.0156,54.7975 459.3281,53.1413 Q460.6563,51.485 463.1563,51.485 Q463.8594,51.485 464.5,51.6413 Q465.1563,51.7975 465.7188,52.0944 L465.7188,54.8131 Q465.0938,54.235 464.5,53.9694 Q463.9063,53.6881 463.2813,53.6881 Q461.9375,53.6881 461.25,54.7663 Q460.5625,55.8288 460.5625,57.9225 Q460.5625,60.0163 461.25,61.0944 Q461.9375,62.1569 463.2813,62.1569 Q463.9063,62.1569 464.5,61.8913 Q465.0938,61.61 465.7188,61.0319 L465.7188,63.7506 Z " fill="#000000"/><text fill="#000000" font-family="sans-serif" font-size="14" lengthAdjust="spacing" textLength="47" x="483.25" y="62.9567">&#1054;&#1090;&#1079;&#1099;&#1074;</text><line style="stroke:#181818;stroke-width:0.5;" x1="406.5" x2="574.5" y1="74.11" y2="74.11"/><ellipse cx="416.5" cy="87.7584" fill="none" rx="3" ry="3" style="stroke:#038048;stroke-width:1.0;"/><text fill="#000000" font-family="sans-serif" font-size="14" lengthAdjust="spacing" textLength="40" x="425.5" y="91.1051">ID: int</text><ellipse cx="416.5" cy="104.0553" fill="none" rx="3" ry="3" style="stroke:#038048;stroke-width:1.0;"/><text fill="#000000" font-family="sans-serif" font-size="14" lengthAdjust="spacing" textLength="144" x="425.5" y="107.402">&#1055;&#1086;&#1083;&#1100;&#1079;&#1086;&#1074;&#1072;&#1090;&#1077;&#1083;&#1100;ID: int</text><ellipse cx="416.5" cy="120.3522" fill="none" rx="3" ry="3" style="stroke:#038048;stroke-width:1.0;"/><text fill="#000000" font-family="sans-serif" font-size="14" lengthAdjust="spacing" textLength="81" x="425.5" y="123.6989">&#1047;&#1072;&#1082;&#1072;&#1079;ID: int</text><ellipse cx="416.5" cy="136.6491" fill="none" rx="3" ry="3" style="stroke:#038048;stroke-width:1.0;"/><text fill="#000000" font-family="sans-serif" font-size="14" lengthAdjust="spacing" textLength="91" x="425.5" y="139.9957">&#1058;&#1077;&#1082;&#1089;&#1090;: string</text><ellipse cx="416.5" cy="152.9459" fill="none" rx="3" ry="3" style="stroke:#038048;stroke-width:1.0;"/><text fill="#000000" font-family="sans-serif" font-size="14" lengthAdjust="spacing" textLength="87" x="425.5" y="156.2926">&#1056;&#1077;&#1081;&#1090;&#1080;&#1085;&#1075;: int</text><ellipse cx="416.5" cy="169.2428" fill="none" rx="3" ry="3" style="stroke:#038048;stroke-width:1.0;"/><text fill="#000000" font-family="sans-serif" font-size="14" lengthAdjust="spacing" textLength="107" x="425.5" y="172.5895">&#1044;&#1072;&#1090;&#1072;: datetime</text><line style="stroke:#181818;stroke-width:0.5;" x1="406.5" x2="574.5" y1="179.8913" y2="179.8913"/></g><!--class ????--><g id="elem_&#1052;&#1077;&#1085;&#1102;"><rect codeLine="53" fill="#F1F1F1" height="96.8906" id="&#1052;&#1077;&#1085;&#1102;" rx="2.5" ry="2.5" style="stroke:#181818;stroke-width:0.5;" width="178" x="40" y="417.55"/><ellipse cx="103.75" cy="433.55" fill="#ADD1B2" rx="11" ry="11" style="stroke:#181818;stroke-width:1.0;"/><path d="M106.7188,439.1906 Q106.1406,439.4875 105.5,439.6281 Q104.8594,439.7844 104.1563,439.7844 Q101.6563,439.7844 100.3281,438.1438 Q99.0156,436.4875 99.0156,433.3625 Q99.0156,430.2375 100.3281,428.5813 Q101.6563,426.925 104.1563,426.925 Q104.8594,426.925 105.5,427.0813 Q106.1563,427.2375 106.7188,427.5344 L106.7188,430.2531 Q106.0938,429.675 105.5,429.4094 Q104.9063,429.1281 104.2813,429.1281 Q102.9375,429.1281 102.25,430.2063 Q101.5625,431.2688 101.5625,433.3625 Q101.5625,435.4563 102.25,436.5344 Q102.9375,437.5969 104.2813,437.5969 Q104.9063,437.5969 105.5,437.3313 Q106.0938,437.05 106.7188,436.4719 L106.7188,439.1906 Z " fill="#000000"/><text fill="#000000" font-family="sans-serif" font-size="14" lengthAdjust="spacing" textLength="42" x="124.25" y="438.3967">&#1052;&#1077;&#1085;&#1102;</text><line style="stroke:#181818;stroke-width:0.5;" x1="41" x2="217" y1="449.55" y2="449.55"/><ellipse cx="51" cy="463.1984" fill="none" rx="3" ry="3" style="stroke:#038048;stroke-width:1.0;"/><text fill="#000000" font-family="sans-serif" font-size="14" lengthAdjust="spacing" textLength="40" x="60" y="466.5451">ID: int</text><ellipse cx="51" cy="479.4953" fill="none" rx="3" ry="3" style="stroke:#038048;stroke-width:1.0;"/><text fill="#000000" font-family="sans-serif" font-size="14" lengthAdjust="spacing" textLength="77" x="60" y="482.842">&#1044;&#1072;&#1090;&#1072;: date</text><ellipse cx="51" cy="495.7922" fill="none" rx="3" ry="3" style="stroke:#038048;stroke-width:1.0;"/><text fill="#000000" font-family="sans-serif" font-size="14" lengthAdjust="spacing" textLength="152" x="60" y="499.1389">&#1054;&#1073;&#1085;&#1086;&#1074;&#1083;&#1077;&#1085;&#1086;: datetime</text><line style="stroke:#181818;stroke-width:0.5;" x1="41" x2="217" y1="506.4406" y2="506.4406"/></g><!--class ?????_?????--><g id="elem_&#1047;&#1072;&#1082;&#1072;&#1079;_&#1041;&#1083;&#1102;&#1076;&#1086;"><rect codeLine="59" fill="#F1F1F1" height="96.8906" id="&#1047;&#1072;&#1082;&#1072;&#1079;_&#1041;&#1083;&#1102;&#1076;&#1086;" rx="2.5" ry="2.5" style="stroke:#181818;stroke-width:0.5;" width="140" x="740" y="559.55"/><ellipse cx="759.5" cy="575.55" fill="#ADD1B2" rx="11" ry="11" style="stroke:#181818;stroke-width:1.0;"/><path d="M762.4688,581.1906 Q761.8906,581.4875 761.25,581.6281 Q760.6094,581.7844 759.9063,581.7844 Q757.4063,581.7844 756.0781,580.1438 Q754.7656,578.4875 754.7656,575.3625 Q754.7656,572.2375 756.0781,570.5813 Q757.4063,568.925 759.9063,568.925 Q760.6094,568.925 761.25,569.0813 Q761.9063,569.2375 762.4688,569.5344 L762.4688,572.2531 Q761.8438,571.675 761.25,571.4094 Q760.6563,571.1281 760.0313,571.1281 Q758.6875,571.1281 758,572.2063 Q757.3125,573.2688 757.3125,575.3625 Q757.3125,577.4563 758,578.5344 Q758.6875,579.5969 760.0313,579.5969 Q760.6563,579.5969 761.25,579.3313 Q761.8438,579.05 762.4688,578.4719 L762.4688,581.1906 Z " fill="#000000"/><text fill="#000000" font-family="sans-serif" font-size="14" lengthAdjust="spacing" textLength="98" x="774.5" y="580.3967">&#1047;&#1072;&#1082;&#1072;&#1079;_&#1041;&#1083;&#1102;&#1076;&#1086;</text><line style="stroke:#181818;stroke-width:0.5;" x1="741" x2="879" y1="591.55" y2="591.55"/><ellipse cx="751" cy="605.1984" fill="none" rx="3" ry="3" style="stroke:#038048;stroke-width:1.0;"/><text fill="#000000" font-family="sans-serif" font-size="14" lengthAdjust="spacing" textLength="81" x="760" y="608.5451">&#1047;&#1072;&#1082;&#1072;&#1079;ID: int</text><ellipse cx="751" cy="621.4953" fill="none" rx="3" ry="3" style="stroke:#038048;stroke-width:1.0;"/><text fill="#000000" font-family="sans-serif" font-size="14" lengthAdjust="spacing" textLength="90" x="760" y="624.842">&#1041;&#1083;&#1102;&#1076;&#1086;ID: int</text><ellipse cx="751" cy="637.7922" fill="none" rx="3" ry="3" style="stroke:#038048;stroke-width:1.0;"/><text fill="#000000" font-family="sans-serif" font-size="14" lengthAdjust="spacing" textLength="114" x="760" y="641.1389">&#1050;&#1086;&#1083;&#1080;&#1095;&#1077;&#1089;&#1090;&#1074;&#1086;: int</text><line style="stroke:#181818;stroke-width:0.5;" x1="741" x2="879" y1="648.4406" y2="648.4406"/></g><!--class ???????????--><g id="elem_&#1059;&#1074;&#1077;&#1076;&#1086;&#1084;&#1083;&#1077;&#1085;&#1080;&#1077;"><rect codeLine="65" fill="#F1F1F1" height="113.1875" id="&#1059;&#1074;&#1077;&#1076;&#1086;&#1084;&#1083;&#1077;&#1085;&#1080;&#1077;" rx="2.5" ry="2.5" style="stroke:#181818;stroke-width:0.5;" width="170" x="405.5" y="222.41"/><ellipse cx="438.05" cy="238.41" fill="#ADD1B2" rx="11" ry="11" style="stroke:#181818;stroke-width:1.0;"/><path d="M441.0188,244.0506 Q440.4406,244.3475 439.8,244.4881 Q439.1594,244.6444 438.4563,244.6444 Q435.9563,244.6444 434.6281,243.0038 Q433.3156,241.3475 433.3156,238.2225 Q433.3156,235.0975 434.6281,233.4413 Q435.9563,231.785 438.4563,231.785 Q439.1594,231.785 439.8,231.9413 Q440.4563,232.0975 441.0188,232.3944 L441.0188,235.1131 Q440.3938,234.535 439.8,234.2694 Q439.2063,233.9881 438.5813,233.9881 Q437.2375,233.9881 436.55,235.0663 Q435.8625,236.1288 435.8625,238.2225 Q435.8625,240.3163 436.55,241.3944 Q437.2375,242.4569 438.5813,242.4569 Q439.2063,242.4569 439.8,242.1913 Q440.3938,241.91 441.0188,241.3319 L441.0188,244.0506 Z " fill="#000000"/><text fill="#000000" font-family="sans-serif" font-size="14" lengthAdjust="spacing" textLength="99" x="455.95" y="243.2567">&#1059;&#1074;&#1077;&#1076;&#1086;&#1084;&#1083;&#1077;&#1085;&#1080;&#1077;</text><line style="stroke:#181818;stroke-width:0.5;" x1="406.5" x2="574.5" y1="254.41" y2="254.41"/><ellipse cx="416.5" cy="268.0584" fill="none" rx="3" ry="3" style="stroke:#038048;stroke-width:1.0;"/><text fill="#000000" font-family="sans-serif" font-size="14" lengthAdjust="spacing" textLength="40" x="425.5" y="271.4051">ID: int</text><ellipse cx="416.5" cy="284.3553" fill="none" rx="3" ry="3" style="stroke:#038048;stroke-width:1.0;"/><text fill="#000000" font-family="sans-serif" font-size="14" lengthAdjust="spacing" textLength="144" x="425.5" y="287.702">&#1055;&#1086;&#1083;&#1100;&#1079;&#1086;&#1074;&#1072;&#1090;&#1077;&#1083;&#1100;ID: int</text><ellipse cx="416.5" cy="300.6522" fill="none" rx="3" ry="3" style="stroke:#038048;stroke-width:1.0;"/><text fill="#000000" font-family="sans-serif" font-size="14" lengthAdjust="spacing" textLength="91" x="425.5" y="303.9989">&#1058;&#1077;&#1082;&#1089;&#1090;: string</text><ellipse cx="416.5" cy="316.9491" fill="none" rx="3" ry="3" style="stroke:#038048;stroke-width:1.0;"/><text fill="#000000" font-family="sans-serif" font-size="14" lengthAdjust="spacing" textLength="107" x="425.5" y="320.2957">&#1044;&#1072;&#1090;&#1072;: datetime</text><line style="stroke:#181818;stroke-width:0.5;" x1="406.5" x2="574.5" y1="327.5975" y2="327.5975"/></g><!--class ?????--><g id="elem_&#1040;&#1082;&#1094;&#1080;&#1103;"><rect codeLine="72" fill="#F1F1F1" height="129.4844" id="&#1040;&#1082;&#1094;&#1080;&#1103;" rx="2.5" ry="2.5" style="stroke:#181818;stroke-width:0.5;" width="212" x="23" y="549.26"/><ellipse cx="102.75" cy="565.26" fill="#ADD1B2" rx="11" ry="11" style="stroke:#181818;stroke-width:1.0;"/><path d="M105.7188,570.9006 Q105.1406,571.1975 104.5,571.3381 Q103.8594,571.4944 103.1563,571.4944 Q100.6563,571.4944 99.3281,569.8538 Q98.0156,568.1975 98.0156,565.0725 Q98.0156,561.9475 99.3281,560.2913 Q100.6563,558.635 103.1563,558.635 Q103.8594,558.635 104.5,558.7913 Q105.1563,558.9475 105.7188,559.2444 L105.7188,561.9631 Q105.0938,561.385 104.5,561.1194 Q103.9063,560.8381 103.2813,560.8381 Q101.9375,560.8381 101.25,561.9163 Q100.5625,562.9788 100.5625,565.0725 Q100.5625,567.1663 101.25,568.2444 Q101.9375,569.3069 103.2813,569.3069 Q103.9063,569.3069 104.5,569.0413 Q105.0938,568.76 105.7188,568.1819 L105.7188,570.9006 Z " fill="#000000"/><text fill="#000000" font-family="sans-serif" font-size="14" lengthAdjust="spacing" textLength="44" x="123.25" y="570.1067">&#1040;&#1082;&#1094;&#1080;&#1103;</text><line style="stroke:#181818;stroke-width:0.5;" x1="24" x2="234" y1="581.26" y2="581.26"/><ellipse cx="34" cy="594.9084" fill="none" rx="3" ry="3" style="stroke:#038048;stroke-width:1.0;"/><text fill="#000000" font-family="sans-serif" font-size="14" lengthAdjust="spacing" textLength="40" x="43" y="598.2551">ID: int</text><ellipse cx="34" cy="611.2053" fill="none" rx="3" ry="3" style="stroke:#038048;stroke-width:1.0;"/><text fill="#000000" font-family="sans-serif" font-size="14" lengthAdjust="spacing" textLength="117" x="43" y="614.552">&#1053;&#1072;&#1079;&#1074;&#1072;&#1085;&#1080;&#1077;: string</text><ellipse cx="34" cy="627.5022" fill="none" rx="3" ry="3" style="stroke:#038048;stroke-width:1.0;"/><text fill="#000000" font-family="sans-serif" font-size="14" lengthAdjust="spacing" textLength="120" x="43" y="630.8489">&#1054;&#1087;&#1080;&#1089;&#1072;&#1085;&#1080;&#1077;: string</text><ellipse cx="34" cy="643.7991" fill="none" rx="3" ry="3" style="stroke:#038048;stroke-width:1.0;"/><text fill="#000000" font-family="sans-serif" font-size="14" lengthAdjust="spacing" textLength="158" x="43" y="647.1457">&#1044;&#1072;&#1090;&#1072;&#1053;&#1072;&#1095;&#1072;&#1083;&#1072;: datetime</text><ellipse cx="34" cy="660.0959" fill="none" rx="3" ry="3" style="stroke:#038048;stroke-width:1.0;"/><text fill="#000000" font-family="sans-serif" font-size="14" lengthAdjust="spacing" textLength="186" x="43" y="663.4426">&#1044;&#1072;&#1090;&#1072;&#1054;&#1082;&#1086;&#1085;&#1095;&#1072;&#1085;&#1080;&#1103;: datetime</text><line style="stroke:#181818;stroke-width:0.5;" x1="24" x2="234" y1="670.7444" y2="670.7444"/></g><!--link ???????????? to ?????--><g id="link_&#1055;&#1086;&#1083;&#1100;&#1079;&#1086;&#1074;&#1072;&#1090;&#1077;&#1083;&#1100;_&#1047;&#1072;&#1082;&#1072;&#1079;"><path codeLine="82" d="M199.74,309.26 C256.2,333.76 336.18,368.47 397.82,395.22 " fill="none" id="&#1055;&#1086;&#1083;&#1100;&#1079;&#1086;&#1074;&#1072;&#1090;&#1077;&#1083;&#1100;-&#1047;&#1072;&#1082;&#1072;&#1079;" style="stroke:#181818;stroke-width:1.0;"/><text fill="#000000" font-family="sans-serif" font-size="13" lengthAdjust="spacing" textLength="51" x="291" y="335.0669">&#1076;&#1077;&#1083;&#1072;&#1077;&#1090;</text><text fill="#000000" font-family="sans-serif" font-size="13" lengthAdjust="spacing" textLength="8" x="207.4476" y="325.2274">1</text><text fill="#000000" font-family="sans-serif" font-size="13" lengthAdjust="spacing" textLength="23" x="366.8437" y="404.8204">0..*</text></g><!--link ????? to ?????_?????--><g id="link_&#1047;&#1072;&#1082;&#1072;&#1079;_&#1047;&#1072;&#1082;&#1072;&#1079;_&#1041;&#1083;&#1102;&#1076;&#1086;"><path codeLine="83" d="M583.34,495.58 C593.25,501.63 603.27,507.54 613,513 C654.23,536.12 701.93,559.31 739.94,576.99 " fill="none" id="&#1047;&#1072;&#1082;&#1072;&#1079;-&#1047;&#1072;&#1082;&#1072;&#1079;_&#1041;&#1083;&#1102;&#1076;&#1086;" style="stroke:#181818;stroke-width:1.0;"/><text fill="#000000" font-family="sans-serif" font-size="13" lengthAdjust="spacing" textLength="70" x="614" y="509.0669">&#1089;&#1086;&#1076;&#1077;&#1088;&#1078;&#1080;&#1090;</text><text fill="#000000" font-family="sans-serif" font-size="13" lengthAdjust="spacing" textLength="23" x="591.0025" y="512.6512">0..*</text><text fill="#000000" font-family="sans-serif" font-size="13" lengthAdjust="spacing" textLength="23" x="708.9114" y="586.7496">0..*</text></g><!--link ????? to ?????_?????--><g id="link_&#1041;&#1083;&#1102;&#1076;&#1086;_&#1047;&#1072;&#1082;&#1072;&#1079;_&#1041;&#1083;&#1102;&#1076;&#1086;"><path codeLine="84" d="M578.26,608 C629.03,608 692.25,608 739.68,608 " fill="none" id="&#1041;&#1083;&#1102;&#1076;&#1086;-&#1047;&#1072;&#1082;&#1072;&#1079;_&#1041;&#1083;&#1102;&#1076;&#1086;" style="stroke:#181818;stroke-width:1.0;"/><text fill="#000000" font-family="sans-serif" font-size="13" lengthAdjust="spacing" textLength="62" x="618" y="604.0669">&#1074;&#1093;&#1086;&#1076;&#1080;&#1090; &#1074;</text><text fill="#000000" font-family="sans-serif" font-size="13" lengthAdjust="spacing" textLength="23" x="585.8596" y="620.6461">0..*</text><text fill="#000000" font-family="sans-serif" font-size="13" lengthAdjust="spacing" textLength="23" x="708.8815" y="620.7885">0..*</text></g><!--link ????? to ??????--><g id="link_&#1047;&#1072;&#1082;&#1072;&#1079;_&#1057;&#1090;&#1086;&#1083;&#1080;&#1082;"><path codeLine="85" d="M583.3,475.39 C593.17,478.49 603.2,481.13 613,483 C649.21,489.89 689.75,488.3 724.52,484.15 " fill="none" id="&#1047;&#1072;&#1082;&#1072;&#1079;-&#1057;&#1090;&#1086;&#1083;&#1080;&#1082;" style="stroke:#181818;stroke-width:1.0;"/><text fill="#000000" font-family="sans-serif" font-size="13" lengthAdjust="spacing" textLength="57" x="620.5" y="479.0669">&#1089;&#1074;&#1103;&#1079;&#1072;&#1085; &#1089;</text><text fill="#000000" font-family="sans-serif" font-size="13" lengthAdjust="spacing" textLength="8" x="591.0138" y="491.2782">1</text><text fill="#000000" font-family="sans-serif" font-size="13" lengthAdjust="spacing" textLength="23" x="694.095" y="498.0324">0..*</text></g><!--link ?????? to ?????--><g id="link_&#1057;&#1090;&#1086;&#1083;&#1080;&#1082;_&#1047;&#1072;&#1082;&#1072;&#1079;"><path codeLine="91" d="M724.7,459.24 C681.15,454.71 627.93,449.18 583.33,444.54 " fill="none" id="&#1057;&#1090;&#1086;&#1083;&#1080;&#1082;-&#1047;&#1072;&#1082;&#1072;&#1079;" style="stroke:#181818;stroke-width:1.0;"/><text fill="#000000" font-family="sans-serif" font-size="13" lengthAdjust="spacing" textLength="68" x="615" y="445.0669">&#1074;&#1082;&#1083;&#1102;&#1095;&#1072;&#1077;&#1090;</text><text fill="#000000" font-family="sans-serif" font-size="13" lengthAdjust="spacing" textLength="8" x="709.0258" y="471.204">1</text><text fill="#000000" font-family="sans-serif" font-size="13" lengthAdjust="spacing" textLength="23" x="590.9917" y="457.863">0..*</text></g><!--link ????? to ??????--><g id="link_&#1047;&#1072;&#1082;&#1072;&#1079;_&#1054;&#1087;&#1083;&#1072;&#1090;&#1072;"><path codeLine="86" d="M583.33,399.42 C624.54,383.46 673.11,364.64 714.62,348.56 " fill="none" id="&#1047;&#1072;&#1082;&#1072;&#1079;-&#1054;&#1087;&#1083;&#1072;&#1090;&#1072;" style="stroke:#181818;stroke-width:1.0;"/><text fill="#000000" font-family="sans-serif" font-size="13" lengthAdjust="spacing" textLength="42" x="628" y="359.0669">&#1080;&#1084;&#1077;&#1077;&#1090;</text><text fill="#000000" font-family="sans-serif" font-size="13" lengthAdjust="spacing" textLength="8" x="591.0461" y="409.2544">1</text><text fill="#000000" font-family="sans-serif" font-size="13" lengthAdjust="spacing" textLength="23" x="684.105" y="363.7294">0..*</text></g><!--link ???????????? to ?????--><g id="link_&#1055;&#1086;&#1083;&#1100;&#1079;&#1086;&#1074;&#1072;&#1090;&#1077;&#1083;&#1100;_&#1054;&#1090;&#1079;&#1099;&#1074;"><path codeLine="87" d="M199.74,247.18 C258.45,220.4 342.59,182.02 405.09,153.51 " fill="none" id="&#1055;&#1086;&#1083;&#1100;&#1079;&#1086;&#1074;&#1072;&#1090;&#1077;&#1083;&#1100;-&#1054;&#1090;&#1079;&#1099;&#1074;" style="stroke:#181818;stroke-width:1.0;"/><text fill="#000000" font-family="sans-serif" font-size="13" lengthAdjust="spacing" textLength="73" x="280" y="169.0669">&#1086;&#1089;&#1090;&#1072;&#1074;&#1083;&#1103;&#1077;&#1090;</text><text fill="#000000" font-family="sans-serif" font-size="13" lengthAdjust="spacing" textLength="8" x="207.4476" y="256.7454">1</text><text fill="#000000" font-family="sans-serif" font-size="13" lengthAdjust="spacing" textLength="23" x="374.3675" y="169.2486">0..*</text></g><!--link ???? to ?????--><g id="link_&#1052;&#1077;&#1085;&#1102;_&#1041;&#1083;&#1102;&#1076;&#1086;"><path codeLine="88" d="M218.4,500.92 C274.54,523.09 346.86,551.66 402.68,573.71 " fill="none" id="&#1052;&#1077;&#1085;&#1102;-&#1041;&#1083;&#1102;&#1076;&#1086;" style="stroke:#181818;stroke-width:1.0;"/><text fill="#000000" font-family="sans-serif" font-size="13" lengthAdjust="spacing" textLength="70" x="281.5" y="517.0669">&#1089;&#1086;&#1076;&#1077;&#1088;&#1078;&#1080;&#1090;</text><text fill="#000000" font-family="sans-serif" font-size="13" lengthAdjust="spacing" textLength="8" x="226.1347" y="516.5057">1</text><text fill="#000000" font-family="sans-serif" font-size="13" lengthAdjust="spacing" textLength="23" x="372.0758" y="583.7308">0..*</text></g><!--link ???????????? to ???????????--><g id="link_&#1055;&#1086;&#1083;&#1100;&#1079;&#1086;&#1074;&#1072;&#1090;&#1077;&#1083;&#1100;_&#1059;&#1074;&#1077;&#1076;&#1086;&#1084;&#1083;&#1077;&#1085;&#1080;&#1077;"><path codeLine="89" d="M199.74,279 C258.45,279 342.59,279 405.09,279 " fill="none" id="&#1055;&#1086;&#1083;&#1100;&#1079;&#1086;&#1074;&#1072;&#1090;&#1077;&#1083;&#1100;-&#1059;&#1074;&#1077;&#1076;&#1086;&#1084;&#1083;&#1077;&#1085;&#1080;&#1077;" style="stroke:#181818;stroke-width:1.0;"/><text fill="#000000" font-family="sans-serif" font-size="13" lengthAdjust="spacing" textLength="64" x="284.5" y="275.0669">&#1087;&#1086;&#1083;&#1091;&#1095;&#1072;&#1077;&#1090;</text><text fill="#000000" font-family="sans-serif" font-size="13" lengthAdjust="spacing" textLength="8" x="207.4476" y="291.8468">1</text><text fill="#000000" font-family="sans-serif" font-size="13" lengthAdjust="spacing" textLength="23" x="374.3675" y="291.6695">0..*</text></g><!--link ????? to ?????--><g id="link_&#1040;&#1082;&#1094;&#1080;&#1103;_&#1041;&#1083;&#1102;&#1076;&#1086;"><path codeLine="90" d="M235.43,612.24 C288.58,611.35 352.24,610.29 402.54,609.45 " fill="none" id="&#1040;&#1082;&#1094;&#1080;&#1103;-&#1041;&#1083;&#1102;&#1076;&#1086;" style="stroke:#181818;stroke-width:1.0;"/><text fill="#000000" font-family="sans-serif" font-size="13" lengthAdjust="spacing" textLength="101" x="266" y="607.0669">&#1087;&#1088;&#1080;&#1084;&#1077;&#1085;&#1103;&#1077;&#1090;&#1089;&#1103; &#1082;</text><text fill="#000000" font-family="sans-serif" font-size="13" lengthAdjust="spacing" textLength="23" x="242.9849" y="624.6787">0..*</text><text fill="#000000" font-family="sans-serif" font-size="13" lengthAdjust="spacing" textLength="23" x="371.9251" y="622.2072">0..*</text></g><!--SRC=[hLRBRjDG4DtxAwwyGGArWctMi63D1o2Jcc3LIQh46uIGseQ2KAeQ41AeG7b9hDCq9guJExymzuyuTvmuViMEHBE9S-TnpvmvCuvjFdM4qnKzg_NC4NjMpsmwLhUZzVUjpe7HCzhYm6Zk6otpaVFSDeKo6vsMRMhQybpez8KYkY9VlY5F7b508-aAckDmGXxDvAd0muX22kLGdkZYXIRmQTf6lu_Wx_233qtnFKReSHopSbEVEm_lDuJLSTO7z9dcqcs8ljEpEgtK-IyL3HYla2qisX-q3SlE7B_KCcW-0IWAe6dD_HjG5nr_mWIp7CYZ4hWVENJK47k6OpfMsqn7qe8Yy1dH9LtWUSPvXbNetmF36SYEQj1_KnKgt6YAJru9i3-e9sHWPjDg6tRAT8wm6P0T8lGQJi08NAV53eLq1ISFU7oLhG0-zdj7WNmD3x-gCCKY28TRK5jQ1EbvyZ1l-C37W8eayqsWLVil0JfInF0tazGGJxfTkmnOqXWQrG1Bb5McaG4WpSlftaf0MO5an9G73FUf7DBufWHUKPSQna0HNGBy1spNt0p891zOFXQvIhwogCvgwiYaIfrVOAf2hct6Ke-gBqkgVBnXoAfuI2AAflDOrl7g1D2n0h9ooM7u3QkQ9YNm63JcwgRQMDMhhTgnd6Ff_lVkKLhsiVWsUwnKZrnWJgsZyXMwdev0ZJJxgi5s2wMWc5i2AtSiNQ3prUlBexyqaGC1KWRoRRBeN9XyRHEnGh-dYvqTeT_TtRsjYxKgH0CSyViGlpnvh6ifszAxB2wbDvM2tmSJjT-0pkSqQ_lsQL3d2IT22e5Ta06JhI2rUfS0Oex09AYfYapjHhxJPrBZshUaBzbMd80RW9imiu0G9rfkWNnW7MbRtbywSenbmGa6BAaOIJ809Nt8ah_WT-USaNCTg0l_c08aIRDTAQKndf4pkVyV]--></g></svg>