<?xml version="1.0" encoding="us-ascii" standalone="no"?><svg xmlns="http://www.w3.org/2000/svg" xmlns:xlink="http://www.w3.org/1999/xlink" contentStyleType="text/css" height="548px" preserveAspectRatio="none" style="width:1553px;height:548px;background:#FFFFFF;" version="1.1" viewBox="0 0 1553 548" width="1553px" zoomAndPan="magnify"><defs/><g><rect fill="#FFFFFF" height="366.3984" style="stroke:#181818;stroke-width:1.0;" width="10" x="62.5" y="91.2969"/><rect fill="#FFFFFF" height="345.2656" style="stroke:#181818;stroke-width:1.0;" width="10" x="1191.5" y="112.4297"/><rect fill="#FFFFFF" height="257.8672" style="stroke:#181818;stroke-width:1.0;" width="10" x="1428.5" y="199.8281"/><rect fill="none" height="177.6016" style="stroke:#000000;stroke-width:1.5;" width="1536" x="10" y="273.0938"/><line style="stroke:#181818;stroke-width:0.5;stroke-dasharray:5.0,5.0;" x1="67" x2="67" y1="81.2969" y2="467.6953"/><line style="stroke:#181818;stroke-width:0.5;stroke-dasharray:5.0,5.0;" x1="1196.5" x2="1196.5" y1="81.2969" y2="467.6953"/><line style="stroke:#181818;stroke-width:0.5;stroke-dasharray:5.0,5.0;" x1="1433" x2="1433" y1="81.2969" y2="467.6953"/><text fill="#000000" font-family="sans-serif" font-size="14" lengthAdjust="spacing" textLength="89" x="20" y="77.9951">&#1055;&#1086;&#1089;&#1077;&#1090;&#1080;&#1090;&#1077;&#1083;&#1100;</text><ellipse cx="67.5" cy="13.5" fill="#E2E2F0" rx="8" ry="8" style="stroke:#181818;stroke-width:0.5;"/><path d="M67.5,21.5 L67.5,48.5 M54.5,29.5 L80.5,29.5 M67.5,48.5 L54.5,63.5 M67.5,48.5 L80.5,63.5 " fill="none" style="stroke:#181818;stroke-width:0.5;"/><text fill="#000000" font-family="sans-serif" font-size="14" lengthAdjust="spacing" textLength="89" x="20" y="479.6904">&#1055;&#1086;&#1089;&#1077;&#1090;&#1080;&#1090;&#1077;&#1083;&#1100;</text><ellipse cx="67.5" cy="491.4922" fill="#E2E2F0" rx="8" ry="8" style="stroke:#181818;stroke-width:0.5;"/><path d="M67.5,499.4922 L67.5,526.4922 M54.5,507.4922 L80.5,507.4922 M67.5,526.4922 L54.5,541.4922 M67.5,526.4922 L80.5,541.4922 " fill="none" style="stroke:#181818;stroke-width:0.5;"/><text fill="#000000" font-family="sans-serif" font-size="14" lengthAdjust="spacing" textLength="72" x="1157.5" y="77.9951">&#1058;&#1077;&#1088;&#1084;&#1080;&#1085;&#1072;&#1083;</text><ellipse cx="1196.5" cy="49" fill="#E2E2F0" rx="12" ry="12" style="stroke:#181818;stroke-width:0.5;"/><line style="stroke:#181818;stroke-width:0.5;" x1="1184.5" x2="1208.5" y1="63" y2="63"/><text fill="#000000" font-family="sans-serif" font-size="14" lengthAdjust="spacing" textLength="72" x="1157.5" y="479.6904">&#1058;&#1077;&#1088;&#1084;&#1080;&#1085;&#1072;&#1083;</text><ellipse cx="1196.5" cy="498.9922" fill="#E2E2F0" rx="12" ry="12" style="stroke:#181818;stroke-width:0.5;"/><line style="stroke:#181818;stroke-width:0.5;" x1="1184.5" x2="1208.5" y1="512.9922" y2="512.9922"/><text fill="#000000" font-family="sans-serif" font-size="14" lengthAdjust="spacing" textLength="199" x="1331" y="77.9951">&#1057;&#1080;&#1089;&#1090;&#1077;&#1084;&#1072; &#1059;&#1087;&#1088;&#1072;&#1074;&#1083;&#1077;&#1085;&#1080;&#1103; &#1052;&#1077;&#1085;&#1102;</text><path d="M1415.5,29 C1415.5,19 1433.5,19 1433.5,19 C1433.5,19 1451.5,19 1451.5,29 L1451.5,55 C1451.5,65 1433.5,65 1433.5,65 C1433.5,65 1415.5,65 1415.5,55 L1415.5,29 " fill="#E2E2F0" style="stroke:#181818;stroke-width:1.5;"/><path d="M1415.5,29 C1415.5,39 1433.5,39 1433.5,39 C1433.5,39 1451.5,39 1451.5,29 " fill="none" style="stroke:#181818;stroke-width:1.5;"/><text fill="#000000" font-family="sans-serif" font-size="14" lengthAdjust="spacing" textLength="199" x="1331" y="479.6904">&#1057;&#1080;&#1089;&#1090;&#1077;&#1084;&#1072; &#1059;&#1087;&#1088;&#1072;&#1074;&#1083;&#1077;&#1085;&#1080;&#1103; &#1052;&#1077;&#1085;&#1102;</text><path d="M1415.5,492.9922 C1415.5,482.9922 1433.5,482.9922 1433.5,482.9922 C1433.5,482.9922 1451.5,482.9922 1451.5,492.9922 L1451.5,518.9922 C1451.5,528.9922 1433.5,528.9922 1433.5,528.9922 C1433.5,528.9922 1415.5,528.9922 1415.5,518.9922 L1415.5,492.9922 " fill="#E2E2F0" style="stroke:#181818;stroke-width:1.5;"/><path d="M1415.5,492.9922 C1415.5,502.9922 1433.5,502.9922 1433.5,502.9922 C1433.5,502.9922 1451.5,502.9922 1451.5,492.9922 " fill="none" style="stroke:#181818;stroke-width:1.5;"/><rect fill="#FFFFFF" height="366.3984" style="stroke:#181818;stroke-width:1.0;" width="10" x="62.5" y="91.2969"/><rect fill="#FFFFFF" height="345.2656" style="stroke:#181818;stroke-width:1.0;" width="10" x="1191.5" y="112.4297"/><rect fill="#FFFFFF" height="257.8672" style="stroke:#181818;stroke-width:1.0;" width="10" x="1428.5" y="199.8281"/><polygon fill="#181818" points="1179.5,108.4297,1189.5,112.4297,1179.5,116.4297,1183.5,112.4297" style="stroke:#181818;stroke-width:1.0;"/><line style="stroke:#181818;stroke-width:1.0;" x1="72.5" x2="1185.5" y1="112.4297" y2="112.4297"/><text fill="#000000" font-family="sans-serif" font-size="13" lengthAdjust="spacing" textLength="314" x="79.5" y="107.3638">&#1040;&#1082;&#1090;&#1080;&#1074;&#1080;&#1088;&#1091;&#1077;&#1090; &#1090;&#1077;&#1088;&#1084;&#1080;&#1085;&#1072;&#1083; &#1095;&#1077;&#1088;&#1077;&#1079; &#1089;&#1077;&#1085;&#1089;&#1086;&#1088;&#1085;&#1099;&#1081; &#1101;&#1082;&#1088;&#1072;&#1085;</text><polygon fill="#181818" points="83.5,137.5625,73.5,141.5625,83.5,145.5625,79.5,141.5625" style="stroke:#181818;stroke-width:1.0;"/><line style="stroke:#181818;stroke-width:1.0;" x1="77.5" x2="1190.5" y1="141.5625" y2="141.5625"/><text fill="#000000" font-family="sans-serif" font-size="13" lengthAdjust="spacing" textLength="569" x="89.5" y="136.4966">&#1054;&#1090;&#1086;&#1073;&#1088;&#1072;&#1078;&#1072;&#1077;&#1090; &#1087;&#1088;&#1080;&#1074;&#1077;&#1090;&#1089;&#1090;&#1074;&#1077;&#1085;&#1085;&#1086;&#1077; &#1089;&#1086;&#1086;&#1073;&#1097;&#1077;&#1085;&#1080;&#1077; &#1080; &#1087;&#1088;&#1077;&#1076;&#1083;&#1072;&#1075;&#1072;&#1077;&#1090; &#1074;&#1099;&#1073;&#1088;&#1072;&#1090;&#1100; &#1103;&#1079;&#1099;&#1082; &#1080;&#1085;&#1090;&#1077;&#1088;&#1092;&#1077;&#1081;&#1089;&#1072;</text><polygon fill="#181818" points="1179.5,166.6953,1189.5,170.6953,1179.5,174.6953,1183.5,170.6953" style="stroke:#181818;stroke-width:1.0;"/><line style="stroke:#181818;stroke-width:1.0;" x1="72.5" x2="1185.5" y1="170.6953" y2="170.6953"/><text fill="#000000" font-family="sans-serif" font-size="13" lengthAdjust="spacing" textLength="227" x="79.5" y="165.6294">&#1042;&#1099;&#1073;&#1080;&#1088;&#1072;&#1077;&#1090; &#1087;&#1088;&#1077;&#1076;&#1087;&#1086;&#1095;&#1080;&#1090;&#1072;&#1077;&#1084;&#1099;&#1081; &#1103;&#1079;&#1099;&#1082;</text><polygon fill="#181818" points="1416.5,195.8281,1426.5,199.8281,1416.5,203.8281,1420.5,199.8281" style="stroke:#181818;stroke-width:1.0;"/><line style="stroke:#181818;stroke-width:1.0;" x1="1201.5" x2="1422.5" y1="199.8281" y2="199.8281"/><text fill="#000000" font-family="sans-serif" font-size="13" lengthAdjust="spacing" textLength="196" x="1208.5" y="194.7622">&#1047;&#1072;&#1087;&#1088;&#1072;&#1096;&#1080;&#1074;&#1072;&#1077;&#1090; &#1079;&#1072;&#1075;&#1088;&#1091;&#1079;&#1082;&#1091; &#1084;&#1077;&#1085;&#1102;</text><polygon fill="#181818" points="1212.5,224.9609,1202.5,228.9609,1212.5,232.9609,1208.5,228.9609" style="stroke:#181818;stroke-width:1.0;"/><line style="stroke:#181818;stroke-width:1.0;" x1="1206.5" x2="1427.5" y1="228.9609" y2="228.9609"/><text fill="#000000" font-family="sans-serif" font-size="13" lengthAdjust="spacing" textLength="180" x="1218.5" y="223.895">&#1054;&#1090;&#1087;&#1088;&#1072;&#1074;&#1083;&#1103;&#1077;&#1090; &#1076;&#1072;&#1085;&#1085;&#1099;&#1077; &#1084;&#1077;&#1085;&#1102;</text><polygon fill="#181818" points="83.5,254.0938,73.5,258.0938,83.5,262.0938,79.5,258.0938" style="stroke:#181818;stroke-width:1.0;"/><line style="stroke:#181818;stroke-width:1.0;" x1="77.5" x2="1190.5" y1="258.0938" y2="258.0938"/><text fill="#000000" font-family="sans-serif" font-size="13" lengthAdjust="spacing" textLength="304" x="89.5" y="253.0278">&#1054;&#1090;&#1086;&#1073;&#1088;&#1072;&#1078;&#1072;&#1077;&#1090; &#1084;&#1077;&#1085;&#1102; (&#1082;&#1072;&#1090;&#1077;&#1075;&#1086;&#1088;&#1080;&#1080; &#1073;&#1083;&#1102;&#1076;, &#1072;&#1082;&#1094;&#1080;&#1080;)</text><path d="M10,273.0938 L74,273.0938 L74,280.2266 L64,290.2266 L10,290.2266 L10,273.0938 " fill="#EEEEEE" style="stroke:#000000;stroke-width:1.5;"/><rect fill="none" height="177.6016" style="stroke:#000000;stroke-width:1.5;" width="1536" x="10" y="273.0938"/><text fill="#000000" font-family="sans-serif" font-size="13" font-weight="bold" lengthAdjust="spacing" textLength="19" x="25" y="286.1606">alt</text><text fill="#000000" font-family="sans-serif" font-size="11" font-weight="bold" lengthAdjust="spacing" textLength="176" x="89" y="285.3042">[&#1059;&#1089;&#1087;&#1077;&#1096;&#1085;&#1072;&#1103; &#1079;&#1072;&#1075;&#1088;&#1091;&#1079;&#1082;&#1072; &#1084;&#1077;&#1085;&#1102;]</text><polygon fill="#181818" points="1179.5,307.3594,1189.5,311.3594,1179.5,315.3594,1183.5,311.3594" style="stroke:#181818;stroke-width:1.0;"/><line style="stroke:#181818;stroke-width:1.0;" x1="72.5" x2="1185.5" y1="311.3594" y2="311.3594"/><text fill="#000000" font-family="sans-serif" font-size="13" lengthAdjust="spacing" textLength="315" x="79.5" y="306.2935">&#1055;&#1088;&#1086;&#1089;&#1084;&#1072;&#1090;&#1088;&#1080;&#1074;&#1072;&#1077;&#1090; &#1082;&#1072;&#1090;&#1077;&#1075;&#1086;&#1088;&#1080;&#1080; &#1080; &#1074;&#1099;&#1073;&#1080;&#1088;&#1072;&#1077;&#1090; &#1073;&#1083;&#1102;&#1076;&#1086;</text><polygon fill="#181818" points="83.5,336.4922,73.5,340.4922,83.5,344.4922,79.5,340.4922" style="stroke:#181818;stroke-width:1.0;"/><line style="stroke:#181818;stroke-width:1.0;" x1="77.5" x2="1190.5" y1="340.4922" y2="340.4922"/><text fill="#000000" font-family="sans-serif" font-size="13" lengthAdjust="spacing" textLength="686" x="89.5" y="335.4263">&#1055;&#1088;&#1077;&#1076;&#1086;&#1089;&#1090;&#1072;&#1074;&#1083;&#1103;&#1077;&#1090; &#1076;&#1077;&#1090;&#1072;&#1083;&#1100;&#1085;&#1091;&#1102; &#1080;&#1085;&#1092;&#1086;&#1088;&#1084;&#1072;&#1094;&#1080;&#1102; &#1087;&#1086; &#1074;&#1099;&#1073;&#1088;&#1072;&#1085;&#1085;&#1086;&#1084;&#1091; &#1073;&#1083;&#1102;&#1076;&#1091; (&#1080;&#1085;&#1075;&#1088;&#1077;&#1076;&#1080;&#1077;&#1085;&#1090;&#1099;, &#1094;&#1077;&#1085;&#1072;, &#1082;&#1072;&#1083;&#1086;&#1088;&#1080;&#1081;&#1085;&#1086;&#1089;&#1090;&#1100;)</text><line style="stroke:#000000;stroke-width:1.0;stroke-dasharray:2.0,2.0;" x1="10" x2="1546" y1="349.4922" y2="349.4922"/><text fill="#000000" font-family="sans-serif" font-size="11" font-weight="bold" lengthAdjust="spacing" textLength="163" x="15" y="359.7026">[&#1054;&#1096;&#1080;&#1073;&#1082;&#1072; &#1079;&#1072;&#1075;&#1088;&#1091;&#1079;&#1082;&#1080; &#1084;&#1077;&#1085;&#1102;]</text><polygon fill="#181818" points="1212.5,380.4297,1202.5,384.4297,1212.5,388.4297,1208.5,384.4297" style="stroke:#181818;stroke-width:1.0;"/><line style="stroke:#181818;stroke-width:1.0;" x1="1206.5" x2="1427.5" y1="384.4297" y2="384.4297"/><text fill="#000000" font-family="sans-serif" font-size="13" lengthAdjust="spacing" textLength="203" x="1218.5" y="379.3638">&#1042;&#1086;&#1079;&#1074;&#1088;&#1072;&#1097;&#1072;&#1077;&#1090; &#1086;&#1096;&#1080;&#1073;&#1082;&#1091; &#1079;&#1072;&#1075;&#1088;&#1091;&#1079;&#1082;&#1080;</text><polygon fill="#181818" points="83.5,409.5625,73.5,413.5625,83.5,417.5625,79.5,413.5625" style="stroke:#181818;stroke-width:1.0;"/><line style="stroke:#181818;stroke-width:1.0;" x1="77.5" x2="1190.5" y1="413.5625" y2="413.5625"/><text fill="#000000" font-family="sans-serif" font-size="13" lengthAdjust="spacing" textLength="1095" x="89.5" y="408.4966">&#1054;&#1090;&#1086;&#1073;&#1088;&#1072;&#1078;&#1072;&#1077;&#1090; &#1089;&#1086;&#1086;&#1073;&#1097;&#1077;&#1085;&#1080;&#1077; &#1086;&#1073; &#1086;&#1096;&#1080;&#1073;&#1082;&#1077;: "&#1048;&#1079;&#1074;&#1080;&#1085;&#1080;&#1090;&#1077;, &#1085;&#1077; &#1091;&#1076;&#1072;&#1083;&#1086;&#1089;&#1100; &#1079;&#1072;&#1075;&#1088;&#1091;&#1079;&#1080;&#1090;&#1100; &#1084;&#1077;&#1085;&#1102;. &#1055;&#1086;&#1078;&#1072;&#1083;&#1091;&#1081;&#1089;&#1090;&#1072;, &#1087;&#1086;&#1087;&#1088;&#1086;&#1073;&#1091;&#1081;&#1090;&#1077; &#1087;&#1086;&#1079;&#1078;&#1077; &#1080;&#1083;&#1080; &#1086;&#1073;&#1088;&#1072;&#1090;&#1080;&#1090;&#1077;&#1089;&#1100; &#1082; &#1085;&#1072;&#1096;&#1077;&#1084;&#1091; &#1087;&#1077;&#1088;&#1089;&#1086;&#1085;&#1072;&#1083;&#1091; &#1079;&#1072; &#1087;&#1086;&#1084;&#1086;&#1097;&#1100;&#1102;."</text><polygon fill="#181818" points="1179.5,438.6953,1189.5,442.6953,1179.5,446.6953,1183.5,442.6953" style="stroke:#181818;stroke-width:1.0;"/><line style="stroke:#181818;stroke-width:1.0;" x1="72.5" x2="1185.5" y1="442.6953" y2="442.6953"/><text fill="#000000" font-family="sans-serif" font-size="13" lengthAdjust="spacing" textLength="396" x="79.5" y="437.6294">&#1055;&#1086;&#1087;&#1099;&#1090;&#1082;&#1072; &#1087;&#1086;&#1074;&#1090;&#1086;&#1088;&#1085;&#1086;&#1075;&#1086; &#1079;&#1072;&#1087;&#1088;&#1086;&#1089;&#1072; &#1080;&#1083;&#1080; &#1086;&#1073;&#1088;&#1072;&#1097;&#1077;&#1085;&#1080;&#1077; &#1082; &#1087;&#1077;&#1088;&#1089;&#1086;&#1085;&#1072;&#1083;&#1091;</text><!--SRC=[ZLLBRjfG59rx5LUC4ebs0Hbq4rs16pn00Yg1KoapFb43WYPL9ksWAcgx0VDnR0msMxXlHpttsiOsDL8ZaS33x_pkUI_shVknJxpan8pODsCEyV9vRnPa3-XkuFGjf-UstNjgy6yyCEG3Xnopn_k6FE4w_MwxPtUibktQ7-o1W-T-0MIaC0VsYF_m4TiyNlCUIp6-V2R-8M_Das9qdTxT-_k1wtGjoxvrsvzirr5gilJtctSd6heX_igHw0HUQ8Pc8gf9sChQo3pgWiy1YJ5mZM1nYBzptf7v0WpH51U49oSdBl0gFpX_WY3XbUvvnKiurPR8m0VrkrPxCHxqXJJH7RFKCvOuJBVul4KI7czod3KqAJHm5cIUES12HE8bzMKUi6a7IAysa1VPBs6KXGdB4POVTQAU32Erdi5NR1OJ4BnlU5n7PgRgBqCDHBCc7Y2z2I5jdM4HOMcG9SGpjHBbgH1GezXRcOKEnozm_tiGsGQwuaX2nAUD3ZkKo5TWUU9ja_1qP3xBuhLbTrmK4uaUWJ2LpaWfAmwbkhaImazTyakGoC4vwEo6vRHgb8JPgCkZojHneXnrZfVPC1Fjs5bglYxXj4Bc10bePnwKKZJ1hIoY1wMMPHqzo0WpUhozqgEpoSX2DJusyoO1H1hiDTKJcflwsGc8I3ABQylfuE1ZDjANLHfTDSkmckNbThn0MG2jqhvP7bAI0ulaC-2BkTKrfUvKucE9WVqRt63VHOC6ejSXhCTofYVQqxtwNbILX7fsSvDlzKPLsZs-tgMZQ-eajFoYGTR7ek2edb_rYW1wIBdk_3fEwIBIdaxrA4z8gpjKHt7AeufIk0Cqpim2IXgNowjQvY28ycrhoKnkIRpVI6c2x2gGadl_o2kb6DNemN-EbjLowgw7qchn7yIfNFv_0G00]--></g></svg>