<svg xmlns="http://www.w3.org/2000/svg" xmlns:xlink="http://www.w3.org/1999/xlink" contentStyleType="text/css" height="400px" preserveAspectRatio="none" style="width:2064px;height:400px;background:#FFFFFF;" version="1.1" viewBox="0 0 2064 400" width="2064px" zoomAndPan="magnify"><defs/><g><!--class ????--><g id="elem_&#1052;&#1077;&#1085;&#1102;"><rect codeLine="3" fill="#F1F1F1" height="96.8906" id="&#1052;&#1077;&#1085;&#1102;" rx="2.5" ry="2.5" style="stroke:#181818;stroke-width:0.5;" width="146" x="697" y="7"/><ellipse cx="744.75" cy="23" fill="#ADD1B2" rx="11" ry="11" style="stroke:#181818;stroke-width:1.0;"/><path d="M748.8594,29 L741.1406,29 L741.1406,16.6094 L748.8594,16.6094 L748.8594,18.7656 L743.5938,18.7656 L743.5938,21.4375 L748.3594,21.4375 L748.3594,23.5938 L743.5938,23.5938 L743.5938,26.8438 L748.8594,26.8438 L748.8594,29 Z " fill="#000000"/><text fill="#000000" font-family="sans-serif" font-size="14" lengthAdjust="spacing" textLength="42" x="765.25" y="27.8467">&#1052;&#1077;&#1085;&#1102;</text><line style="stroke:#181818;stroke-width:0.5;" x1="698" x2="842" y1="39" y2="39"/><ellipse cx="708" cy="52.6484" fill="none" rx="3" ry="3" style="stroke:#038048;stroke-width:1.0;"/><text fill="#000000" font-family="sans-serif" font-size="14" lengthAdjust="spacing" textLength="40" x="717" y="55.9951">ID: int</text><ellipse cx="708" cy="68.9453" fill="none" rx="3" ry="3" style="stroke:#038048;stroke-width:1.0;"/><text fill="#000000" font-family="sans-serif" font-size="14" lengthAdjust="spacing" textLength="117" x="717" y="72.292">&#1053;&#1072;&#1079;&#1074;&#1072;&#1085;&#1080;&#1077;: string</text><ellipse cx="708" cy="85.2422" fill="none" rx="3" ry="3" style="stroke:#038048;stroke-width:1.0;"/><text fill="#000000" font-family="sans-serif" font-size="14" lengthAdjust="spacing" textLength="120" x="717" y="88.5889">&#1054;&#1087;&#1080;&#1089;&#1072;&#1085;&#1080;&#1077;: string</text><line style="stroke:#181818;stroke-width:0.5;" x1="698" x2="842" y1="95.8906" y2="95.8906"/></g><!--class ?????--><g id="elem_&#1041;&#1083;&#1102;&#1076;&#1086;"><rect codeLine="9" fill="#F1F1F1" height="113.1875" id="&#1041;&#1083;&#1102;&#1076;&#1086;" rx="2.5" ry="2.5" style="stroke:#181818;stroke-width:0.5;" width="152" x="989" y="146.86"/><ellipse cx="1035.75" cy="162.86" fill="#ADD1B2" rx="11" ry="11" style="stroke:#181818;stroke-width:1.0;"/><path d="M1039.8594,168.86 L1032.1406,168.86 L1032.1406,156.4694 L1039.8594,156.4694 L1039.8594,158.6256 L1034.5938,158.6256 L1034.5938,161.2975 L1039.3594,161.2975 L1039.3594,163.4537 L1034.5938,163.4537 L1034.5938,166.7037 L1039.8594,166.7037 L1039.8594,168.86 Z " fill="#000000"/><text fill="#000000" font-family="sans-serif" font-size="14" lengthAdjust="spacing" textLength="50" x="1056.25" y="167.7067">&#1041;&#1083;&#1102;&#1076;&#1086;</text><line style="stroke:#181818;stroke-width:0.5;" x1="990" x2="1140" y1="178.86" y2="178.86"/><ellipse cx="1000" cy="192.5084" fill="none" rx="3" ry="3" style="stroke:#038048;stroke-width:1.0;"/><text fill="#000000" font-family="sans-serif" font-size="14" lengthAdjust="spacing" textLength="40" x="1009" y="195.8551">ID: int</text><ellipse cx="1000" cy="208.8053" fill="none" rx="3" ry="3" style="stroke:#038048;stroke-width:1.0;"/><text fill="#000000" font-family="sans-serif" font-size="14" lengthAdjust="spacing" textLength="117" x="1009" y="212.152">&#1053;&#1072;&#1079;&#1074;&#1072;&#1085;&#1080;&#1077;: string</text><ellipse cx="1000" cy="225.1022" fill="none" rx="3" ry="3" style="stroke:#038048;stroke-width:1.0;"/><text fill="#000000" font-family="sans-serif" font-size="14" lengthAdjust="spacing" textLength="75" x="1009" y="228.4489">&#1062;&#1077;&#1085;&#1072;: float</text><ellipse cx="1000" cy="241.3991" fill="none" rx="3" ry="3" style="stroke:#038048;stroke-width:1.0;"/><text fill="#000000" font-family="sans-serif" font-size="14" lengthAdjust="spacing" textLength="126" x="1009" y="244.7457">&#1050;&#1072;&#1090;&#1077;&#1075;&#1086;&#1088;&#1080;&#1103;: string</text><line style="stroke:#181818;stroke-width:0.5;" x1="990" x2="1140" y1="252.0475" y2="252.0475"/></g><!--class ??????--><g id="elem_&#1056;&#1077;&#1094;&#1077;&#1087;&#1090;"><rect codeLine="16" fill="#F1F1F1" height="113.1875" id="&#1056;&#1077;&#1094;&#1077;&#1087;&#1090;" rx="2.5" ry="2.5" style="stroke:#181818;stroke-width:0.5;" width="175" x="1245" y="146.86"/><ellipse cx="1300.75" cy="162.86" fill="#ADD1B2" rx="11" ry="11" style="stroke:#181818;stroke-width:1.0;"/><path d="M1304.8594,168.86 L1297.1406,168.86 L1297.1406,156.4694 L1304.8594,156.4694 L1304.8594,158.6256 L1299.5938,158.6256 L1299.5938,161.2975 L1304.3594,161.2975 L1304.3594,163.4537 L1299.5938,163.4537 L1299.5938,166.7037 L1304.8594,166.7037 L1304.8594,168.86 Z " fill="#000000"/><text fill="#000000" font-family="sans-serif" font-size="14" lengthAdjust="spacing" textLength="55" x="1321.25" y="167.7067">&#1056;&#1077;&#1094;&#1077;&#1087;&#1090;</text><line style="stroke:#181818;stroke-width:0.5;" x1="1246" x2="1419" y1="178.86" y2="178.86"/><ellipse cx="1256" cy="192.5084" fill="none" rx="3" ry="3" style="stroke:#038048;stroke-width:1.0;"/><text fill="#000000" font-family="sans-serif" font-size="14" lengthAdjust="spacing" textLength="40" x="1265" y="195.8551">ID: int</text><ellipse cx="1256" cy="208.8053" fill="none" rx="3" ry="3" style="stroke:#038048;stroke-width:1.0;"/><text fill="#000000" font-family="sans-serif" font-size="14" lengthAdjust="spacing" textLength="97" x="1265" y="212.152">ID_&#1041;&#1083;&#1102;&#1076;&#1086;: int</text><ellipse cx="1256" cy="225.1022" fill="none" rx="3" ry="3" style="stroke:#038048;stroke-width:1.0;"/><text fill="#000000" font-family="sans-serif" font-size="14" lengthAdjust="spacing" textLength="149" x="1265" y="228.4489">&#1048;&#1085;&#1075;&#1088;&#1077;&#1076;&#1080;&#1077;&#1085;&#1090;&#1099;: string</text><ellipse cx="1256" cy="241.3991" fill="none" rx="3" ry="3" style="stroke:#038048;stroke-width:1.0;"/><text fill="#000000" font-family="sans-serif" font-size="14" lengthAdjust="spacing" textLength="117" x="1265" y="244.7457">&#1058;&#1077;&#1093;&#1050;&#1072;&#1088;&#1090;&#1072;: string</text><line style="stroke:#181818;stroke-width:0.5;" x1="1246" x2="1419" y1="252.0475" y2="252.0475"/></g><!--class ??????????--><g id="elem_&#1048;&#1085;&#1075;&#1088;&#1077;&#1076;&#1080;&#1077;&#1085;&#1090;"><rect codeLine="23" fill="#F1F1F1" height="129.4844" id="&#1048;&#1085;&#1075;&#1088;&#1077;&#1076;&#1080;&#1077;&#1085;&#1090;" rx="2.5" ry="2.5" style="stroke:#181818;stroke-width:0.5;" width="173" x="1557" y="138.71"/><ellipse cx="1594.95" cy="154.71" fill="#ADD1B2" rx="11" ry="11" style="stroke:#181818;stroke-width:1.0;"/><path d="M1599.0594,160.71 L1591.3406,160.71 L1591.3406,148.3194 L1599.0594,148.3194 L1599.0594,150.4756 L1593.7938,150.4756 L1593.7938,153.1475 L1598.5594,153.1475 L1598.5594,155.3037 L1593.7938,155.3037 L1593.7938,158.5537 L1599.0594,158.5537 L1599.0594,160.71 Z " fill="#000000"/><text fill="#000000" font-family="sans-serif" font-size="14" lengthAdjust="spacing" textLength="90" x="1614.05" y="159.5567">&#1048;&#1085;&#1075;&#1088;&#1077;&#1076;&#1080;&#1077;&#1085;&#1090;</text><line style="stroke:#181818;stroke-width:0.5;" x1="1558" x2="1729" y1="170.71" y2="170.71"/><ellipse cx="1568" cy="184.3584" fill="none" rx="3" ry="3" style="stroke:#038048;stroke-width:1.0;"/><text fill="#000000" font-family="sans-serif" font-size="14" lengthAdjust="spacing" textLength="40" x="1577" y="187.7051">ID: int</text><ellipse cx="1568" cy="200.6553" fill="none" rx="3" ry="3" style="stroke:#038048;stroke-width:1.0;"/><text fill="#000000" font-family="sans-serif" font-size="14" lengthAdjust="spacing" textLength="117" x="1577" y="204.002">&#1053;&#1072;&#1079;&#1074;&#1072;&#1085;&#1080;&#1077;: string</text><ellipse cx="1568" cy="216.9522" fill="none" rx="3" ry="3" style="stroke:#038048;stroke-width:1.0;"/><text fill="#000000" font-family="sans-serif" font-size="14" lengthAdjust="spacing" textLength="114" x="1577" y="220.2989">&#1050;&#1086;&#1083;&#1080;&#1095;&#1077;&#1089;&#1090;&#1074;&#1086;: int</text><ellipse cx="1568" cy="233.2491" fill="none" rx="3" ry="3" style="stroke:#038048;stroke-width:1.0;"/><text fill="#000000" font-family="sans-serif" font-size="14" lengthAdjust="spacing" textLength="112" x="1577" y="236.5957">&#1045;&#1076;&#1080;&#1085;&#1080;&#1094;&#1072;: string</text><ellipse cx="1568" cy="249.5459" fill="none" rx="3" ry="3" style="stroke:#038048;stroke-width:1.0;"/><text fill="#000000" font-family="sans-serif" font-size="14" lengthAdjust="spacing" textLength="147" x="1577" y="252.8926">&#1057;&#1088;&#1086;&#1082;&#1043;&#1086;&#1076;&#1085;&#1086;&#1089;&#1090;&#1080;: date</text><line style="stroke:#181818;stroke-width:0.5;" x1="1558" x2="1729" y1="260.1944" y2="260.1944"/></g><!--class ????????--><g id="elem_&#1055;&#1086;&#1089;&#1090;&#1072;&#1074;&#1082;&#1072;"><rect codeLine="31" fill="#F1F1F1" height="129.4844" id="&#1055;&#1086;&#1089;&#1090;&#1072;&#1074;&#1082;&#1072;" rx="2.5" ry="2.5" style="stroke:#181818;stroke-width:0.5;" width="172" x="1885" y="138.71"/><ellipse cx="1932.75" cy="154.71" fill="#ADD1B2" rx="11" ry="11" style="stroke:#181818;stroke-width:1.0;"/><path d="M1936.8594,160.71 L1929.1406,160.71 L1929.1406,148.3194 L1936.8594,148.3194 L1936.8594,150.4756 L1931.5938,150.4756 L1931.5938,153.1475 L1936.3594,153.1475 L1936.3594,155.3037 L1931.5938,155.3037 L1931.5938,158.5537 L1936.8594,158.5537 L1936.8594,160.71 Z " fill="#000000"/><text fill="#000000" font-family="sans-serif" font-size="14" lengthAdjust="spacing" textLength="68" x="1953.25" y="159.5567">&#1055;&#1086;&#1089;&#1090;&#1072;&#1074;&#1082;&#1072;</text><line style="stroke:#181818;stroke-width:0.5;" x1="1886" x2="2056" y1="170.71" y2="170.71"/><ellipse cx="1896" cy="184.3584" fill="none" rx="3" ry="3" style="stroke:#038048;stroke-width:1.0;"/><text fill="#000000" font-family="sans-serif" font-size="14" lengthAdjust="spacing" textLength="40" x="1905" y="187.7051">ID: int</text><ellipse cx="1896" cy="200.6553" fill="none" rx="3" ry="3" style="stroke:#038048;stroke-width:1.0;"/><text fill="#000000" font-family="sans-serif" font-size="14" lengthAdjust="spacing" textLength="137" x="1905" y="204.002">ID_&#1048;&#1085;&#1075;&#1088;&#1077;&#1076;&#1080;&#1077;&#1085;&#1090;: int</text><ellipse cx="1896" cy="216.9522" fill="none" rx="3" ry="3" style="stroke:#038048;stroke-width:1.0;"/><text fill="#000000" font-family="sans-serif" font-size="14" lengthAdjust="spacing" textLength="114" x="1905" y="220.2989">&#1050;&#1086;&#1083;&#1080;&#1095;&#1077;&#1089;&#1090;&#1074;&#1086;: int</text><ellipse cx="1896" cy="233.2491" fill="none" rx="3" ry="3" style="stroke:#038048;stroke-width:1.0;"/><text fill="#000000" font-family="sans-serif" font-size="14" lengthAdjust="spacing" textLength="146" x="1905" y="236.5957">&#1044;&#1072;&#1090;&#1072;&#1055;&#1086;&#1089;&#1090;&#1072;&#1074;&#1082;&#1080;: date</text><ellipse cx="1896" cy="249.5459" fill="none" rx="3" ry="3" style="stroke:#038048;stroke-width:1.0;"/><text fill="#000000" font-family="sans-serif" font-size="14" lengthAdjust="spacing" textLength="131" x="1905" y="252.8926">&#1055;&#1086;&#1089;&#1090;&#1072;&#1074;&#1097;&#1080;&#1082;: string</text><line style="stroke:#181818;stroke-width:0.5;" x1="1886" x2="2056" y1="260.1944" y2="260.1944"/></g><!--class ????????????--><g id="elem_&#1055;&#1086;&#1083;&#1100;&#1079;&#1086;&#1074;&#1072;&#1090;&#1077;&#1083;&#1100;"><rect codeLine="39" fill="#F1F1F1" height="129.4844" id="&#1055;&#1086;&#1083;&#1100;&#1079;&#1086;&#1074;&#1072;&#1090;&#1077;&#1083;&#1100;" rx="2.5" ry="2.5" style="stroke:#181818;stroke-width:0.5;" width="141" x="7" y="227.71"/><ellipse cx="24.25" cy="243.71" fill="#ADD1B2" rx="11" ry="11" style="stroke:#181818;stroke-width:1.0;"/><path d="M28.3594,249.71 L20.6406,249.71 L20.6406,237.3194 L28.3594,237.3194 L28.3594,239.4756 L23.0938,239.4756 L23.0938,242.1475 L27.8594,242.1475 L27.8594,244.3037 L23.0938,244.3037 L23.0938,247.5537 L28.3594,247.5537 L28.3594,249.71 Z " fill="#000000"/><text fill="#000000" font-family="sans-serif" font-size="14" lengthAdjust="spacing" textLength="104" x="38.75" y="248.5567">&#1055;&#1086;&#1083;&#1100;&#1079;&#1086;&#1074;&#1072;&#1090;&#1077;&#1083;&#1100;</text><line style="stroke:#181818;stroke-width:0.5;" x1="8" x2="147" y1="259.71" y2="259.71"/><ellipse cx="18" cy="273.3584" fill="none" rx="3" ry="3" style="stroke:#038048;stroke-width:1.0;"/><text fill="#000000" font-family="sans-serif" font-size="14" lengthAdjust="spacing" textLength="40" x="27" y="276.7051">ID: int</text><ellipse cx="18" cy="289.6553" fill="none" rx="3" ry="3" style="stroke:#038048;stroke-width:1.0;"/><text fill="#000000" font-family="sans-serif" font-size="14" lengthAdjust="spacing" textLength="76" x="27" y="293.002">&#1048;&#1084;&#1103;: string</text><ellipse cx="18" cy="305.9522" fill="none" rx="3" ry="3" style="stroke:#038048;stroke-width:1.0;"/><text fill="#000000" font-family="sans-serif" font-size="14" lengthAdjust="spacing" textLength="115" x="27" y="309.2989">&#1058;&#1077;&#1083;&#1077;&#1092;&#1086;&#1085;: string</text><ellipse cx="18" cy="322.2491" fill="none" rx="3" ry="3" style="stroke:#038048;stroke-width:1.0;"/><text fill="#000000" font-family="sans-serif" font-size="14" lengthAdjust="spacing" textLength="84" x="27" y="325.5957">Email: string</text><ellipse cx="18" cy="338.5459" fill="none" rx="3" ry="3" style="stroke:#038048;stroke-width:1.0;"/><text fill="#000000" font-family="sans-serif" font-size="14" lengthAdjust="spacing" textLength="101" x="27" y="341.8926">&#1055;&#1072;&#1088;&#1086;&#1083;&#1100;: string</text><line style="stroke:#181818;stroke-width:0.5;" x1="8" x2="147" y1="349.1944" y2="349.1944"/></g><!--class ?????--><g id="elem_&#1047;&#1072;&#1082;&#1072;&#1079;"><rect codeLine="47" fill="#F1F1F1" height="129.4844" id="&#1047;&#1072;&#1082;&#1072;&#1079;" rx="2.5" ry="2.5" style="stroke:#181818;stroke-width:0.5;" width="177" x="283" y="137.71"/><ellipse cx="346.75" cy="153.71" fill="#ADD1B2" rx="11" ry="11" style="stroke:#181818;stroke-width:1.0;"/><path d="M350.8594,159.71 L343.1406,159.71 L343.1406,147.3194 L350.8594,147.3194 L350.8594,149.4756 L345.5938,149.4756 L345.5938,152.1475 L350.3594,152.1475 L350.3594,154.3037 L345.5938,154.3037 L345.5938,157.5537 L350.8594,157.5537 L350.8594,159.71 Z " fill="#000000"/><text fill="#000000" font-family="sans-serif" font-size="14" lengthAdjust="spacing" textLength="41" x="367.25" y="158.5567">&#1047;&#1072;&#1082;&#1072;&#1079;</text><line style="stroke:#181818;stroke-width:0.5;" x1="284" x2="459" y1="169.71" y2="169.71"/><ellipse cx="294" cy="183.3584" fill="none" rx="3" ry="3" style="stroke:#038048;stroke-width:1.0;"/><text fill="#000000" font-family="sans-serif" font-size="14" lengthAdjust="spacing" textLength="40" x="303" y="186.7051">ID: int</text><ellipse cx="294" cy="199.6553" fill="none" rx="3" ry="3" style="stroke:#038048;stroke-width:1.0;"/><text fill="#000000" font-family="sans-serif" font-size="14" lengthAdjust="spacing" textLength="151" x="303" y="203.002">ID_&#1055;&#1086;&#1083;&#1100;&#1079;&#1086;&#1074;&#1072;&#1090;&#1077;&#1083;&#1100;: int</text><ellipse cx="294" cy="215.9522" fill="none" rx="3" ry="3" style="stroke:#038048;stroke-width:1.0;"/><text fill="#000000" font-family="sans-serif" font-size="14" lengthAdjust="spacing" textLength="99" x="303" y="219.2989">&#1057;&#1090;&#1072;&#1090;&#1091;&#1089;: string</text><ellipse cx="294" cy="232.2491" fill="none" rx="3" ry="3" style="stroke:#038048;stroke-width:1.0;"/><text fill="#000000" font-family="sans-serif" font-size="14" lengthAdjust="spacing" textLength="107" x="303" y="235.5957">&#1044;&#1072;&#1090;&#1072;: datetime</text><ellipse cx="294" cy="248.5459" fill="none" rx="3" ry="3" style="stroke:#038048;stroke-width:1.0;"/><text fill="#000000" font-family="sans-serif" font-size="14" lengthAdjust="spacing" textLength="83" x="303" y="251.8926">&#1057;&#1091;&#1084;&#1084;&#1072;: float</text><line style="stroke:#181818;stroke-width:0.5;" x1="284" x2="459" y1="259.1944" y2="259.1944"/></g><!--class ????????????--><g id="elem_&#1044;&#1077;&#1090;&#1072;&#1083;&#1080;&#1047;&#1072;&#1082;&#1072;&#1079;&#1072;"><rect codeLine="55" fill="#F1F1F1" height="129.4844" id="&#1044;&#1077;&#1090;&#1072;&#1083;&#1080;&#1047;&#1072;&#1082;&#1072;&#1079;&#1072;" rx="2.5" ry="2.5" style="stroke:#181818;stroke-width:0.5;" width="140" x="700" y="138.71"/><ellipse cx="716.35" cy="154.71" fill="#ADD1B2" rx="11" ry="11" style="stroke:#181818;stroke-width:1.0;"/><path d="M720.4594,160.71 L712.7406,160.71 L712.7406,148.3194 L720.4594,148.3194 L720.4594,150.4756 L715.1938,150.4756 L715.1938,153.1475 L719.9594,153.1475 L719.9594,155.3037 L715.1938,155.3037 L715.1938,158.5537 L720.4594,158.5537 L720.4594,160.71 Z " fill="#000000"/><text fill="#000000" font-family="sans-serif" font-size="14" lengthAdjust="spacing" textLength="105" x="730.65" y="159.5567">&#1044;&#1077;&#1090;&#1072;&#1083;&#1080;&#1047;&#1072;&#1082;&#1072;&#1079;&#1072;</text><line style="stroke:#181818;stroke-width:0.5;" x1="701" x2="839" y1="170.71" y2="170.71"/><ellipse cx="711" cy="184.3584" fill="none" rx="3" ry="3" style="stroke:#038048;stroke-width:1.0;"/><text fill="#000000" font-family="sans-serif" font-size="14" lengthAdjust="spacing" textLength="40" x="720" y="187.7051">ID: int</text><ellipse cx="711" cy="200.6553" fill="none" rx="3" ry="3" style="stroke:#038048;stroke-width:1.0;"/><text fill="#000000" font-family="sans-serif" font-size="14" lengthAdjust="spacing" textLength="88" x="720" y="204.002">ID_&#1047;&#1072;&#1082;&#1072;&#1079;: int</text><ellipse cx="711" cy="216.9522" fill="none" rx="3" ry="3" style="stroke:#038048;stroke-width:1.0;"/><text fill="#000000" font-family="sans-serif" font-size="14" lengthAdjust="spacing" textLength="97" x="720" y="220.2989">ID_&#1041;&#1083;&#1102;&#1076;&#1086;: int</text><ellipse cx="711" cy="233.2491" fill="none" rx="3" ry="3" style="stroke:#038048;stroke-width:1.0;"/><text fill="#000000" font-family="sans-serif" font-size="14" lengthAdjust="spacing" textLength="114" x="720" y="236.5957">&#1050;&#1086;&#1083;&#1080;&#1095;&#1077;&#1089;&#1090;&#1074;&#1086;: int</text><ellipse cx="711" cy="249.5459" fill="none" rx="3" ry="3" style="stroke:#038048;stroke-width:1.0;"/><text fill="#000000" font-family="sans-serif" font-size="14" lengthAdjust="spacing" textLength="75" x="720" y="252.8926">&#1062;&#1077;&#1085;&#1072;: float</text><line style="stroke:#181818;stroke-width:0.5;" x1="701" x2="839" y1="260.1944" y2="260.1944"/></g><!--class ?????--><g id="elem_&#1054;&#1090;&#1079;&#1099;&#1074;"><rect codeLine="63" fill="#F1F1F1" height="145.7813" id="&#1054;&#1090;&#1079;&#1099;&#1074;" rx="2.5" ry="2.5" style="stroke:#181818;stroke-width:0.5;" width="177" x="490" y="247.56"/><ellipse cx="550.75" cy="263.56" fill="#ADD1B2" rx="11" ry="11" style="stroke:#181818;stroke-width:1.0;"/><path d="M554.8594,269.56 L547.1406,269.56 L547.1406,257.1694 L554.8594,257.1694 L554.8594,259.3256 L549.5938,259.3256 L549.5938,261.9975 L554.3594,261.9975 L554.3594,264.1537 L549.5938,264.1537 L549.5938,267.4037 L554.8594,267.4037 L554.8594,269.56 Z " fill="#000000"/><text fill="#000000" font-family="sans-serif" font-size="14" lengthAdjust="spacing" textLength="47" x="571.25" y="268.4067">&#1054;&#1090;&#1079;&#1099;&#1074;</text><line style="stroke:#181818;stroke-width:0.5;" x1="491" x2="666" y1="279.56" y2="279.56"/><ellipse cx="501" cy="293.2084" fill="none" rx="3" ry="3" style="stroke:#038048;stroke-width:1.0;"/><text fill="#000000" font-family="sans-serif" font-size="14" lengthAdjust="spacing" textLength="40" x="510" y="296.5551">ID: int</text><ellipse cx="501" cy="309.5053" fill="none" rx="3" ry="3" style="stroke:#038048;stroke-width:1.0;"/><text fill="#000000" font-family="sans-serif" font-size="14" lengthAdjust="spacing" textLength="151" x="510" y="312.852">ID_&#1055;&#1086;&#1083;&#1100;&#1079;&#1086;&#1074;&#1072;&#1090;&#1077;&#1083;&#1100;: int</text><ellipse cx="501" cy="325.8022" fill="none" rx="3" ry="3" style="stroke:#038048;stroke-width:1.0;"/><text fill="#000000" font-family="sans-serif" font-size="14" lengthAdjust="spacing" textLength="97" x="510" y="329.1489">ID_&#1041;&#1083;&#1102;&#1076;&#1086;: int</text><ellipse cx="501" cy="342.0991" fill="none" rx="3" ry="3" style="stroke:#038048;stroke-width:1.0;"/><text fill="#000000" font-family="sans-serif" font-size="14" lengthAdjust="spacing" textLength="87" x="510" y="345.4457">&#1056;&#1077;&#1081;&#1090;&#1080;&#1085;&#1075;: int</text><ellipse cx="501" cy="358.3959" fill="none" rx="3" ry="3" style="stroke:#038048;stroke-width:1.0;"/><text fill="#000000" font-family="sans-serif" font-size="14" lengthAdjust="spacing" textLength="149" x="510" y="361.7426">&#1050;&#1086;&#1084;&#1084;&#1077;&#1085;&#1090;&#1072;&#1088;&#1080;&#1081;: string</text><ellipse cx="501" cy="374.6928" fill="none" rx="3" ry="3" style="stroke:#038048;stroke-width:1.0;"/><text fill="#000000" font-family="sans-serif" font-size="14" lengthAdjust="spacing" textLength="107" x="510" y="378.0395">&#1044;&#1072;&#1090;&#1072;: datetime</text><line style="stroke:#181818;stroke-width:0.5;" x1="491" x2="666" y1="385.3412" y2="385.3412"/></g><!--link ???? to ?????--><g id="link_&#1052;&#1077;&#1085;&#1102;_&#1041;&#1083;&#1102;&#1076;&#1086;"><path codeLine="72" d="M850.5705,95.6374 C894.7105,117.9374 927.8335,134.6641 972.5135,157.2341 " fill="none" id="&#1052;&#1077;&#1085;&#1102;-&#1041;&#1083;&#1102;&#1076;&#1086;" style="stroke:#181818;stroke-width:1.0;"/><line style="stroke:#181818;stroke-width:1.0;" x1="845.1965" x2="848.804" y1="97.404" y2="90.2635"/><line style="stroke:#181818;stroke-width:1.0;" x1="847.8742" x2="851.4816" y1="98.7567" y2="91.6163"/><line style="stroke:#181818;stroke-width:1.0;" x1="850.5705" x2="843.43" y1="95.6374" y2="92.03"/><line style="stroke:#181818;stroke-width:1.0;" x1="981.4393" x2="991.2853" y1="161.7429" y2="159.9945"/><line style="stroke:#181818;stroke-width:1.0;" x1="981.4393" x2="985.8747" y1="161.7429" y2="170.7055"/><line style="stroke:#181818;stroke-width:1.0;" x1="981.4393" x2="988.58" y1="161.7429" y2="165.35"/><ellipse cx="976.0839" cy="159.0376" fill="none" rx="4" ry="4" style="stroke:#181818;stroke-width:1.0;"/><text fill="#000000" font-family="sans-serif" font-size="13" lengthAdjust="spacing" textLength="68" x="882" y="104.5169">&#1074;&#1082;&#1083;&#1102;&#1095;&#1072;&#1077;&#1090;</text></g><!--link ????? to ??????--><g id="link_&#1041;&#1083;&#1102;&#1076;&#1086;_&#1056;&#1077;&#1094;&#1077;&#1087;&#1090;"><path codeLine="73" d="M1149.37,203.45 C1181.57,203.45 1193.34,203.45 1226.69,203.45 " fill="none" id="&#1041;&#1083;&#1102;&#1076;&#1086;-&#1056;&#1077;&#1094;&#1077;&#1087;&#1090;" style="stroke:#181818;stroke-width:1.0;"/><line style="stroke:#181818;stroke-width:1.0;" x1="1145.37" x2="1145.37" y1="207.45" y2="199.45"/><line style="stroke:#181818;stroke-width:1.0;" x1="1148.37" x2="1148.37" y1="207.45" y2="199.45"/><line style="stroke:#181818;stroke-width:1.0;" x1="1149.37" x2="1141.37" y1="203.45" y2="203.45"/><line style="stroke:#181818;stroke-width:1.0;" x1="1236.69" x2="1244.69" y1="203.45" y2="197.45"/><line style="stroke:#181818;stroke-width:1.0;" x1="1236.69" x2="1244.69" y1="203.45" y2="209.45"/><line style="stroke:#181818;stroke-width:1.0;" x1="1236.69" x2="1244.69" y1="203.45" y2="203.45"/><ellipse cx="1230.69" cy="203.45" fill="none" rx="4" ry="4" style="stroke:#181818;stroke-width:1.0;"/><text fill="#000000" font-family="sans-serif" font-size="13" lengthAdjust="spacing" textLength="42" x="1172" y="199.5169">&#1080;&#1084;&#1077;&#1077;&#1090;</text></g><!--link ?????? to ??????????--><g id="link_&#1056;&#1077;&#1094;&#1077;&#1087;&#1090;_&#1048;&#1085;&#1075;&#1088;&#1077;&#1076;&#1080;&#1077;&#1085;&#1090;"><path codeLine="74" d="M1428.4,203.45 C1470.97,203.45 1499.07,203.45 1541.52,203.45 " fill="none" id="&#1056;&#1077;&#1094;&#1077;&#1087;&#1090;-&#1048;&#1085;&#1075;&#1088;&#1077;&#1076;&#1080;&#1077;&#1085;&#1090;" style="stroke:#181818;stroke-width:1.0;"/><line style="stroke:#181818;stroke-width:1.0;" x1="1424.4" x2="1424.4" y1="207.45" y2="199.45"/><line style="stroke:#181818;stroke-width:1.0;" x1="1427.4" x2="1427.4" y1="207.45" y2="199.45"/><line style="stroke:#181818;stroke-width:1.0;" x1="1428.4" x2="1420.4" y1="203.45" y2="203.45"/><line style="stroke:#181818;stroke-width:1.0;" x1="1545.52" x2="1556.52" y1="203.45" y2="203.45"/><ellipse cx="1545.52" cy="203.45" fill="none" rx="4" ry="4" style="stroke:#181818;stroke-width:1.0;"/><line style="stroke:#181818;stroke-width:1.0;" x1="1552.52" x2="1552.52" y1="199.45" y2="207.45"/><text fill="#000000" font-family="sans-serif" font-size="13" lengthAdjust="spacing" textLength="75" x="1451" y="199.5169">&#1089;&#1086;&#1089;&#1090;&#1086;&#1080;&#1090; &#1080;&#1079;</text></g><!--link ?????????? to ????????--><g id="link_&#1048;&#1085;&#1075;&#1088;&#1077;&#1076;&#1080;&#1077;&#1085;&#1090;_&#1055;&#1086;&#1089;&#1090;&#1072;&#1074;&#1082;&#1072;"><path codeLine="75" d="M1738.45,203.45 C1786.1,203.45 1819.15,203.45 1866.7,203.45 " fill="none" id="&#1048;&#1085;&#1075;&#1088;&#1077;&#1076;&#1080;&#1077;&#1085;&#1090;-&#1055;&#1086;&#1089;&#1090;&#1072;&#1074;&#1082;&#1072;" style="stroke:#181818;stroke-width:1.0;"/><line style="stroke:#181818;stroke-width:1.0;" x1="1734.45" x2="1734.45" y1="207.45" y2="199.45"/><line style="stroke:#181818;stroke-width:1.0;" x1="1737.45" x2="1737.45" y1="207.45" y2="199.45"/><line style="stroke:#181818;stroke-width:1.0;" x1="1738.45" x2="1730.45" y1="203.45" y2="203.45"/><line style="stroke:#181818;stroke-width:1.0;" x1="1876.7" x2="1884.7" y1="203.45" y2="197.45"/><line style="stroke:#181818;stroke-width:1.0;" x1="1876.7" x2="1884.7" y1="203.45" y2="209.45"/><line style="stroke:#181818;stroke-width:1.0;" x1="1876.7" x2="1884.7" y1="203.45" y2="203.45"/><ellipse cx="1870.7" cy="203.45" fill="none" rx="4" ry="4" style="stroke:#181818;stroke-width:1.0;"/><text fill="#000000" font-family="sans-serif" font-size="13" lengthAdjust="spacing" textLength="93" x="1761" y="199.5169">&#1087;&#1086;&#1089;&#1090;&#1091;&#1087;&#1072;&#1077;&#1090; &#1086;&#1090;</text></g><!--link ???????????? to ?????--><g id="link_&#1055;&#1086;&#1083;&#1100;&#1079;&#1086;&#1074;&#1072;&#1090;&#1077;&#1083;&#1100;_&#1047;&#1072;&#1082;&#1072;&#1079;"><path codeLine="76" d="M156.0852,268.5341 C196.3252,256.1341 222.4183,248.0911 265.3483,234.8611 " fill="none" id="&#1055;&#1086;&#1083;&#1100;&#1079;&#1086;&#1074;&#1072;&#1090;&#1077;&#1083;&#1100;-&#1047;&#1072;&#1082;&#1072;&#1079;" style="stroke:#181818;stroke-width:1.0;"/><line style="stroke:#181818;stroke-width:1.0;" x1="153.4406" x2="151.0847" y1="273.5347" y2="265.8894"/><line style="stroke:#181818;stroke-width:1.0;" x1="156.3075" x2="153.9516" y1="272.6512" y2="265.006"/><line style="stroke:#181818;stroke-width:1.0;" x1="156.0852" x2="148.44" y1="268.5341" y2="270.89"/><line style="stroke:#181818;stroke-width:1.0;" x1="274.9048" x2="280.783" y1="231.9161" y2="223.8261"/><line style="stroke:#181818;stroke-width:1.0;" x1="274.9048" x2="284.317" y1="231.9161" y2="235.2939"/><line style="stroke:#181818;stroke-width:1.0;" x1="274.9048" x2="282.55" y1="231.9161" y2="229.56"/><ellipse cx="269.1709" cy="233.6831" fill="none" rx="4" ry="4" style="stroke:#181818;stroke-width:1.0;"/><text fill="#000000" font-family="sans-serif" font-size="13" lengthAdjust="spacing" textLength="51" x="190" y="235.5169">&#1076;&#1077;&#1083;&#1072;&#1077;&#1090;</text></g><!--link ????? to ????????????--><g id="link_&#1047;&#1072;&#1082;&#1072;&#1079;_&#1044;&#1077;&#1090;&#1072;&#1083;&#1080;&#1047;&#1072;&#1082;&#1072;&#1079;&#1072;"><path codeLine="77" d="M468.5,202.69 C540.59,202.87 615.2101,203.0667 681.6801,203.2267 " fill="none" id="&#1047;&#1072;&#1082;&#1072;&#1079;-&#1044;&#1077;&#1090;&#1072;&#1083;&#1080;&#1047;&#1072;&#1082;&#1072;&#1079;&#1072;" style="stroke:#181818;stroke-width:1.0;"/><line style="stroke:#181818;stroke-width:1.0;" x1="464.49" x2="464.51" y1="206.68" y2="198.68"/><line style="stroke:#181818;stroke-width:1.0;" x1="467.49" x2="467.51" y1="206.6875" y2="198.6875"/><line style="stroke:#181818;stroke-width:1.0;" x1="468.5" x2="460.5" y1="202.69" y2="202.67"/><line style="stroke:#181818;stroke-width:1.0;" x1="691.68" x2="699.6944" y1="203.2507" y2="197.27"/><line style="stroke:#181818;stroke-width:1.0;" x1="691.68" x2="699.6656" y1="203.2507" y2="209.27"/><line style="stroke:#181818;stroke-width:1.0;" x1="691.68" x2="699.68" y1="203.2507" y2="203.27"/><ellipse cx="685.68" cy="203.2363" fill="none" rx="4" ry="4" style="stroke:#181818;stroke-width:1.0;"/><text fill="#000000" font-family="sans-serif" font-size="13" lengthAdjust="spacing" textLength="70" x="543.5" y="199.5169">&#1089;&#1086;&#1076;&#1077;&#1088;&#1078;&#1080;&#1090;</text></g><!--link ???????????? to ?????--><g id="link_&#1044;&#1077;&#1090;&#1072;&#1083;&#1080;&#1047;&#1072;&#1082;&#1072;&#1079;&#1072;_&#1041;&#1083;&#1102;&#1076;&#1086;"><path codeLine="78" d="M848.44,203.45 C893.03,203.45 934.94,203.45 980.64,203.45 " fill="none" id="&#1044;&#1077;&#1090;&#1072;&#1083;&#1080;&#1047;&#1072;&#1082;&#1072;&#1079;&#1072;-&#1041;&#1083;&#1102;&#1076;&#1086;" style="stroke:#181818;stroke-width:1.0;"/><line style="stroke:#181818;stroke-width:1.0;" x1="844.44" x2="844.44" y1="207.45" y2="199.45"/><line style="stroke:#181818;stroke-width:1.0;" x1="847.44" x2="847.44" y1="207.45" y2="199.45"/><line style="stroke:#181818;stroke-width:1.0;" x1="848.44" x2="840.44" y1="203.45" y2="203.45"/><line style="stroke:#181818;stroke-width:1.0;" x1="984.64" x2="984.64" y1="199.45" y2="207.45"/><line style="stroke:#181818;stroke-width:1.0;" x1="981.64" x2="981.64" y1="199.45" y2="207.45"/><line style="stroke:#181818;stroke-width:1.0;" x1="980.64" x2="988.64" y1="203.45" y2="203.45"/><text fill="#000000" font-family="sans-serif" font-size="13" lengthAdjust="spacing" textLength="84" x="874" y="199.5169">&#1086;&#1090;&#1085;&#1086;&#1089;&#1080;&#1090;&#1089;&#1103; &#1082;</text></g><!--link ???????????? to ?????--><g id="link_&#1055;&#1086;&#1083;&#1100;&#1079;&#1086;&#1074;&#1072;&#1090;&#1077;&#1083;&#1100;_&#1054;&#1090;&#1079;&#1099;&#1074;"><path codeLine="79" d="M156.3974,296.818 C245.7174,301.828 374.3983,309.0506 471.6083,314.5106 " fill="none" id="&#1055;&#1086;&#1083;&#1100;&#1079;&#1086;&#1074;&#1072;&#1090;&#1077;&#1083;&#1100;-&#1054;&#1090;&#1079;&#1099;&#1074;" style="stroke:#181818;stroke-width:1.0;"/><line style="stroke:#181818;stroke-width:1.0;" x1="152.1797" x2="152.6277" y1="300.5877" y2="292.6003"/><line style="stroke:#181818;stroke-width:1.0;" x1="155.175" x2="155.623" y1="300.7557" y2="292.7683"/><line style="stroke:#181818;stroke-width:1.0;" x1="156.3974" x2="148.41" y1="296.818" y2="296.37"/><line style="stroke:#181818;stroke-width:1.0;" x1="481.5926" x2="489.9165" y1="315.0714" y2="309.5294"/><line style="stroke:#181818;stroke-width:1.0;" x1="481.5926" x2="489.2435" y1="315.0714" y2="321.5106"/><line style="stroke:#181818;stroke-width:1.0;" x1="481.5926" x2="489.58" y1="315.0714" y2="315.52"/><ellipse cx="475.602" cy="314.7349" fill="none" rx="4" ry="4" style="stroke:#181818;stroke-width:1.0;"/><text fill="#000000" font-family="sans-serif" font-size="13" lengthAdjust="spacing" textLength="73" x="179" y="295.5169">&#1086;&#1089;&#1090;&#1072;&#1074;&#1083;&#1103;&#1077;&#1090;</text></g><!--link ????? to ?????--><g id="link_&#1054;&#1090;&#1079;&#1099;&#1074;_&#1041;&#1083;&#1102;&#1076;&#1086;"><path codeLine="80" d="M675.3288,321.9926 C727.1488,321.1026 785.61,316.78 843,302.45 C893.58,289.82 939.8666,269.8017 981.5166,248.8017 " fill="none" id="&#1054;&#1090;&#1079;&#1099;&#1074;-&#1041;&#1083;&#1102;&#1076;&#1086;" style="stroke:#181818;stroke-width:1.0;"/><line style="stroke:#181818;stroke-width:1.0;" x1="671.3981" x2="671.2607" y1="326.0607" y2="318.0619"/><line style="stroke:#181818;stroke-width:1.0;" x1="674.3977" x2="674.2603" y1="326.0092" y2="318.0104"/><line style="stroke:#181818;stroke-width:1.0;" x1="675.3288" x2="667.33" y1="321.9926" y2="322.13"/><line style="stroke:#181818;stroke-width:1.0;" x1="983.2875" x2="986.8892" y1="243.4292" y2="250.5725"/><line style="stroke:#181818;stroke-width:1.0;" x1="980.6087" x2="984.2104" y1="244.7798" y2="251.9232"/><line style="stroke:#181818;stroke-width:1.0;" x1="981.5166" x2="988.66" y1="248.8017" y2="245.2"/><text fill="#000000" font-family="sans-serif" font-size="13" lengthAdjust="spacing" textLength="84" x="728" y="298.5169">&#1086;&#1090;&#1085;&#1086;&#1089;&#1080;&#1090;&#1089;&#1103; &#1082;</text></g><!--SRC=[fPJFJjj04CRlUOeLrueNy9aUU8egAWOiXKHAzrBXIYH0gugAg2ge2BMazD3pAiIDSOZp2hDlr6_MTjPPx0He8bcovzzllfdTbhyhXUo8Rh2tByLEqFNVog3JRZJyjWpaUq4_AAAPFXU73O7VAx6zvOcWBVCt-acA9ZJ2SqOnHPvu9xj1Uwymtz2SOjrxPFvW2tobgJwdCQKlBF670KbvOhVLQIw2hadfFYntbEeZ80ogIl-YI7-4qrptQuflRxsnW4jKLoXwXzGHBB7HgA_FNBRVA71gM8v0eweOAlAyK8XhIccALZ-XQ0_bHWxnfQc0KFIitE1R8AIKq3Synt1AJOhO4pjDwPTvXxb98Nz2QeLk5PqjyQpZlJ0ZL4x50YbtAXdrPvH9gZGUSYNz1UAbB9zP3BpNwNn53wLziQC4RQHFa6Fc65yVD8EM6p3agMU5gvY-0pdXWQvGi8Px2VQMcyVk7UkUIv0Bc0acWmFVnXpJ0_wBGrFYka2FB2ScOnbNpddXzRI3isxipdakeTt0UwBFQFH_ajMZuJwWUrvxtjn7qAoOsM8ps9Zkr-iD-CK56eQRcvt3ydtdYGspqdY76eg5tsYKx4L4-PhYcDY0PDvbc_4FgwyKnE4QpivA2lNx0gO94bGv5uNTiyx5vzatRD0yGnRum2HrXwn8PXUUqupDSIfwjhR2ksuDypuu7j1_kHF4rtbpjZ1qDGTlTiDnD9eP24gUq81Tlon9eSnK3_8shCSp2ly3]--></g></svg>