<svg xmlns="http://www.w3.org/2000/svg" xmlns:xlink="http://www.w3.org/1999/xlink" contentStyleType="text/css" height="491px" preserveAspectRatio="none" style="width:189px;height:491px;background:#FFFFFF;" version="1.1" viewBox="0 0 189 491" width="189px" zoomAndPan="magnify"><defs/><g><!--class Menu--><g id="elem_Menu"><rect codeLine="1" fill="#F1F1F1" height="96.8906" id="Menu" rx="2.5" ry="2.5" style="stroke:#181818;stroke-width:0.5;" width="146" x="21.5" y="7"/><ellipse cx="69.25" cy="23" fill="#ADD1B2" rx="11" ry="11" style="stroke:#181818;stroke-width:1.0;"/><path d="M73.3594,29 L65.6406,29 L65.6406,16.6094 L73.3594,16.6094 L73.3594,18.7656 L68.0938,18.7656 L68.0938,21.4375 L72.8594,21.4375 L72.8594,23.5938 L68.0938,23.5938 L68.0938,26.8438 L73.3594,26.8438 L73.3594,29 Z " fill="#000000"/><text fill="#000000" font-family="sans-serif" font-size="14" lengthAdjust="spacing" textLength="42" x="89.75" y="27.8467">&#1052;&#1077;&#1085;&#1102;</text><line style="stroke:#181818;stroke-width:0.5;" x1="22.5" x2="166.5" y1="39" y2="39"/><ellipse cx="32.5" cy="52.6484" fill="none" rx="3" ry="3" style="stroke:#038048;stroke-width:1.0;"/><text fill="#000000" font-family="sans-serif" font-size="14" lengthAdjust="spacing" textLength="40" x="41.5" y="55.9951">ID: int</text><ellipse cx="32.5" cy="68.9453" fill="none" rx="3" ry="3" style="stroke:#038048;stroke-width:1.0;"/><text fill="#000000" font-family="sans-serif" font-size="14" lengthAdjust="spacing" textLength="117" x="41.5" y="72.292">&#1053;&#1072;&#1079;&#1074;&#1072;&#1085;&#1080;&#1077;: string</text><ellipse cx="32.5" cy="85.2422" fill="none" rx="3" ry="3" style="stroke:#038048;stroke-width:1.0;"/><text fill="#000000" font-family="sans-serif" font-size="14" lengthAdjust="spacing" textLength="120" x="41.5" y="88.5889">&#1054;&#1087;&#1080;&#1089;&#1072;&#1085;&#1080;&#1077;: string</text><line style="stroke:#181818;stroke-width:0.5;" x1="22.5" x2="166.5" y1="95.8906" y2="95.8906"/></g><!--class Dish--><g id="elem_Dish"><rect codeLine="7" fill="#F1F1F1" height="113.1875" id="Dish" rx="2.5" ry="2.5" style="stroke:#181818;stroke-width:0.5;" width="152" x="18.5" y="180.89"/><ellipse cx="65.25" cy="196.89" fill="#ADD1B2" rx="11" ry="11" style="stroke:#181818;stroke-width:1.0;"/><path d="M69.3594,202.89 L61.6406,202.89 L61.6406,190.4994 L69.3594,190.4994 L69.3594,192.6556 L64.0938,192.6556 L64.0938,195.3275 L68.8594,195.3275 L68.8594,197.4838 L64.0938,197.4838 L64.0938,200.7338 L69.3594,200.7338 L69.3594,202.89 Z " fill="#000000"/><text fill="#000000" font-family="sans-serif" font-size="14" lengthAdjust="spacing" textLength="50" x="85.75" y="201.7367">&#1041;&#1083;&#1102;&#1076;&#1086;</text><line style="stroke:#181818;stroke-width:0.5;" x1="19.5" x2="169.5" y1="212.89" y2="212.89"/><ellipse cx="29.5" cy="226.5384" fill="none" rx="3" ry="3" style="stroke:#038048;stroke-width:1.0;"/><text fill="#000000" font-family="sans-serif" font-size="14" lengthAdjust="spacing" textLength="40" x="38.5" y="229.8851">ID: int</text><ellipse cx="29.5" cy="242.8353" fill="none" rx="3" ry="3" style="stroke:#038048;stroke-width:1.0;"/><text fill="#000000" font-family="sans-serif" font-size="14" lengthAdjust="spacing" textLength="117" x="38.5" y="246.182">&#1053;&#1072;&#1079;&#1074;&#1072;&#1085;&#1080;&#1077;: string</text><ellipse cx="29.5" cy="259.1322" fill="none" rx="3" ry="3" style="stroke:#038048;stroke-width:1.0;"/><text fill="#000000" font-family="sans-serif" font-size="14" lengthAdjust="spacing" textLength="75" x="38.5" y="262.4789">&#1062;&#1077;&#1085;&#1072;: float</text><ellipse cx="29.5" cy="275.4291" fill="none" rx="3" ry="3" style="stroke:#038048;stroke-width:1.0;"/><text fill="#000000" font-family="sans-serif" font-size="14" lengthAdjust="spacing" textLength="126" x="38.5" y="278.7757">&#1050;&#1072;&#1090;&#1077;&#1075;&#1086;&#1088;&#1080;&#1103;: string</text><line style="stroke:#181818;stroke-width:0.5;" x1="19.5" x2="169.5" y1="286.0775" y2="286.0775"/></g><!--class Recipe--><g id="elem_Recipe"><rect codeLine="14" fill="#F1F1F1" height="113.1875" id="Recipe" rx="2.5" ry="2.5" style="stroke:#181818;stroke-width:0.5;" width="175" x="7" y="371.08"/><ellipse cx="62.75" cy="387.08" fill="#ADD1B2" rx="11" ry="11" style="stroke:#181818;stroke-width:1.0;"/><path d="M66.8594,393.08 L59.1406,393.08 L59.1406,380.6894 L66.8594,380.6894 L66.8594,382.8456 L61.5938,382.8456 L61.5938,385.5175 L66.3594,385.5175 L66.3594,387.6738 L61.5938,387.6738 L61.5938,390.9238 L66.8594,390.9238 L66.8594,393.08 Z " fill="#000000"/><text fill="#000000" font-family="sans-serif" font-size="14" lengthAdjust="spacing" textLength="55" x="83.25" y="391.9267">&#1056;&#1077;&#1094;&#1077;&#1087;&#1090;</text><line style="stroke:#181818;stroke-width:0.5;" x1="8" x2="181" y1="403.08" y2="403.08"/><ellipse cx="18" cy="416.7284" fill="none" rx="3" ry="3" style="stroke:#038048;stroke-width:1.0;"/><text fill="#000000" font-family="sans-serif" font-size="14" lengthAdjust="spacing" textLength="40" x="27" y="420.0751">ID: int</text><ellipse cx="18" cy="433.0253" fill="none" rx="3" ry="3" style="stroke:#038048;stroke-width:1.0;"/><text fill="#000000" font-family="sans-serif" font-size="14" lengthAdjust="spacing" textLength="97" x="27" y="436.372">ID_&#1041;&#1083;&#1102;&#1076;&#1086;: int</text><ellipse cx="18" cy="449.3222" fill="none" rx="3" ry="3" style="stroke:#038048;stroke-width:1.0;"/><text fill="#000000" font-family="sans-serif" font-size="14" lengthAdjust="spacing" textLength="149" x="27" y="452.6689">&#1048;&#1085;&#1075;&#1088;&#1077;&#1076;&#1080;&#1077;&#1085;&#1090;&#1099;: string</text><ellipse cx="18" cy="465.6191" fill="none" rx="3" ry="3" style="stroke:#038048;stroke-width:1.0;"/><text fill="#000000" font-family="sans-serif" font-size="14" lengthAdjust="spacing" textLength="117" x="27" y="468.9657">&#1058;&#1077;&#1093;&#1050;&#1072;&#1088;&#1090;&#1072;: string</text><line style="stroke:#181818;stroke-width:0.5;" x1="8" x2="181" y1="476.2675" y2="476.2675"/></g><!--link Menu to Dish--><g id="link_Menu_Dish"><path codeLine="21" d="M94.5,112.22 C94.5,135.66 94.5,138.04 94.5,162.5 " fill="none" id="Menu-Dish" style="stroke:#181818;stroke-width:1.0;"/><line style="stroke:#181818;stroke-width:1.0;" x1="90.5" x2="98.5" y1="108.22" y2="108.22"/><line style="stroke:#181818;stroke-width:1.0;" x1="90.5" x2="98.5" y1="111.22" y2="111.22"/><line style="stroke:#181818;stroke-width:1.0;" x1="94.5" x2="94.5" y1="112.22" y2="104.22"/><line style="stroke:#181818;stroke-width:1.0;" x1="94.5" x2="100.5" y1="172.5" y2="180.5"/><line style="stroke:#181818;stroke-width:1.0;" x1="94.5" x2="88.5" y1="172.5" y2="180.5"/><line style="stroke:#181818;stroke-width:1.0;" x1="94.5" x2="94.5" y1="172.5" y2="180.5"/><ellipse cx="94.5" cy="166.5" fill="none" rx="4" ry="4" style="stroke:#181818;stroke-width:1.0;"/><text fill="#000000" font-family="sans-serif" font-size="13" lengthAdjust="spacing" textLength="68" x="95.5" y="146.9569">&#1074;&#1082;&#1083;&#1102;&#1095;&#1072;&#1077;&#1090;</text></g><!--link Dish to Recipe--><g id="link_Dish_Recipe"><path codeLine="22" d="M94.5,302.44 C94.5,326.49 94.5,328.55 94.5,352.61 " fill="none" id="Dish-Recipe" style="stroke:#181818;stroke-width:1.0;"/><line style="stroke:#181818;stroke-width:1.0;" x1="90.5" x2="98.5" y1="298.44" y2="298.44"/><line style="stroke:#181818;stroke-width:1.0;" x1="90.5" x2="98.5" y1="301.44" y2="301.44"/><line style="stroke:#181818;stroke-width:1.0;" x1="94.5" x2="94.5" y1="302.44" y2="294.44"/><line style="stroke:#181818;stroke-width:1.0;" x1="94.5" x2="100.5" y1="362.61" y2="370.61"/><line style="stroke:#181818;stroke-width:1.0;" x1="94.5" x2="88.5" y1="362.61" y2="370.61"/><line style="stroke:#181818;stroke-width:1.0;" x1="94.5" x2="94.5" y1="362.61" y2="370.61"/><ellipse cx="94.5" cy="356.61" fill="none" rx="4" ry="4" style="stroke:#181818;stroke-width:1.0;"/><text fill="#000000" font-family="sans-serif" font-size="13" lengthAdjust="spacing" textLength="42" x="95.5" y="337.1469">&#1080;&#1084;&#1077;&#1077;&#1090;</text></g><!--SRC=[bP2_QW9148VxUuh1Ldo1gw-niF45WiZ6BCWfkRC86j03JI4eTXAYY8Nr4RDu-FSLVlD6Zkk91cribc5-itpVZF937NvG1ZymsF4WGwM02ifl43KTeYpbFPUq7zeQ4yHOuLVU7H8ObuBmNVkLSpZ50Gbtxi9Fnr4NoWWR7k0FUylnTF3sF6TnCaNiqckrLae_V2FcIFfBxBaj5iE7z1aCzsJgm97b5rLPrzKZWxptSdMz4HiBUIa48_t4NYpY_d-zkK2wLgWjIl6jYBrhgvNBrPhdtLsI9TSd3d_9ieOZn_RJcTHFfX9iXIRv4G00]--></g></svg>