<svg xmlns="http://www.w3.org/2000/svg" xmlns:xlink="http://www.w3.org/1999/xlink" contentStyleType="text/css" height="349px" preserveAspectRatio="none" style="width:191px;height:349px;background:#FFFFFF;" version="1.1" viewBox="0 0 191 349" width="191px" zoomAndPan="magnify"><defs/><g><!--class Order--><g id="elem_Order"><rect codeLine="1" fill="#F1F1F1" height="129.4844" id="Order" rx="2.5" ry="2.5" style="stroke:#181818;stroke-width:0.5;" width="177" x="7" y="7"/><ellipse cx="70.75" cy="23" fill="#ADD1B2" rx="11" ry="11" style="stroke:#181818;stroke-width:1.0;"/><path d="M74.8594,29 L67.1406,29 L67.1406,16.6094 L74.8594,16.6094 L74.8594,18.7656 L69.5938,18.7656 L69.5938,21.4375 L74.3594,21.4375 L74.3594,23.5938 L69.5938,23.5938 L69.5938,26.8438 L74.8594,26.8438 L74.8594,29 Z " fill="#000000"/><text fill="#000000" font-family="sans-serif" font-size="14" lengthAdjust="spacing" textLength="41" x="91.25" y="27.8467">&#1047;&#1072;&#1082;&#1072;&#1079;</text><line style="stroke:#181818;stroke-width:0.5;" x1="8" x2="183" y1="39" y2="39"/><ellipse cx="18" cy="52.6484" fill="none" rx="3" ry="3" style="stroke:#038048;stroke-width:1.0;"/><text fill="#000000" font-family="sans-serif" font-size="14" lengthAdjust="spacing" textLength="40" x="27" y="55.9951">ID: int</text><ellipse cx="18" cy="68.9453" fill="none" rx="3" ry="3" style="stroke:#038048;stroke-width:1.0;"/><text fill="#000000" font-family="sans-serif" font-size="14" lengthAdjust="spacing" textLength="151" x="27" y="72.292">ID_&#1055;&#1086;&#1083;&#1100;&#1079;&#1086;&#1074;&#1072;&#1090;&#1077;&#1083;&#1100;: int</text><ellipse cx="18" cy="85.2422" fill="none" rx="3" ry="3" style="stroke:#038048;stroke-width:1.0;"/><text fill="#000000" font-family="sans-serif" font-size="14" lengthAdjust="spacing" textLength="99" x="27" y="88.5889">&#1057;&#1090;&#1072;&#1090;&#1091;&#1089;: string</text><ellipse cx="18" cy="101.5391" fill="none" rx="3" ry="3" style="stroke:#038048;stroke-width:1.0;"/><text fill="#000000" font-family="sans-serif" font-size="14" lengthAdjust="spacing" textLength="107" x="27" y="104.8857">&#1044;&#1072;&#1090;&#1072;: datetime</text><ellipse cx="18" cy="117.8359" fill="none" rx="3" ry="3" style="stroke:#038048;stroke-width:1.0;"/><text fill="#000000" font-family="sans-serif" font-size="14" lengthAdjust="spacing" textLength="83" x="27" y="121.1826">&#1057;&#1091;&#1084;&#1084;&#1072;: float</text><line style="stroke:#181818;stroke-width:0.5;" x1="8" x2="183" y1="128.4844" y2="128.4844"/></g><!--class OrderDetails--><g id="elem_OrderDetails"><rect codeLine="9" fill="#F1F1F1" height="129.4844" id="OrderDetails" rx="2.5" ry="2.5" style="stroke:#181818;stroke-width:0.5;" width="140" x="25.5" y="213.49"/><ellipse cx="41.85" cy="229.49" fill="#ADD1B2" rx="11" ry="11" style="stroke:#181818;stroke-width:1.0;"/><path d="M45.9594,235.49 L38.2406,235.49 L38.2406,223.0994 L45.9594,223.0994 L45.9594,225.2556 L40.6938,225.2556 L40.6938,227.9275 L45.4594,227.9275 L45.4594,230.0838 L40.6938,230.0838 L40.6938,233.3338 L45.9594,233.3338 L45.9594,235.49 Z " fill="#000000"/><text fill="#000000" font-family="sans-serif" font-size="14" lengthAdjust="spacing" textLength="105" x="56.15" y="234.3367">&#1044;&#1077;&#1090;&#1072;&#1083;&#1080;&#1047;&#1072;&#1082;&#1072;&#1079;&#1072;</text><line style="stroke:#181818;stroke-width:0.5;" x1="26.5" x2="164.5" y1="245.49" y2="245.49"/><ellipse cx="36.5" cy="259.1384" fill="none" rx="3" ry="3" style="stroke:#038048;stroke-width:1.0;"/><text fill="#000000" font-family="sans-serif" font-size="14" lengthAdjust="spacing" textLength="40" x="45.5" y="262.4851">ID: int</text><ellipse cx="36.5" cy="275.4353" fill="none" rx="3" ry="3" style="stroke:#038048;stroke-width:1.0;"/><text fill="#000000" font-family="sans-serif" font-size="14" lengthAdjust="spacing" textLength="88" x="45.5" y="278.782">ID_&#1047;&#1072;&#1082;&#1072;&#1079;: int</text><ellipse cx="36.5" cy="291.7322" fill="none" rx="3" ry="3" style="stroke:#038048;stroke-width:1.0;"/><text fill="#000000" font-family="sans-serif" font-size="14" lengthAdjust="spacing" textLength="97" x="45.5" y="295.0789">ID_&#1041;&#1083;&#1102;&#1076;&#1086;: int</text><ellipse cx="36.5" cy="308.0291" fill="none" rx="3" ry="3" style="stroke:#038048;stroke-width:1.0;"/><text fill="#000000" font-family="sans-serif" font-size="14" lengthAdjust="spacing" textLength="114" x="45.5" y="311.3757">&#1050;&#1086;&#1083;&#1080;&#1095;&#1077;&#1089;&#1090;&#1074;&#1086;: int</text><ellipse cx="36.5" cy="324.3259" fill="none" rx="3" ry="3" style="stroke:#038048;stroke-width:1.0;"/><text fill="#000000" font-family="sans-serif" font-size="14" lengthAdjust="spacing" textLength="75" x="45.5" y="327.6726">&#1062;&#1077;&#1085;&#1072;: float</text><line style="stroke:#181818;stroke-width:0.5;" x1="26.5" x2="164.5" y1="334.9744" y2="334.9744"/></g><!--link Order to OrderDetails--><g id="link_Order_OrderDetails"><path codeLine="17" d="M95.5,144.88 C95.5,169.24 95.5,170.98 95.5,195.32 " fill="none" id="Order-OrderDetails" style="stroke:#181818;stroke-width:1.0;"/><line style="stroke:#181818;stroke-width:1.0;" x1="91.5" x2="99.5" y1="140.88" y2="140.88"/><line style="stroke:#181818;stroke-width:1.0;" x1="91.5" x2="99.5" y1="143.88" y2="143.88"/><line style="stroke:#181818;stroke-width:1.0;" x1="95.5" x2="95.5" y1="144.88" y2="136.88"/><line style="stroke:#181818;stroke-width:1.0;" x1="95.5" x2="101.5" y1="205.32" y2="213.32"/><line style="stroke:#181818;stroke-width:1.0;" x1="95.5" x2="89.5" y1="205.32" y2="213.32"/><line style="stroke:#181818;stroke-width:1.0;" x1="95.5" x2="95.5" y1="205.32" y2="213.32"/><ellipse cx="95.5" cy="199.32" fill="none" rx="4" ry="4" style="stroke:#181818;stroke-width:1.0;"/><text fill="#000000" font-family="sans-serif" font-size="13" lengthAdjust="spacing" textLength="70" x="96.5" y="179.5569">&#1089;&#1086;&#1076;&#1077;&#1088;&#1078;&#1080;&#1090;</text></g><!--SRC=[TP0z2i9048Nxd6Am5I-GsiRA8qWWgop42CasOWIJ53OY289W8pRM8VWJ_3l3snivCSQOGfPbT-VDlFbcXQka6bC36oIuyhuqoFAfwzd2eub1rAHEsoJfgi-zXnsUkEa5BdocI7I4K_wkah3d6CTrh4EJVEL9Tr08wtTwOf9jAQ7aK9JvCUwyMEWx8qiPKyCG9TWQfxm6DsGL998AiosK9Ht_3-stf1vUCV8IHpn_iBVvOCZqd3k6t3EjgGSUyr53B3uf25gjqQIEOf8EsUp8HZESsJ9w0G00]--></g></svg>