<svg xmlns="http://www.w3.org/2000/svg" xmlns:xlink="http://www.w3.org/1999/xlink" contentStyleType="text/css" height="349px" preserveAspectRatio="none" style="width:187px;height:349px;background:#FFFFFF;" version="1.1" viewBox="0 0 187 349" width="187px" zoomAndPan="magnify"><defs/><g><!--class Ingredient--><g id="elem_Ingredient"><rect codeLine="1" fill="#F1F1F1" height="129.4844" id="Ingredient" rx="2.5" ry="2.5" style="stroke:#181818;stroke-width:0.5;" width="173" x="7" y="7"/><ellipse cx="44.95" cy="23" fill="#ADD1B2" rx="11" ry="11" style="stroke:#181818;stroke-width:1.0;"/><path d="M49.0594,29 L41.3406,29 L41.3406,16.6094 L49.0594,16.6094 L49.0594,18.7656 L43.7938,18.7656 L43.7938,21.4375 L48.5594,21.4375 L48.5594,23.5938 L43.7938,23.5938 L43.7938,26.8438 L49.0594,26.8438 L49.0594,29 Z " fill="#000000"/><text fill="#000000" font-family="sans-serif" font-size="14" lengthAdjust="spacing" textLength="90" x="64.05" y="27.8467">&#1048;&#1085;&#1075;&#1088;&#1077;&#1076;&#1080;&#1077;&#1085;&#1090;</text><line style="stroke:#181818;stroke-width:0.5;" x1="8" x2="179" y1="39" y2="39"/><ellipse cx="18" cy="52.6484" fill="none" rx="3" ry="3" style="stroke:#038048;stroke-width:1.0;"/><text fill="#000000" font-family="sans-serif" font-size="14" lengthAdjust="spacing" textLength="40" x="27" y="55.9951">ID: int</text><ellipse cx="18" cy="68.9453" fill="none" rx="3" ry="3" style="stroke:#038048;stroke-width:1.0;"/><text fill="#000000" font-family="sans-serif" font-size="14" lengthAdjust="spacing" textLength="117" x="27" y="72.292">&#1053;&#1072;&#1079;&#1074;&#1072;&#1085;&#1080;&#1077;: string</text><ellipse cx="18" cy="85.2422" fill="none" rx="3" ry="3" style="stroke:#038048;stroke-width:1.0;"/><text fill="#000000" font-family="sans-serif" font-size="14" lengthAdjust="spacing" textLength="114" x="27" y="88.5889">&#1050;&#1086;&#1083;&#1080;&#1095;&#1077;&#1089;&#1090;&#1074;&#1086;: int</text><ellipse cx="18" cy="101.5391" fill="none" rx="3" ry="3" style="stroke:#038048;stroke-width:1.0;"/><text fill="#000000" font-family="sans-serif" font-size="14" lengthAdjust="spacing" textLength="112" x="27" y="104.8857">&#1045;&#1076;&#1080;&#1085;&#1080;&#1094;&#1072;: string</text><ellipse cx="18" cy="117.8359" fill="none" rx="3" ry="3" style="stroke:#038048;stroke-width:1.0;"/><text fill="#000000" font-family="sans-serif" font-size="14" lengthAdjust="spacing" textLength="147" x="27" y="121.1826">&#1057;&#1088;&#1086;&#1082;&#1043;&#1086;&#1076;&#1085;&#1086;&#1089;&#1090;&#1080;: date</text><line style="stroke:#181818;stroke-width:0.5;" x1="8" x2="179" y1="128.4844" y2="128.4844"/></g><!--class Delivery--><g id="elem_Delivery"><rect codeLine="9" fill="#F1F1F1" height="129.4844" id="Delivery" rx="2.5" ry="2.5" style="stroke:#181818;stroke-width:0.5;" width="172" x="7.5" y="213.49"/><ellipse cx="55.25" cy="229.49" fill="#ADD1B2" rx="11" ry="11" style="stroke:#181818;stroke-width:1.0;"/><path d="M59.3594,235.49 L51.6406,235.49 L51.6406,223.0994 L59.3594,223.0994 L59.3594,225.2556 L54.0938,225.2556 L54.0938,227.9275 L58.8594,227.9275 L58.8594,230.0838 L54.0938,230.0838 L54.0938,233.3338 L59.3594,233.3338 L59.3594,235.49 Z " fill="#000000"/><text fill="#000000" font-family="sans-serif" font-size="14" lengthAdjust="spacing" textLength="68" x="75.75" y="234.3367">&#1055;&#1086;&#1089;&#1090;&#1072;&#1074;&#1082;&#1072;</text><line style="stroke:#181818;stroke-width:0.5;" x1="8.5" x2="178.5" y1="245.49" y2="245.49"/><ellipse cx="18.5" cy="259.1384" fill="none" rx="3" ry="3" style="stroke:#038048;stroke-width:1.0;"/><text fill="#000000" font-family="sans-serif" font-size="14" lengthAdjust="spacing" textLength="40" x="27.5" y="262.4851">ID: int</text><ellipse cx="18.5" cy="275.4353" fill="none" rx="3" ry="3" style="stroke:#038048;stroke-width:1.0;"/><text fill="#000000" font-family="sans-serif" font-size="14" lengthAdjust="spacing" textLength="137" x="27.5" y="278.782">ID_&#1048;&#1085;&#1075;&#1088;&#1077;&#1076;&#1080;&#1077;&#1085;&#1090;: int</text><ellipse cx="18.5" cy="291.7322" fill="none" rx="3" ry="3" style="stroke:#038048;stroke-width:1.0;"/><text fill="#000000" font-family="sans-serif" font-size="14" lengthAdjust="spacing" textLength="114" x="27.5" y="295.0789">&#1050;&#1086;&#1083;&#1080;&#1095;&#1077;&#1089;&#1090;&#1074;&#1086;: int</text><ellipse cx="18.5" cy="308.0291" fill="none" rx="3" ry="3" style="stroke:#038048;stroke-width:1.0;"/><text fill="#000000" font-family="sans-serif" font-size="14" lengthAdjust="spacing" textLength="146" x="27.5" y="311.3757">&#1044;&#1072;&#1090;&#1072;&#1055;&#1086;&#1089;&#1090;&#1072;&#1074;&#1082;&#1080;: date</text><ellipse cx="18.5" cy="324.3259" fill="none" rx="3" ry="3" style="stroke:#038048;stroke-width:1.0;"/><text fill="#000000" font-family="sans-serif" font-size="14" lengthAdjust="spacing" textLength="131" x="27.5" y="327.6726">&#1055;&#1086;&#1089;&#1090;&#1072;&#1074;&#1097;&#1080;&#1082;: string</text><line style="stroke:#181818;stroke-width:0.5;" x1="8.5" x2="178.5" y1="334.9744" y2="334.9744"/></g><!--link Ingredient to Delivery--><g id="link_Ingredient_Delivery"><path codeLine="17" d="M93.5,144.88 C93.5,169.24 93.5,170.98 93.5,195.32 " fill="none" id="Ingredient-Delivery" style="stroke:#181818;stroke-width:1.0;"/><line style="stroke:#181818;stroke-width:1.0;" x1="89.5" x2="97.5" y1="140.88" y2="140.88"/><line style="stroke:#181818;stroke-width:1.0;" x1="89.5" x2="97.5" y1="143.88" y2="143.88"/><line style="stroke:#181818;stroke-width:1.0;" x1="93.5" x2="93.5" y1="144.88" y2="136.88"/><line style="stroke:#181818;stroke-width:1.0;" x1="93.5" x2="99.5" y1="205.32" y2="213.32"/><line style="stroke:#181818;stroke-width:1.0;" x1="93.5" x2="87.5" y1="205.32" y2="213.32"/><line style="stroke:#181818;stroke-width:1.0;" x1="93.5" x2="93.5" y1="205.32" y2="213.32"/><ellipse cx="93.5" cy="199.32" fill="none" rx="4" ry="4" style="stroke:#181818;stroke-width:1.0;"/><text fill="#000000" font-family="sans-serif" font-size="13" lengthAdjust="spacing" textLength="72" x="94.5" y="179.5569">&#1087;&#1086;&#1089;&#1090;&#1091;&#1087;&#1072;&#1077;&#1090;</text></g><!--SRC=[VP1D2i8m48NtFSNWLhn0rztq528O920HQX141QsWk5P1115l4Fp1KcczmikD7EDV1N4p3Bptyhw9K5hgBfMmGeQ37UA48nAUcOrBL6jJg1gHg4kXDFKyeZA5WKzIQRTZ0uCpzZopUygdjewaQZp4DN9SaDWfJdPaOxRbXUZI5N7CJc2-Wplco95YplF8bjp54v_gDIsyWUU95_NsgHb-F8Lnn85eoew8kZzumw3wwz02rN_c1Omh-wvzWJbBGR8pBaZVfp5tuJFx_KgbrVl0-eJh8sh7l1dkZsy0]--></g></svg>