<svg xmlns="http://www.w3.org/2000/svg" xmlns:xlink="http://www.w3.org/1999/xlink" contentStyleType="text/css" height="665px" preserveAspectRatio="none" style="width:1446px;height:665px;background:#FFFFFF;" version="1.1" viewBox="0 0 1446 665" width="1446px" zoomAndPan="magnify"><defs/><g><rect fill="#D9E6F2" height="467.9297" style="stroke:#1B365D;stroke-width:1.0;" width="10" x="70" y="91.2969"/><rect fill="#D9E6F2" height="446.7969" style="stroke:#1B365D;stroke-width:1.0;" width="10" x="907" y="112.4297"/><rect fill="#D9E6F2" height="29.1328" style="stroke:#1B365D;stroke-width:1.0;" width="10" x="1102" y="369.625"/><rect fill="#D9E6F2" height="53.2656" style="stroke:#1B365D;stroke-width:1.0;" width="10" x="1264.5" y="199.8281"/><rect fill="#D9E6F2" height="29.1328" style="stroke:#1B365D;stroke-width:1.0;" width="10" x="1264.5" y="427.8906"/><rect fill="#D9E6F2" height="29.1328" style="stroke:#1B365D;stroke-width:1.0;" width="10" x="1374" y="282.2266"/><rect fill="none" height="352.3984" style="stroke:#000000;stroke-width:1.5;" width="1429.5" x="10" y="214.8281"/><line style="stroke:#1B365D;stroke-width:0.5;stroke-dasharray:5.0,5.0;" x1="75" x2="75" y1="81.2969" y2="584.2266"/><line style="stroke:#1B365D;stroke-width:0.5;stroke-dasharray:5.0,5.0;" x1="911.5" x2="911.5" y1="81.2969" y2="584.2266"/><line style="stroke:#1B365D;stroke-width:0.5;stroke-dasharray:5.0,5.0;" x1="1106.5" x2="1106.5" y1="81.2969" y2="584.2266"/><line style="stroke:#1B365D;stroke-width:0.5;stroke-dasharray:5.0,5.0;" x1="1269.5" x2="1269.5" y1="81.2969" y2="584.2266"/><line style="stroke:#1B365D;stroke-width:0.5;stroke-dasharray:5.0,5.0;" x1="1378.5" x2="1378.5" y1="81.2969" y2="584.2266"/><text fill="#FFFFFF" font-family="sans-serif" font-size="14" lengthAdjust="spacing" textLength="104" x="20" y="77.9951">&#1055;&#1086;&#1083;&#1100;&#1079;&#1086;&#1074;&#1072;&#1090;&#1077;&#1083;&#1100;</text><ellipse cx="75" cy="13.5" fill="#385F9E" rx="8" ry="8" style="stroke:#181818;stroke-width:0.5;"/><path d="M75,21.5 L75,48.5 M62,29.5 L88,29.5 M75,48.5 L62,63.5 M75,48.5 L88,63.5 " fill="none" style="stroke:#181818;stroke-width:0.5;"/><text fill="#FFFFFF" font-family="sans-serif" font-size="14" lengthAdjust="spacing" textLength="104" x="20" y="596.2217">&#1055;&#1086;&#1083;&#1100;&#1079;&#1086;&#1074;&#1072;&#1090;&#1077;&#1083;&#1100;</text><ellipse cx="75" cy="608.0234" fill="#385F9E" rx="8" ry="8" style="stroke:#181818;stroke-width:0.5;"/><path d="M75,616.0234 L75,643.0234 M62,624.0234 L88,624.0234 M75,643.0234 L62,658.0234 M75,643.0234 L88,658.0234 " fill="none" style="stroke:#181818;stroke-width:0.5;"/><rect fill="#E2E2F0" height="30.2969" rx="2.5" ry="2.5" style="stroke:#181818;stroke-width:0.5;" width="163" x="830.5" y="50"/><text fill="#000000" font-family="sans-serif" font-size="14" lengthAdjust="spacing" textLength="149" x="837.5" y="69.9951">&#1060;&#1086;&#1088;&#1084;&#1072; &#1088;&#1077;&#1075;&#1080;&#1089;&#1090;&#1088;&#1072;&#1094;&#1080;&#1080;</text><rect fill="#E2E2F0" height="30.2969" rx="2.5" ry="2.5" style="stroke:#181818;stroke-width:0.5;" width="163" x="830.5" y="583.2266"/><text fill="#000000" font-family="sans-serif" font-size="14" lengthAdjust="spacing" textLength="149" x="837.5" y="603.2217">&#1060;&#1086;&#1088;&#1084;&#1072; &#1088;&#1077;&#1075;&#1080;&#1089;&#1090;&#1088;&#1072;&#1094;&#1080;&#1080;</text><rect fill="#E2E2F0" height="30.2969" rx="2.5" ry="2.5" style="stroke:#181818;stroke-width:0.5;" width="207" x="1003.5" y="50"/><text fill="#000000" font-family="sans-serif" font-size="14" lengthAdjust="spacing" textLength="193" x="1010.5" y="69.9951">&#1057;&#1080;&#1089;&#1090;&#1077;&#1084;&#1072; &#1072;&#1091;&#1090;&#1077;&#1085;&#1090;&#1080;&#1092;&#1080;&#1082;&#1072;&#1094;&#1080;&#1080;</text><rect fill="#E2E2F0" height="30.2969" rx="2.5" ry="2.5" style="stroke:#181818;stroke-width:0.5;" width="207" x="1003.5" y="583.2266"/><text fill="#000000" font-family="sans-serif" font-size="14" lengthAdjust="spacing" textLength="193" x="1010.5" y="603.2217">&#1057;&#1080;&#1089;&#1090;&#1077;&#1084;&#1072; &#1072;&#1091;&#1090;&#1077;&#1085;&#1090;&#1080;&#1092;&#1080;&#1082;&#1072;&#1094;&#1080;&#1080;</text><text fill="#000000" font-family="sans-serif" font-size="14" lengthAdjust="spacing" textLength="92" x="1220.5" y="77.9951">&#1041;&#1072;&#1079;&#1072; &#1076;&#1072;&#1085;&#1085;&#1099;&#1093;</text><path d="M1251.5,29 C1251.5,19 1269.5,19 1269.5,19 C1269.5,19 1287.5,19 1287.5,29 L1287.5,55 C1287.5,65 1269.5,65 1269.5,65 C1269.5,65 1251.5,65 1251.5,55 L1251.5,29 " fill="#E2E2F0" style="stroke:#181818;stroke-width:1.5;"/><path d="M1251.5,29 C1251.5,39 1269.5,39 1269.5,39 C1269.5,39 1287.5,39 1287.5,29 " fill="none" style="stroke:#181818;stroke-width:1.5;"/><text fill="#000000" font-family="sans-serif" font-size="14" lengthAdjust="spacing" textLength="92" x="1220.5" y="596.2217">&#1041;&#1072;&#1079;&#1072; &#1076;&#1072;&#1085;&#1085;&#1099;&#1093;</text><path d="M1251.5,609.5234 C1251.5,599.5234 1269.5,599.5234 1269.5,599.5234 C1269.5,599.5234 1287.5,599.5234 1287.5,609.5234 L1287.5,635.5234 C1287.5,645.5234 1269.5,645.5234 1269.5,645.5234 C1269.5,645.5234 1251.5,645.5234 1251.5,635.5234 L1251.5,609.5234 " fill="#E2E2F0" style="stroke:#181818;stroke-width:1.5;"/><path d="M1251.5,609.5234 C1251.5,619.5234 1269.5,619.5234 1269.5,619.5234 C1269.5,619.5234 1287.5,619.5234 1287.5,609.5234 " fill="none" style="stroke:#181818;stroke-width:1.5;"/><rect fill="#E2E2F0" height="30.2969" rx="2.5" ry="2.5" style="stroke:#181818;stroke-width:0.5;" width="101" x="1328.5" y="50"/><text fill="#000000" font-family="sans-serif" font-size="14" lengthAdjust="spacing" textLength="87" x="1335.5" y="69.9951">&#1057;&#1077;&#1088;&#1074;&#1080;&#1089; SMS</text><rect fill="#E2E2F0" height="30.2969" rx="2.5" ry="2.5" style="stroke:#181818;stroke-width:0.5;" width="101" x="1328.5" y="583.2266"/><text fill="#000000" font-family="sans-serif" font-size="14" lengthAdjust="spacing" textLength="87" x="1335.5" y="603.2217">&#1057;&#1077;&#1088;&#1074;&#1080;&#1089; SMS</text><rect fill="#D9E6F2" height="467.9297" style="stroke:#1B365D;stroke-width:1.0;" width="10" x="70" y="91.2969"/><rect fill="#D9E6F2" height="446.7969" style="stroke:#1B365D;stroke-width:1.0;" width="10" x="907" y="112.4297"/><rect fill="#D9E6F2" height="29.1328" style="stroke:#1B365D;stroke-width:1.0;" width="10" x="1102" y="369.625"/><rect fill="#D9E6F2" height="53.2656" style="stroke:#1B365D;stroke-width:1.0;" width="10" x="1264.5" y="199.8281"/><rect fill="#D9E6F2" height="29.1328" style="stroke:#1B365D;stroke-width:1.0;" width="10" x="1264.5" y="427.8906"/><rect fill="#D9E6F2" height="29.1328" style="stroke:#1B365D;stroke-width:1.0;" width="10" x="1374" y="282.2266"/><polygon fill="#181818" points="895,108.4297,905,112.4297,895,116.4297,899,112.4297" style="stroke:#181818;stroke-width:1.0;"/><line style="stroke:#181818;stroke-width:1.0;" x1="80" x2="901" y1="112.4297" y2="112.4297"/><text fill="#000000" font-family="sans-serif" font-size="13" lengthAdjust="spacing" textLength="208" x="87" y="107.3638">&#1042;&#1099;&#1073;&#1080;&#1088;&#1072;&#1077;&#1090; &#1086;&#1087;&#1094;&#1080;&#1102; &#1088;&#1077;&#1075;&#1080;&#1089;&#1090;&#1088;&#1072;&#1094;&#1080;&#1080;</text><polygon fill="#181818" points="91,137.5625,81,141.5625,91,145.5625,87,141.5625" style="stroke:#181818;stroke-width:1.0;"/><line style="stroke:#181818;stroke-width:1.0;" x1="85" x2="906" y1="141.5625" y2="141.5625"/><text fill="#000000" font-family="sans-serif" font-size="13" lengthAdjust="spacing" textLength="266" x="97" y="136.4966">&#1054;&#1090;&#1086;&#1073;&#1088;&#1072;&#1078;&#1072;&#1077;&#1090; &#1092;&#1086;&#1088;&#1084;&#1091; &#1076;&#1083;&#1103; &#1074;&#1074;&#1086;&#1076;&#1072; &#1076;&#1072;&#1085;&#1085;&#1099;&#1093;</text><polygon fill="#181818" points="895,166.6953,905,170.6953,895,174.6953,899,170.6953" style="stroke:#181818;stroke-width:1.0;"/><line style="stroke:#181818;stroke-width:1.0;" x1="80" x2="901" y1="170.6953" y2="170.6953"/><text fill="#000000" font-family="sans-serif" font-size="13" lengthAdjust="spacing" textLength="268" x="87" y="165.6294">&#1042;&#1074;&#1086;&#1076;&#1080;&#1090; &#1076;&#1072;&#1085;&#1085;&#1099;&#1077; (&#1080;&#1084;&#1103;, &#1085;&#1086;&#1084;&#1077;&#1088; &#1090;&#1077;&#1083;&#1077;&#1092;&#1086;&#1085;&#1072;)</text><polygon fill="#181818" points="1252.5,195.8281,1262.5,199.8281,1252.5,203.8281,1256.5,199.8281" style="stroke:#181818;stroke-width:1.0;"/><line style="stroke:#181818;stroke-width:1.0;" x1="917" x2="1258.5" y1="199.8281" y2="199.8281"/><text fill="#000000" font-family="sans-serif" font-size="13" lengthAdjust="spacing" textLength="221" x="924" y="194.7622">&#1055;&#1088;&#1086;&#1074;&#1077;&#1088;&#1103;&#1077;&#1090; &#1085;&#1086;&#1084;&#1077;&#1088; &#1074; &#1073;&#1072;&#1079;&#1077; &#1076;&#1072;&#1085;&#1085;&#1099;&#1093;</text><path d="M10,214.8281 L74,214.8281 L74,221.9609 L64,231.9609 L10,231.9609 L10,214.8281 " fill="#EEEEEE" style="stroke:#000000;stroke-width:1.5;"/><rect fill="none" height="352.3984" style="stroke:#000000;stroke-width:1.5;" width="1429.5" x="10" y="214.8281"/><text fill="#000000" font-family="sans-serif" font-size="13" font-weight="bold" lengthAdjust="spacing" textLength="19" x="25" y="227.895">alt</text><text fill="#000000" font-family="sans-serif" font-size="11" font-weight="bold" lengthAdjust="spacing" textLength="188" x="89" y="227.0386">[&#1053;&#1086;&#1084;&#1077;&#1088; &#1085;&#1077; &#1079;&#1072;&#1088;&#1077;&#1075;&#1080;&#1089;&#1090;&#1088;&#1080;&#1088;&#1086;&#1074;&#1072;&#1085;]</text><polygon fill="#181818" points="928,249.0938,918,253.0938,928,257.0938,924,253.0938" style="stroke:#181818;stroke-width:1.0;"/><line style="stroke:#181818;stroke-width:1.0;" x1="922" x2="1268.5" y1="253.0938" y2="253.0938"/><text fill="#000000" font-family="sans-serif" font-size="13" lengthAdjust="spacing" textLength="185" x="934" y="248.0278">&#1053;&#1086;&#1084;&#1077;&#1088; &#1085;&#1077; &#1079;&#1072;&#1088;&#1077;&#1075;&#1080;&#1089;&#1090;&#1088;&#1080;&#1088;&#1086;&#1074;&#1072;&#1085;</text><polygon fill="#181818" points="1362,278.2266,1372,282.2266,1362,286.2266,1366,282.2266" style="stroke:#181818;stroke-width:1.0;"/><line style="stroke:#181818;stroke-width:1.0;" x1="917" x2="1368" y1="282.2266" y2="282.2266"/><text fill="#000000" font-family="sans-serif" font-size="13" lengthAdjust="spacing" textLength="292" x="924" y="277.1606">&#1054;&#1090;&#1087;&#1088;&#1072;&#1074;&#1083;&#1103;&#1077;&#1090; SMS &#1089; &#1082;&#1086;&#1076;&#1086;&#1084; &#1087;&#1086;&#1076;&#1090;&#1074;&#1077;&#1088;&#1078;&#1076;&#1077;&#1085;&#1080;&#1103;</text><polygon fill="#181818" points="91,307.3594,81,311.3594,91,315.3594,87,311.3594" style="stroke:#181818;stroke-width:1.0;"/><line style="stroke:#181818;stroke-width:1.0;" x1="85" x2="1378" y1="311.3594" y2="311.3594"/><text fill="#000000" font-family="sans-serif" font-size="13" lengthAdjust="spacing" textLength="273" x="97" y="306.2935">&#1055;&#1086;&#1083;&#1091;&#1095;&#1072;&#1077;&#1090; SMS &#1089; &#1082;&#1086;&#1076;&#1086;&#1084; &#1087;&#1086;&#1076;&#1090;&#1074;&#1077;&#1088;&#1078;&#1076;&#1077;&#1085;&#1080;&#1103;</text><polygon fill="#181818" points="895,336.4922,905,340.4922,895,344.4922,899,340.4922" style="stroke:#181818;stroke-width:1.0;"/><line style="stroke:#181818;stroke-width:1.0;" x1="80" x2="901" y1="340.4922" y2="340.4922"/><text fill="#000000" font-family="sans-serif" font-size="13" lengthAdjust="spacing" textLength="199" x="87" y="335.4263">&#1042;&#1074;&#1086;&#1076;&#1080;&#1090; &#1082;&#1086;&#1076; &#1087;&#1086;&#1076;&#1090;&#1074;&#1077;&#1088;&#1078;&#1076;&#1077;&#1085;&#1080;&#1103;</text><polygon fill="#181818" points="1090,365.625,1100,369.625,1090,373.625,1094,369.625" style="stroke:#181818;stroke-width:1.0;"/><line style="stroke:#181818;stroke-width:1.0;" x1="917" x2="1096" y1="369.625" y2="369.625"/><text fill="#000000" font-family="sans-serif" font-size="13" lengthAdjust="spacing" textLength="104" x="924" y="364.5591">&#1055;&#1088;&#1086;&#1074;&#1077;&#1088;&#1103;&#1077;&#1090; &#1082;&#1086;&#1076;</text><polygon fill="#181818" points="928,394.7578,918,398.7578,928,402.7578,924,398.7578" style="stroke:#181818;stroke-width:1.0;"/><line style="stroke:#181818;stroke-width:1.0;" x1="922" x2="1106" y1="398.7578" y2="398.7578"/><text fill="#000000" font-family="sans-serif" font-size="13" lengthAdjust="spacing" textLength="128" x="934" y="393.6919">&#1050;&#1086;&#1076; &#1087;&#1086;&#1076;&#1090;&#1074;&#1077;&#1088;&#1078;&#1076;&#1077;&#1085;</text><polygon fill="#181818" points="1252.5,423.8906,1262.5,427.8906,1252.5,431.8906,1256.5,427.8906" style="stroke:#181818;stroke-width:1.0;"/><line style="stroke:#181818;stroke-width:1.0;" x1="917" x2="1258.5" y1="427.8906" y2="427.8906"/><text fill="#000000" font-family="sans-serif" font-size="13" lengthAdjust="spacing" textLength="195" x="924" y="422.8247">&#1056;&#1077;&#1075;&#1080;&#1089;&#1090;&#1088;&#1080;&#1088;&#1091;&#1077;&#1090; &#1087;&#1086;&#1083;&#1100;&#1079;&#1086;&#1074;&#1072;&#1090;&#1077;&#1083;&#1103;</text><polygon fill="#181818" points="928,453.0234,918,457.0234,928,461.0234,924,457.0234" style="stroke:#181818;stroke-width:1.0;"/><line style="stroke:#181818;stroke-width:1.0;" x1="922" x2="1268.5" y1="457.0234" y2="457.0234"/><text fill="#000000" font-family="sans-serif" font-size="13" lengthAdjust="spacing" textLength="219" x="934" y="451.9575">&#1055;&#1086;&#1083;&#1100;&#1079;&#1086;&#1074;&#1072;&#1090;&#1077;&#1083;&#1100; &#1079;&#1072;&#1088;&#1077;&#1075;&#1080;&#1089;&#1090;&#1088;&#1080;&#1088;&#1086;&#1074;&#1072;&#1085;</text><polygon fill="#181818" points="91,482.1563,81,486.1563,91,490.1563,87,486.1563" style="stroke:#181818;stroke-width:1.0;"/><line style="stroke:#181818;stroke-width:1.0;" x1="85" x2="906" y1="486.1563" y2="486.1563"/><text fill="#000000" font-family="sans-serif" font-size="13" lengthAdjust="spacing" textLength="166" x="97" y="481.0903">&#1056;&#1077;&#1075;&#1080;&#1089;&#1090;&#1088;&#1072;&#1094;&#1080;&#1103; &#1079;&#1072;&#1074;&#1077;&#1088;&#1096;&#1077;&#1085;&#1072;</text><line style="stroke:#000000;stroke-width:1.0;stroke-dasharray:2.0,2.0;" x1="10" x2="1439.5" y1="495.1563" y2="495.1563"/><text fill="#000000" font-family="sans-serif" font-size="11" font-weight="bold" lengthAdjust="spacing" textLength="198" x="15" y="505.3667">[&#1053;&#1086;&#1084;&#1077;&#1088; &#1091;&#1078;&#1077; &#1079;&#1072;&#1088;&#1077;&#1075;&#1080;&#1089;&#1090;&#1088;&#1080;&#1088;&#1086;&#1074;&#1072;&#1085;]</text><polygon fill="#181818" points="928,526.0938,918,530.0938,928,534.0938,924,530.0938" style="stroke:#181818;stroke-width:1.0;"/><line style="stroke:#181818;stroke-width:1.0;" x1="922" x2="1268.5" y1="530.0938" y2="530.0938"/><text fill="#000000" font-family="sans-serif" font-size="13" lengthAdjust="spacing" textLength="165" x="934" y="525.0278">&#1053;&#1086;&#1084;&#1077;&#1088; &#1079;&#1072;&#1088;&#1077;&#1075;&#1080;&#1089;&#1090;&#1088;&#1080;&#1088;&#1086;&#1074;&#1072;&#1085;</text><polygon fill="#181818" points="86,555.2266,76,559.2266,86,563.2266,82,559.2266" style="stroke:#181818;stroke-width:1.0;"/><line style="stroke:#181818;stroke-width:1.0;" x1="80" x2="911" y1="559.2266" y2="559.2266"/><text fill="#000000" font-family="sans-serif" font-size="13" lengthAdjust="spacing" textLength="803" x="92" y="554.1606">&#1054;&#1090;&#1086;&#1073;&#1088;&#1072;&#1078;&#1072;&#1077;&#1090; &#1089;&#1086;&#1086;&#1073;&#1097;&#1077;&#1085;&#1080;&#1077; &#1086;&#1073; &#1086;&#1096;&#1080;&#1073;&#1082;&#1077;: &#171;&#1069;&#1090;&#1086;&#1090; &#1085;&#1086;&#1084;&#1077;&#1088; &#1090;&#1077;&#1083;&#1077;&#1092;&#1086;&#1085;&#1072; &#1091;&#1078;&#1077; &#1080;&#1089;&#1087;&#1086;&#1083;&#1100;&#1079;&#1091;&#1077;&#1090;&#1089;&#1103;. &#1055;&#1086;&#1078;&#1072;&#1083;&#1091;&#1081;&#1089;&#1090;&#1072;, &#1074;&#1074;&#1077;&#1076;&#1080;&#1090;&#1077; &#1076;&#1088;&#1091;&#1075;&#1086;&#1081; &#1085;&#1086;&#1084;&#1077;&#1088;&#187;</text><!--SRC=[jLLRQnD157xVNp6jBmfLgAMbxOEGco9K0qaGtsIRdTJGT5CtMq54i8bNAWPz5BGLV1DXcpRjzfP0Vy7CF_ARcNGlqqrgAGQoEvTppdU-xvoP7RDefMfJKiXbIgc7znPoJpBvXNo1N9kSd9bTj8onS_kbtEFIcL55_XACqlb2DbS8OYrEpKo7iLAPKZxOcvgThinHRMy41WpkFqgLWZojEJfJkMqOZUMglMewvWfnQDarxQKQ9IyDWb_QB2ylEVKrsyhKQtL7fwfiwev57Nq_oaAQtQtRhcuKvcgyYgPXbbtO9QSGKK2Bg_EFnrJHYlJP6hNBTA5QmT-c2T4Z4YMxNCmNm8e2ssGzTiG_iNsyEypZJTOLSmCvkTLoTTMqNJBEVh4UVysEcKVmwh8TvlDrtiJOu- -Op_nnOZP0r5dH_7ugGxW8NrYtvEG4Jv-_WUTXB49gpNrQVD5mwOfXcQwvQ3OeWdnX7jA3-ou69t3Uu6-bUJPz3gwBd3e2b1GV5AKHtf9izRdfqk5yXssGctSaiNd2ll8DjetOO0sS9e5XNoJFFmzH9OILqeY723SC2X0_CEwnRGcnDu21Jb9ytX8A7F4sWLC7PhkQ9l_4OU3fY_m3NzObrv7mCMzF4ApqK2q8IPG_XiW0ozwDW48sZLYRo4hWm9ItbIAXB-iGY2KAruqd6MY2wXbcpINiU-Xq8gnHQqrFVu24ABBZi-a8fSkxMpIQX3gZYXUQPL25lgn1H-WjgM67eAlGi48-81BM5qEOIWLGhbtHsG1hov01X6X0UKmHONJrrKwBlnzK_jAO4M9dg9Vj2Obr4SwPNE5vJMu76IokHkI8Y_Lm6adesuWST9vQl5Y3RkbTm5ightwY9bhT1gqHwxLXObwfwKPqnDRvQqMS_ttPcaBe3x8kdc7G6kxAo5a0rRsh7QR_H2dnYbl7abZygDfC98uf7Y3eunuvPDrvSlgR_H7EyOj6lwG2viWwBBIgF7YqRwda13JE6ZkGtoTlGbsgNNKCv9qbssK7fWSHkDCZdRcyshMreLyPWzhMNm00]--></g></svg>