<svg xmlns="http://www.w3.org/2000/svg" xmlns:xlink="http://www.w3.org/1999/xlink" contentStyleType="text/css" height="548px" preserveAspectRatio="none" style="width:1510px;height:548px;background:#FFFFFF;" version="1.1" viewBox="0 0 1510 548" width="1510px" zoomAndPan="magnify"><defs/><g><rect fill="#DDDDDD" height="358.7578" style="stroke:#000000;stroke-width:1.0;" width="10" x="62.5" y="91.2969"/><rect fill="#DDDDDD" height="338.7891" style="stroke:#000000;stroke-width:1.0;" width="10" x="1166.5" y="111.2656"/><rect fill="#DDDDDD" height="27.9688" style="stroke:#000000;stroke-width:1.0;" width="10" x="1387.5" y="195.1719"/><rect fill="#DDDDDD" height="27.9688" style="stroke:#000000;stroke-width:1.0;" width="10" x="1387.5" y="359.1484"/><rect fill="none" height="101.0391" style="stroke:#000000;stroke-width:1.5;" width="1494.5" x="10" y="322.0469"/><line style="stroke:#000000;stroke-width:0.5;stroke-dasharray:5.0,5.0;" x1="67" x2="67" y1="81.2969" y2="468.0547"/><line style="stroke:#000000;stroke-width:0.5;stroke-dasharray:5.0,5.0;" x1="1171.5" x2="1171.5" y1="81.2969" y2="468.0547"/><line style="stroke:#000000;stroke-width:0.5;stroke-dasharray:5.0,5.0;" x1="1392.5" x2="1392.5" y1="81.2969" y2="468.0547"/><text fill="#000000" font-family="sans-serif" font-size="14" lengthAdjust="spacing" textLength="89" x="20" y="77.9951">&#1055;&#1086;&#1089;&#1077;&#1090;&#1080;&#1090;&#1077;&#1083;&#1100;</text><ellipse cx="67.5" cy="13.5" fill="#4D89C6" rx="8" ry="8" style="stroke:#000000;stroke-width:0.5;"/><path d="M67.5,21.5 L67.5,48.5 M54.5,29.5 L80.5,29.5 M67.5,48.5 L54.5,63.5 M67.5,48.5 L80.5,63.5 " fill="none" style="stroke:#000000;stroke-width:0.5;"/><text fill="#000000" font-family="sans-serif" font-size="14" lengthAdjust="spacing" textLength="89" x="20" y="480.0498">&#1055;&#1086;&#1089;&#1077;&#1090;&#1080;&#1090;&#1077;&#1083;&#1100;</text><ellipse cx="67.5" cy="491.8516" fill="#4D89C6" rx="8" ry="8" style="stroke:#000000;stroke-width:0.5;"/><path d="M67.5,499.8516 L67.5,526.8516 M54.5,507.8516 L80.5,507.8516 M67.5,526.8516 L54.5,541.8516 M67.5,526.8516 L80.5,541.8516 " fill="none" style="stroke:#000000;stroke-width:0.5;"/><rect fill="#E2E2F0" height="30.2969" rx="2.5" ry="2.5" style="stroke:#181818;stroke-width:0.5;" width="86" x="1128.5" y="50"/><text fill="#000000" font-family="sans-serif" font-size="14" lengthAdjust="spacing" textLength="72" x="1135.5" y="69.9951">&#1058;&#1077;&#1088;&#1084;&#1080;&#1085;&#1072;&#1083;</text><rect fill="#E2E2F0" height="30.2969" rx="2.5" ry="2.5" style="stroke:#181818;stroke-width:0.5;" width="86" x="1128.5" y="467.0547"/><text fill="#000000" font-family="sans-serif" font-size="14" lengthAdjust="spacing" textLength="72" x="1135.5" y="487.0498">&#1058;&#1077;&#1088;&#1084;&#1080;&#1085;&#1072;&#1083;</text><text fill="#000000" font-family="sans-serif" font-size="14" lengthAdjust="spacing" textLength="198" x="1290.5" y="77.9951">&#1057;&#1080;&#1089;&#1090;&#1077;&#1084;&#1072; &#1091;&#1087;&#1088;&#1072;&#1074;&#1083;&#1077;&#1085;&#1080;&#1103; &#1052;&#1077;&#1085;&#1102;</text><path d="M1374.5,29 C1374.5,19 1392.5,19 1392.5,19 C1392.5,19 1410.5,19 1410.5,29 L1410.5,55 C1410.5,65 1392.5,65 1392.5,65 C1392.5,65 1374.5,65 1374.5,55 L1374.5,29 " fill="#E2E2F0" style="stroke:#181818;stroke-width:1.5;"/><path d="M1374.5,29 C1374.5,39 1392.5,39 1392.5,39 C1392.5,39 1410.5,39 1410.5,29 " fill="none" style="stroke:#181818;stroke-width:1.5;"/><text fill="#000000" font-family="sans-serif" font-size="14" lengthAdjust="spacing" textLength="198" x="1290.5" y="480.0498">&#1057;&#1080;&#1089;&#1090;&#1077;&#1084;&#1072; &#1091;&#1087;&#1088;&#1072;&#1074;&#1083;&#1077;&#1085;&#1080;&#1103; &#1052;&#1077;&#1085;&#1102;</text><path d="M1374.5,493.3516 C1374.5,483.3516 1392.5,483.3516 1392.5,483.3516 C1392.5,483.3516 1410.5,483.3516 1410.5,493.3516 L1410.5,519.3516 C1410.5,529.3516 1392.5,529.3516 1392.5,529.3516 C1392.5,529.3516 1374.5,529.3516 1374.5,519.3516 L1374.5,493.3516 " fill="#E2E2F0" style="stroke:#181818;stroke-width:1.5;"/><path d="M1374.5,493.3516 C1374.5,503.3516 1392.5,503.3516 1392.5,503.3516 C1392.5,503.3516 1410.5,503.3516 1410.5,493.3516 " fill="none" style="stroke:#181818;stroke-width:1.5;"/><rect fill="#DDDDDD" height="358.7578" style="stroke:#000000;stroke-width:1.0;" width="10" x="62.5" y="91.2969"/><rect fill="#DDDDDD" height="338.7891" style="stroke:#000000;stroke-width:1.0;" width="10" x="1166.5" y="111.2656"/><rect fill="#DDDDDD" height="27.9688" style="stroke:#000000;stroke-width:1.0;" width="10" x="1387.5" y="195.1719"/><rect fill="#DDDDDD" height="27.9688" style="stroke:#000000;stroke-width:1.0;" width="10" x="1387.5" y="359.1484"/><polygon fill="#000000" points="1154.5,107.2656,1164.5,111.2656,1154.5,115.2656,1158.5,111.2656" style="stroke:#000000;stroke-width:1.0;"/><line style="stroke:#000000;stroke-width:1.0;" x1="72.5" x2="1160.5" y1="111.2656" y2="111.2656"/><text fill="#000000" font-family="sans-serif" font-size="12" lengthAdjust="spacing" textLength="306" x="79.5" y="106.4355">&#1040;&#1082;&#1090;&#1080;&#1074;&#1080;&#1088;&#1091;&#1077;&#1090; &#1090;&#1077;&#1088;&#1084;&#1080;&#1085;&#1072;&#1083; &#1095;&#1077;&#1088;&#1077;&#1079; &#1089;&#1077;&#1085;&#1089;&#1086;&#1088;&#1085;&#1099;&#1081; &#1101;&#1082;&#1088;&#1072;&#1085;</text><polygon fill="#000000" points="83.5,135.2344,73.5,139.2344,83.5,143.2344,79.5,139.2344" style="stroke:#000000;stroke-width:1.0;"/><line style="stroke:#000000;stroke-width:1.0;" x1="77.5" x2="1165.5" y1="139.2344" y2="139.2344"/><text fill="#000000" font-family="sans-serif" font-size="12" lengthAdjust="spacing" textLength="557" x="89.5" y="134.4043">&#1054;&#1090;&#1086;&#1073;&#1088;&#1072;&#1078;&#1072;&#1077;&#1090; &#1087;&#1088;&#1080;&#1074;&#1077;&#1090;&#1089;&#1090;&#1074;&#1077;&#1085;&#1085;&#1086;&#1077; &#1089;&#1086;&#1086;&#1073;&#1097;&#1077;&#1085;&#1080;&#1077; &#1080; &#1087;&#1088;&#1077;&#1076;&#1083;&#1072;&#1075;&#1072;&#1077;&#1090; &#1074;&#1099;&#1073;&#1088;&#1072;&#1090;&#1100; &#1103;&#1079;&#1099;&#1082; &#1080;&#1085;&#1090;&#1077;&#1088;&#1092;&#1077;&#1081;&#1089;&#1072;</text><polygon fill="#000000" points="1154.5,163.2031,1164.5,167.2031,1154.5,171.2031,1158.5,167.2031" style="stroke:#000000;stroke-width:1.0;"/><line style="stroke:#000000;stroke-width:1.0;" x1="72.5" x2="1160.5" y1="167.2031" y2="167.2031"/><text fill="#000000" font-family="sans-serif" font-size="12" lengthAdjust="spacing" textLength="219" x="79.5" y="162.373">&#1042;&#1099;&#1073;&#1080;&#1088;&#1072;&#1077;&#1090; &#1087;&#1088;&#1077;&#1076;&#1087;&#1086;&#1095;&#1080;&#1090;&#1072;&#1077;&#1084;&#1099;&#1081; &#1103;&#1079;&#1099;&#1082;</text><polygon fill="#000000" points="1375.5,191.1719,1385.5,195.1719,1375.5,199.1719,1379.5,195.1719" style="stroke:#000000;stroke-width:1.0;"/><line style="stroke:#000000;stroke-width:1.0;" x1="1176.5" x2="1381.5" y1="195.1719" y2="195.1719"/><text fill="#000000" font-family="sans-serif" font-size="12" lengthAdjust="spacing" textLength="190" x="1183.5" y="190.3418">&#1047;&#1072;&#1087;&#1088;&#1072;&#1096;&#1080;&#1074;&#1072;&#1077;&#1090; &#1079;&#1072;&#1075;&#1088;&#1091;&#1079;&#1082;&#1091; &#1084;&#1077;&#1085;&#1102;</text><polygon fill="#000000" points="1187.5,219.1406,1177.5,223.1406,1187.5,227.1406,1183.5,223.1406" style="stroke:#000000;stroke-width:1.0;"/><line style="stroke:#000000;stroke-width:1.0;" x1="1181.5" x2="1391.5" y1="223.1406" y2="223.1406"/><text fill="#000000" font-family="sans-serif" font-size="12" lengthAdjust="spacing" textLength="173" x="1193.5" y="218.3105">&#1054;&#1090;&#1087;&#1088;&#1072;&#1074;&#1083;&#1103;&#1077;&#1090; &#1076;&#1072;&#1085;&#1085;&#1099;&#1077; &#1084;&#1077;&#1085;&#1102;</text><polygon fill="#000000" points="83.5,247.1094,73.5,251.1094,83.5,255.1094,79.5,251.1094" style="stroke:#000000;stroke-width:1.0;"/><line style="stroke:#000000;stroke-width:1.0;" x1="77.5" x2="1165.5" y1="251.1094" y2="251.1094"/><text fill="#000000" font-family="sans-serif" font-size="12" lengthAdjust="spacing" textLength="296" x="89.5" y="246.2793">&#1054;&#1090;&#1086;&#1073;&#1088;&#1072;&#1078;&#1072;&#1077;&#1090; &#1084;&#1077;&#1085;&#1102; (&#1082;&#1072;&#1090;&#1077;&#1075;&#1086;&#1088;&#1080;&#1080; &#1073;&#1083;&#1102;&#1076;, &#1072;&#1082;&#1094;&#1080;&#1080;)</text><polygon fill="#000000" points="1154.5,275.0781,1164.5,279.0781,1154.5,283.0781,1158.5,279.0781" style="stroke:#000000;stroke-width:1.0;"/><line style="stroke:#000000;stroke-width:1.0;" x1="72.5" x2="1160.5" y1="279.0781" y2="279.0781"/><text fill="#000000" font-family="sans-serif" font-size="12" lengthAdjust="spacing" textLength="308" x="79.5" y="274.248">&#1055;&#1088;&#1086;&#1089;&#1084;&#1072;&#1090;&#1088;&#1080;&#1074;&#1072;&#1077;&#1090; &#1082;&#1072;&#1090;&#1077;&#1075;&#1086;&#1088;&#1080;&#1080; &#1080; &#1074;&#1099;&#1073;&#1080;&#1088;&#1072;&#1077;&#1090; &#1073;&#1083;&#1102;&#1076;&#1086;</text><polygon fill="#000000" points="83.5,303.0469,73.5,307.0469,83.5,311.0469,79.5,307.0469" style="stroke:#000000;stroke-width:1.0;"/><line style="stroke:#000000;stroke-width:1.0;" x1="77.5" x2="1165.5" y1="307.0469" y2="307.0469"/><text fill="#000000" font-family="sans-serif" font-size="12" lengthAdjust="spacing" textLength="664" x="89.5" y="302.2168">&#1055;&#1088;&#1077;&#1076;&#1086;&#1089;&#1090;&#1072;&#1074;&#1083;&#1103;&#1077;&#1090; &#1076;&#1077;&#1090;&#1072;&#1083;&#1100;&#1085;&#1091;&#1102; &#1080;&#1085;&#1092;&#1086;&#1088;&#1084;&#1072;&#1094;&#1080;&#1102; &#1087;&#1086; &#1074;&#1099;&#1073;&#1088;&#1072;&#1085;&#1085;&#1086;&#1084;&#1091; &#1073;&#1083;&#1102;&#1076;&#1091; (&#1080;&#1085;&#1075;&#1088;&#1077;&#1076;&#1080;&#1077;&#1085;&#1090;&#1099;, &#1094;&#1077;&#1085;&#1072;, &#1082;&#1072;&#1083;&#1086;&#1088;&#1080;&#1081;&#1085;&#1086;&#1089;&#1090;&#1100;)</text><path d="M10,322.0469 L74,322.0469 L74,329.1797 L64,339.1797 L10,339.1797 L10,322.0469 " fill="#EEEEEE" style="stroke:#000000;stroke-width:1.5;"/><rect fill="none" height="101.0391" style="stroke:#000000;stroke-width:1.5;" width="1494.5" x="10" y="322.0469"/><text fill="#000000" font-family="sans-serif" font-size="13" font-weight="bold" lengthAdjust="spacing" textLength="19" x="25" y="335.1138">alt</text><text fill="#000000" font-family="sans-serif" font-size="11" font-weight="bold" lengthAdjust="spacing" textLength="291" x="89" y="334.2573">[&#1058;&#1077;&#1093;&#1085;&#1080;&#1095;&#1077;&#1089;&#1082;&#1072;&#1103; &#1087;&#1088;&#1086;&#1073;&#1083;&#1077;&#1084;&#1072; &#1087;&#1088;&#1080; &#1079;&#1072;&#1075;&#1088;&#1091;&#1079;&#1082;&#1077; &#1084;&#1077;&#1085;&#1102;]</text><polygon fill="#000000" points="1375.5,355.1484,1385.5,359.1484,1375.5,363.1484,1379.5,359.1484" style="stroke:#000000;stroke-width:1.0;"/><line style="stroke:#000000;stroke-width:1.0;" x1="1176.5" x2="1381.5" y1="359.1484" y2="359.1484"/><text fill="#000000" font-family="sans-serif" font-size="12" lengthAdjust="spacing" textLength="190" x="1183.5" y="354.3184">&#1047;&#1072;&#1087;&#1088;&#1072;&#1096;&#1080;&#1074;&#1072;&#1077;&#1090; &#1079;&#1072;&#1075;&#1088;&#1091;&#1079;&#1082;&#1091; &#1084;&#1077;&#1085;&#1102;</text><polygon fill="#000000" points="1187.5,383.1172,1177.5,387.1172,1187.5,391.1172,1183.5,387.1172" style="stroke:#000000;stroke-width:1.0;"/><line style="stroke:#000000;stroke-width:1.0;" x1="1181.5" x2="1391.5" y1="387.1172" y2="387.1172"/><text fill="#000000" font-family="sans-serif" font-size="12" lengthAdjust="spacing" textLength="187" x="1193.5" y="382.2871">&#1042;&#1086;&#1079;&#1085;&#1080;&#1082;&#1072;&#1077;&#1090; &#1086;&#1096;&#1080;&#1073;&#1082;&#1072; &#1079;&#1072;&#1075;&#1088;&#1091;&#1079;&#1082;&#1080;</text><polygon fill="#000000" points="83.5,411.0859,73.5,415.0859,83.5,419.0859,79.5,415.0859" style="stroke:#000000;stroke-width:1.0;"/><line style="stroke:#000000;stroke-width:1.0;" x1="77.5" x2="1165.5" y1="415.0859" y2="415.0859"/><text fill="#000000" font-family="sans-serif" font-size="12" lengthAdjust="spacing" textLength="1070" x="89.5" y="410.2559">&#1054;&#1090;&#1086;&#1073;&#1088;&#1072;&#1078;&#1072;&#1077;&#1090; &#1089;&#1086;&#1086;&#1073;&#1097;&#1077;&#1085;&#1080;&#1077; &#1086;&#1073; &#1086;&#1096;&#1080;&#1073;&#1082;&#1077;: "&#1048;&#1079;&#1074;&#1080;&#1085;&#1080;&#1090;&#1077;, &#1085;&#1077; &#1091;&#1076;&#1072;&#1083;&#1086;&#1089;&#1100; &#1079;&#1072;&#1075;&#1088;&#1091;&#1079;&#1080;&#1090;&#1100; &#1084;&#1077;&#1085;&#1102;. &#1055;&#1086;&#1078;&#1072;&#1083;&#1091;&#1081;&#1089;&#1090;&#1072;, &#1087;&#1086;&#1087;&#1088;&#1086;&#1073;&#1091;&#1081;&#1090;&#1077; &#1087;&#1086;&#1079;&#1078;&#1077; &#1080;&#1083;&#1080; &#1086;&#1073;&#1088;&#1072;&#1090;&#1080;&#1090;&#1077;&#1089;&#1100; &#1082; &#1085;&#1072;&#1096;&#1077;&#1084;&#1091; &#1087;&#1077;&#1088;&#1089;&#1086;&#1085;&#1072;&#1083;&#1091; &#1079;&#1072; &#1087;&#1086;&#1084;&#1086;&#1097;&#1100;&#1102;."</text><polygon fill="#000000" points="1159.5,446.0547,1169.5,450.0547,1159.5,454.0547,1163.5,450.0547" style="stroke:#000000;stroke-width:1.0;"/><line style="stroke:#000000;stroke-width:1.0;" x1="67.5" x2="1165.5" y1="450.0547" y2="450.0547"/><text fill="#000000" font-family="sans-serif" font-size="12" lengthAdjust="spacing" textLength="651" x="74.5" y="445.2246">&#1055;&#1086;&#1083;&#1100;&#1079;&#1086;&#1074;&#1072;&#1090;&#1077;&#1083;&#1100; &#1074;&#1086;&#1079;&#1074;&#1088;&#1072;&#1097;&#1072;&#1077;&#1090;&#1089;&#1103; &#1082; &#1089;&#1087;&#1080;&#1089;&#1082;&#1091; &#1082;&#1072;&#1090;&#1077;&#1075;&#1086;&#1088;&#1080;&#1081; &#1080;&#1083;&#1080; &#1079;&#1072;&#1074;&#1077;&#1088;&#1096;&#1072;&#1077;&#1090; &#1087;&#1088;&#1086;&#1089;&#1084;&#1086;&#1090;&#1088; &#1080; &#1074;&#1099;&#1093;&#1086;&#1076;&#1080;&#1090; &#1080;&#1079; &#1089;&#1080;&#1089;&#1090;&#1077;&#1084;&#1099;</text><!--SRC=[hLLTJnD157tlhnZX1P9geZ56UJ11G5_G1o6-B-r0DfGjRXUD6f8MK21KQdZH1oFHNr0AIxTVsxymyuyyzyxkTbjR4erDcjszS-USSxzcRkNbkkr8yN9fONN-nRFb9J6zoBzCQTDsjYtNsXAkp7cMir6GuaD6Y2TMRdF3BUuu-OLYeUWETj9QqSrBrzZN2d24xMdHyTAMtHIobVDW7uSwVN_nuQE51_-0MPAlTwIJCsANxNMvZFXk4ftuZ26ArqO9XrTMxFTItBq7wxph5jyEExBfp_s9ETwycycOTAXp5UgAylMU2l3tLKTNXLKIh-oIZVKCmlJidBrjEPwOKh_WM5PT5QYUgglE57ckIdVBTgn29czvrffLal3x2R0AmtLLNUXzrSUskcge3amzBDQ4-awl-fGndajdP-LToPDRhCj-OtaoaH0znUt72TUSK5zKcpG3Cz1bC202GOnfVK8Vii5NJK51Wg-2SCjudgYMq9-1GRfw0z8aclY5Q2C5OFq1Yb1TyAvh_8cLWoCX-E2e6nna3uu-qOQyuzX43fCAp1PVNI4VTNKPupIWYg61KnMwffemj0L5OoBJ1zZK0cHzGbBE284IafP6F7s4VSWLhbDHJFWHmL2eWqe0xYkykNBwY0ECG9iacfFUH0Bt1HBEfHnaCLNFmUk8LafbqXRGmj1NL0qkZp-0pSjnm7zHe0X8pAWs9HTVbzm60PNY0kodwYehuDtMdyWuEo6zvzX3qzBb4fNJEHa374GLJTSZ8bFX1FddKRr2RgIHrFXime0Yc7s4murnm8Ia2DB9Y5AdMYbgn2wLAIB7wmnFo6L45d1wzlH9LW24shIUvOZGdYQQ5e6G95sTnOGMFC57mKUUPPgn2YUWPXek9APezirmZFHCkhX2_BVs4s9SdmWniGNF8BN9KzcEmKFckY33gEW0KEDRSJY6cvjnt860ppIpFuSZz1iu6rmcFfTHa1uT9_iy8XskHdLOOS37HfoDEtoqCsq7ootJK5dkZxXARDyZ1NtEn3MVJa0FHAmxlXSCNPjKK3byqr5zFfKeefxXOKK6hWkDnxeA9LCPwUGpasOAhjJIJJmRqH3H7OGFajHW4SScUH1H8n5WxDCDOye_Edgj98OcJn19F4eVY6Q4GnhXU4hHoY5D0ha4vhP8RZ1zaZw11jUT7BsfVWC0]--></g></svg>