<svg xmlns="http://www.w3.org/2000/svg" xmlns:xlink="http://www.w3.org/1999/xlink" contentStyleType="text/css" height="134px" preserveAspectRatio="none" style="width:162px;height:134px;background:#FFFFFF;" version="1.1" viewBox="0 0 162 134" width="162px" zoomAndPan="magnify"><defs/><g><!--class User--><g id="elem_User"><rect codeLine="1" fill="#F1F1F1" height="113.1875" id="User" rx="2.5" ry="2.5" style="stroke:#181818;stroke-width:0.5;" width="141" x="7" y="7"/><ellipse cx="24.25" cy="23" fill="#ADD1B2" rx="11" ry="11" style="stroke:#181818;stroke-width:1.0;"/><path d="M28.3594,29 L20.6406,29 L20.6406,16.6094 L28.3594,16.6094 L28.3594,18.7656 L23.0938,18.7656 L23.0938,21.4375 L27.8594,21.4375 L27.8594,23.5938 L23.0938,23.5938 L23.0938,26.8438 L28.3594,26.8438 L28.3594,29 Z " fill="#000000"/><text fill="#000000" font-family="sans-serif" font-size="14" lengthAdjust="spacing" textLength="104" x="38.75" y="27.8467">&#1055;&#1086;&#1083;&#1100;&#1079;&#1086;&#1074;&#1072;&#1090;&#1077;&#1083;&#1100;</text><line style="stroke:#181818;stroke-width:0.5;" x1="8" x2="147" y1="39" y2="39"/><ellipse cx="18" cy="52.6484" fill="none" rx="3" ry="3" style="stroke:#038048;stroke-width:1.0;"/><text fill="#000000" font-family="sans-serif" font-size="14" lengthAdjust="spacing" textLength="40" x="27" y="55.9951">ID: int</text><ellipse cx="18" cy="68.9453" fill="none" rx="3" ry="3" style="stroke:#038048;stroke-width:1.0;"/><text fill="#000000" font-family="sans-serif" font-size="14" lengthAdjust="spacing" textLength="76" x="27" y="72.292">&#1048;&#1084;&#1103;: string</text><ellipse cx="18" cy="85.2422" fill="none" rx="3" ry="3" style="stroke:#038048;stroke-width:1.0;"/><text fill="#000000" font-family="sans-serif" font-size="14" lengthAdjust="spacing" textLength="115" x="27" y="88.5889">&#1058;&#1077;&#1083;&#1077;&#1092;&#1086;&#1085;: string</text><ellipse cx="18" cy="101.5391" fill="none" rx="3" ry="3" style="stroke:#038048;stroke-width:1.0;"/><text fill="#000000" font-family="sans-serif" font-size="14" lengthAdjust="spacing" textLength="84" x="27" y="104.8857">Email: string</text><line style="stroke:#181818;stroke-width:0.5;" x1="8" x2="147" y1="112.1875" y2="112.1875"/></g><!--SRC=[IyqhoIofL52wCF_2lWkxB_PSs0waDrtOSB7fmbOGNqaXiLWXj3YrIA6QIq51My7JnKeXCwy4pBumuyAUY_rM2iKbHPbvwH2XHI1j5xPUR04QinT5oZKtCJC7Bb8B0000]--></g></svg>