<svg xmlns="http://www.w3.org/2000/svg" xmlns:xlink="http://www.w3.org/1999/xlink" contentStyleType="text/css" height="1088px" preserveAspectRatio="none" style="width:749px;height:1088px;background:#FFFFFF;" version="1.1" viewBox="0 0 749 1088" width="749px" zoomAndPan="magnify"><defs/><g><!--cluster ?????? ?????????????--><g id="cluster_&#1057;&#1077;&#1088;&#1074;&#1080;&#1089; &#1087;&#1086;&#1083;&#1100;&#1079;&#1086;&#1074;&#1072;&#1090;&#1077;&#1083;&#1077;&#1081;"><path d="M306.5,251.78 L494.5,251.78 A3.75,3.75 0 0 1 497,254.28 L504,274.0769 L615.5,274.0769 A2.5,2.5 0 0 1 618,276.5769 L618,413.47 A2.5,2.5 0 0 1 615.5,415.97 L306.5,415.97 A2.5,2.5 0 0 1 304,413.47 L304,254.28 A2.5,2.5 0 0 1 306.5,251.78 " fill="none" style="stroke:#000000;stroke-width:1.5;"/><line style="stroke:#000000;stroke-width:1.5;" x1="304" x2="504" y1="274.0769" y2="274.0769"/><text fill="#000000" font-family="sans-serif" font-size="14" font-weight="bold" lengthAdjust="spacing" textLength="187" x="308" y="266.7751">&#1057;&#1077;&#1088;&#1074;&#1080;&#1089; &#1087;&#1086;&#1083;&#1100;&#1079;&#1086;&#1074;&#1072;&#1090;&#1077;&#1083;&#1077;&#1081;</text></g><!--cluster ?????? ???????--><g id="cluster_&#1057;&#1077;&#1088;&#1074;&#1080;&#1089; &#1079;&#1072;&#1082;&#1072;&#1079;&#1086;&#1074;"><path d="M312.5,464.97 L440.5,464.97 A3.75,3.75 0 0 1 443,467.47 L450,487.2669 L605.5,487.2669 A2.5,2.5 0 0 1 608,489.7669 L608,849.44 A2.5,2.5 0 0 1 605.5,851.94 L312.5,851.94 A2.5,2.5 0 0 1 310,849.44 L310,467.47 A2.5,2.5 0 0 1 312.5,464.97 " fill="none" style="stroke:#000000;stroke-width:1.5;"/><line style="stroke:#000000;stroke-width:1.5;" x1="310" x2="450" y1="487.2669" y2="487.2669"/><text fill="#000000" font-family="sans-serif" font-size="14" font-weight="bold" lengthAdjust="spacing" textLength="127" x="314" y="479.9651">&#1057;&#1077;&#1088;&#1074;&#1080;&#1089; &#1079;&#1072;&#1082;&#1072;&#1079;&#1086;&#1074;</text></g><!--cluster ?????? ????--><g id="cluster_&#1057;&#1077;&#1088;&#1074;&#1080;&#1089; &#1084;&#1077;&#1085;&#1102;"><path d="M321.5,900.94 L431.5,900.94 A3.75,3.75 0 0 1 434,903.44 L441,923.2369 L596.5,923.2369 A2.5,2.5 0 0 1 599,925.7369 L599,1078.92 A2.5,2.5 0 0 1 596.5,1081.42 L321.5,1081.42 A2.5,2.5 0 0 1 319,1078.92 L319,903.44 A2.5,2.5 0 0 1 321.5,900.94 " fill="none" style="stroke:#000000;stroke-width:1.5;"/><line style="stroke:#000000;stroke-width:1.5;" x1="319" x2="441" y1="923.2369" y2="923.2369"/><text fill="#000000" font-family="sans-serif" font-size="14" font-weight="bold" lengthAdjust="spacing" textLength="109" x="323" y="915.9351">&#1057;&#1077;&#1088;&#1074;&#1080;&#1089; &#1084;&#1077;&#1085;&#1102;</text></g><!--cluster ?????? ??????--><g id="cluster_&#1057;&#1077;&#1088;&#1074;&#1080;&#1089; &#1089;&#1082;&#1083;&#1072;&#1076;&#1072;"><path d="M8.5,695.9 L131.5,695.9 A3.75,3.75 0 0 1 134,698.4 L141,718.1969 L283.5,718.1969 A2.5,2.5 0 0 1 286,720.6969 L286,824.99 A2.5,2.5 0 0 1 283.5,827.49 L8.5,827.49 A2.5,2.5 0 0 1 6,824.99 L6,698.4 A2.5,2.5 0 0 1 8.5,695.9 " fill="none" style="stroke:#000000;stroke-width:1.5;"/><line style="stroke:#000000;stroke-width:1.5;" x1="6" x2="141" y1="718.1969" y2="718.1969"/><text fill="#000000" font-family="sans-serif" font-size="14" font-weight="bold" lengthAdjust="spacing" textLength="122" x="10" y="710.8951">&#1057;&#1077;&#1088;&#1074;&#1080;&#1089; &#1089;&#1082;&#1083;&#1072;&#1076;&#1072;</text></g><!--cluster ?????? ???????--><g id="cluster_&#1057;&#1077;&#1088;&#1074;&#1080;&#1089; &#1086;&#1090;&#1079;&#1099;&#1074;&#1086;&#1074;"><path d="M418.5,6 L550.5,6 A3.75,3.75 0 0 1 553,8.5 L560,28.2969 L711.5,28.2969 A2.5,2.5 0 0 1 714,30.7969 L714,200.28 A2.5,2.5 0 0 1 711.5,202.78 L418.5,202.78 A2.5,2.5 0 0 1 416,200.28 L416,8.5 A2.5,2.5 0 0 1 418.5,6 " fill="none" style="stroke:#000000;stroke-width:1.5;"/><line style="stroke:#000000;stroke-width:1.5;" x1="416" x2="560" y1="28.2969" y2="28.2969"/><text fill="#000000" font-family="sans-serif" font-size="14" font-weight="bold" lengthAdjust="spacing" textLength="131" x="420" y="20.9951">&#1057;&#1077;&#1088;&#1074;&#1080;&#1089; &#1086;&#1090;&#1079;&#1099;&#1074;&#1086;&#1074;</text></g><!--class ????????????--><g id="elem_&#1055;&#1086;&#1083;&#1100;&#1079;&#1086;&#1074;&#1072;&#1090;&#1077;&#1083;&#1080;"><rect codeLine="2" fill="#F1F1F1" height="113.1875" id="&#1055;&#1086;&#1083;&#1100;&#1079;&#1086;&#1074;&#1072;&#1090;&#1077;&#1083;&#1080;" rx="2.5" ry="2.5" style="stroke:#181818;stroke-width:0.5;" width="281" x="320.5" y="286.78"/><ellipse cx="404.25" cy="302.78" fill="#ADD1B2" rx="11" ry="11" style="stroke:#181818;stroke-width:1.0;"/><path d="M408.3594,308.78 L400.6406,308.78 L400.6406,296.3894 L408.3594,296.3894 L408.3594,298.5456 L403.0938,298.5456 L403.0938,301.2175 L407.8594,301.2175 L407.8594,303.3738 L403.0938,303.3738 L403.0938,306.6238 L408.3594,306.6238 L408.3594,308.78 Z " fill="#000000"/><text fill="#000000" font-family="sans-serif" font-size="14" lengthAdjust="spacing" textLength="105" x="424.75" y="307.6267">&#1055;&#1086;&#1083;&#1100;&#1079;&#1086;&#1074;&#1072;&#1090;&#1077;&#1083;&#1080;</text><line style="stroke:#181818;stroke-width:0.5;" x1="321.5" x2="600.5" y1="318.78" y2="318.78"/><ellipse cx="331.5" cy="332.4284" fill="#000000" rx="3" ry="3" style="stroke:#000000;stroke-width:1.0;"/><text fill="#000000" font-family="sans-serif" font-size="14" lengthAdjust="spacing" textLength="255" x="340.5" y="335.7751">&#1048;&#1076;&#1077;&#1085;&#1090;&#1080;&#1092;&#1080;&#1082;&#1072;&#1090;&#1086;&#1088;&#1055;&#1086;&#1083;&#1100;&#1079;&#1086;&#1074;&#1072;&#1090;&#1077;&#1083;&#1103; : int</text><line style="stroke:#181818;stroke-width:1.0;" x1="321.5" x2="600.5" y1="343.0769" y2="343.0769"/><text fill="#000000" font-family="sans-serif" font-size="14" lengthAdjust="spacing" textLength="80" x="326.5" y="360.072">&#1048;&#1084;&#1103; : string</text><text fill="#000000" font-family="sans-serif" font-size="14" lengthAdjust="spacing" textLength="193" x="326.5" y="376.3689">&#1069;&#1083;&#1077;&#1082;&#1090;&#1088;&#1086;&#1085;&#1085;&#1072;&#1103;&#1055;&#1086;&#1095;&#1090;&#1072; : string</text><text fill="#000000" font-family="sans-serif" font-size="14" lengthAdjust="spacing" textLength="119" x="326.5" y="392.6657">&#1058;&#1077;&#1083;&#1077;&#1092;&#1086;&#1085; : string</text></g><!--class ??????--><g id="elem_&#1047;&#1072;&#1082;&#1072;&#1079;&#1099;"><rect codeLine="12" fill="#F1F1F1" height="129.4844" id="&#1047;&#1072;&#1082;&#1072;&#1079;&#1099;" rx="2.5" ry="2.5" style="stroke:#181818;stroke-width:0.5;" width="267" x="325.5" y="499.97"/><ellipse cx="428.75" cy="515.97" fill="#ADD1B2" rx="11" ry="11" style="stroke:#181818;stroke-width:1.0;"/><path d="M432.8594,521.97 L425.1406,521.97 L425.1406,509.5794 L432.8594,509.5794 L432.8594,511.7356 L427.5938,511.7356 L427.5938,514.4075 L432.3594,514.4075 L432.3594,516.5638 L427.5938,516.5638 L427.5938,519.8138 L432.8594,519.8138 L432.8594,521.97 Z " fill="#000000"/><text fill="#000000" font-family="sans-serif" font-size="14" lengthAdjust="spacing" textLength="52" x="449.25" y="520.8167">&#1047;&#1072;&#1082;&#1072;&#1079;&#1099;</text><line style="stroke:#181818;stroke-width:0.5;" x1="326.5" x2="591.5" y1="531.97" y2="531.97"/><ellipse cx="336.5" cy="545.6184" fill="#000000" rx="3" ry="3" style="stroke:#000000;stroke-width:1.0;"/><text fill="#000000" font-family="sans-serif" font-size="14" lengthAdjust="spacing" textLength="200" x="345.5" y="548.9651">&#1048;&#1076;&#1077;&#1085;&#1090;&#1080;&#1092;&#1080;&#1082;&#1072;&#1090;&#1086;&#1088;&#1047;&#1072;&#1082;&#1072;&#1079;&#1072; : int</text><line style="stroke:#181818;stroke-width:1.0;" x1="326.5" x2="591.5" y1="556.2669" y2="556.2669"/><text fill="#000000" font-family="sans-serif" font-size="14" lengthAdjust="spacing" textLength="255" x="331.5" y="573.262">&#1048;&#1076;&#1077;&#1085;&#1090;&#1080;&#1092;&#1080;&#1082;&#1072;&#1090;&#1086;&#1088;&#1055;&#1086;&#1083;&#1100;&#1079;&#1086;&#1074;&#1072;&#1090;&#1077;&#1083;&#1103; : int</text><text fill="#000000" font-family="sans-serif" font-size="14" lengthAdjust="spacing" textLength="160" x="331.5" y="589.5589">&#1044;&#1072;&#1090;&#1072;&#1047;&#1072;&#1082;&#1072;&#1079;&#1072; : datetime</text><text fill="#000000" font-family="sans-serif" font-size="14" lengthAdjust="spacing" textLength="103" x="331.5" y="605.8557">&#1057;&#1090;&#1072;&#1090;&#1091;&#1089; : string</text><text fill="#000000" font-family="sans-serif" font-size="14" lengthAdjust="spacing" textLength="161" x="331.5" y="622.1526">&#1054;&#1073;&#1097;&#1072;&#1103;&#1057;&#1091;&#1084;&#1084;&#1072; : decimal</text></g><!--class ?????????????--><g id="elem_&#1055;&#1086;&#1079;&#1080;&#1094;&#1080;&#1080;&#1047;&#1072;&#1082;&#1072;&#1079;&#1072;"><rect codeLine="21" fill="#F1F1F1" height="129.4844" id="&#1055;&#1086;&#1079;&#1080;&#1094;&#1080;&#1080;&#1047;&#1072;&#1082;&#1072;&#1079;&#1072;" rx="2.5" ry="2.5" style="stroke:#181818;stroke-width:0.5;" width="241" x="338.5" y="706.45"/><ellipse cx="398.25" cy="722.45" fill="#ADD1B2" rx="11" ry="11" style="stroke:#181818;stroke-width:1.0;"/><path d="M402.3594,728.45 L394.6406,728.45 L394.6406,716.0594 L402.3594,716.0594 L402.3594,718.2156 L397.0938,718.2156 L397.0938,720.8875 L401.8594,720.8875 L401.8594,723.0438 L397.0938,723.0438 L397.0938,726.2938 L402.3594,726.2938 L402.3594,728.45 Z " fill="#000000"/><text fill="#000000" font-family="sans-serif" font-size="14" lengthAdjust="spacing" textLength="113" x="418.75" y="727.2967">&#1055;&#1086;&#1079;&#1080;&#1094;&#1080;&#1080;&#1047;&#1072;&#1082;&#1072;&#1079;&#1072;</text><line style="stroke:#181818;stroke-width:0.5;" x1="339.5" x2="578.5" y1="738.45" y2="738.45"/><ellipse cx="349.5" cy="752.0984" fill="#000000" rx="3" ry="3" style="stroke:#000000;stroke-width:1.0;"/><text fill="#000000" font-family="sans-serif" font-size="14" lengthAdjust="spacing" textLength="215" x="358.5" y="755.4451">&#1048;&#1076;&#1077;&#1085;&#1090;&#1080;&#1092;&#1080;&#1082;&#1072;&#1090;&#1086;&#1088;&#1055;&#1086;&#1079;&#1080;&#1094;&#1080;&#1080; : int</text><line style="stroke:#181818;stroke-width:1.0;" x1="339.5" x2="578.5" y1="762.7469" y2="762.7469"/><text fill="#000000" font-family="sans-serif" font-size="14" lengthAdjust="spacing" textLength="200" x="344.5" y="779.742">&#1048;&#1076;&#1077;&#1085;&#1090;&#1080;&#1092;&#1080;&#1082;&#1072;&#1090;&#1086;&#1088;&#1047;&#1072;&#1082;&#1072;&#1079;&#1072; : int</text><text fill="#000000" font-family="sans-serif" font-size="14" lengthAdjust="spacing" textLength="221" x="344.5" y="796.0389">&#1048;&#1076;&#1077;&#1085;&#1090;&#1080;&#1092;&#1080;&#1082;&#1072;&#1090;&#1086;&#1088;&#1055;&#1088;&#1086;&#1076;&#1091;&#1082;&#1090;&#1072; : int</text><text fill="#000000" font-family="sans-serif" font-size="14" lengthAdjust="spacing" textLength="118" x="344.5" y="812.3357">&#1050;&#1086;&#1083;&#1080;&#1095;&#1077;&#1089;&#1090;&#1074;&#1086; : int</text><text fill="#000000" font-family="sans-serif" font-size="14" lengthAdjust="spacing" textLength="103" x="344.5" y="828.6326">&#1062;&#1077;&#1085;&#1072; : decimal</text></g><!--class ????--><g id="elem_&#1052;&#1077;&#1085;&#1102;"><rect codeLine="32" fill="#F1F1F1" height="129.4844" id="&#1052;&#1077;&#1085;&#1102;" rx="2.5" ry="2.5" style="stroke:#181818;stroke-width:0.5;" width="247" x="335.5" y="935.94"/><ellipse cx="433.75" cy="951.94" fill="#ADD1B2" rx="11" ry="11" style="stroke:#181818;stroke-width:1.0;"/><path d="M437.8594,957.94 L430.1406,957.94 L430.1406,945.5494 L437.8594,945.5494 L437.8594,947.7056 L432.5938,947.7056 L432.5938,950.3775 L437.3594,950.3775 L437.3594,952.5338 L432.5938,952.5338 L432.5938,955.7838 L437.8594,955.7838 L437.8594,957.94 Z " fill="#000000"/><text fill="#000000" font-family="sans-serif" font-size="14" lengthAdjust="spacing" textLength="42" x="454.25" y="956.7867">&#1052;&#1077;&#1085;&#1102;</text><line style="stroke:#181818;stroke-width:0.5;" x1="336.5" x2="581.5" y1="967.94" y2="967.94"/><ellipse cx="346.5" cy="981.5884" fill="#000000" rx="3" ry="3" style="stroke:#000000;stroke-width:1.0;"/><text fill="#000000" font-family="sans-serif" font-size="14" lengthAdjust="spacing" textLength="221" x="355.5" y="984.9351">&#1048;&#1076;&#1077;&#1085;&#1090;&#1080;&#1092;&#1080;&#1082;&#1072;&#1090;&#1086;&#1088;&#1055;&#1088;&#1086;&#1076;&#1091;&#1082;&#1090;&#1072; : int</text><line style="stroke:#181818;stroke-width:1.0;" x1="336.5" x2="581.5" y1="992.2369" y2="992.2369"/><text fill="#000000" font-family="sans-serif" font-size="14" lengthAdjust="spacing" textLength="121" x="341.5" y="1009.232">&#1053;&#1072;&#1079;&#1074;&#1072;&#1085;&#1080;&#1077; : string</text><text fill="#000000" font-family="sans-serif" font-size="14" lengthAdjust="spacing" textLength="124" x="341.5" y="1025.5289">&#1054;&#1087;&#1080;&#1089;&#1072;&#1085;&#1080;&#1077; : string</text><text fill="#000000" font-family="sans-serif" font-size="14" lengthAdjust="spacing" textLength="103" x="341.5" y="1041.8257">&#1062;&#1077;&#1085;&#1072; : decimal</text><text fill="#000000" font-family="sans-serif" font-size="14" lengthAdjust="spacing" textLength="131" x="341.5" y="1058.1226">&#1053;&#1072;&#1083;&#1080;&#1095;&#1080;&#1077; : boolean</text></g><!--class ?????--><g id="elem_&#1057;&#1082;&#1083;&#1072;&#1076;"><rect codeLine="43" fill="#F1F1F1" height="80.5938" id="&#1057;&#1082;&#1083;&#1072;&#1076;" rx="2.5" ry="2.5" style="stroke:#181818;stroke-width:0.5;" width="247" x="22.5" y="730.9"/><ellipse cx="119.25" cy="746.9" fill="#ADD1B2" rx="11" ry="11" style="stroke:#181818;stroke-width:1.0;"/><path d="M123.3594,752.9 L115.6406,752.9 L115.6406,740.5094 L123.3594,740.5094 L123.3594,742.6656 L118.0938,742.6656 L118.0938,745.3375 L122.8594,745.3375 L122.8594,747.4938 L118.0938,747.4938 L118.0938,750.7438 L123.3594,750.7438 L123.3594,752.9 Z " fill="#000000"/><text fill="#000000" font-family="sans-serif" font-size="14" lengthAdjust="spacing" textLength="45" x="139.75" y="751.7467">&#1057;&#1082;&#1083;&#1072;&#1076;</text><line style="stroke:#181818;stroke-width:0.5;" x1="23.5" x2="268.5" y1="762.9" y2="762.9"/><ellipse cx="33.5" cy="776.5484" fill="#000000" rx="3" ry="3" style="stroke:#000000;stroke-width:1.0;"/><text fill="#000000" font-family="sans-serif" font-size="14" lengthAdjust="spacing" textLength="221" x="42.5" y="779.8951">&#1048;&#1076;&#1077;&#1085;&#1090;&#1080;&#1092;&#1080;&#1082;&#1072;&#1090;&#1086;&#1088;&#1055;&#1088;&#1086;&#1076;&#1091;&#1082;&#1090;&#1072; : int</text><line style="stroke:#181818;stroke-width:1.0;" x1="23.5" x2="268.5" y1="787.1969" y2="787.1969"/><text fill="#000000" font-family="sans-serif" font-size="14" lengthAdjust="spacing" textLength="118" x="28.5" y="804.192">&#1050;&#1086;&#1083;&#1080;&#1095;&#1077;&#1089;&#1090;&#1074;&#1086; : int</text></g><!--class ??????--><g id="elem_&#1054;&#1090;&#1079;&#1099;&#1074;&#1099;"><rect codeLine="51" fill="#F1F1F1" height="145.7813" id="&#1054;&#1090;&#1079;&#1099;&#1074;&#1099;" rx="2.5" ry="2.5" style="stroke:#181818;stroke-width:0.5;" width="267" x="431.5" y="41"/><ellipse cx="531.75" cy="57" fill="#ADD1B2" rx="11" ry="11" style="stroke:#181818;stroke-width:1.0;"/><path d="M535.8594,63 L528.1406,63 L528.1406,50.6094 L535.8594,50.6094 L535.8594,52.7656 L530.5938,52.7656 L530.5938,55.4375 L535.3594,55.4375 L535.3594,57.5938 L530.5938,57.5938 L530.5938,60.8438 L535.8594,60.8438 L535.8594,63 Z " fill="#000000"/><text fill="#000000" font-family="sans-serif" font-size="14" lengthAdjust="spacing" textLength="58" x="552.25" y="61.8467">&#1054;&#1090;&#1079;&#1099;&#1074;&#1099;</text><line style="stroke:#181818;stroke-width:0.5;" x1="432.5" x2="697.5" y1="73" y2="73"/><ellipse cx="442.5" cy="86.6484" fill="#000000" rx="3" ry="3" style="stroke:#000000;stroke-width:1.0;"/><text fill="#000000" font-family="sans-serif" font-size="14" lengthAdjust="spacing" textLength="206" x="451.5" y="89.9951">&#1048;&#1076;&#1077;&#1085;&#1090;&#1080;&#1092;&#1080;&#1082;&#1072;&#1090;&#1086;&#1088;&#1054;&#1090;&#1079;&#1099;&#1074;&#1072; : int</text><line style="stroke:#181818;stroke-width:1.0;" x1="432.5" x2="697.5" y1="97.2969" y2="97.2969"/><text fill="#000000" font-family="sans-serif" font-size="14" lengthAdjust="spacing" textLength="255" x="437.5" y="114.292">&#1048;&#1076;&#1077;&#1085;&#1090;&#1080;&#1092;&#1080;&#1082;&#1072;&#1090;&#1086;&#1088;&#1055;&#1086;&#1083;&#1100;&#1079;&#1086;&#1074;&#1072;&#1090;&#1077;&#1083;&#1103; : int</text><text fill="#000000" font-family="sans-serif" font-size="14" lengthAdjust="spacing" textLength="221" x="437.5" y="130.5889">&#1048;&#1076;&#1077;&#1085;&#1090;&#1080;&#1092;&#1080;&#1082;&#1072;&#1090;&#1086;&#1088;&#1055;&#1088;&#1086;&#1076;&#1091;&#1082;&#1090;&#1072; : int</text><text fill="#000000" font-family="sans-serif" font-size="14" lengthAdjust="spacing" textLength="85" x="437.5" y="146.8857">&#1054;&#1094;&#1077;&#1085;&#1082;&#1072; : int</text><text fill="#000000" font-family="sans-serif" font-size="14" lengthAdjust="spacing" textLength="153" x="437.5" y="163.1826">&#1050;&#1086;&#1084;&#1084;&#1077;&#1085;&#1090;&#1072;&#1088;&#1080;&#1081; : string</text><text fill="#000000" font-family="sans-serif" font-size="14" lengthAdjust="spacing" textLength="166" x="437.5" y="179.4795">&#1044;&#1072;&#1090;&#1072;&#1054;&#1090;&#1079;&#1099;&#1074;&#1072; : datetime</text></g><!--link ???????????? to ??????--><g id="link_&#1055;&#1086;&#1083;&#1100;&#1079;&#1086;&#1074;&#1072;&#1090;&#1077;&#1083;&#1080;_&#1047;&#1072;&#1082;&#1072;&#1079;&#1099;"><path codeLine="62" d="M460.4161,408.2897 C460.1361,438.6197 460.0358,450.2508 459.7458,481.7408 " fill="none" id="&#1055;&#1086;&#1083;&#1100;&#1079;&#1086;&#1074;&#1072;&#1090;&#1077;&#1083;&#1080;-&#1047;&#1072;&#1082;&#1072;&#1079;&#1099;" style="stroke:#181818;stroke-width:1.0;"/><line style="stroke:#181818;stroke-width:1.0;" x1="456.4532" x2="464.4529" y1="404.2529" y2="404.3268"/><line style="stroke:#181818;stroke-width:1.0;" x1="456.4256" x2="464.4252" y1="407.2528" y2="407.3266"/><line style="stroke:#181818;stroke-width:1.0;" x1="460.4161" x2="460.49" y1="408.2897" y2="400.29"/><line style="stroke:#181818;stroke-width:1.0;" x1="459.6537" x2="465.5797" y1="491.7403" y2="499.7953"/><line style="stroke:#181818;stroke-width:1.0;" x1="459.6537" x2="453.5803" y1="491.7403" y2="499.6847"/><line style="stroke:#181818;stroke-width:1.0;" x1="459.6537" x2="459.58" y1="491.7403" y2="499.74"/><ellipse cx="459.7089" cy="485.7406" fill="none" rx="4" ry="4" style="stroke:#181818;stroke-width:1.0;"/><text fill="#000000" font-family="sans-serif" font-size="13" lengthAdjust="spacing" textLength="49" x="461" y="445.0369">&#1089;&#1076;&#1077;&#1083;&#1072;&#1083;</text></g><!--link ?????? to ?????????????--><g id="link_&#1047;&#1072;&#1082;&#1072;&#1079;&#1099;_&#1055;&#1086;&#1079;&#1080;&#1094;&#1080;&#1080;&#1047;&#1072;&#1082;&#1072;&#1079;&#1072;"><path codeLine="63" d="M459,637.85 C459,662.21 459,663.94 459,688.28 " fill="none" id="&#1047;&#1072;&#1082;&#1072;&#1079;&#1099;-&#1055;&#1086;&#1079;&#1080;&#1094;&#1080;&#1080;&#1047;&#1072;&#1082;&#1072;&#1079;&#1072;" style="stroke:#181818;stroke-width:1.0;"/><line style="stroke:#181818;stroke-width:1.0;" x1="455" x2="463" y1="633.85" y2="633.85"/><line style="stroke:#181818;stroke-width:1.0;" x1="455" x2="463" y1="636.85" y2="636.85"/><line style="stroke:#181818;stroke-width:1.0;" x1="459" x2="459" y1="637.85" y2="629.85"/><line style="stroke:#181818;stroke-width:1.0;" x1="459" x2="465" y1="698.28" y2="706.28"/><line style="stroke:#181818;stroke-width:1.0;" x1="459" x2="453" y1="698.28" y2="706.28"/><line style="stroke:#181818;stroke-width:1.0;" x1="459" x2="459" y1="698.28" y2="706.28"/><ellipse cx="459" cy="692.28" fill="none" rx="4" ry="4" style="stroke:#181818;stroke-width:1.0;"/><text fill="#000000" font-family="sans-serif" font-size="13" lengthAdjust="spacing" textLength="70" x="460" y="672.5169">&#1089;&#1086;&#1076;&#1077;&#1088;&#1078;&#1080;&#1090;</text></g><!--link ????????????? to ????--><g id="link_&#1055;&#1086;&#1079;&#1080;&#1094;&#1080;&#1080;&#1047;&#1072;&#1082;&#1072;&#1079;&#1072;_&#1052;&#1077;&#1085;&#1102;"><path codeLine="64" d="M459,844.17 C459,875.31 459,896.66 459,927.79 " fill="none" id="&#1055;&#1086;&#1079;&#1080;&#1094;&#1080;&#1080;&#1047;&#1072;&#1082;&#1072;&#1079;&#1072;-&#1052;&#1077;&#1085;&#1102;" style="stroke:#181818;stroke-width:1.0;"/><line style="stroke:#181818;stroke-width:1.0;" x1="455" x2="463" y1="840.17" y2="840.17"/><line style="stroke:#181818;stroke-width:1.0;" x1="455" x2="463" y1="843.17" y2="843.17"/><line style="stroke:#181818;stroke-width:1.0;" x1="459" x2="459" y1="844.17" y2="836.17"/><line style="stroke:#181818;stroke-width:1.0;" x1="463" x2="455" y1="931.79" y2="931.79"/><line style="stroke:#181818;stroke-width:1.0;" x1="463" x2="455" y1="928.79" y2="928.79"/><line style="stroke:#181818;stroke-width:1.0;" x1="459" x2="459" y1="927.79" y2="935.79"/><text fill="#000000" font-family="sans-serif" font-size="13" lengthAdjust="spacing" textLength="70" x="460" y="881.0069">&#1089;&#1086;&#1076;&#1077;&#1088;&#1078;&#1080;&#1090;</text></g><!--link ????? to ????--><g id="link_&#1057;&#1082;&#1083;&#1072;&#1076;_&#1052;&#1077;&#1085;&#1102;"><path codeLine="65" d="M206.9917,816.5228 C253.9317,850.6328 309.6084,891.107 364.3484,930.887 " fill="none" id="&#1057;&#1082;&#1083;&#1072;&#1076;-&#1052;&#1077;&#1085;&#1102;" style="stroke:#181818;stroke-width:1.0;"/><line style="stroke:#181818;stroke-width:1.0;" x1="201.4045" x2="206.1073" y1="817.4073" y2="810.9355"/><line style="stroke:#181818;stroke-width:1.0;" x1="203.8314" x2="208.5342" y1="819.1708" y2="812.6991"/><line style="stroke:#181818;stroke-width:1.0;" x1="206.9917" x2="200.52" y1="816.5228" y2="811.82"/><line style="stroke:#181818;stroke-width:1.0;" x1="369.9357" x2="365.2327" y1="930.0027" y2="936.4743"/><line style="stroke:#181818;stroke-width:1.0;" x1="367.5088" x2="362.8058" y1="928.2391" y2="934.7107"/><line style="stroke:#181818;stroke-width:1.0;" x1="364.3484" x2="370.82" y1="930.887" y2="935.59"/><text fill="#000000" font-family="sans-serif" font-size="13" lengthAdjust="spacing" textLength="139" x="294" y="881.0069">&#1091;&#1087;&#1088;&#1072;&#1074;&#1083;&#1103;&#1077;&#1090; &#1079;&#1072;&#1087;&#1072;&#1089;&#1072;&#1084;&#1080;</text></g><!--link ?????? to ????????????--><g id="link_&#1054;&#1090;&#1079;&#1099;&#1074;&#1099;_&#1055;&#1086;&#1083;&#1100;&#1079;&#1086;&#1074;&#1072;&#1090;&#1077;&#1083;&#1080;"><path codeLine="66" d="M474.8057,193.4566 C467.2957,203.3266 465.64,207.58 461,218.78 C452.29,239.79 450.3367,256.6029 451.5767,278.4529 " fill="none" id="&#1054;&#1090;&#1079;&#1099;&#1074;&#1099;-&#1055;&#1086;&#1083;&#1100;&#1079;&#1086;&#1074;&#1072;&#1090;&#1077;&#1083;&#1080;" style="stroke:#181818;stroke-width:1.0;"/><line style="stroke:#181818;stroke-width:1.0;" x1="474.0446" x2="480.4111" y1="187.8511" y2="192.6954"/><line style="stroke:#181818;stroke-width:1.0;" x1="472.228" x2="478.5946" y1="190.2386" y2="195.0829"/><line style="stroke:#181818;stroke-width:1.0;" x1="474.8057" x2="479.65" y1="193.4566" y2="187.09"/><line style="stroke:#181818;stroke-width:1.0;" x1="455.7969" x2="447.8098" y1="282.2198" y2="282.6731"/><line style="stroke:#181818;stroke-width:1.0;" x1="455.627" x2="447.6398" y1="279.2246" y2="279.6779"/><line style="stroke:#181818;stroke-width:1.0;" x1="451.5767" x2="452.03" y1="278.4529" y2="286.44"/><text fill="#000000" font-family="sans-serif" font-size="13" lengthAdjust="spacing" textLength="173" x="462" y="231.8469">&#1086;&#1089;&#1090;&#1072;&#1074;&#1083;&#1077;&#1085; &#1087;&#1086;&#1083;&#1100;&#1079;&#1086;&#1074;&#1072;&#1090;&#1077;&#1083;&#1077;&#1084;</text></g><!--link ?????? to ????--><g id="link_&#1054;&#1090;&#1079;&#1099;&#1074;&#1099;_&#1052;&#1077;&#1085;&#1102;"><path codeLine="67" d="M627.4377,193.8591 C633.8477,204.0891 635.44,208.03 640,218.78 C661.76,270.15 662,286.58 662,342.37 C662,342.37 662,342.37 662,772.19 C662,839.29 618.507,890.7376 568.257,930.6076 " fill="none" id="&#1054;&#1090;&#1079;&#1099;&#1074;&#1099;-&#1052;&#1077;&#1085;&#1102;" style="stroke:#181818;stroke-width:1.0;"/><line style="stroke:#181818;stroke-width:1.0;" x1="621.9243" x2="628.7034" y1="192.5934" y2="188.3457"/><line style="stroke:#181818;stroke-width:1.0;" x1="623.5172" x2="630.2963" y1="195.1356" y2="190.8879"/><line style="stroke:#181818;stroke-width:1.0;" x1="627.4377" x2="623.19" y1="193.8591" y2="187.08"/><line style="stroke:#181818;stroke-width:1.0;" x1="567.6097" x2="562.6373" y1="936.2273" y2="929.9603"/><line style="stroke:#181818;stroke-width:1.0;" x1="569.9598" x2="564.9874" y1="934.3626" y2="928.0956"/><line style="stroke:#181818;stroke-width:1.0;" x1="568.257" x2="561.99" y1="930.6076" y2="935.58"/><text fill="#000000" font-family="sans-serif" font-size="13" lengthAdjust="spacing" textLength="78" x="663" y="569.2769">&#1086; &#1087;&#1088;&#1086;&#1076;&#1091;&#1082;&#1090;&#1077;</text></g><!--SRC=[hLNRJi9047tlLsnuDE47-9kAZMda5ksB0HC18p4QUJ7H6CNWWsycbO2KKielpFwHPwSKsD8sQ0mX93jdPi-SERCqpFA9UMo90Wrf8YzfH9vi2rfII7DvHrFyZiYL7PhG7DzPGJGD8QoQOpldWjvIOHvZX3WGz4HZ72qGyEGLUUGpACH5gQcoBqh2hZcSNYpo3se4V7xcdDgru-ZiazduieDA8ItmSMLVrPGzL78JwFU8FHW0knsxC2uCev4kmPHSHJSYgBVz68VaxJwjhk5CRBUzlqj43tpi9guuCXtBiQjMX1ag19JgeYjTbm5zoHjMRYYx5E33sLRPhfeLbYSnwoauNeEZfrsuvxJNoRyI8LsylAlO4cCqvA-ii4vwLe8YeOSvjn4SKRWT_b0LToJ8TaZ03EvrRxn4Xtk9aiaqbkML6yVimSkZoSxubef8HZIjcrN9I8CevR1UhrXcBRzLNE8ZoqKhhjxkC0xyJyDv4yeRHGWijb7XayiwY4FxBUiQ_l_B-YVF3h0pQf3-hfM3bGFLUb-YtYpXWFXnq5lQUXnOqSn7lDKg5kjD_RKhAIkC6G0R6LeincS_59mTgdpm_GQaO-IWLRrMQxDHQTaR-wMWkxG4qaLJ60IoEj6ZlaIFQca2yWpD7N69B45AocTjbdJ4_p-Bx3_A8BtqXXsCpVGsOv_y0000]--></g></svg>