<?xml version="1.0" standalone="no"?>
<!DOCTYPE svg PUBLIC "-//W3C//DTD SVG 20010904//EN"
 "http://www.w3.org/TR/2001/REC-SVG-20010904/DTD/svg10.dtd">
<svg version="1.0" xmlns="http://www.w3.org/2000/svg"
 width="190.000000pt" height="348.000000pt" viewBox="0 0 190.000000 348.000000"
 preserveAspectRatio="xMidYMid meet">

<g transform="translate(0.000000,348.000000) scale(0.100000,-0.100000)"
fill="#000000" stroke="none">
<path d="M648 3344 c-76 -41 -74 -159 2 -199 57 -30 127 -10 155 45 52 100
-58 208 -157 154z m102 -9 c66 -34 76 -121 19 -169 -45 -39 -92 -35 -136 9
-32 32 -35 40 -30 76 11 80 79 119 147 84z"/>
<path d="M670 3250 l0 -60 40 0 c22 0 40 5 40 10 0 6 -11 10 -25 10 -16 0 -25
6 -25 15 0 8 9 15 20 15 11 0 20 5 20 10 0 6 -9 10 -20 10 -11 0 -20 7 -20 15
0 9 9 15 25 15 14 0 25 5 25 10 0 6 -18 10 -40 10 l-40 0 0 -60z"/>
<path d="M926 3292 c-3 -5 5 -7 18 -5 31 6 45 -16 15 -24 l-23 -6 23 -9 c30
-11 21 -33 -12 -33 -16 1 -23 -3 -18 -8 5 -5 21 -7 35 -3 23 6 26 11 23 49 -2
37 -5 42 -29 45 -14 2 -29 -1 -32 -6z"/>
<path d="M1015 3271 c-3 -7 0 -8 9 -5 8 3 21 2 28 -2 9 -6 5 -10 -12 -14 -37
-9 -34 -45 3 -46 26 -1 28 1 25 35 -2 28 -8 37 -25 39 -11 2 -24 -2 -28 -7z
m45 -41 c0 -12 -28 -25 -36 -17 -9 9 6 27 22 27 8 0 14 -5 14 -10z"/>
<path d="M1091 3238 c0 -31 3 -37 8 -24 7 18 3 66 -5 66 -2 0 -4 -19 -3 -42z"/>
<path d="M1127 3263 c-14 -16 -14 -20 3 -40 25 -31 34 -29 14 2 -13 20 -14 28
-4 40 17 21 7 19 -13 -2z"/>
<path d="M1175 3271 c-3 -7 0 -8 9 -5 8 3 21 2 28 -2 9 -6 5 -10 -12 -14 -37
-9 -34 -45 3 -46 26 -1 28 1 25 35 -2 28 -8 37 -25 39 -11 2 -24 -2 -28 -7z
m45 -41 c0 -12 -28 -25 -36 -17 -9 9 6 27 22 27 8 0 14 -5 14 -10z"/>
<path d="M1256 3272 c-3 -5 6 -7 19 -4 15 2 25 0 25 -7 0 -6 -8 -11 -17 -11
-15 0 -14 -2 3 -14 17 -13 18 -15 2 -21 -9 -4 -23 -3 -30 1 -10 5 -10 4 -2 -5
7 -7 20 -11 30 -9 14 2 19 12 19 38 0 28 -4 36 -22 38 -11 2 -24 -1 -27 -6z"/>
<path d="M283 2970 c0 -30 2 -43 4 -27 2 15 2 39 0 55 -2 15 -4 2 -4 -28z"/>
<path d="M310 2970 c0 -49 1 -50 29 -50 36 0 61 23 61 55 0 27 -26 45 -64 45
-24 0 -26 -3 -26 -50z m74 18 c15 -25 -3 -52 -38 -56 -24 -3 -26 -1 -26 38 0
39 2 41 26 38 15 -2 32 -11 38 -20z"/>
<path d="M628 3008 c-9 -28 7 -83 25 -84 12 -1 13 -1 2 3 -22 7 -20 63 3 64
13 0 14 2 2 6 -8 3 -18 10 -21 15 -3 5 -8 4 -11 -4z"/>
<path d="M513 2960 c0 -25 2 -35 4 -22 2 12 2 32 0 45 -2 12 -4 2 -4 -23z"/>
<path d="M541 2956 l2 -41 6 35 c4 26 11 35 26 35 15 0 22 -9 27 -35 l6 -35
-1 40 c-2 38 -4 40 -34 41 -32 1 -33 0 -32 -40z"/>
<path d="M154 2965 c-11 -28 35 -61 50 -37 3 5 -5 8 -17 8 -17 -1 -22 5 -21
22 1 26 -4 28 -12 7z"/>
<path d="M283 2810 c0 -30 2 -43 4 -27 2 15 2 39 0 55 -2 15 -4 2 -4 -28z"/>
<path d="M310 2810 c0 -49 1 -50 29 -50 36 0 61 23 61 55 0 27 -26 45 -64 45
-24 0 -26 -3 -26 -50z m74 18 c15 -25 -3 -52 -38 -56 -24 -3 -26 -1 -26 38 0
39 2 41 26 38 15 -2 32 -11 38 -20z"/>
<path d="M492 2808 l2 -53 3 48 c4 44 6 47 33 47 27 0 29 -3 33 -47 l3 -48 2
53 2 52 -40 0 -40 0 2 -52z"/>
<path d="M1738 2848 c-9 -28 7 -83 25 -84 12 -1 13 -1 2 3 -22 7 -20 63 3 64
13 0 14 2 2 6 -8 3 -18 10 -21 15 -3 5 -8 4 -11 -4z"/>
<path d="M600 2825 c-26 -31 13 -82 44 -56 19 16 21 42 4 59 -16 16 -33 15
-48 -3z m45 -25 c0 -16 -6 -26 -18 -28 -19 -4 -32 20 -23 44 9 25 41 13 41
-16z"/>
<path d="M700 2812 c0 -15 -6 -34 -12 -42 -11 -12 -10 -12 5 -1 9 7 17 24 17
37 0 41 28 29 33 -13 l4 -38 1 43 c2 39 0 42 -23 42 -21 0 -25 -5 -25 -28z"/>
<path d="M771 2802 c-1 -42 0 -43 27 -40 34 4 39 41 5 46 -12 2 -24 11 -26 20
-3 9 -5 -2 -6 -26z m42 -17 c1 -5 -6 -11 -15 -13 -11 -2 -18 3 -18 13 0 17 30
18 33 0z"/>
<path d="M856 2832 c-3 -5 6 -7 19 -4 15 2 25 0 25 -7 0 -6 -8 -11 -17 -11
-15 0 -14 -2 3 -14 17 -13 18 -15 2 -21 -9 -4 -23 -3 -30 1 -10 5 -10 4 -2 -5
7 -7 20 -11 30 -9 14 2 19 12 19 38 0 28 -4 36 -22 38 -11 2 -24 -1 -27 -6z"/>
<path d="M940 2825 c-26 -31 13 -82 44 -56 19 16 21 42 4 59 -16 16 -33 15
-48 -3z m45 -25 c0 -29 -32 -41 -41 -16 -9 24 4 48 23 44 12 -2 18 -12 18 -28z"/>
<path d="M1020 2800 c0 -39 1 -41 28 -38 24 3 27 7 27 38 0 31 -3 35 -27 38
-27 3 -28 1 -28 -38z m50 20 c0 -5 -9 -10 -20 -10 -11 0 -20 5 -20 10 0 6 9
10 20 10 11 0 20 -4 20 -10z m-7 -35 c1 -5 -6 -11 -15 -13 -11 -2 -18 3 -18
13 0 17 30 18 33 0z"/>
<path d="M1105 2831 c-3 -7 0 -8 9 -5 8 3 21 2 28 -2 9 -6 5 -10 -12 -14 -37
-9 -34 -45 3 -46 26 -1 28 1 25 35 -2 28 -8 37 -25 39 -11 2 -24 -2 -28 -7z
m45 -41 c0 -12 -28 -25 -36 -17 -9 9 6 27 22 27 8 0 14 -5 14 -10z"/>
<path d="M1192 2833 c11 -3 18 -17 21 -41 l4 -37 1 37 c1 25 7 38 20 41 9 3
-1 5 -23 5 -22 0 -32 -2 -23 -5z"/>
<path d="M1282 2828 c-15 -15 -15 -41 0 -56 14 -14 44 -16 52 -4 2 4 -7 8 -21
7 -14 0 -28 6 -30 13 -3 8 6 12 27 12 25 0 31 4 28 18 -4 21 -39 27 -56 10z
m43 -8 c4 -6 -5 -10 -20 -10 -15 0 -24 4 -20 10 3 6 12 10 20 10 8 0 17 -4 20
-10z"/>
<path d="M1380 2812 c0 -15 -6 -34 -12 -42 -11 -12 -10 -12 5 -1 9 7 17 24 17
37 0 41 28 29 33 -13 l4 -38 1 43 c2 39 0 42 -23 42 -21 0 -25 -5 -25 -28z"/>
<path d="M1451 2802 c-1 -42 0 -43 27 -40 34 4 39 41 5 46 -12 2 -24 11 -26
20 -3 9 -5 -2 -6 -26z m42 -17 c1 -5 -6 -11 -15 -13 -11 -2 -18 3 -18 13 0 17
30 18 33 0z"/>
<path d="M1623 2800 c0 -25 2 -35 4 -22 2 12 2 32 0 45 -2 12 -4 2 -4 -23z"/>
<path d="M1651 2796 l2 -41 6 35 c4 26 11 35 26 35 15 0 22 -9 27 -35 l6 -35
-1 40 c-2 38 -4 40 -34 41 -32 1 -33 0 -32 -40z"/>
<path d="M154 2805 c-11 -28 35 -61 50 -37 3 5 -5 8 -17 8 -17 -1 -22 5 -21
22 1 26 -4 28 -12 7z"/>
<path d="M428 2733 c12 -2 30 -2 40 0 9 3 -1 5 -23 4 -22 0 -30 -2 -17 -4z"/>
<path d="M292 2678 c-15 -15 -15 -61 0 -76 13 -13 54 -16 62 -4 2 4 -7 8 -21
7 -33 0 -52 28 -37 53 6 9 23 17 37 17 14 -1 23 3 21 7 -8 12 -49 9 -62 -4z"/>
<path d="M958 2678 c-9 -28 7 -83 25 -84 12 -1 13 -1 2 3 -22 7 -20 63 3 64
13 0 14 2 2 6 -8 3 -18 10 -21 15 -3 5 -8 4 -11 -4z"/>
<path d="M392 2663 c11 -3 18 -17 21 -41 l4 -37 1 37 c1 25 7 38 20 41 9 3 -1
5 -23 5 -22 0 -32 -2 -23 -5z"/>
<path d="M475 2661 c-3 -7 0 -8 9 -5 8 3 21 2 28 -2 9 -6 5 -10 -12 -14 -37
-9 -34 -45 3 -46 26 -1 28 1 25 35 -2 28 -8 37 -25 39 -11 2 -24 -2 -28 -7z
m45 -41 c0 -12 -28 -25 -36 -17 -9 9 6 27 22 27 8 0 14 -5 14 -10z"/>
<path d="M562 2663 c11 -3 18 -17 21 -41 l4 -37 1 37 c1 25 7 38 20 41 9 3 -1
5 -23 5 -22 0 -32 -2 -23 -5z"/>
<path d="M631 2668 c-1 -4 7 -24 16 -44 17 -35 17 -36 -2 -51 -12 -9 -14 -14
-5 -11 8 2 25 24 37 49 26 52 30 79 5 31 l-18 -33 -16 33 c-9 18 -17 30 -17
26z"/>
<path d="M720 2655 c-15 -18 -10 -45 12 -59 12 -7 21 -7 28 0 8 8 4 10 -12 10
-18 -1 -23 4 -23 24 0 19 5 25 22 24 12 0 20 3 17 8 -8 13 -30 9 -44 -7z"/>
<path d="M887 2663 c-14 -14 -6 -31 18 -37 33 -8 33 -30 -1 -23 -16 3 -22 1
-16 -5 13 -13 44 -7 49 9 3 7 -7 18 -21 24 -33 15 -34 33 -1 27 13 -3 22 -1
19 3 -6 11 -38 12 -47 2z"/>
<path d="M1011 2625 c2 -33 3 -35 6 -10 2 17 11 35 20 42 13 10 13 12 -6 10
-18 -1 -21 -7 -20 -42z"/>
<path d="M1063 2630 c0 -25 2 -35 4 -22 2 12 2 32 0 45 -2 12 -4 2 -4 -23z"/>
<path d="M1091 2626 l2 -41 6 35 c4 26 11 35 26 35 15 0 22 -9 27 -35 l6 -35
-1 40 c-2 38 -4 40 -34 41 -32 1 -33 0 -32 -40z"/>
<path d="M1192 2658 c-27 -27 0 -77 34 -64 10 4 14 2 11 -6 -2 -7 -14 -13 -26
-12 -15 0 -19 -2 -11 -10 20 -20 45 8 48 55 3 41 1 45 -21 47 -13 1 -29 -4
-35 -10z m43 -28 c0 -29 -32 -41 -41 -16 -9 24 4 48 23 44 12 -2 18 -12 18
-28z"/>
<path d="M154 2635 c-11 -28 35 -61 50 -37 3 5 -5 8 -17 8 -17 -1 -22 5 -21
22 1 26 -4 28 -12 7z"/>
<path d="M800 2522 c0 -13 -7 -18 -21 -18 -12 1 -26 -7 -33 -16 -15 -25 4 -53
38 -54 25 -1 26 1 26 52 0 30 -2 54 -5 54 -3 0 -5 -8 -5 -18z m-5 -52 c0 -16
-6 -26 -18 -28 -19 -4 -32 20 -23 44 9 25 41 13 41 -16z"/>
<path d="M297 2493 c-3 -21 -8 -49 -11 -63 -3 -14 -4 -19 0 -12 3 6 23 12 44
12 21 0 41 -6 44 -12 4 -7 4 -2 1 12 -2 14 -5 42 -5 63 0 35 -1 37 -34 37 -32
0 -34 -2 -39 -37z m63 -13 c0 -38 -1 -40 -31 -40 -24 0 -30 3 -25 16 3 9 6 27
6 40 0 19 5 24 25 24 23 0 25 -4 25 -40z"/>
<path d="M908 2518 c-9 -28 7 -83 25 -84 12 -1 13 -1 2 3 -22 7 -20 63 3 64
13 0 14 2 2 6 -8 3 -18 10 -21 15 -3 5 -8 4 -11 -4z"/>
<path d="M1048 2518 c-9 -28 7 -83 25 -84 12 -1 13 -1 2 3 -22 7 -20 63 3 64
13 0 14 2 2 6 -8 3 -18 10 -21 15 -3 5 -8 4 -11 -4z"/>
<path d="M405 2501 c-3 -7 0 -8 9 -5 8 3 21 2 28 -2 9 -6 5 -10 -12 -14 -37
-9 -34 -45 3 -46 26 -1 28 1 25 35 -2 28 -8 37 -25 39 -11 2 -24 -2 -28 -7z
m45 -41 c0 -12 -28 -25 -36 -17 -9 9 6 27 22 27 8 0 14 -5 14 -10z"/>
<path d="M492 2503 c11 -3 18 -17 21 -41 l4 -37 1 37 c1 25 7 38 20 41 9 3 -1
5 -23 5 -22 0 -32 -2 -23 -5z"/>
<path d="M575 2501 c-3 -7 0 -8 9 -5 8 3 21 2 28 -2 9 -6 5 -10 -12 -14 -37
-9 -34 -45 3 -46 26 -1 28 1 25 35 -2 28 -8 37 -25 39 -11 2 -24 -2 -28 -7z
m45 -41 c0 -12 -28 -25 -36 -17 -9 9 6 27 22 27 8 0 14 -5 14 -10z"/>
<path d="M835 2501 c-3 -7 0 -8 9 -5 8 3 21 2 28 -2 9 -6 5 -10 -12 -14 -37
-9 -34 -45 3 -46 26 -1 28 1 25 35 -2 28 -8 37 -25 39 -11 2 -24 -2 -28 -7z
m45 -41 c0 -12 -28 -25 -36 -17 -9 9 6 27 22 27 8 0 14 -5 14 -10z"/>
<path d="M972 2498 c-15 -15 -15 -41 0 -56 14 -14 44 -16 52 -4 2 4 -7 8 -21
7 -14 0 -28 6 -30 13 -3 8 6 12 27 12 25 0 31 4 28 18 -4 21 -39 27 -56 10z
m43 -8 c4 -6 -5 -10 -20 -10 -15 0 -24 4 -20 10 3 6 12 10 20 10 8 0 17 -4 20
-10z"/>
<path d="M1103 2470 c0 -25 2 -35 4 -22 2 12 2 32 0 45 -2 12 -4 2 -4 -23z"/>
<path d="M1131 2466 l2 -41 6 35 c4 22 12 35 21 35 9 0 17 -13 21 -35 l6 -35
4 35 c2 23 9 35 19 35 9 0 18 -13 22 -35 l6 -35 -1 40 -2 40 -52 1 -53 1 1
-41z"/>
<path d="M1272 2498 c-15 -15 -15 -41 0 -56 14 -14 44 -16 52 -4 2 4 -7 8 -21
7 -14 0 -28 6 -30 13 -3 8 6 12 27 12 25 0 31 4 28 18 -4 21 -39 27 -56 10z
m43 -8 c4 -6 -5 -10 -20 -10 -15 0 -24 4 -20 10 3 6 12 10 20 10 8 0 17 -4 20
-10z"/>
<path d="M154 2475 c-11 -28 35 -61 50 -37 3 5 -5 8 -17 8 -17 -1 -22 5 -21
22 1 26 -4 28 -12 7z"/>
<path d="M822 2363 c-4 -10 -5 -36 -1 -58 l6 -40 2 38 c0 22 6 37 14 37 8 0 7
4 -3 10 -13 9 -13 11 0 20 9 6 11 10 3 10 -7 0 -16 -8 -21 -17z"/>
<path d="M863 2325 c0 -33 2 -45 4 -27 2 18 2 45 0 60 -2 15 -4 0 -4 -33z"/>
<path d="M292 2358 c-15 -15 -15 -61 0 -76 13 -13 54 -16 62 -4 2 4 -7 8 -21
7 -14 0 -31 8 -37 18 -15 24 4 52 37 52 14 -1 23 3 21 7 -8 12 -49 9 -62 -4z"/>
<path d="M1058 2358 c-9 -28 7 -83 25 -84 12 -1 13 -1 2 3 -22 7 -20 63 3 64
13 0 14 2 2 6 -8 3 -18 10 -21 15 -3 5 -8 4 -11 -4z"/>
<path d="M371 2348 c-1 -4 7 -24 16 -44 17 -35 17 -36 -2 -51 -12 -9 -14 -14
-5 -11 8 2 25 24 37 49 26 52 30 79 5 31 l-18 -33 -16 33 c-9 18 -17 30 -17
26z"/>
<path d="M451 2308 c1 -39 2 -40 8 -13 7 29 7 29 15 8 4 -13 11 -23 16 -23 5
0 12 10 16 23 8 21 8 21 15 -8 6 -27 7 -26 8 13 1 46 -15 57 -25 17 -3 -14
-10 -25 -14 -25 -4 0 -11 11 -14 25 -10 40 -26 29 -25 -17z"/>
<path d="M551 2308 c1 -39 2 -40 8 -13 7 29 7 29 15 8 4 -13 11 -23 16 -23 5
0 12 10 16 23 8 21 8 21 15 -8 6 -27 7 -26 8 13 1 46 -15 57 -25 17 -3 -14
-10 -25 -14 -25 -4 0 -11 11 -14 25 -10 40 -26 29 -25 -17z"/>
<path d="M655 2341 c-3 -7 0 -8 9 -5 8 3 21 2 28 -2 9 -6 5 -10 -12 -14 -37
-9 -34 -45 3 -46 26 -1 28 1 25 35 -2 28 -8 37 -25 39 -11 2 -24 -2 -28 -7z
m45 -41 c0 -12 -28 -25 -36 -17 -9 9 6 27 22 27 8 0 14 -5 14 -10z"/>
<path d="M900 2335 c-26 -31 13 -82 44 -56 19 16 21 42 4 59 -16 16 -33 15
-48 -3z m45 -25 c0 -16 -6 -26 -18 -28 -19 -4 -32 20 -23 44 9 25 41 13 41
-16z"/>
<path d="M985 2341 c-3 -7 0 -8 9 -5 8 3 21 2 28 -2 9 -6 5 -10 -12 -14 -37
-9 -34 -45 3 -46 26 -1 28 1 25 35 -2 28 -8 37 -25 39 -11 2 -24 -2 -28 -7z
m45 -41 c0 -12 -28 -25 -36 -17 -9 9 6 27 22 27 8 0 14 -5 14 -10z"/>
<path d="M154 2315 c-11 -28 35 -61 50 -37 3 5 -5 8 -17 8 -17 -1 -22 5 -21
22 1 26 -4 28 -12 7z"/>
<path d="M951 2103 c-1 -14 -9 -23 -23 -26 l-23 -4 23 -2 c12 0 22 -5 22 -10
0 -5 -10 -12 -22 -14 l-23 -4 23 -2 22 -1 0 -253 c0 -240 -1 -253 -20 -270
-23 -19 -26 -47 -8 -65 17 -17 44 -15 62 4 21 21 20 41 -4 61 -19 17 -20 30
-20 270 l0 252 23 4 22 4 -22 2 c-13 0 -23 5 -23 10 0 5 10 12 23 14 22 4 22
4 0 6 -14 1 -23 9 -26 24 -4 22 -4 22 -6 0z m33 -605 c8 -14 7 -21 -6 -34 -30
-30 -75 9 -48 42 16 18 39 15 54 -8z"/>
<path d="M985 1731 c-11 -35 22 -71 39 -42 3 5 -2 8 -12 7 -11 -1 -17 6 -17
19 0 13 6 20 17 19 10 -1 15 2 12 7 -9 16 -32 10 -39 -10z"/>
<path d="M1054 1736 c-11 -29 0 -51 26 -51 21 0 25 5 25 30 0 24 -5 31 -23 33
-13 2 -24 -3 -28 -12z m43 -12 c8 -21 -13 -42 -28 -27 -13 13 -5 43 11 43 6 0
13 -7 17 -16z"/>
<path d="M1150 1726 c0 -14 -4 -28 -10 -31 -5 -3 -10 -14 -9 -23 0 -11 3 -12
6 -4 2 6 17 12 33 12 16 0 31 -6 34 -12 4 -7 4 -2 1 12 -2 14 -5 35 -5 48 0
17 -6 22 -25 22 -20 0 -25 -5 -25 -24z m40 -11 c0 -18 -5 -25 -19 -25 -14 0
-17 6 -13 25 2 14 11 25 18 25 8 0 14 -10 14 -25z"/>
<path d="M1240 1736 c-23 -28 17 -73 42 -48 8 8 5 9 -9 6 -12 -3 -24 -1 -27 5
-5 7 3 11 19 11 20 0 26 4 23 17 -4 23 -31 28 -48 9z m35 -6 c3 -5 -3 -10 -15
-10 -12 0 -18 5 -15 10 3 6 10 10 15 10 5 0 12 -4 15 -10z"/>
<path d="M1311 1695 c1 -27 4 -40 6 -29 3 15 10 20 22 17 24 -6 35 11 27 42
-5 19 -12 24 -31 23 -23 -2 -25 -6 -24 -53z m46 29 c8 -21 -13 -42 -28 -27
-13 13 -5 43 11 43 6 0 13 -7 17 -16z"/>
<path d="M1397 1739 c10 -12 9 -20 -3 -37 -8 -12 -11 -22 -6 -22 6 0 12 7 16
15 7 20 24 19 29 -2 4 -17 5 -17 6 0 1 21 19 23 27 2 4 -8 10 -15 16 -15 5 0
2 10 -6 22 -12 17 -13 25 -3 37 7 10 4 10 -10 -2 -21 -18 -21 -18 -26 0 -4 17
-5 17 -6 -1 -1 -19 -1 -19 -23 0 -13 11 -18 12 -11 3z"/>
<path d="M1510 1717 c0 -20 4 -37 10 -37 5 0 7 14 3 33 -8 45 -13 47 -13 4z"/>
<path d="M1557 1718 c8 -46 13 -48 13 -5 0 21 -4 37 -10 37 -5 0 -7 -14 -3
-32z"/>
<path d="M1602 1743 c10 -2 18 -17 21 -36 l4 -32 1 32 c1 21 8 33 20 36 9 3
-1 5 -23 5 -22 0 -32 -2 -23 -5z"/>
<path d="M1537 1723 c-4 -3 -7 -11 -7 -17 0 -6 5 -5 12 2 6 6 9 14 7 17 -3 3
-9 2 -12 -2z"/>
<path d="M922 1390 c-17 -24 -29 -46 -26 -49 4 -3 9 0 11 6 3 7 13 23 23 35
l19 23 2 -35 2 -35 6 35 7 35 20 -32 c10 -18 23 -33 27 -33 10 0 -5 26 -36 64
l-23 29 -32 -43z"/>
<path d="M363 1285 c-106 -46 -65 -215 52 -215 58 0 115 55 115 110 0 39 -31
88 -65 104 -40 19 -60 20 -102 1z m97 -10 c93 -48 66 -178 -39 -192 -36 -5
-44 -2 -76 30 -42 42 -47 89 -14 131 36 46 80 56 129 31z"/>
<path d="M380 1190 l0 -60 40 0 c22 0 40 5 40 10 0 6 -11 10 -25 10 -16 0 -25
6 -25 15 0 8 9 15 20 15 11 0 20 5 20 10 0 6 -9 10 -20 10 -11 0 -20 7 -20 15
0 9 9 15 25 15 14 0 25 5 25 10 0 6 -18 10 -40 10 l-40 0 0 -60z"/>
<path d="M587 1203 c-3 -21 -8 -49 -11 -63 -3 -14 -4 -19 0 -12 3 6 23 12 44
12 21 0 41 -6 44 -12 4 -7 4 -2 1 12 -2 14 -5 42 -5 63 0 35 -1 37 -34 37 -32
0 -34 -2 -39 -37z m63 -13 c0 -38 -1 -40 -31 -40 -24 0 -30 3 -25 16 3 9 6 27
6 40 0 19 5 24 25 24 23 0 25 -4 25 -40z"/>
<path d="M1136 1232 c-3 -5 5 -7 18 -5 31 6 45 -16 15 -24 l-23 -6 23 -9 c30
-11 21 -33 -12 -33 -16 1 -23 -3 -18 -8 5 -5 21 -7 35 -3 23 6 26 11 23 49 -2
37 -5 42 -29 45 -14 2 -29 -1 -32 -6z"/>
<path d="M702 1208 c-15 -15 -15 -41 0 -56 14 -14 44 -16 52 -4 2 4 -7 8 -21
7 -14 0 -28 6 -30 13 -3 8 6 12 27 12 25 0 31 4 28 18 -4 21 -39 27 -56 10z
m43 -8 c4 -6 -5 -10 -20 -10 -15 0 -24 4 -20 10 3 6 12 10 20 10 8 0 17 -4 20
-10z"/>
<path d="M792 1213 c11 -3 18 -17 21 -41 l4 -37 1 37 c1 25 7 38 20 41 9 3 -1
5 -23 5 -22 0 -32 -2 -23 -5z"/>
<path d="M875 1211 c-3 -7 0 -8 9 -5 8 3 21 2 28 -2 9 -6 5 -10 -12 -14 -37
-9 -34 -45 3 -46 26 -1 28 1 25 35 -2 28 -8 37 -25 39 -11 2 -24 -2 -28 -7z
m45 -41 c0 -12 -28 -25 -36 -17 -9 9 6 27 22 27 8 0 14 -5 14 -10z"/>
<path d="M970 1192 c0 -15 -6 -34 -12 -42 -11 -12 -10 -12 5 -1 9 7 17 24 17
37 0 41 28 29 33 -13 l4 -38 1 43 c2 39 0 42 -23 42 -21 0 -25 -5 -25 -28z"/>
<path d="M1041 1183 c-1 -51 8 -54 34 -10 l20 32 6 -35 6 -35 2 43 c1 50 -8
53 -34 10 l-20 -33 -6 35 -6 35 -2 -42z"/>
<path d="M1225 1211 c-3 -7 0 -8 9 -5 8 3 21 2 28 -2 9 -6 5 -10 -12 -14 -37
-9 -34 -45 3 -46 26 -1 28 1 25 35 -2 28 -8 37 -25 39 -11 2 -24 -2 -28 -7z
m45 -41 c0 -12 -28 -25 -36 -17 -9 9 6 27 22 27 8 0 14 -5 14 -10z"/>
<path d="M1301 1178 c0 -31 3 -37 8 -24 7 18 3 66 -5 66 -2 0 -4 -19 -3 -42z"/>
<path d="M1337 1203 c-14 -16 -14 -20 3 -40 25 -31 34 -29 14 2 -13 20 -14 28
-4 40 17 21 7 19 -13 -2z"/>
<path d="M1385 1211 c-3 -7 0 -8 9 -5 8 3 21 2 28 -2 9 -6 5 -10 -12 -14 -37
-9 -34 -45 3 -46 26 -1 28 1 25 35 -2 28 -8 37 -25 39 -11 2 -24 -2 -28 -7z
m45 -41 c0 -12 -28 -25 -36 -17 -9 9 6 27 22 27 8 0 14 -5 14 -10z"/>
<path d="M1466 1212 c-3 -5 6 -7 19 -4 15 2 25 0 25 -7 0 -6 -8 -11 -17 -11
-15 0 -14 -2 3 -14 17 -13 18 -15 2 -21 -9 -4 -23 -3 -30 1 -10 5 -10 4 -2 -5
7 -7 20 -11 30 -9 14 2 19 12 19 38 0 28 -4 36 -22 38 -11 2 -24 -1 -27 -6z"/>
<path d="M1545 1211 c-3 -7 0 -8 9 -5 8 3 21 2 28 -2 9 -6 5 -10 -12 -14 -37
-9 -34 -45 3 -46 26 -1 28 1 25 35 -2 28 -8 37 -25 39 -11 2 -24 -2 -28 -7z
m45 -41 c0 -12 -28 -25 -36 -17 -9 9 6 27 22 27 8 0 14 -5 14 -10z"/>
<path d="M473 910 c0 -30 2 -43 4 -27 2 15 2 39 0 55 -2 15 -4 2 -4 -28z"/>
<path d="M500 910 c0 -49 1 -50 29 -50 36 0 61 23 61 55 0 27 -26 45 -64 45
-24 0 -26 -3 -26 -50z m74 18 c15 -25 -3 -52 -38 -56 -24 -3 -26 -1 -26 38 0
39 2 41 26 38 15 -2 32 -11 38 -20z"/>
<path d="M818 948 c-9 -28 7 -83 25 -84 12 -1 13 -1 2 3 -22 7 -20 63 3 64 13
0 14 2 2 6 -8 3 -18 10 -21 15 -3 5 -8 4 -11 -4z"/>
<path d="M703 900 c0 -25 2 -35 4 -22 2 12 2 32 0 45 -2 12 -4 2 -4 -23z"/>
<path d="M731 896 l2 -41 6 35 c4 26 11 35 26 35 15 0 22 -9 27 -35 l6 -35 -1
40 c-2 38 -4 40 -34 41 -32 1 -33 0 -32 -40z"/>
<path d="M334 895 c-11 -28 35 -61 50 -37 3 5 -5 8 -17 8 -17 -1 -22 5 -21 22
1 26 -4 28 -12 7z"/>
<path d="M473 740 c0 -30 2 -43 4 -27 2 15 2 39 0 55 -2 15 -4 2 -4 -28z"/>
<path d="M500 740 c0 -49 1 -50 29 -50 36 0 61 23 61 55 0 27 -26 45 -64 45
-24 0 -26 -3 -26 -50z m74 18 c15 -25 -3 -52 -38 -56 -24 -3 -26 -1 -26 38 0
39 2 41 26 38 15 -2 32 -11 38 -20z"/>
<path d="M686 782 c-3 -5 5 -7 18 -5 31 6 45 -16 15 -24 l-23 -6 23 -9 c30
-11 21 -33 -12 -33 -16 1 -23 -3 -18 -8 5 -5 21 -7 35 -3 23 6 26 11 23 49 -2
37 -5 42 -29 45 -14 2 -29 -1 -32 -6z"/>
<path d="M1298 778 c-9 -28 7 -83 25 -84 12 -1 13 -1 2 3 -22 7 -20 63 3 64
13 0 14 2 2 6 -8 3 -18 10 -21 15 -3 5 -8 4 -11 -4z"/>
<path d="M775 761 c-3 -7 0 -8 9 -5 8 3 21 2 28 -2 9 -6 5 -10 -12 -14 -37 -9
-34 -45 3 -46 26 -1 28 1 25 35 -2 28 -8 37 -25 39 -11 2 -24 -2 -28 -7z m45
-41 c0 -12 -28 -25 -36 -17 -9 9 6 27 22 27 8 0 14 -5 14 -10z"/>
<path d="M851 728 c0 -31 3 -37 8 -24 7 18 3 66 -5 66 -2 0 -4 -19 -3 -42z"/>
<path d="M887 753 c-14 -16 -14 -20 3 -40 25 -31 34 -29 14 2 -13 20 -14 28
-4 40 17 21 7 19 -13 -2z"/>
<path d="M935 761 c-3 -7 0 -8 9 -5 8 3 21 2 28 -2 9 -6 5 -10 -12 -14 -37 -9
-34 -45 3 -46 26 -1 28 1 25 35 -2 28 -8 37 -25 39 -11 2 -24 -2 -28 -7z m45
-41 c0 -12 -28 -25 -36 -17 -9 9 6 27 22 27 8 0 14 -5 14 -10z"/>
<path d="M1016 762 c-3 -5 6 -7 19 -4 15 2 25 0 25 -7 0 -6 -8 -11 -17 -11
-15 0 -14 -2 3 -14 17 -13 18 -15 2 -21 -9 -4 -23 -3 -30 1 -10 5 -10 4 -2 -5
7 -7 20 -11 30 -9 14 2 19 12 19 38 0 28 -4 36 -22 38 -11 2 -24 -1 -27 -6z"/>
<path d="M1183 730 c0 -25 2 -35 4 -22 2 12 2 32 0 45 -2 12 -4 2 -4 -23z"/>
<path d="M1211 726 l2 -41 6 35 c4 26 11 35 26 35 15 0 22 -9 27 -35 l6 -35
-1 40 c-2 38 -4 40 -34 41 -32 1 -33 0 -32 -40z"/>
<path d="M334 735 c-11 -28 35 -61 50 -37 3 5 -5 8 -17 8 -17 -1 -22 5 -21 22
1 26 -4 28 -12 7z"/>
<path d="M618 663 c12 -2 30 -2 40 0 9 3 -1 5 -23 4 -22 0 -30 -2 -17 -4z"/>
<path d="M473 580 c0 -30 2 -43 4 -27 2 15 2 39 0 55 -2 15 -4 2 -4 -28z"/>
<path d="M500 580 c0 -49 1 -50 29 -50 36 0 61 23 61 55 0 27 -26 45 -64 45
-24 0 -26 -3 -26 -50z m74 18 c15 -25 -3 -52 -38 -56 -24 -3 -26 -1 -26 38 0
39 2 41 26 38 15 -2 32 -11 38 -20z"/>
<path d="M680 579 l0 -50 37 3 c61 5 57 57 -4 58 -36 0 -28 28 10 33 31 4 31
4 -5 5 l-38 2 0 -51z m65 -19 c0 -9 -11 -16 -27 -18 -23 -3 -28 1 -28 18 0 17
5 21 28 18 16 -2 27 -9 27 -18z"/>
<path d="M1388 618 c-9 -28 7 -83 25 -84 12 -1 13 -1 2 3 -22 7 -20 63 3 64
13 0 14 2 2 6 -8 3 -18 10 -21 15 -3 5 -8 4 -11 -4z"/>
<path d="M800 582 c0 -15 -6 -34 -12 -42 -11 -12 -10 -12 5 -1 9 7 17 24 17
37 0 41 28 29 33 -13 l4 -38 1 43 c2 39 0 42 -23 42 -21 0 -25 -5 -25 -28z"/>
<path d="M873 570 c0 -25 2 -35 4 -22 2 12 7 22 10 22 2 0 13 -10 23 -22 15
-19 22 -21 37 -12 23 14 23 53 1 67 -13 9 -21 7 -36 -6 -23 -21 -29 -21 -35 1
-3 9 -5 -3 -4 -28z m82 0 c0 -29 -32 -41 -41 -16 -9 24 4 48 23 44 12 -2 18
-12 18 -28z"/>
<path d="M1010 581 c0 -17 -4 -33 -10 -36 -5 -3 -10 -14 -9 -23 0 -11 3 -12 6
-4 2 6 17 12 33 12 16 0 31 -6 34 -12 4 -7 4 -2 1 12 -2 14 -5 37 -5 53 0 22
-4 27 -25 27 -21 0 -25 -5 -25 -29z m40 -11 c0 -22 -5 -30 -18 -30 -15 0 -18
6 -14 30 2 17 10 30 18 30 9 0 14 -11 14 -30z"/>
<path d="M1100 595 c-26 -31 13 -82 44 -56 19 16 21 42 4 59 -16 16 -33 15
-48 -3z m45 -25 c0 -29 -32 -41 -41 -16 -9 24 4 48 23 44 12 -2 18 -12 18 -28z"/>
<path d="M1273 570 c0 -25 2 -35 4 -22 2 12 2 32 0 45 -2 12 -4 2 -4 -23z"/>
<path d="M1301 566 l2 -41 6 35 c4 26 11 35 26 35 15 0 22 -9 27 -35 l6 -35
-1 40 c-2 38 -4 40 -34 41 -32 1 -33 0 -32 -40z"/>
<path d="M334 575 c-11 -28 35 -61 50 -37 3 5 -5 8 -17 8 -17 -1 -22 5 -21 22
1 26 -4 28 -12 7z"/>
<path d="M618 503 c12 -2 30 -2 40 0 9 3 -1 5 -23 4 -22 0 -30 -2 -17 -4z"/>
<path d="M472 420 c0 -36 2 -47 7 -31 9 34 25 36 41 6 7 -14 17 -25 22 -25 5
0 -1 14 -13 31 l-22 32 22 18 c13 11 19 19 14 19 -5 0 -20 -12 -34 -26 l-24
-26 -6 29 c-5 20 -7 12 -7 -27z"/>
<path d="M1558 458 c-9 -28 7 -83 25 -84 12 -1 13 -1 2 3 -22 7 -20 63 3 64
13 0 14 2 2 6 -8 3 -18 10 -21 15 -3 5 -8 4 -11 -4z"/>
<path d="M580 435 c-26 -31 13 -82 44 -56 19 16 21 42 4 59 -16 16 -33 15 -48
-3z m45 -25 c0 -29 -32 -41 -41 -16 -9 24 4 48 23 44 12 -2 18 -12 18 -28z"/>
<path d="M680 422 c0 -15 -6 -34 -12 -42 -11 -12 -10 -12 5 -1 9 7 17 24 17
37 0 41 28 29 33 -13 l4 -38 1 43 c2 39 0 42 -23 42 -21 0 -25 -5 -25 -28z"/>
<path d="M751 413 c-1 -51 8 -54 34 -10 l20 32 6 -35 6 -35 2 43 c1 50 -8 53
-34 10 l-20 -33 -6 35 -6 35 -2 -42z"/>
<path d="M843 430 c1 -17 9 -26 24 -28 12 -2 24 -11 26 -20 3 -9 5 3 4 28 0
25 -2 35 -4 23 -2 -13 -11 -23 -19 -23 -8 0 -19 10 -24 23 -10 22 -10 22 -7
-3z"/>
<path d="M932 438 c-15 -15 -15 -41 0 -56 14 -14 44 -16 52 -4 2 4 -7 8 -21 7
-14 0 -28 6 -30 13 -3 8 6 12 27 12 25 0 31 4 28 18 -4 21 -39 27 -56 10z m43
-8 c4 -6 -5 -10 -20 -10 -15 0 -24 4 -20 10 3 6 12 10 20 10 8 0 17 -4 20 -10z"/>
<path d="M1020 435 c-15 -18 -10 -45 12 -59 12 -7 21 -7 28 0 8 8 4 10 -12 10
-18 -1 -23 4 -23 24 0 19 5 25 22 24 12 0 20 3 17 8 -8 13 -30 9 -44 -7z"/>
<path d="M1102 443 c11 -3 18 -17 21 -41 l4 -37 1 37 c1 25 7 38 20 41 9 3 -1
5 -23 5 -22 0 -32 -2 -23 -5z"/>
<path d="M1180 410 c0 -39 1 -41 28 -38 24 3 27 7 27 38 0 31 -3 35 -27 38
-27 3 -28 1 -28 -38z m50 20 c0 -5 -9 -10 -20 -10 -11 0 -20 5 -20 10 0 6 9
10 20 10 11 0 20 -4 20 -10z m-7 -35 c1 -5 -6 -11 -15 -13 -11 -2 -18 3 -18
13 0 17 30 18 33 0z"/>
<path d="M1270 435 c-26 -31 13 -82 44 -56 19 16 21 42 4 59 -16 16 -33 15
-48 -3z m45 -25 c0 -16 -6 -26 -18 -28 -19 -4 -32 20 -23 44 9 25 41 13 41
-16z"/>
<path d="M1443 410 c0 -25 2 -35 4 -22 2 12 2 32 0 45 -2 12 -4 2 -4 -23z"/>
<path d="M1471 406 l2 -41 6 35 c4 26 11 35 26 35 15 0 22 -9 27 -35 l6 -35
-1 40 c-2 38 -4 40 -34 41 -32 1 -33 0 -32 -40z"/>
<path d="M334 405 c-11 -28 35 -61 50 -37 3 5 -5 8 -17 8 -17 -1 -22 5 -21 22
1 26 -4 28 -12 7z"/>
<path d="M932 293 c-4 -10 -5 -36 -1 -58 l6 -40 2 38 c0 22 6 37 14 37 8 0 7
4 -3 10 -13 9 -13 11 0 20 9 6 11 10 3 10 -7 0 -16 -8 -21 -17z"/>
<path d="M973 255 c0 -33 2 -45 4 -27 2 18 2 45 0 60 -2 15 -4 0 -4 -33z"/>
<path d="M472 253 l-2 -53 39 0 c22 0 41 -5 44 -12 3 -7 3 14 0 47 -7 74 -13
84 -13 22 0 -45 -1 -47 -29 -47 -28 0 -30 2 -34 48 l-3 47 -2 -52z"/>
<path d="M1168 288 c-9 -28 7 -83 25 -84 12 -1 13 -1 2 3 -22 7 -20 63 3 64
13 0 14 2 2 6 -8 3 -18 10 -21 15 -3 5 -8 4 -11 -4z"/>
<path d="M592 268 c-15 -15 -15 -41 0 -56 14 -14 44 -16 52 -4 2 4 -7 8 -21 7
-14 0 -28 6 -30 13 -3 8 6 12 27 12 25 0 31 4 28 18 -4 21 -39 27 -56 10z m43
-8 c4 -6 -5 -10 -20 -10 -15 0 -24 4 -20 10 3 6 12 10 20 10 8 0 17 -4 20 -10z"/>
<path d="M673 240 c0 -25 2 -35 4 -22 3 15 11 22 28 22 17 0 25 -7 28 -22 2
-13 4 -3 4 22 1 25 -1 37 -4 28 -3 -11 -14 -18 -28 -18 -14 0 -25 7 -28 18 -3
9 -5 -3 -4 -28z"/>
<path d="M765 271 c-3 -7 0 -8 9 -5 8 3 21 2 28 -2 9 -6 5 -10 -12 -14 -37 -9
-34 -45 3 -46 26 -1 28 1 25 35 -2 28 -8 37 -25 39 -11 2 -24 -2 -28 -7z m45
-41 c0 -12 -28 -25 -36 -17 -9 9 6 27 22 27 8 0 14 -5 14 -10z"/>
<path d="M1010 265 c-26 -31 13 -82 44 -56 19 16 21 42 4 59 -16 16 -33 15
-48 -3z m45 -25 c0 -29 -32 -41 -41 -16 -9 24 4 48 23 44 12 -2 18 -12 18 -28z"/>
<path d="M1095 271 c-3 -7 0 -8 9 -5 8 3 21 2 28 -2 9 -6 5 -10 -12 -14 -37
-9 -34 -45 3 -46 26 -1 28 1 25 35 -2 28 -8 37 -25 39 -11 2 -24 -2 -28 -7z
m45 -41 c0 -12 -28 -25 -36 -17 -9 9 6 27 22 27 8 0 14 -5 14 -10z"/>
<path d="M334 245 c-11 -28 35 -61 50 -37 3 5 -5 8 -17 8 -17 -1 -22 5 -21 22
1 26 -4 28 -12 7z"/>
</g>
</svg>
