<svg xmlns="http://www.w3.org/2000/svg" xmlns:xlink="http://www.w3.org/1999/xlink" contentStyleType="text/css" height="284px" preserveAspectRatio="none" style="width:288px;height:284px;background:#FFFFFF;" version="1.1" viewBox="0 0 288 284" width="288px" zoomAndPan="magnify"><defs/><g><!--class User--><g id="elem_User"><rect codeLine="1" fill="#F1F1F1" height="48" id="User" rx="2.5" ry="2.5" style="stroke:#181818;stroke-width:0.5;" width="136" x="7" y="7"/><ellipse cx="22" cy="23" fill="#ADD1B2" rx="11" ry="11" style="stroke:#181818;stroke-width:1.0;"/><path d="M26.1094,29 L18.3906,29 L18.3906,16.6094 L26.1094,16.6094 L26.1094,18.7656 L20.8438,18.7656 L20.8438,21.4375 L25.6094,21.4375 L25.6094,23.5938 L20.8438,23.5938 L20.8438,26.8438 L26.1094,26.8438 L26.1094,29 Z " fill="#000000"/><text fill="#000000" font-family="sans-serif" font-size="14" lengthAdjust="spacing" textLength="104" x="36" y="27.8467">&#1055;&#1086;&#1083;&#1100;&#1079;&#1086;&#1074;&#1072;&#1090;&#1077;&#1083;&#1100;</text><line style="stroke:#181818;stroke-width:0.5;" x1="8" x2="142" y1="39" y2="39"/><line style="stroke:#181818;stroke-width:0.5;" x1="8" x2="142" y1="47" y2="47"/></g><!--class Dish--><g id="elem_Dish"><rect codeLine="4" fill="#F1F1F1" height="48" id="Dish" rx="2.5" ry="2.5" style="stroke:#181818;stroke-width:0.5;" width="82" x="178" y="7"/><ellipse cx="193" cy="23" fill="#ADD1B2" rx="11" ry="11" style="stroke:#181818;stroke-width:1.0;"/><path d="M197.1094,29 L189.3906,29 L189.3906,16.6094 L197.1094,16.6094 L197.1094,18.7656 L191.8438,18.7656 L191.8438,21.4375 L196.6094,21.4375 L196.6094,23.5938 L191.8438,23.5938 L191.8438,26.8438 L197.1094,26.8438 L197.1094,29 Z " fill="#000000"/><text fill="#000000" font-family="sans-serif" font-size="14" lengthAdjust="spacing" textLength="50" x="207" y="27.8467">&#1041;&#1083;&#1102;&#1076;&#1086;</text><line style="stroke:#181818;stroke-width:0.5;" x1="179" x2="259" y1="39" y2="39"/><line style="stroke:#181818;stroke-width:0.5;" x1="179" x2="259" y1="47" y2="47"/></g><!--class Review--><g id="elem_Review"><rect codeLine="7" fill="#F1F1F1" height="145.7813" id="Review" rx="2.5" ry="2.5" style="stroke:#181818;stroke-width:0.5;" width="177" x="58.5" y="132"/><ellipse cx="119.25" cy="148" fill="#ADD1B2" rx="11" ry="11" style="stroke:#181818;stroke-width:1.0;"/><path d="M123.3594,154 L115.6406,154 L115.6406,141.6094 L123.3594,141.6094 L123.3594,143.7656 L118.0938,143.7656 L118.0938,146.4375 L122.8594,146.4375 L122.8594,148.5937 L118.0938,148.5937 L118.0938,151.8437 L123.3594,151.8437 L123.3594,154 Z " fill="#000000"/><text fill="#000000" font-family="sans-serif" font-size="14" lengthAdjust="spacing" textLength="47" x="139.75" y="152.8467">&#1054;&#1090;&#1079;&#1099;&#1074;</text><line style="stroke:#181818;stroke-width:0.5;" x1="59.5" x2="234.5" y1="164" y2="164"/><ellipse cx="69.5" cy="177.6484" fill="none" rx="3" ry="3" style="stroke:#038048;stroke-width:1.0;"/><text fill="#000000" font-family="sans-serif" font-size="14" lengthAdjust="spacing" textLength="40" x="78.5" y="180.9951">ID: int</text><ellipse cx="69.5" cy="193.9453" fill="none" rx="3" ry="3" style="stroke:#038048;stroke-width:1.0;"/><text fill="#000000" font-family="sans-serif" font-size="14" lengthAdjust="spacing" textLength="151" x="78.5" y="197.292">ID_&#1055;&#1086;&#1083;&#1100;&#1079;&#1086;&#1074;&#1072;&#1090;&#1077;&#1083;&#1100;: int</text><ellipse cx="69.5" cy="210.2422" fill="none" rx="3" ry="3" style="stroke:#038048;stroke-width:1.0;"/><text fill="#000000" font-family="sans-serif" font-size="14" lengthAdjust="spacing" textLength="97" x="78.5" y="213.5889">ID_&#1041;&#1083;&#1102;&#1076;&#1086;: int</text><ellipse cx="69.5" cy="226.5391" fill="none" rx="3" ry="3" style="stroke:#038048;stroke-width:1.0;"/><text fill="#000000" font-family="sans-serif" font-size="14" lengthAdjust="spacing" textLength="87" x="78.5" y="229.8857">&#1056;&#1077;&#1081;&#1090;&#1080;&#1085;&#1075;: int</text><ellipse cx="69.5" cy="242.8359" fill="none" rx="3" ry="3" style="stroke:#038048;stroke-width:1.0;"/><text fill="#000000" font-family="sans-serif" font-size="14" lengthAdjust="spacing" textLength="149" x="78.5" y="246.1826">&#1050;&#1086;&#1084;&#1084;&#1077;&#1085;&#1090;&#1072;&#1088;&#1080;&#1081;: string</text><ellipse cx="69.5" cy="259.1328" fill="none" rx="3" ry="3" style="stroke:#038048;stroke-width:1.0;"/><text fill="#000000" font-family="sans-serif" font-size="14" lengthAdjust="spacing" textLength="107" x="78.5" y="262.4795">&#1044;&#1072;&#1090;&#1072;: datetime</text><line style="stroke:#181818;stroke-width:0.5;" x1="59.5" x2="234.5" y1="269.7813" y2="269.7813"/></g><!--link User to Review--><g id="link_User_Review"><path codeLine="16" d="M85.9809,63.0167 C90.9009,76.6767 94.69,86.65 101,102 C104.95,111.6 101.9968,105.1661 106.3468,115.0461 " fill="none" id="User-Review" style="stroke:#181818;stroke-width:1.0;"/><line style="stroke:#181818;stroke-width:1.0;" x1="80.8621" x2="88.3888" y1="60.6088" y2="57.8979"/><line style="stroke:#181818;stroke-width:1.0;" x1="81.8787" x2="89.4054" y1="63.4313" y2="60.7204"/><line style="stroke:#181818;stroke-width:1.0;" x1="85.9809" x2="83.27" y1="63.0167" y2="55.49"/><line style="stroke:#181818;stroke-width:1.0;" x1="110.3764" x2="119.0913" y1="124.1982" y2="129.1023"/><line style="stroke:#181818;stroke-width:1.0;" x1="110.3764" x2="108.1087" y1="124.1982" y2="133.9377"/><line style="stroke:#181818;stroke-width:1.0;" x1="110.3764" x2="113.6" y1="124.1982" y2="131.52"/><ellipse cx="107.9586" cy="118.7069" fill="none" rx="4" ry="4" style="stroke:#181818;stroke-width:1.0;"/><text fill="#000000" font-family="sans-serif" font-size="13" lengthAdjust="spacing" textLength="73" x="102" y="98.0669">&#1086;&#1089;&#1090;&#1072;&#1074;&#1083;&#1103;&#1077;&#1090;</text></g><!--link Dish to Review--><g id="link_Dish_Review"><path codeLine="17" d="M206.1998,62.5591 C197.9498,82.2591 195.6853,87.6581 184.1853,115.1081 " fill="none" id="Dish-Review" style="stroke:#181818;stroke-width:1.0;"/><line style="stroke:#181818;stroke-width:1.0;" x1="204.0554" x2="211.4344" y1="57.3244" y2="60.4146"/><line style="stroke:#181818;stroke-width:1.0;" x1="202.8965" x2="210.2756" y1="60.0916" y2="63.1818"/><line style="stroke:#181818;stroke-width:1.0;" x1="206.1998" x2="209.29" y1="62.5591" y2="55.18"/><line style="stroke:#181818;stroke-width:1.0;" x1="180.3212" x2="182.764" y1="124.3314" y2="134.0284"/><line style="stroke:#181818;stroke-width:1.0;" x1="180.3212" x2="171.696" y1="124.3314" y2="129.3916"/><line style="stroke:#181818;stroke-width:1.0;" x1="180.3212" x2="177.23" y1="124.3314" y2="131.71"/><ellipse cx="182.6397" cy="118.7974" fill="none" rx="4" ry="4" style="stroke:#181818;stroke-width:1.0;"/><text fill="#000000" font-family="sans-serif" font-size="13" lengthAdjust="spacing" textLength="84" x="196" y="98.0669">&#1086;&#1090;&#1085;&#1086;&#1089;&#1080;&#1090;&#1089;&#1103; &#1082;</text></g><!--SRC=[TS-z2i8m40VmlKznk8elqDd5LN0MmQ0Ph6238bNGheeYE3ceZr3KehMsp_3F6tcDtw9aI7Btozr5E4ggFkMmGOfOJt7aVOT0-mYpUuvgBbLSqI7F6bgMUF059sSu83MWADtc5rXpXQEUO6T0MNIbw34XobEfQ9DqrFrS_TVw4pqRliBOCeoOdv1W_nPVSQ4Bhn09PmCzOX7PvAgET1etiZHz0flgDIMKR8biUFFFmQ1GQ7kFYMr2giSPvT5YFKUeVSjyzuVpUGxME6cVtym9voi0]--></g></svg>