<svg xmlns="http://www.w3.org/2000/svg" xmlns:xlink="http://www.w3.org/1999/xlink" contentStyleType="text/css" height="548px" preserveAspectRatio="none" style="width:1491px;height:548px;background:#FFFFFF;" version="1.1" viewBox="0 0 1491 548" width="1491px" zoomAndPan="magnify"><defs/><g><rect fill="#DAE8FC" height="351.3984" style="stroke:#1168BD;stroke-width:1.0;" width="10" x="70" y="91.2969"/><rect fill="#DAE8FC" height="330.2656" style="stroke:#1168BD;stroke-width:1.0;" width="10" x="1003" y="112.4297"/><rect fill="#DAE8FC" height="29.1328" style="stroke:#1168BD;stroke-width:1.0;" width="10" x="1258" y="311.3594"/><rect fill="#DAE8FC" height="53.2656" style="stroke:#1168BD;stroke-width:1.0;" width="10" x="1420.5" y="228.9609"/><rect fill="none" height="206.7344" style="stroke:#000000;stroke-width:1.5;" width="1474.5" x="10" y="243.9609"/><line style="stroke:#1168BD;stroke-width:0.5;stroke-dasharray:5.0,5.0;" x1="75" x2="75" y1="81.2969" y2="467.6953"/><line style="stroke:#1168BD;stroke-width:0.5;stroke-dasharray:5.0,5.0;" x1="1007.5" x2="1007.5" y1="81.2969" y2="467.6953"/><line style="stroke:#1168BD;stroke-width:0.5;stroke-dasharray:5.0,5.0;" x1="1262.5" x2="1262.5" y1="81.2969" y2="467.6953"/><line style="stroke:#1168BD;stroke-width:0.5;stroke-dasharray:5.0,5.0;" x1="1425.5" x2="1425.5" y1="81.2969" y2="467.6953"/><text fill="#000000" font-family="sans-serif" font-size="14" lengthAdjust="spacing" textLength="104" x="20" y="77.9951">&#1055;&#1086;&#1083;&#1100;&#1079;&#1086;&#1074;&#1072;&#1090;&#1077;&#1083;&#1100;</text><ellipse cx="75" cy="13.5" fill="#4472C4" rx="8" ry="8" style="stroke:#2F5597;stroke-width:0.5;"/><path d="M75,21.5 L75,48.5 M62,29.5 L88,29.5 M75,48.5 L62,63.5 M75,48.5 L88,63.5 " fill="none" style="stroke:#2F5597;stroke-width:0.5;"/><text fill="#000000" font-family="sans-serif" font-size="14" lengthAdjust="spacing" textLength="104" x="20" y="479.6904">&#1055;&#1086;&#1083;&#1100;&#1079;&#1086;&#1074;&#1072;&#1090;&#1077;&#1083;&#1100;</text><ellipse cx="75" cy="491.4922" fill="#4472C4" rx="8" ry="8" style="stroke:#2F5597;stroke-width:0.5;"/><path d="M75,499.4922 L75,526.4922 M62,507.4922 L88,507.4922 M75,526.4922 L62,541.4922 M75,526.4922 L88,541.4922 " fill="none" style="stroke:#2F5597;stroke-width:0.5;"/><rect fill="#F8F8F8" height="30.2969" rx="2.5" ry="2.5" style="stroke:#A9A9A9;stroke-width:0.5;" width="109" x="953.5" y="50"/><text fill="#000000" font-family="sans-serif" font-size="14" lengthAdjust="spacing" textLength="95" x="960.5" y="69.9951">&#1060;&#1086;&#1088;&#1084;&#1072; &#1074;&#1093;&#1086;&#1076;&#1072;</text><rect fill="#F8F8F8" height="30.2969" rx="2.5" ry="2.5" style="stroke:#A9A9A9;stroke-width:0.5;" width="109" x="953.5" y="466.6953"/><text fill="#000000" font-family="sans-serif" font-size="14" lengthAdjust="spacing" textLength="95" x="960.5" y="486.6904">&#1060;&#1086;&#1088;&#1084;&#1072; &#1074;&#1093;&#1086;&#1076;&#1072;</text><rect fill="#F8F8F8" height="30.2969" rx="2.5" ry="2.5" style="stroke:#A9A9A9;stroke-width:0.5;" width="207" x="1159.5" y="50"/><text fill="#000000" font-family="sans-serif" font-size="14" lengthAdjust="spacing" textLength="193" x="1166.5" y="69.9951">&#1057;&#1080;&#1089;&#1090;&#1077;&#1084;&#1072; &#1072;&#1091;&#1090;&#1077;&#1085;&#1090;&#1080;&#1092;&#1080;&#1082;&#1072;&#1094;&#1080;&#1080;</text><rect fill="#F8F8F8" height="30.2969" rx="2.5" ry="2.5" style="stroke:#A9A9A9;stroke-width:0.5;" width="207" x="1159.5" y="466.6953"/><text fill="#000000" font-family="sans-serif" font-size="14" lengthAdjust="spacing" textLength="193" x="1166.5" y="486.6904">&#1057;&#1080;&#1089;&#1090;&#1077;&#1084;&#1072; &#1072;&#1091;&#1090;&#1077;&#1085;&#1090;&#1080;&#1092;&#1080;&#1082;&#1072;&#1094;&#1080;&#1080;</text><text fill="#000000" font-family="sans-serif" font-size="14" lengthAdjust="spacing" textLength="92" x="1376.5" y="77.9951">&#1041;&#1072;&#1079;&#1072; &#1076;&#1072;&#1085;&#1085;&#1099;&#1093;</text><path d="M1407.5,29 C1407.5,19 1425.5,19 1425.5,19 C1425.5,19 1443.5,19 1443.5,29 L1443.5,55 C1443.5,65 1425.5,65 1425.5,65 C1425.5,65 1407.5,65 1407.5,55 L1407.5,29 " fill="#F8F8F8" style="stroke:#A9A9A9;stroke-width:1.5;"/><path d="M1407.5,29 C1407.5,39 1425.5,39 1425.5,39 C1425.5,39 1443.5,39 1443.5,29 " fill="none" style="stroke:#A9A9A9;stroke-width:1.5;"/><text fill="#000000" font-family="sans-serif" font-size="14" lengthAdjust="spacing" textLength="92" x="1376.5" y="479.6904">&#1041;&#1072;&#1079;&#1072; &#1076;&#1072;&#1085;&#1085;&#1099;&#1093;</text><path d="M1407.5,492.9922 C1407.5,482.9922 1425.5,482.9922 1425.5,482.9922 C1425.5,482.9922 1443.5,482.9922 1443.5,492.9922 L1443.5,518.9922 C1443.5,528.9922 1425.5,528.9922 1425.5,528.9922 C1425.5,528.9922 1407.5,528.9922 1407.5,518.9922 L1407.5,492.9922 " fill="#F8F8F8" style="stroke:#A9A9A9;stroke-width:1.5;"/><path d="M1407.5,492.9922 C1407.5,502.9922 1425.5,502.9922 1425.5,502.9922 C1425.5,502.9922 1443.5,502.9922 1443.5,492.9922 " fill="none" style="stroke:#A9A9A9;stroke-width:1.5;"/><rect fill="#DAE8FC" height="351.3984" style="stroke:#1168BD;stroke-width:1.0;" width="10" x="70" y="91.2969"/><rect fill="#DAE8FC" height="330.2656" style="stroke:#1168BD;stroke-width:1.0;" width="10" x="1003" y="112.4297"/><rect fill="#DAE8FC" height="29.1328" style="stroke:#1168BD;stroke-width:1.0;" width="10" x="1258" y="311.3594"/><rect fill="#DAE8FC" height="53.2656" style="stroke:#1168BD;stroke-width:1.0;" width="10" x="1420.5" y="228.9609"/><polygon fill="#000000" points="991,108.4297,1001,112.4297,991,116.4297,995,112.4297" style="stroke:#000000;stroke-width:1.0;"/><line style="stroke:#000000;stroke-width:1.0;" x1="80" x2="997" y1="112.4297" y2="112.4297"/><text fill="#000000" font-family="sans-serif" font-size="13" lengthAdjust="spacing" textLength="205" x="87" y="107.3638">&#1053;&#1072;&#1078;&#1080;&#1084;&#1072;&#1077;&#1090; &#1085;&#1072; &#1082;&#1085;&#1086;&#1087;&#1082;&#1091; &#171;&#1042;&#1086;&#1081;&#1090;&#1080;&#187;</text><polygon fill="#000000" points="91,137.5625,81,141.5625,91,145.5625,87,141.5625" style="stroke:#000000;stroke-width:1.0;"/><line style="stroke:#000000;stroke-width:1.0;" x1="85" x2="1002" y1="141.5625" y2="141.5625"/><text fill="#000000" font-family="sans-serif" font-size="13" lengthAdjust="spacing" textLength="689" x="97" y="136.4966">&#1054;&#1090;&#1086;&#1073;&#1088;&#1072;&#1078;&#1072;&#1077;&#1090; &#1092;&#1086;&#1088;&#1084;&#1091; &#1076;&#1083;&#1103; &#1074;&#1074;&#1086;&#1076;&#1072; &#1076;&#1072;&#1085;&#1085;&#1099;&#1093;, &#1074;&#1082;&#1083;&#1102;&#1095;&#1072;&#1103; &#1087;&#1086;&#1083;&#1077; &#1076;&#1083;&#1103; &#1074;&#1074;&#1086;&#1076;&#1072; &#1085;&#1086;&#1084;&#1077;&#1088;&#1072; &#1090;&#1077;&#1083;&#1077;&#1092;&#1086;&#1085;&#1072; &#1080; &#1082;&#1085;&#1086;&#1087;&#1082;&#1091; "&#1042;&#1086;&#1081;&#1090;&#1080;"</text><polygon fill="#000000" points="991,166.6953,1001,170.6953,991,174.6953,995,170.6953" style="stroke:#000000;stroke-width:1.0;"/><line style="stroke:#000000;stroke-width:1.0;" x1="80" x2="997" y1="170.6953" y2="170.6953"/><text fill="#000000" font-family="sans-serif" font-size="13" lengthAdjust="spacing" textLength="169" x="87" y="165.6294">&#1042;&#1074;&#1086;&#1076;&#1080;&#1090; &#1085;&#1086;&#1084;&#1077;&#1088; &#1090;&#1077;&#1083;&#1077;&#1092;&#1086;&#1085;&#1072;</text><polygon fill="#000000" points="991,195.8281,1001,199.8281,991,203.8281,995,199.8281" style="stroke:#000000;stroke-width:1.0;"/><line style="stroke:#000000;stroke-width:1.0;" x1="80" x2="997" y1="199.8281" y2="199.8281"/><text fill="#000000" font-family="sans-serif" font-size="13" lengthAdjust="spacing" textLength="199" x="87" y="194.7622">&#1053;&#1072;&#1078;&#1080;&#1084;&#1072;&#1077;&#1090; &#1085;&#1072; &#1082;&#1085;&#1086;&#1087;&#1082;&#1091; "&#1042;&#1086;&#1081;&#1090;&#1080;"</text><polygon fill="#000000" points="1408.5,224.9609,1418.5,228.9609,1408.5,232.9609,1412.5,228.9609" style="stroke:#000000;stroke-width:1.0;"/><line style="stroke:#000000;stroke-width:1.0;" x1="1013" x2="1414.5" y1="228.9609" y2="228.9609"/><text fill="#000000" font-family="sans-serif" font-size="13" lengthAdjust="spacing" textLength="293" x="1020" y="223.895">&#1055;&#1088;&#1086;&#1074;&#1077;&#1088;&#1103;&#1077;&#1090; &#1085;&#1086;&#1084;&#1077;&#1088; &#1090;&#1077;&#1083;&#1077;&#1092;&#1086;&#1085;&#1072; &#1074; &#1073;&#1072;&#1079;&#1077; &#1076;&#1072;&#1085;&#1085;&#1099;&#1093;</text><path d="M10,243.9609 L74,243.9609 L74,251.0938 L64,261.0938 L10,261.0938 L10,243.9609 " fill="#EEEEEE" style="stroke:#000000;stroke-width:1.5;"/><rect fill="none" height="206.7344" style="stroke:#000000;stroke-width:1.5;" width="1474.5" x="10" y="243.9609"/><text fill="#000000" font-family="sans-serif" font-size="13" font-weight="bold" lengthAdjust="spacing" textLength="19" x="25" y="257.0278">alt</text><text fill="#000000" font-family="sans-serif" font-size="11" font-weight="bold" lengthAdjust="spacing" textLength="230" x="89" y="256.1714">[&#1053;&#1086;&#1084;&#1077;&#1088; &#1089;&#1091;&#1097;&#1077;&#1089;&#1090;&#1074;&#1091;&#1077;&#1090; &#1074; &#1073;&#1072;&#1079;&#1077; &#1076;&#1072;&#1085;&#1085;&#1099;&#1093;]</text><polygon fill="#000000" points="1024,278.2266,1014,282.2266,1024,286.2266,1020,282.2266" style="stroke:#000000;stroke-width:1.0;"/><line style="stroke:#000000;stroke-width:1.0;" x1="1018" x2="1424.5" y1="282.2266" y2="282.2266"/><text fill="#000000" font-family="sans-serif" font-size="13" lengthAdjust="spacing" textLength="169" x="1030" y="277.1606">&#1053;&#1086;&#1084;&#1077;&#1088; &#1090;&#1077;&#1083;&#1077;&#1092;&#1086;&#1085;&#1072; &#1085;&#1072;&#1081;&#1076;&#1077;&#1085;</text><polygon fill="#000000" points="1246,307.3594,1256,311.3594,1246,315.3594,1250,311.3594" style="stroke:#000000;stroke-width:1.0;"/><line style="stroke:#000000;stroke-width:1.0;" x1="1013" x2="1252" y1="311.3594" y2="311.3594"/><text fill="#000000" font-family="sans-serif" font-size="13" lengthAdjust="spacing" textLength="226" x="1020" y="306.2935">&#1040;&#1091;&#1090;&#1077;&#1085;&#1090;&#1080;&#1092;&#1080;&#1094;&#1080;&#1088;&#1091;&#1077;&#1090; &#1087;&#1086;&#1083;&#1100;&#1079;&#1086;&#1074;&#1072;&#1090;&#1077;&#1083;&#1103;</text><polygon fill="#000000" points="1024,336.4922,1014,340.4922,1024,344.4922,1020,340.4922" style="stroke:#000000;stroke-width:1.0;"/><line style="stroke:#000000;stroke-width:1.0;" x1="1018" x2="1262" y1="340.4922" y2="340.4922"/><text fill="#000000" font-family="sans-serif" font-size="13" lengthAdjust="spacing" textLength="179" x="1030" y="335.4263">&#1040;&#1091;&#1090;&#1077;&#1085;&#1090;&#1080;&#1092;&#1080;&#1082;&#1072;&#1094;&#1080;&#1103; &#1091;&#1089;&#1087;&#1077;&#1096;&#1085;&#1072;</text><polygon fill="#000000" points="91,365.625,81,369.625,91,373.625,87,369.625" style="stroke:#000000;stroke-width:1.0;"/><line style="stroke:#000000;stroke-width:1.0;" x1="85" x2="1002" y1="369.625" y2="369.625"/><text fill="#000000" font-family="sans-serif" font-size="13" lengthAdjust="spacing" textLength="339" x="97" y="364.5591">&#1055;&#1088;&#1077;&#1076;&#1086;&#1089;&#1090;&#1072;&#1074;&#1083;&#1103;&#1077;&#1090; &#1076;&#1086;&#1089;&#1090;&#1091;&#1087; &#1082; &#1087;&#1088;&#1086;&#1092;&#1080;&#1083;&#1102; &#1087;&#1086;&#1083;&#1100;&#1079;&#1086;&#1074;&#1072;&#1090;&#1077;&#1083;&#1103;</text><line style="stroke:#000000;stroke-width:1.0;stroke-dasharray:2.0,2.0;" x1="10" x2="1484.5" y1="378.625" y2="378.625"/><text fill="#000000" font-family="sans-serif" font-size="11" font-weight="bold" lengthAdjust="spacing" textLength="250" x="15" y="388.8354">[&#1053;&#1086;&#1084;&#1077;&#1088; &#1085;&#1077; &#1089;&#1091;&#1097;&#1077;&#1089;&#1090;&#1074;&#1091;&#1077;&#1090; &#1074; &#1073;&#1072;&#1079;&#1077; &#1076;&#1072;&#1085;&#1085;&#1099;&#1093;]</text><polygon fill="#000000" points="1024,409.5625,1014,413.5625,1024,417.5625,1020,413.5625" style="stroke:#000000;stroke-width:1.0;"/><line style="stroke:#000000;stroke-width:1.0;" x1="1018" x2="1424.5" y1="413.5625" y2="413.5625"/><text fill="#000000" font-family="sans-serif" font-size="13" lengthAdjust="spacing" textLength="189" x="1030" y="408.4966">&#1053;&#1086;&#1084;&#1077;&#1088; &#1090;&#1077;&#1083;&#1077;&#1092;&#1086;&#1085;&#1072; &#1085;&#1077; &#1085;&#1072;&#1081;&#1076;&#1077;&#1085;</text><polygon fill="#000000" points="86,438.6953,76,442.6953,86,446.6953,82,442.6953" style="stroke:#000000;stroke-width:1.0;"/><line style="stroke:#000000;stroke-width:1.0;" x1="80" x2="1007" y1="442.6953" y2="442.6953"/><text fill="#000000" font-family="sans-serif" font-size="13" lengthAdjust="spacing" textLength="899" x="92" y="437.6294">&#1054;&#1090;&#1086;&#1073;&#1088;&#1072;&#1078;&#1072;&#1077;&#1090; &#1089;&#1086;&#1086;&#1073;&#1097;&#1077;&#1085;&#1080;&#1077; &#1086;&#1073; &#1086;&#1096;&#1080;&#1073;&#1082;&#1077;: &#171;&#1053;&#1077;&#1074;&#1077;&#1088;&#1085;&#1099;&#1081; &#1085;&#1086;&#1084;&#1077;&#1088; &#1090;&#1077;&#1083;&#1077;&#1092;&#1086;&#1085;&#1072;. &#1055;&#1086;&#1078;&#1072;&#1083;&#1091;&#1081;&#1089;&#1090;&#1072;, &#1087;&#1088;&#1086;&#1074;&#1077;&#1088;&#1100;&#1090;&#1077; &#1074;&#1074;&#1077;&#1076;&#1077;&#1085;&#1085;&#1099;&#1077; &#1076;&#1072;&#1085;&#1085;&#1099;&#1077; &#1080; &#1087;&#1086;&#1087;&#1088;&#1086;&#1073;&#1091;&#1081;&#1090;&#1077; &#1089;&#1085;&#1086;&#1074;&#1072;&#187;</text><!--SRC=[jLHDRzD04BtxLrZXMf1QfJJj0IaVvDGRly19JB6QECLsG0XL8Wa5AYfIUYyL4ZSkIOJ1ITf4wY-O_KUysNNYsArfGJIMxEpipdipRtR6tRNiFSCn6ZhUdbMrzWpRqrzhEdu5exgxupHRTgtOh3ST_Luvnu_QQperqmdj-Kr-fBtSj3rbhTJXhkrhxeB1g7gmfs1dinjhnUnLxBNo-lhcnetODSCpAePhtb7ehlcyPThLENpUSPelby-oSTjwQcvRjXd3NrrzcAlKull9s4hvnxboKG6pH6dvgyqKuVOrJUbBPpIbYJYYN_WEgIywvFDQMovmXhxHLBoXS-hhD1G7EFg3-XdTS263qqYS_Kg1Q4iSURulkd9nWNSWtb90OzZUuHj8X7pBU_RabUkP3QqqBqk6FbCV8S4TH7G1vu_YG1ul5MJerWl3CrEZNwYKUk3-8ndwbawd8FY9Q10i-QAZWmsqOtocDAEnwEgNt-a4Yn4dS3c9s1bWmIGNG4rZ1DCN_9_I048oesA3859Pq23LYUX1O3nIu5ZoAxmnnebFuZrGSMx6HEHVvyUndmCVJBeA00imgTo2U7gPABlCRGGx2Na29LR8T8Nd_sWV2swkSQa0tpDanxZW5hsvTremK4UdWRnJVapMg9gbmgAMHjtZs1PWRLpXG_pbMpqKNKMM1iYz1wpb9DEZmej6S4TxICUQULqyQjwetADs0VHnihUuhw176EBisWBq9Dw29mACpvR87ALodDRBk7_OQeFH5nzazHFPfB3SeckupZuacahv-zYTpEiT6f7k3BS6-VALa66XJTBJD-iOCKjbGRp-tHRP_vTA_-qaQSF4naFcW0OWnH8lL2H06cFojtYMdM9VjWtdGgC_jSq35GHJJ239I9LW9LGwRBuZzbBZnrS9Ik1bnNWHg88epu54wqZT9J_omsXD21CRi8cz6qU_QTT-0m00]--></g></svg>